M48
;GenerationSoftware,Autodesk,EAGLE,9.6.2*%
;CreationDate,2023-06-04T19:01:53Z*%
FMAT,2
ICI,OFF
METRIC,TZ,000.000
T6C0.813
T5C1.000
T4C1.016
T3C1.397
T2C3.302
T1C4.750
%
G90
M71
T1
X77470Y61595
X77470Y17145
T2
X33020Y44196
T3
X78270Y7620
X68262Y7620
X60769Y7620
X53276Y7620
X46609Y73025
X52070Y73025
X57531Y73025
T4
X36830Y10160
X29210Y10160
X30480Y29210
X33020Y29210
X35560Y29210
T5
X96015Y31750
X96015Y46990
X58975Y29210
X59055Y49530
X59055Y39370
X92710Y7620
X95250Y7620
X91440Y73660
X93980Y73660
T6
X33528Y72390
X29972Y72390
M30