0
SECTION
2
HEADER
9
$ANGDIR
70
1
9
$AUNITS
70
0
9
$PROJECTNAME
1
Final
9
$TDCREATE
40
2460100.28192566
9
$INSUNITS
70
4
0
ENDSEC
0
SECTION
2
ENTITIES
0
POLYLINE
66
1
8
outline
10
0.0
20
0.0
30
0.0
70
1
0
VERTEX
8
0
10
22.86
20
0
30
0
0
VERTEX
8
0
10
100
20
0
30
0
0
VERTEX
8
0
10
100
20
80
30
0
0
VERTEX
8
0
10
22.86
20
80
30
0
0
VERTEX
8
0
10
22.86
20
0
30
0
0
SEQEND
0
POLYLINE
66
1
8
holes
10
0.0
20
0.0
30
0.0
70
1
0
VERTEX
8
0
10
34.671
20
44.141953125
30
0
0
VERTEX
8
0
10
34.663931250000005
20
44.034087500000005
30
0
0
VERTEX
8
0
10
34.649821875
20
43.926915625
30
0
0
VERTEX
8
0
10
34.62873125
20
43.820896875
30
0
0
VERTEX
8
0
10
34.60075625
20
43.716484375
30
0
0
VERTEX
8
0
10
34.566009375
20
43.614125
30
0
0
VERTEX
8
0
10
34.524640625
20
43.51425625
30
0
0
VERTEX
8
0
10
34.476831250000004
20
43.41730625
30
0
0
VERTEX
8
0
10
34.422784375
20
43.323693750000004
30
0
0
VERTEX
8
0
10
34.362728125000004
20
43.233815625000005
30
0
0
VERTEX
8
0
10
34.296925
20
43.14805625
30
0
0
VERTEX
8
0
10
34.22565
20
43.066784375000005
30
0
0
VERTEX
8
0
10
34.149215625000004
20
42.99035
30
0
0
VERTEX
8
0
10
34.067943750000005
20
42.919075
30
0
0
VERTEX
8
0
10
33.982184375
20
42.853271875000004
30
0
0
VERTEX
8
0
10
33.892306250000004
20
42.793215625
30
0
0
VERTEX
8
0
10
33.79869375
20
42.739168750000005
30
0
0
VERTEX
8
0
10
33.70174375
20
42.691359375000005
30
0
0
VERTEX
8
0
10
33.601875
20
42.649990625
30
0
0
VERTEX
8
0
10
33.499515625
20
42.615243750000005
30
0
0
VERTEX
8
0
10
33.395103125
20
42.58726875
30
0
0
VERTEX
8
0
10
33.289084375
20
42.566178125
30
0
0
VERTEX
8
0
10
33.1819125
20
42.552068750000004
30
0
0
VERTEX
8
0
10
33.074046875
20
42.545
30
0
0
VERTEX
8
0
10
32.965953125
20
42.545
30
0
0
VERTEX
8
0
10
32.8580875
20
42.552068750000004
30
0
0
VERTEX
8
0
10
32.750915625000005
20
42.566178125
30
0
0
VERTEX
8
0
10
32.644896875
20
42.58726875
30
0
0
VERTEX
8
0
10
32.540484375
20
42.615243750000005
30
0
0
VERTEX
8
0
10
32.438125
20
42.649990625
30
0
0
VERTEX
8
0
10
32.33825625
20
42.691359375000005
30
0
0
VERTEX
8
0
10
32.24130625
20
42.739168750000005
30
0
0
VERTEX
8
0
10
32.14769375
20
42.793215625
30
0
0
VERTEX
8
0
10
32.057815625
20
42.853271875000004
30
0
0
VERTEX
8
0
10
31.97205625
20
42.919075
30
0
0
VERTEX
8
0
10
31.890784375000003
20
42.99035
30
0
0
VERTEX
8
0
10
31.81435
20
43.066784375000005
30
0
0
VERTEX
8
0
10
31.743075
20
43.14805625
30
0
0
VERTEX
8
0
10
31.677271875000002
20
43.233815625000005
30
0
0
VERTEX
8
0
10
31.617215625
20
43.323693750000004
30
0
0
VERTEX
8
0
10
31.563168750000003
20
43.41730625
30
0
0
VERTEX
8
0
10
31.515359375000003
20
43.51425625
30
0
0
VERTEX
8
0
10
31.473990625000003
20
43.614125
30
0
0
VERTEX
8
0
10
31.439243750000003
20
43.716484375
30
0
0
VERTEX
8
0
10
31.41126875
20
43.820896875
30
0
0
VERTEX
8
0
10
31.390178125000002
20
43.926915625
30
0
0
VERTEX
8
0
10
31.37606875
20
44.034087500000005
30
0
0
VERTEX
8
0
10
31.369
20
44.141953125
30
0
0
VERTEX
8
0
10
31.369
20
44.250046875
30
0
0
VERTEX
8
0
10
31.37606875
20
44.357912500000005
30
0
0
VERTEX
8
0
10
31.390178125000002
20
44.465084375
30
0
0
VERTEX
8
0
10
31.41126875
20
44.571103125
30
0
0
VERTEX
8
0
10
31.439243750000003
20
44.675515625
30
0
0
VERTEX
8
0
10
31.473990625000003
20
44.777875
30
0
0
VERTEX
8
0
10
31.515359375000003
20
44.87774375
30
0
0
VERTEX
8
0
10
31.563168750000003
20
44.97469375
30
0
0
VERTEX
8
0
10
31.617215625
20
45.06830625
30
0
0
VERTEX
8
0
10
31.677271875000002
20
45.158184375000005
30
0
0
VERTEX
8
0
10
31.743075
20
45.24394375
30
0
0
VERTEX
8
0
10
31.81435
20
45.325215625000006
30
0
0
VERTEX
8
0
10
31.890784375000003
20
45.401650000000004
30
0
0
VERTEX
8
0
10
31.97205625
20
45.472925000000004
30
0
0
VERTEX
8
0
10
32.057815625
20
45.538728125
30
0
0
VERTEX
8
0
10
32.14769375
20
45.598784375
30
0
0
VERTEX
8
0
10
32.24130625
20
45.652831250000006
30
0
0
VERTEX
8
0
10
32.33825625
20
45.700640625000005
30
0
0
VERTEX
8
0
10
32.438125
20
45.742009375
30
0
0
VERTEX
8
0
10
32.540484375
20
45.776756250000005
30
0
0
VERTEX
8
0
10
32.644896875
20
45.80473125
30
0
0
VERTEX
8
0
10
32.750915625000005
20
45.825821875
30
0
0
VERTEX
8
0
10
32.8580875
20
45.83993125
30
0
0
VERTEX
8
0
10
32.965953125
20
45.847
30
0
0
VERTEX
8
0
10
33.074046875
20
45.847
30
0
0
VERTEX
8
0
10
33.1819125
20
45.83993125
30
0
0
VERTEX
8
0
10
33.289084375
20
45.825821875
30
0
0
VERTEX
8
0
10
33.395103125
20
45.80473125
30
0
0
VERTEX
8
0
10
33.499515625
20
45.776756250000005
30
0
0
VERTEX
8
0
10
33.601875
20
45.742009375
30
0
0
VERTEX
8
0
10
33.70174375
20
45.700640625000005
30
0
0
VERTEX
8
0
10
33.79869375
20
45.652831250000006
30
0
0
VERTEX
8
0
10
33.892306250000004
20
45.598784375
30
0
0
VERTEX
8
0
10
33.982184375
20
45.538728125
30
0
0
VERTEX
8
0
10
34.067943750000005
20
45.472925000000004
30
0
0
VERTEX
8
0
10
34.149215625000004
20
45.401650000000004
30
0
0
VERTEX
8
0
10
34.22565
20
45.325215625000006
30
0
0
VERTEX
8
0
10
34.296925
20
45.24394375
30
0
0
VERTEX
8
0
10
34.362728125000004
20
45.158184375000005
30
0
0
VERTEX
8
0
10
34.422784375
20
45.06830625
30
0
0
VERTEX
8
0
10
34.476831250000004
20
44.97469375
30
0
0
VERTEX
8
0
10
34.524640625
20
44.87774375
30
0
0
VERTEX
8
0
10
34.566009375
20
44.777875
30
0
0
VERTEX
8
0
10
34.60075625
20
44.675515625
30
0
0
VERTEX
8
0
10
34.62873125
20
44.571103125
30
0
0
VERTEX
8
0
10
34.649821875
20
44.465084375
30
0
0
VERTEX
8
0
10
34.663931250000005
20
44.357912500000005
30
0
0
VERTEX
8
0
10
34.671
20
44.250046875
30
0
0
VERTEX
8
0
10
34.671
20
44.141953125
30
0
0
SEQEND
0
POLYLINE
66
1
8
holes
10
0.0
20
0.0
30
0.0
70
1
0
VERTEX
8
0
10
77.536634375
20
63.9699
30
0
0
VERTEX
8
0
10
77.669690625
20
63.962428125
30
0
0
VERTEX
8
0
10
77.80211875
20
63.94750625
30
0
0
VERTEX
8
0
10
77.933503125
20
63.925184375
30
0
0
VERTEX
8
0
10
78.063428125
20
63.895528125000006
30
0
0
VERTEX
8
0
10
78.191484375
20
63.8586375
30
0
0
VERTEX
8
0
10
78.31727500000001
20
63.814621875
30
0
0
VERTEX
8
0
10
78.440396875
20
63.763621875000005
30
0
0
VERTEX
8
0
10
78.560465625
20
63.7058
30
0
0
VERTEX
8
0
10
78.677103125
20
63.641337500000006
30
0
0
VERTEX
8
0
10
78.78994375
20
63.570434375000005
30
0
0
VERTEX
8
0
10
78.89863125000001
20
63.493315625
30
0
0
VERTEX
8
0
10
79.00282187500001
20
63.410225000000004
30
0
0
VERTEX
8
0
10
79.102190625
20
63.321425000000005
30
0
0
VERTEX
8
0
10
79.196425
20
63.227190625000006
30
0
0
VERTEX
8
0
10
79.285225
20
63.127821875
30
0
0
VERTEX
8
0
10
79.36831562500001
20
63.02363125
30
0
0
VERTEX
8
0
10
79.445434375
20
62.914943750000006
30
0
0
VERTEX
8
0
10
79.5163375
20
62.802103125
30
0
0
VERTEX
8
0
10
79.58080000000001
20
62.685465625000006
30
0
0
VERTEX
8
0
10
79.638621875
20
62.565396875000005
30
0
0
VERTEX
8
0
10
79.689621875
20
62.442275
30
0
0
VERTEX
8
0
10
79.7336375
20
62.316484375
30
0
0
VERTEX
8
0
10
79.770528125
20
62.188428125
30
0
0
VERTEX
8
0
10
79.800184375
20
62.058503125
30
0
0
VERTEX
8
0
10
79.82250625
20
61.927118750000005
30
0
0
VERTEX
8
0
10
79.837428125
20
61.794690625
30
0
0
VERTEX
8
0
10
79.84490000000001
20
61.661634375000006
30
0
0
VERTEX
8
0
10
79.84490000000001
20
61.528365625000006
30
0
0
VERTEX
8
0
10
79.837428125
20
61.395309375000004
30
0
0
VERTEX
8
0
10
79.82250625
20
61.26288125
30
0
0
VERTEX
8
0
10
79.800184375
20
61.131496875
30
0
0
VERTEX
8
0
10
79.770528125
20
61.001571875
30
0
0
VERTEX
8
0
10
79.7336375
20
60.873515625
30
0
0
VERTEX
8
0
10
79.689621875
20
60.747725
30
0
0
VERTEX
8
0
10
79.638621875
20
60.624603125
30
0
0
VERTEX
8
0
10
79.58080000000001
20
60.504534375000006
30
0
0
VERTEX
8
0
10
79.5163375
20
60.387896875
30
0
0
VERTEX
8
0
10
79.445434375
20
60.275056250000006
30
0
0
VERTEX
8
0
10
79.36831562500001
20
60.166368750000004
30
0
0
VERTEX
8
0
10
79.285225
20
60.062178125
30
0
0
VERTEX
8
0
10
79.196425
20
59.962809375000006
30
0
0
VERTEX
8
0
10
79.102190625
20
59.868575
30
0
0
VERTEX
8
0
10
79.00282187500001
20
59.779775
30
0
0
VERTEX
8
0
10
78.89863125000001
20
59.696684375000004
30
0
0
VERTEX
8
0
10
78.78994375
20
59.619565625
30
0
0
VERTEX
8
0
10
78.677103125
20
59.548662500000006
30
0
0
VERTEX
8
0
10
78.560465625
20
59.4842
30
0
0
VERTEX
8
0
10
78.440396875
20
59.426378125
30
0
0
VERTEX
8
0
10
78.31727500000001
20
59.375378125000005
30
0
0
VERTEX
8
0
10
78.191484375
20
59.331362500000004
30
0
0
VERTEX
8
0
10
78.063428125
20
59.294471875000006
30
0
0
VERTEX
8
0
10
77.933503125
20
59.264815625000004
30
0
0
VERTEX
8
0
10
77.80211875
20
59.24249375
30
0
0
VERTEX
8
0
10
77.669690625
20
59.227571875
30
0
0
VERTEX
8
0
10
77.536634375
20
59.2201
30
0
0
VERTEX
8
0
10
77.403365625
20
59.2201
30
0
0
VERTEX
8
0
10
77.27030937500001
20
59.227571875
30
0
0
VERTEX
8
0
10
77.13788125
20
59.24249375
30
0
0
VERTEX
8
0
10
77.00649687500001
20
59.264815625000004
30
0
0
VERTEX
8
0
10
76.87657187500001
20
59.294471875000006
30
0
0
VERTEX
8
0
10
76.74851562500001
20
59.331362500000004
30
0
0
VERTEX
8
0
10
76.622725
20
59.375378125000005
30
0
0
VERTEX
8
0
10
76.49960312500001
20
59.426378125
30
0
0
VERTEX
8
0
10
76.379534375
20
59.4842
30
0
0
VERTEX
8
0
10
76.26289687500001
20
59.548662500000006
30
0
0
VERTEX
8
0
10
76.15005625
20
59.619565625
30
0
0
VERTEX
8
0
10
76.04136875
20
59.696684375000004
30
0
0
VERTEX
8
0
10
75.937178125
20
59.779775
30
0
0
VERTEX
8
0
10
75.837809375
20
59.868575
30
0
0
VERTEX
8
0
10
75.743575
20
59.962809375000006
30
0
0
VERTEX
8
0
10
75.654775
20
60.062178125
30
0
0
VERTEX
8
0
10
75.571684375
20
60.166368750000004
30
0
0
VERTEX
8
0
10
75.494565625
20
60.275056250000006
30
0
0
VERTEX
8
0
10
75.4236625
20
60.387896875
30
0
0
VERTEX
8
0
10
75.3592
20
60.504534375000006
30
0
0
VERTEX
8
0
10
75.301378125
20
60.624603125
30
0
0
VERTEX
8
0
10
75.250378125
20
60.747725
30
0
0
VERTEX
8
0
10
75.2063625
20
60.873515625
30
0
0
VERTEX
8
0
10
75.169471875
20
61.001571875
30
0
0
VERTEX
8
0
10
75.139815625
20
61.131496875
30
0
0
VERTEX
8
0
10
75.11749375000001
20
61.26288125
30
0
0
VERTEX
8
0
10
75.10257187500001
20
61.395309375000004
30
0
0
VERTEX
8
0
10
75.0951
20
61.528365625000006
30
0
0
VERTEX
8
0
10
75.0951
20
61.661634375000006
30
0
0
VERTEX
8
0
10
75.10257187500001
20
61.794690625
30
0
0
VERTEX
8
0
10
75.11749375000001
20
61.927118750000005
30
0
0
VERTEX
8
0
10
75.139815625
20
62.058503125
30
0
0
VERTEX
8
0
10
75.169471875
20
62.188428125
30
0
0
VERTEX
8
0
10
75.2063625
20
62.316484375
30
0
0
VERTEX
8
0
10
75.250378125
20
62.442275
30
0
0
VERTEX
8
0
10
75.301378125
20
62.565396875000005
30
0
0
VERTEX
8
0
10
75.3592
20
62.685465625000006
30
0
0
VERTEX
8
0
10
75.4236625
20
62.802103125
30
0
0
VERTEX
8
0
10
75.494565625
20
62.914943750000006
30
0
0
VERTEX
8
0
10
75.571684375
20
63.02363125
30
0
0
VERTEX
8
0
10
75.654775
20
63.127821875
30
0
0
VERTEX
8
0
10
75.743575
20
63.227190625000006
30
0
0
VERTEX
8
0
10
75.837809375
20
63.321425000000005
30
0
0
VERTEX
8
0
10
75.937178125
20
63.410225000000004
30
0
0
VERTEX
8
0
10
76.04136875
20
63.493315625
30
0
0
VERTEX
8
0
10
76.15005625
20
63.570434375000005
30
0
0
VERTEX
8
0
10
76.26289687500001
20
63.641337500000006
30
0
0
VERTEX
8
0
10
76.379534375
20
63.7058
30
0
0
VERTEX
8
0
10
76.49960312500001
20
63.763621875000005
30
0
0
VERTEX
8
0
10
76.622725
20
63.814621875
30
0
0
VERTEX
8
0
10
76.74851562500001
20
63.8586375
30
0
0
VERTEX
8
0
10
76.87657187500001
20
63.895528125000006
30
0
0
VERTEX
8
0
10
77.00649687500001
20
63.925184375
30
0
0
VERTEX
8
0
10
77.13788125
20
63.94750625
30
0
0
VERTEX
8
0
10
77.27030937500001
20
63.962428125
30
0
0
VERTEX
8
0
10
77.403365625
20
63.9699
30
0
0
VERTEX
8
0
10
77.536634375
20
63.9699
30
0
0
SEQEND
0
POLYLINE
66
1
8
holes
10
0.0
20
0.0
30
0.0
70
1
0
VERTEX
8
0
10
77.536634375
20
19.5199
30
0
0
VERTEX
8
0
10
77.669690625
20
19.512428125
30
0
0
VERTEX
8
0
10
77.80211875
20
19.49750625
30
0
0
VERTEX
8
0
10
77.933503125
20
19.475184375
30
0
0
VERTEX
8
0
10
78.063428125
20
19.445528125
30
0
0
VERTEX
8
0
10
78.191484375
20
19.4086375
30
0
0
VERTEX
8
0
10
78.31727500000001
20
19.364621875
30
0
0
VERTEX
8
0
10
78.440396875
20
19.313621875000003
30
0
0
VERTEX
8
0
10
78.560465625
20
19.2558
30
0
0
VERTEX
8
0
10
78.677103125
20
19.1913375
30
0
0
VERTEX
8
0
10
78.78994375
20
19.120434375000002
30
0
0
VERTEX
8
0
10
78.89863125000001
20
19.043315625
30
0
0
VERTEX
8
0
10
79.00282187500001
20
18.960225
30
0
0
VERTEX
8
0
10
79.102190625
20
18.871425000000002
30
0
0
VERTEX
8
0
10
79.196425
20
18.777190625
30
0
0
VERTEX
8
0
10
79.285225
20
18.677821875
30
0
0
VERTEX
8
0
10
79.36831562500001
20
18.573631250000002
30
0
0
VERTEX
8
0
10
79.445434375
20
18.46494375
30
0
0
VERTEX
8
0
10
79.5163375
20
18.352103125
30
0
0
VERTEX
8
0
10
79.58080000000001
20
18.235465625
30
0
0
VERTEX
8
0
10
79.638621875
20
18.115396875000002
30
0
0
VERTEX
8
0
10
79.689621875
20
17.992275
30
0
0
VERTEX
8
0
10
79.7336375
20
17.866484375000002
30
0
0
VERTEX
8
0
10
79.770528125
20
17.738428125000002
30
0
0
VERTEX
8
0
10
79.800184375
20
17.608503125000002
30
0
0
VERTEX
8
0
10
79.82250625
20
17.477118750000002
30
0
0
VERTEX
8
0
10
79.837428125
20
17.344690625000002
30
0
0
VERTEX
8
0
10
79.84490000000001
20
17.211634375
30
0
0
VERTEX
8
0
10
79.84490000000001
20
17.078365625
30
0
0
VERTEX
8
0
10
79.837428125
20
16.945309375
30
0
0
VERTEX
8
0
10
79.82250625
20
16.81288125
30
0
0
VERTEX
8
0
10
79.800184375
20
16.681496875
30
0
0
VERTEX
8
0
10
79.770528125
20
16.551571875
30
0
0
VERTEX
8
0
10
79.7336375
20
16.423515625
30
0
0
VERTEX
8
0
10
79.689621875
20
16.297725
30
0
0
VERTEX
8
0
10
79.638621875
20
16.174603125
30
0
0
VERTEX
8
0
10
79.58080000000001
20
16.054534375
30
0
0
VERTEX
8
0
10
79.5163375
20
15.937896875000002
30
0
0
VERTEX
8
0
10
79.445434375
20
15.825056250000001
30
0
0
VERTEX
8
0
10
79.36831562500001
20
15.71636875
30
0
0
VERTEX
8
0
10
79.285225
20
15.612178125000002
30
0
0
VERTEX
8
0
10
79.196425
20
15.512809375000002
30
0
0
VERTEX
8
0
10
79.102190625
20
15.418575
30
0
0
VERTEX
8
0
10
79.00282187500001
20
15.329775000000001
30
0
0
VERTEX
8
0
10
78.89863125000001
20
15.246684375000001
30
0
0
VERTEX
8
0
10
78.78994375
20
15.169565625
30
0
0
VERTEX
8
0
10
78.677103125
20
15.098662500000001
30
0
0
VERTEX
8
0
10
78.560465625
20
15.0342
30
0
0
VERTEX
8
0
10
78.440396875
20
14.976378125
30
0
0
VERTEX
8
0
10
78.31727500000001
20
14.925378125
30
0
0
VERTEX
8
0
10
78.191484375
20
14.8813625
30
0
0
VERTEX
8
0
10
78.063428125
20
14.844471875
30
0
0
VERTEX
8
0
10
77.933503125
20
14.814815625000001
30
0
0
VERTEX
8
0
10
77.80211875
20
14.79249375
30
0
0
VERTEX
8
0
10
77.669690625
20
14.777571875000001
30
0
0
VERTEX
8
0
10
77.536634375
20
14.770100000000001
30
0
0
VERTEX
8
0
10
77.403365625
20
14.770100000000001
30
0
0
VERTEX
8
0
10
77.27030937500001
20
14.777571875000001
30
0
0
VERTEX
8
0
10
77.13788125
20
14.79249375
30
0
0
VERTEX
8
0
10
77.00649687500001
20
14.814815625000001
30
0
0
VERTEX
8
0
10
76.87657187500001
20
14.844471875
30
0
0
VERTEX
8
0
10
76.74851562500001
20
14.8813625
30
0
0
VERTEX
8
0
10
76.622725
20
14.925378125
30
0
0
VERTEX
8
0
10
76.49960312500001
20
14.976378125
30
0
0
VERTEX
8
0
10
76.379534375
20
15.0342
30
0
0
VERTEX
8
0
10
76.26289687500001
20
15.098662500000001
30
0
0
VERTEX
8
0
10
76.15005625
20
15.169565625
30
0
0
VERTEX
8
0
10
76.04136875
20
15.246684375000001
30
0
0
VERTEX
8
0
10
75.937178125
20
15.329775000000001
30
0
0
VERTEX
8
0
10
75.837809375
20
15.418575
30
0
0
VERTEX
8
0
10
75.743575
20
15.512809375000002
30
0
0
VERTEX
8
0
10
75.654775
20
15.612178125000002
30
0
0
VERTEX
8
0
10
75.571684375
20
15.71636875
30
0
0
VERTEX
8
0
10
75.494565625
20
15.825056250000001
30
0
0
VERTEX
8
0
10
75.4236625
20
15.937896875000002
30
0
0
VERTEX
8
0
10
75.3592
20
16.054534375
30
0
0
VERTEX
8
0
10
75.301378125
20
16.174603125
30
0
0
VERTEX
8
0
10
75.250378125
20
16.297725
30
0
0
VERTEX
8
0
10
75.2063625
20
16.423515625
30
0
0
VERTEX
8
0
10
75.169471875
20
16.551571875
30
0
0
VERTEX
8
0
10
75.139815625
20
16.681496875
30
0
0
VERTEX
8
0
10
75.11749375000001
20
16.81288125
30
0
0
VERTEX
8
0
10
75.10257187500001
20
16.945309375
30
0
0
VERTEX
8
0
10
75.0951
20
17.078365625
30
0
0
VERTEX
8
0
10
75.0951
20
17.211634375
30
0
0
VERTEX
8
0
10
75.10257187500001
20
17.344690625000002
30
0
0
VERTEX
8
0
10
75.11749375000001
20
17.477118750000002
30
0
0
VERTEX
8
0
10
75.139815625
20
17.608503125000002
30
0
0
VERTEX
8
0
10
75.169471875
20
17.738428125000002
30
0
0
VERTEX
8
0
10
75.2063625
20
17.866484375000002
30
0
0
VERTEX
8
0
10
75.250378125
20
17.992275
30
0
0
VERTEX
8
0
10
75.301378125
20
18.115396875000002
30
0
0
VERTEX
8
0
10
75.3592
20
18.235465625
30
0
0
VERTEX
8
0
10
75.4236625
20
18.352103125
30
0
0
VERTEX
8
0
10
75.494565625
20
18.46494375
30
0
0
VERTEX
8
0
10
75.571684375
20
18.573631250000002
30
0
0
VERTEX
8
0
10
75.654775
20
18.677821875
30
0
0
VERTEX
8
0
10
75.743575
20
18.777190625
30
0
0
VERTEX
8
0
10
75.837809375
20
18.871425000000002
30
0
0
VERTEX
8
0
10
75.937178125
20
18.960225
30
0
0
VERTEX
8
0
10
76.04136875
20
19.043315625
30
0
0
VERTEX
8
0
10
76.15005625
20
19.120434375000002
30
0
0
VERTEX
8
0
10
76.26289687500001
20
19.1913375
30
0
0
VERTEX
8
0
10
76.379534375
20
19.2558
30
0
0
VERTEX
8
0
10
76.49960312500001
20
19.313621875000003
30
0
0
VERTEX
8
0
10
76.622725
20
19.364621875
30
0
0
VERTEX
8
0
10
76.74851562500001
20
19.4086375
30
0
0
VERTEX
8
0
10
76.87657187500001
20
19.445528125
30
0
0
VERTEX
8
0
10
77.00649687500001
20
19.475184375
30
0
0
VERTEX
8
0
10
77.13788125
20
19.49750625
30
0
0
VERTEX
8
0
10
77.27030937500001
20
19.512428125
30
0
0
VERTEX
8
0
10
77.403365625
20
19.5199
30
0
0
VERTEX
8
0
10
77.536634375
20
19.5199
30
0
0
SEQEND
0
POLYLINE
66
1
8
1_copper
10
0.0
20
0.0
30
0.0
70
1
0
VERTEX
8
0
10
96.03654375
20
31.676909375
30
0
42
0.8660508493283852
0
VERTEX
8
0
10
96.015
20
31.8262
30
0
0
VERTEX
8
0
10
95.885
20
31.8262
30
0
0
VERTEX
8
0
10
95.86345625
20
31.823090625000003
30
0
42
0.8660508493283852
0
VERTEX
8
0
10
95.885
20
31.6738
30
0
0
VERTEX
8
0
10
96.015
20
31.6738
30
0
0
SEQEND
0
POLYLINE
66
1
8
1_copper
10
0.0
20
0.0
30
0.0
70
1
0
VERTEX
8
0
10
92.82076875
20
6.1192625000000005
30
0
42
0.3578058410891132
0
VERTEX
8
0
10
93.464
20
6.828959375
30
0
0
VERTEX
8
0
10
93.464
20
8.411040625
30
0
0
VERTEX
8
0
10
93.4567375
20
8.48476875
30
0
42
0.9063473624237881
0
VERTEX
8
0
10
91.956
20
8.411040625
30
0
0
VERTEX
8
0
10
91.956
20
6.828959375
30
0
0
VERTEX
8
0
10
91.9632625
20
6.7552312500000005
30
0
42
0.3857419132923675
0
VERTEX
8
0
10
92.74704062500001
20
6.112
30
0
0
SEQEND
0
POLYLINE
66
1
8
16_copper
10
0.0
20
0.0
30
0.0
70
1
0
VERTEX
8
0
10
92.82076875
20
6.1192625000000005
30
0
42
0.3578058410891132
0
VERTEX
8
0
10
93.464
20
6.828959375
30
0
0
VERTEX
8
0
10
93.464
20
8.411040625
30
0
0
VERTEX
8
0
10
93.4567375
20
8.48476875
30
0
42
0.3303548646786547
0
VERTEX
8
0
10
92.82076875
20
9.1207375
30
0
0
VERTEX
8
0
10
92.78620000000001
20
9.12414375
30
0
0
VERTEX
8
0
10
92.78620000000001
20
28.4134375
30
0
0
VERTEX
8
0
10
96.06888125
20
31.69611875
30
0
0
VERTEX
8
0
10
96.08191562500001
20
31.71355
30
0
42
0.8660578617248573
0
VERTEX
8
0
10
95.96111875000001
20
31.80388125
30
0
0
VERTEX
8
0
10
92.65611875
20
28.49888125
30
0
0
VERTEX
8
0
10
92.651046875
20
28.492096875
30
0
0
VERTEX
8
0
10
92.64551250000001
20
28.485596875000002
30
0
42
0.08765145259213399
0
VERTEX
8
0
10
92.635509375
20
28.46104375
30
0
0
VERTEX
8
0
10
92.635
20
28.453668750000002
30
0
0
VERTEX
8
0
10
92.63380000000001
20
28.445
30
0
0
VERTEX
8
0
10
92.63380000000001
20
9.12414375
30
0
0
VERTEX
8
0
10
92.59923125
20
9.1207375
30
0
42
0.3578058410891132
0
VERTEX
8
0
10
91.956
20
8.411040625
30
0
0
VERTEX
8
0
10
91.956
20
6.828959375
30
0
0
VERTEX
8
0
10
91.9632625
20
6.7552312500000005
30
0
42
0.3857419132923675
0
VERTEX
8
0
10
92.74704062500001
20
6.112
30
0
0
SEQEND
0
POLYLINE
66
1
8
1_copper
10
0.0
20
0.0
30
0.0
70
1
0
VERTEX
8
0
10
95.36076875
20
6.1192625000000005
30
0
42
0.3578058410891132
0
VERTEX
8
0
10
96.004
20
6.828959375
30
0
0
VERTEX
8
0
10
96.004
20
8.411040625
30
0
0
VERTEX
8
0
10
95.99673750000001
20
8.48476875
30
0
42
0.9063473624237881
0
VERTEX
8
0
10
94.49600000000001
20
8.411040625
30
0
0
VERTEX
8
0
10
94.49600000000001
20
6.828959375
30
0
0
VERTEX
8
0
10
94.5032625
20
6.7552312500000005
30
0
42
0.3857419132923675
0
VERTEX
8
0
10
95.287040625
20
6.112
30
0
0
SEQEND
0
POLYLINE
66
1
8
16_copper
10
0.0
20
0.0
30
0.0
70
1
0
VERTEX
8
0
10
95.36076875
20
6.1192625000000005
30
0
42
0.3578058410891132
0
VERTEX
8
0
10
96.004
20
6.828959375
30
0
0
VERTEX
8
0
10
96.004
20
8.2662375
30
0
0
VERTEX
8
0
10
98.96168125
20
11.223918750000001
30
0
0
VERTEX
8
0
10
98.96675312500001
20
11.230703125
30
0
0
VERTEX
8
0
10
98.97228750000001
20
11.237203125
30
0
42
0.08765145259213399
0
VERTEX
8
0
10
98.982290625
20
11.261756250000001
30
0
0
VERTEX
8
0
10
98.98280000000001
20
11.269131250000001
30
0
0
VERTEX
8
0
10
98.98400000000001
20
11.277800000000001
30
0
0
VERTEX
8
0
10
98.98400000000001
20
46.99
30
0
0
VERTEX
8
0
10
98.9831875
20
46.995618750000006
30
0
42
0.39258815634569955
0
VERTEX
8
0
10
98.90780000000001
20
47.0662
30
0
0
VERTEX
8
0
10
96.015
20
47.0662
30
0
0
VERTEX
8
0
10
95.99345625000001
20
47.063090625
30
0
42
0.8660508493283852
0
VERTEX
8
0
10
96.015
20
46.9138
30
0
0
VERTEX
8
0
10
98.83160000000001
20
46.9138
30
0
0
VERTEX
8
0
10
98.83160000000001
20
11.3093625
30
0
0
VERTEX
8
0
10
95.997659375
20
8.475421875
30
0
0
VERTEX
8
0
10
95.99673750000001
20
8.48476875
30
0
42
0.9063473624237881
0
VERTEX
8
0
10
94.49600000000001
20
8.411040625
30
0
0
VERTEX
8
0
10
94.49600000000001
20
6.828959375
30
0
0
VERTEX
8
0
10
94.5032625
20
6.7552312500000005
30
0
42
0.3857419132923675
0
VERTEX
8
0
10
95.287040625
20
6.112
30
0
0
SEQEND
0
POLYLINE
66
1
8
1_copper
10
0.0
20
0.0
30
0.0
70
1
0
VERTEX
8
0
10
68.399290625
20
5.532475000000001
30
0
42
0.36396949020334257
0
VERTEX
8
0
10
69.31015000000001
20
6.5265031250000005
30
0
0
VERTEX
8
0
10
69.31015000000001
20
8.713496875
30
0
0
VERTEX
8
0
10
69.302175
20
8.804640625000001
30
0
42
0.9163299653151645
0
VERTEX
8
0
10
67.21465
20
8.713496875
30
0
0
VERTEX
8
0
10
67.21465
20
6.5265031250000005
30
0
0
VERTEX
8
0
10
67.22262500000001
20
6.435359375
30
0
42
0.38887859073828895
0
VERTEX
8
0
10
68.308146875
20
5.524500000000001
30
0
0
SEQEND
0
POLYLINE
66
1
8
16_copper
10
0.0
20
0.0
30
0.0
70
1
0
VERTEX
8
0
10
78.80711562500001
20
5.220915625
30
0
0
VERTEX
8
0
10
78.81558125000001
20
5.221596875
30
0
42
0.08765396656356698
0
VERTEX
8
0
10
78.84001875
20
5.23188125
30
0
0
VERTEX
8
0
10
78.8456125
20
5.236753125
30
0
0
VERTEX
8
0
10
78.85256875
20
5.242018750000001
30
0
0
VERTEX
8
0
10
79.60023125000001
20
5.98968125
30
0
0
VERTEX
8
0
10
79.605303125
20
5.996465625
30
0
0
VERTEX
8
0
10
79.6108375
20
6.002965625
30
0
42
0.08765145259213399
0
VERTEX
8
0
10
79.620840625
20
6.0275187500000005
30
0
0
VERTEX
8
0
10
79.62135
20
6.03489375
30
0
0
VERTEX
8
0
10
79.62255
20
6.0435625
30
0
0
VERTEX
8
0
10
79.62255
20
9.1964375
30
0
0
VERTEX
8
0
10
79.621334375
20
9.204865625
30
0
0
VERTEX
8
0
10
79.620653125
20
9.213331250000001
30
0
42
0.08765396656356698
0
VERTEX
8
0
10
79.61036875
20
9.23776875
30
0
0
VERTEX
8
0
10
79.605496875
20
9.2433625
30
0
0
VERTEX
8
0
10
79.60023125000001
20
9.25031875
30
0
0
VERTEX
8
0
10
78.85256875
20
9.99798125
30
0
0
VERTEX
8
0
10
78.84578437500001
20
10.003053125000001
30
0
0
VERTEX
8
0
10
78.839284375
20
10.0085875
30
0
42
0.08765145259213399
0
VERTEX
8
0
10
78.81473125000001
20
10.018590625
30
0
0
VERTEX
8
0
10
78.80735625
20
10.0191
30
0
0
VERTEX
8
0
10
78.7986875
20
10.0203
30
0
0
VERTEX
8
0
10
78.2724625
20
10.0203
30
0
0
VERTEX
8
0
10
59.028881250000005
20
29.26388125
30
0
0
VERTEX
8
0
10
59.01145
20
29.276915625
30
0
42
0.8660578617248573
0
VERTEX
8
0
10
58.921118750000005
20
29.15611875
30
0
0
VERTEX
8
0
10
78.18701875000001
20
9.89021875
30
0
0
VERTEX
8
0
10
78.193803125
20
9.885146875
30
0
0
VERTEX
8
0
10
78.200303125
20
9.8796125
30
0
42
0.08765145259213399
0
VERTEX
8
0
10
78.22485625
20
9.869609375000001
30
0
0
VERTEX
8
0
10
78.23223125
20
9.869100000000001
30
0
0
VERTEX
8
0
10
78.24090000000001
20
9.8679
30
0
0
VERTEX
8
0
10
78.76712500000001
20
9.8679
30
0
0
VERTEX
8
0
10
79.47015
20
9.164875
30
0
0
VERTEX
8
0
10
79.47015
20
6.075125
30
0
0
VERTEX
8
0
10
78.76712500000001
20
5.3721000000000005
30
0
0
VERTEX
8
0
10
77.772875
20
5.3721000000000005
30
0
0
VERTEX
8
0
10
75.47109375000001
20
7.67388125
30
0
0
VERTEX
8
0
10
75.464309375
20
7.6789531250000005
30
0
0
VERTEX
8
0
10
75.457809375
20
7.6844875
30
0
42
0.08765145259213399
0
VERTEX
8
0
10
75.43325625
20
7.694490625
30
0
0
VERTEX
8
0
10
75.42588125
20
7.695
30
0
0
VERTEX
8
0
10
75.4172125
20
7.6962
30
0
0
VERTEX
8
0
10
69.31015000000001
20
7.6962
30
0
0
VERTEX
8
0
10
69.31015000000001
20
8.713496875
30
0
0
VERTEX
8
0
10
69.302175
20
8.804640625000001
30
0
42
0.9163299653151645
0
VERTEX
8
0
10
67.21465
20
8.713496875
30
0
0
VERTEX
8
0
10
67.21465
20
6.5265031250000005
30
0
0
VERTEX
8
0
10
67.22262500000001
20
6.435359375
30
0
42
0.9163299653151645
0
VERTEX
8
0
10
69.31015000000001
20
6.5265031250000005
30
0
0
VERTEX
8
0
10
69.31015000000001
20
7.5438
30
0
0
VERTEX
8
0
10
75.38565
20
7.5438
30
0
0
VERTEX
8
0
10
77.68743125
20
5.242018750000001
30
0
0
VERTEX
8
0
10
77.694215625
20
5.236946875
30
0
0
VERTEX
8
0
10
77.700715625
20
5.2314125
30
0
42
0.08765145259213399
0
VERTEX
8
0
10
77.72526875
20
5.221409375
30
0
0
VERTEX
8
0
10
77.73264375000001
20
5.2209
30
0
0
VERTEX
8
0
10
77.7413125
20
5.2197000000000005
30
0
0
VERTEX
8
0
10
78.7986875
20
5.2197000000000005
30
0
0
SEQEND
0
POLYLINE
66
1
8
1_copper
10
0.0
20
0.0
30
0.0
70
1
0
VERTEX
8
0
10
60.906290625000004
20
5.532475000000001
30
0
42
0.36396949020334257
0
VERTEX
8
0
10
61.817150000000005
20
6.5265031250000005
30
0
0
VERTEX
8
0
10
61.817150000000005
20
8.713496875
30
0
0
VERTEX
8
0
10
61.809175
20
8.804640625000001
30
0
42
0.9163299653151645
0
VERTEX
8
0
10
59.721650000000004
20
8.713496875
30
0
0
VERTEX
8
0
10
59.721650000000004
20
6.5265031250000005
30
0
0
VERTEX
8
0
10
59.729625000000006
20
6.435359375
30
0
42
0.38887859073828895
0
VERTEX
8
0
10
60.815146875
20
5.524500000000001
30
0
0
SEQEND
0
POLYLINE
66
1
8
16_copper
10
0.0
20
0.0
30
0.0
70
1
0
VERTEX
8
0
10
78.933371875
20
4.916115625000001
30
0
0
VERTEX
8
0
10
78.9418375
20
4.916796875
30
0
42
0.08765396656356698
0
VERTEX
8
0
10
78.96627500000001
20
4.9270812500000005
30
0
0
VERTEX
8
0
10
78.97186875
20
4.931953125000001
30
0
0
VERTEX
8
0
10
78.978825
20
4.93721875
30
0
0
VERTEX
8
0
10
79.90503125000001
20
5.863425
30
0
0
VERTEX
8
0
10
79.910103125
20
5.870209375
30
0
0
VERTEX
8
0
10
79.9156375
20
5.876709375
30
0
42
0.08765145259213399
0
VERTEX
8
0
10
79.925640625
20
5.9012625000000005
30
0
0
VERTEX
8
0
10
79.92615
20
5.9086375
30
0
0
VERTEX
8
0
10
79.92735
20
5.91730625
30
0
0
VERTEX
8
0
10
79.92735
20
9.322693750000001
30
0
0
VERTEX
8
0
10
79.926134375
20
9.331121875000001
30
0
0
VERTEX
8
0
10
79.925453125
20
9.3395875
30
0
42
0.08765396656356698
0
VERTEX
8
0
10
79.91516875
20
9.364025
30
0
0
VERTEX
8
0
10
79.910296875
20
9.36961875
30
0
0
VERTEX
8
0
10
79.90503125000001
20
9.376575
30
0
0
VERTEX
8
0
10
60.845600000000005
20
28.436006250000002
30
0
0
VERTEX
8
0
10
60.845600000000005
20
47.8156
30
0
0
VERTEX
8
0
10
60.844384375000004
20
47.824028125000005
30
0
0
VERTEX
8
0
10
60.843703125000005
20
47.832493750000005
30
0
42
0.08765396656356698
0
VERTEX
8
0
10
60.83341875
20
47.85693125
30
0
0
VERTEX
8
0
10
60.828546875
20
47.862525000000005
30
0
0
VERTEX
8
0
10
60.82328125
20
47.86948125
30
0
0
VERTEX
8
0
10
59.10888125
20
49.583881250000005
30
0
0
VERTEX
8
0
10
59.09145
20
49.596915625
30
0
42
0.8660578617248573
0
VERTEX
8
0
10
59.00111875
20
49.476118750000005
30
0
0
VERTEX
8
0
10
60.693200000000004
20
47.784037500000004
30
0
0
VERTEX
8
0
10
60.693200000000004
20
28.404443750000002
30
0
0
VERTEX
8
0
10
60.694415625000005
20
28.396015625
30
0
0
VERTEX
8
0
10
60.695096875000004
20
28.38755
30
0
42
0.08765396656356698
0
VERTEX
8
0
10
60.70538125
20
28.3631125
30
0
0
VERTEX
8
0
10
60.710253125
20
28.35751875
30
0
0
VERTEX
8
0
10
60.71551875
20
28.350562500000002
30
0
0
VERTEX
8
0
10
79.77495
20
9.291131250000001
30
0
0
VERTEX
8
0
10
79.77495
20
5.94886875
30
0
0
VERTEX
8
0
10
78.89338125
20
5.0673
30
0
0
VERTEX
8
0
10
68.070075
20
5.0673
30
0
0
VERTEX
8
0
10
65.46349375
20
7.67388125
30
0
0
VERTEX
8
0
10
65.456709375
20
7.6789531250000005
30
0
0
VERTEX
8
0
10
65.450209375
20
7.6844875
30
0
42
0.08765145259213399
0
VERTEX
8
0
10
65.42565625
20
7.694490625
30
0
0
VERTEX
8
0
10
65.41828125
20
7.695
30
0
0
VERTEX
8
0
10
65.40961250000001
20
7.6962
30
0
0
VERTEX
8
0
10
61.817150000000005
20
7.6962
30
0
0
VERTEX
8
0
10
61.817150000000005
20
8.713496875
30
0
0
VERTEX
8
0
10
61.809175
20
8.804640625000001
30
0
42
0.9163299653151645
0
VERTEX
8
0
10
59.721650000000004
20
8.713496875
30
0
0
VERTEX
8
0
10
59.721650000000004
20
6.5265031250000005
30
0
0
VERTEX
8
0
10
59.729625000000006
20
6.435359375
30
0
42
0.9163299653151645
0
VERTEX
8
0
10
61.817150000000005
20
6.5265031250000005
30
0
0
VERTEX
8
0
10
61.817150000000005
20
7.5438
30
0
0
VERTEX
8
0
10
65.37805
20
7.5438
30
0
0
VERTEX
8
0
10
67.98463125
20
4.93721875
30
0
0
VERTEX
8
0
10
67.991415625
20
4.932146875
30
0
0
VERTEX
8
0
10
67.997915625
20
4.9266125
30
0
42
0.08765145259213399
0
VERTEX
8
0
10
68.02246875
20
4.916609375
30
0
0
VERTEX
8
0
10
68.02984375
20
4.9161
30
0
0
VERTEX
8
0
10
68.03851250000001
20
4.9149
30
0
0
VERTEX
8
0
10
78.92494375
20
4.9149
30
0
0
SEQEND
0
POLYLINE
66
1
8
1_copper
10
0.0
20
0.0
30
0.0
70
1
0
VERTEX
8
0
10
52.206890625
20
70.937475
30
0
42
0.36396949020334257
0
VERTEX
8
0
10
53.11775
20
71.931503125
30
0
0
VERTEX
8
0
10
53.11775
20
74.118496875
30
0
0
VERTEX
8
0
10
53.109775
20
74.209640625
30
0
42
0.9163299653151645
0
VERTEX
8
0
10
51.02225
20
74.118496875
30
0
0
VERTEX
8
0
10
51.02225
20
71.931503125
30
0
0
VERTEX
8
0
10
51.030225
20
71.840359375
30
0
42
0.38887859073828895
0
VERTEX
8
0
10
52.115746875
20
70.9295
30
0
0
SEQEND
0
POLYLINE
66
1
8
1_copper
10
0.0
20
0.0
30
0.0
70
1
0
VERTEX
8
0
10
30.591943750000002
20
27.693337500000002
30
0
42
0.3578057741447831
0
VERTEX
8
0
10
31.242
20
28.410565625
30
0
0
VERTEX
8
0
10
31.242
20
30.009434375
30
0
0
VERTEX
8
0
10
31.234662500000002
20
30.083943750000003
30
0
42
0.9063472543261978
0
VERTEX
8
0
10
29.718
20
30.009434375
30
0
0
VERTEX
8
0
10
29.718
20
28.410565625
30
0
0
VERTEX
8
0
10
29.725337500000002
20
28.336056250000002
30
0
42
0.38574240611503685
0
VERTEX
8
0
10
30.517434375
20
27.686
30
0
0
SEQEND
0
POLYLINE
66
1
8
1_copper
10
0.0
20
0.0
30
0.0
70
1
0
VERTEX
8
0
10
78.406890625
20
5.532475000000001
30
0
42
0.36396949020334257
0
VERTEX
8
0
10
79.31775
20
6.5265031250000005
30
0
0
VERTEX
8
0
10
79.31775
20
8.713496875
30
0
0
VERTEX
8
0
10
79.309775
20
8.804640625000001
30
0
42
0.9163299653151645
0
VERTEX
8
0
10
77.22225
20
8.713496875
30
0
0
VERTEX
8
0
10
77.22225
20
8.6105125
30
0
0
VERTEX
8
0
10
73.71388125
20
12.118881250000001
30
0
0
VERTEX
8
0
10
73.69645
20
12.131915625000001
30
0
42
0.8660578617248573
0
VERTEX
8
0
10
73.60611875000001
20
12.011118750000001
30
0
0
VERTEX
8
0
10
77.22225
20
8.394987500000001
30
0
0
VERTEX
8
0
10
77.22225
20
6.5265031250000005
30
0
0
VERTEX
8
0
10
77.230225
20
6.435359375
30
0
42
0.38887859073828895
0
VERTEX
8
0
10
78.315746875
20
5.524500000000001
30
0
0
SEQEND
0
POLYLINE
66
1
8
16_copper
10
0.0
20
0.0
30
0.0
70
1
0
VERTEX
8
0
10
53.813515625
20
5.220915625
30
0
0
VERTEX
8
0
10
53.82198125
20
5.221596875
30
0
42
0.08765396656356698
0
VERTEX
8
0
10
53.846418750000005
20
5.23188125
30
0
0
VERTEX
8
0
10
53.8520125
20
5.236753125
30
0
0
VERTEX
8
0
10
53.85896875
20
5.242018750000001
30
0
0
VERTEX
8
0
10
54.60663125
20
5.98968125
30
0
0
VERTEX
8
0
10
54.611703125000005
20
5.996465625
30
0
0
VERTEX
8
0
10
54.6172375
20
6.002965625
30
0
42
0.08765145259213399
0
VERTEX
8
0
10
54.627240625000006
20
6.0275187500000005
30
0
0
VERTEX
8
0
10
54.627750000000006
20
6.03489375
30
0
0
VERTEX
8
0
10
54.62895
20
6.0435625
30
0
0
VERTEX
8
0
10
54.62895
20
9.1964375
30
0
0
VERTEX
8
0
10
54.627734375
20
9.204865625
30
0
0
VERTEX
8
0
10
54.627053125
20
9.213331250000001
30
0
42
0.08765396656356698
0
VERTEX
8
0
10
54.616768750000006
20
9.23776875
30
0
0
VERTEX
8
0
10
54.611896875
20
9.2433625
30
0
0
VERTEX
8
0
10
54.60663125
20
9.25031875
30
0
0
VERTEX
8
0
10
51.83966875
20
12.01728125
30
0
0
VERTEX
8
0
10
51.832884375
20
12.022353125
30
0
0
VERTEX
8
0
10
51.826384375
20
12.0278875
30
0
42
0.08765145259213399
0
VERTEX
8
0
10
51.80183125
20
12.037890625000001
30
0
0
VERTEX
8
0
10
51.79445625
20
12.038400000000001
30
0
0
VERTEX
8
0
10
51.785787500000005
20
12.0396
30
0
0
VERTEX
8
0
10
33.132737500000005
20
12.0396
30
0
0
VERTEX
8
0
10
33.124309375
20
12.038384375
30
0
0
VERTEX
8
0
10
33.11584375
20
12.037703125
30
0
42
0.08765396656356698
0
VERTEX
8
0
10
33.09140625
20
12.02741875
30
0
0
VERTEX
8
0
10
33.0858125
20
12.022546875
30
0
0
VERTEX
8
0
10
33.07885625
20
12.01728125
30
0
0
VERTEX
8
0
10
31.297775
20
10.2362
30
0
0
VERTEX
8
0
10
29.3939625
20
10.2362
30
0
0
VERTEX
8
0
10
32.416562500000005
20
13.2588
30
0
0
VERTEX
8
0
10
72.35843750000001
20
13.2588
30
0
0
VERTEX
8
0
10
77.22225
20
8.394987500000001
30
0
0
VERTEX
8
0
10
77.22225
20
6.5265031250000005
30
0
0
VERTEX
8
0
10
77.230225
20
6.435359375
30
0
42
0.9163299653151645
0
VERTEX
8
0
10
79.31775
20
6.5265031250000005
30
0
0
VERTEX
8
0
10
79.31775
20
8.713496875
30
0
0
VERTEX
8
0
10
79.309775
20
8.804640625000001
30
0
42
0.9163299653151645
0
VERTEX
8
0
10
77.22225
20
8.713496875
30
0
0
VERTEX
8
0
10
77.22225
20
8.6105125
30
0
0
VERTEX
8
0
10
72.44388125
20
13.38888125
30
0
0
VERTEX
8
0
10
72.43709687500001
20
13.393953125000001
30
0
0
VERTEX
8
0
10
72.430596875
20
13.399487500000001
30
0
42
0.08765145259213399
0
VERTEX
8
0
10
72.40604375000001
20
13.409490625
30
0
0
VERTEX
8
0
10
72.39866875
20
13.41
30
0
0
VERTEX
8
0
10
72.39
20
13.411200000000001
30
0
0
VERTEX
8
0
10
32.385
20
13.411200000000001
30
0
0
VERTEX
8
0
10
32.376571875
20
13.409984375
30
0
0
VERTEX
8
0
10
32.368106250000004
20
13.409303125000001
30
0
42
0.08765396656356698
0
VERTEX
8
0
10
32.34366875
20
13.39901875
30
0
0
VERTEX
8
0
10
32.338075
20
13.394146875
30
0
0
VERTEX
8
0
10
32.33111875
20
13.38888125
30
0
0
VERTEX
8
0
10
29.15611875
20
10.21388125
30
0
0
VERTEX
8
0
10
29.154415625000002
20
10.211603125
30
0
0
VERTEX
8
0
10
29.15225625
20
10.209721875
30
0
42
0.5484095900174472
0
VERTEX
8
0
10
29.18929375
20
10.086668750000001
30
0
0
VERTEX
8
0
10
29.19795625
20
10.08546875
30
0
0
VERTEX
8
0
10
29.205196875000002
20
10.083953125
30
0
42
0.015770375218223928
0
VERTEX
8
0
10
29.21
20
10.0838
30
0
0
VERTEX
8
0
10
31.3293375
20
10.0838
30
0
0
VERTEX
8
0
10
31.337765625000003
20
10.085015625
30
0
0
VERTEX
8
0
10
31.346231250000002
20
10.085696875
30
0
42
0.08765396656356698
0
VERTEX
8
0
10
31.37066875
20
10.095981250000001
30
0
0
VERTEX
8
0
10
31.376262500000003
20
10.100853125
30
0
0
VERTEX
8
0
10
31.38321875
20
10.10611875
30
0
0
VERTEX
8
0
10
33.164300000000004
20
11.8872
30
0
0
VERTEX
8
0
10
51.754225000000005
20
11.8872
30
0
0
VERTEX
8
0
10
54.47655
20
9.164875
30
0
0
VERTEX
8
0
10
54.47655
20
6.075125
30
0
0
VERTEX
8
0
10
53.773525
20
5.3721000000000005
30
0
0
VERTEX
8
0
10
31.124212500000002
20
5.3721000000000005
30
0
0
VERTEX
8
0
10
27.178
20
9.318312500000001
30
0
0
VERTEX
8
0
10
27.178
20
25.8002375
30
0
0
VERTEX
8
0
10
29.72430625
20
28.346543750000002
30
0
0
VERTEX
8
0
10
29.725337500000002
20
28.336056250000002
30
0
42
0.9063472543261978
0
VERTEX
8
0
10
31.242
20
28.410565625
30
0
0
VERTEX
8
0
10
31.242
20
30.009434375
30
0
0
VERTEX
8
0
10
31.234662500000002
20
30.083943750000003
30
0
42
0.33035527466323844
0
VERTEX
8
0
10
30.591943750000002
20
30.7266625
30
0
0
VERTEX
8
0
10
30.5562
20
30.73018125
30
0
0
VERTEX
8
0
10
30.5562
20
40.7012625
30
0
0
VERTEX
8
0
10
30.554984375
20
40.709690625
30
0
0
VERTEX
8
0
10
30.554303125
20
40.71815625
30
0
42
0.08765396656356698
0
VERTEX
8
0
10
30.544018750000003
20
40.742593750000005
30
0
0
VERTEX
8
0
10
30.539146875
20
40.7481875
30
0
0
VERTEX
8
0
10
30.53388125
20
40.75514375
30
0
0
VERTEX
8
0
10
28.829
20
42.460025
30
0
0
VERTEX
8
0
10
28.829
20
72.59404375
30
0
0
VERTEX
8
0
10
31.507856250000003
20
75.2729
30
0
0
VERTEX
8
0
10
47.106125000000006
20
75.2729
30
0
0
VERTEX
8
0
10
49.40790625
20
72.97111875
30
0
0
VERTEX
8
0
10
49.414690625000006
20
72.966046875
30
0
0
VERTEX
8
0
10
49.421190625
20
72.96051250000001
30
0
42
0.08765145259213399
0
VERTEX
8
0
10
49.445743750000005
20
72.95050937500001
30
0
0
VERTEX
8
0
10
49.45311875
20
72.95
30
0
0
VERTEX
8
0
10
49.4617875
20
72.9488
30
0
0
VERTEX
8
0
10
51.02225
20
72.9488
30
0
0
VERTEX
8
0
10
51.02225
20
71.931503125
30
0
0
VERTEX
8
0
10
51.030225
20
71.840359375
30
0
42
0.9163299653151645
0
VERTEX
8
0
10
53.11775
20
71.931503125
30
0
0
VERTEX
8
0
10
53.11775
20
74.118496875
30
0
0
VERTEX
8
0
10
53.109775
20
74.209640625
30
0
42
0.9163299653151645
0
VERTEX
8
0
10
51.02225
20
74.118496875
30
0
0
VERTEX
8
0
10
51.02225
20
73.1012
30
0
0
VERTEX
8
0
10
49.49335
20
73.1012
30
0
0
VERTEX
8
0
10
47.19156875
20
75.40298125000001
30
0
0
VERTEX
8
0
10
47.184784375
20
75.40805312500001
30
0
0
VERTEX
8
0
10
47.178284375000004
20
75.4135875
30
0
42
0.08765145259213399
0
VERTEX
8
0
10
47.15373125
20
75.423590625
30
0
0
VERTEX
8
0
10
47.146356250000004
20
75.42410000000001
30
0
0
VERTEX
8
0
10
47.137687500000006
20
75.42530000000001
30
0
0
VERTEX
8
0
10
31.47629375
20
75.42530000000001
30
0
0
VERTEX
8
0
10
31.467865625
20
75.424084375
30
0
0
VERTEX
8
0
10
31.459400000000002
20
75.42340312500001
30
0
42
0.08765396656356698
0
VERTEX
8
0
10
31.4349625
20
75.41311875000001
30
0
0
VERTEX
8
0
10
31.429368750000002
20
75.408246875
30
0
0
VERTEX
8
0
10
31.4224125
20
75.40298125000001
30
0
0
VERTEX
8
0
10
28.69891875
20
72.67948750000001
30
0
0
VERTEX
8
0
10
28.693846875000002
20
72.672703125
30
0
0
VERTEX
8
0
10
28.688312500000002
20
72.66620312500001
30
0
42
0.08765145259213399
0
VERTEX
8
0
10
28.678309375
20
72.64165
30
0
0
VERTEX
8
0
10
28.6778
20
72.634275
30
0
0
VERTEX
8
0
10
28.6766
20
72.62560625
30
0
0
VERTEX
8
0
10
28.6766
20
42.4284625
30
0
0
VERTEX
8
0
10
28.677815625
20
42.420034375
30
0
0
VERTEX
8
0
10
28.678496875
20
42.41156875
30
0
42
0.08765396656356698
0
VERTEX
8
0
10
28.68878125
20
42.38713125
30
0
0
VERTEX
8
0
10
28.693653125
20
42.3815375
30
0
0
VERTEX
8
0
10
28.69891875
20
42.37458125
30
0
0
VERTEX
8
0
10
30.4038
20
40.6697
30
0
0
VERTEX
8
0
10
30.4038
20
30.73018125
30
0
0
VERTEX
8
0
10
30.368056250000002
20
30.7266625
30
0
42
0.3578057741447831
0
VERTEX
8
0
10
29.718
20
30.009434375
30
0
0
VERTEX
8
0
10
29.718
20
28.5557625
30
0
0
VERTEX
8
0
10
27.04791875
20
25.88568125
30
0
0
VERTEX
8
0
10
27.042846875000002
20
25.878896875000002
30
0
0
VERTEX
8
0
10
27.037312500000002
20
25.872396875
30
0
42
0.08765145259213399
0
VERTEX
8
0
10
27.027309375
20
25.847843750000003
30
0
0
VERTEX
8
0
10
27.0268
20
25.840468750000003
30
0
0
VERTEX
8
0
10
27.0256
20
25.8318
30
0
0
VERTEX
8
0
10
27.0256
20
9.28675
30
0
0
VERTEX
8
0
10
27.026815625
20
9.278321875
30
0
0
VERTEX
8
0
10
27.027496875
20
9.26985625
30
0
42
0.08765396656356698
0
VERTEX
8
0
10
27.037781250000002
20
9.24541875
30
0
0
VERTEX
8
0
10
27.042653125
20
9.239825
30
0
0
VERTEX
8
0
10
27.04791875
20
9.23286875
30
0
0
VERTEX
8
0
10
31.038768750000003
20
5.242018750000001
30
0
0
VERTEX
8
0
10
31.045553125
20
5.236946875
30
0
0
VERTEX
8
0
10
31.052053125
20
5.2314125
30
0
42
0.08765145259213399
0
VERTEX
8
0
10
31.07660625
20
5.221409375
30
0
0
VERTEX
8
0
10
31.08398125
20
5.2209
30
0
0
VERTEX
8
0
10
31.092650000000003
20
5.2197000000000005
30
0
0
VERTEX
8
0
10
53.8050875
20
5.2197000000000005
30
0
0
SEQEND
0
POLYLINE
66
1
8
1_copper
10
0.0
20
0.0
30
0.0
70
1
0
VERTEX
8
0
10
94.09076875000001
20
72.1592625
30
0
42
0.3578058410891132
0
VERTEX
8
0
10
94.73400000000001
20
72.868959375
30
0
0
VERTEX
8
0
10
94.73400000000001
20
74.451040625
30
0
0
VERTEX
8
0
10
94.7267375
20
74.52476875
30
0
42
0.9063473624237881
0
VERTEX
8
0
10
93.226
20
74.451040625
30
0
0
VERTEX
8
0
10
93.226
20
72.868959375
30
0
0
VERTEX
8
0
10
93.23326250000001
20
72.79523125
30
0
42
0.3857419132923675
0
VERTEX
8
0
10
94.017040625
20
72.152
30
0
0
SEQEND
0
POLYLINE
66
1
8
1_copper
10
0.0
20
0.0
30
0.0
70
1
0
VERTEX
8
0
10
34.3281
20
72.05859062500001
30
0
0
VERTEX
8
0
10
34.3281
20
72.72140937500001
30
0
0
VERTEX
8
0
10
33.859409375
20
73.1901
30
0
0
VERTEX
8
0
10
33.196590625
20
73.1901
30
0
0
VERTEX
8
0
10
32.7279
20
72.72140937500001
30
0
0
VERTEX
8
0
10
32.7279
20
72.05859062500001
30
0
0
VERTEX
8
0
10
33.196590625
20
71.5899
30
0
0
VERTEX
8
0
10
33.859409375
20
71.5899
30
0
0
SEQEND
0
POLYLINE
66
1
8
1_copper
10
0.0
20
0.0
30
0.0
70
1
0
VERTEX
8
0
10
33.131943750000005
20
27.693337500000002
30
0
42
0.3578057741447831
0
VERTEX
8
0
10
33.782000000000004
20
28.410565625
30
0
0
VERTEX
8
0
10
33.782000000000004
20
30.009434375
30
0
0
VERTEX
8
0
10
33.774662500000005
20
30.083943750000003
30
0
42
0.9063472543261978
0
VERTEX
8
0
10
32.258
20
30.009434375
30
0
0
VERTEX
8
0
10
32.258
20
28.410565625
30
0
0
VERTEX
8
0
10
32.2653375
20
28.336056250000002
30
0
42
0.38574240611503685
0
VERTEX
8
0
10
33.057434375
20
27.686
30
0
0
SEQEND
0
POLYLINE
66
1
8
1_copper
10
0.0
20
0.0
30
0.0
70
1
0
VERTEX
8
0
10
38.4048
20
9.507696875
30
0
0
VERTEX
8
0
10
38.4048
20
10.812303125
30
0
0
VERTEX
8
0
10
37.482303125
20
11.7348
30
0
0
VERTEX
8
0
10
36.177696875
20
11.7348
30
0
0
VERTEX
8
0
10
35.2552
20
10.812303125
30
0
0
VERTEX
8
0
10
35.2552
20
9.507696875
30
0
0
VERTEX
8
0
10
36.177696875
20
8.5852
30
0
0
VERTEX
8
0
10
37.482303125
20
8.5852
30
0
0
SEQEND
0
POLYLINE
66
1
8
1_copper
10
0.0
20
0.0
30
0.0
70
1
0
VERTEX
8
0
10
53.413290625
20
5.532475000000001
30
0
42
0.36396949020334257
0
VERTEX
8
0
10
54.32415
20
6.5265031250000005
30
0
0
VERTEX
8
0
10
54.32415
20
8.713496875
30
0
0
VERTEX
8
0
10
54.316175
20
8.804640625000001
30
0
42
0.9163299653151645
0
VERTEX
8
0
10
52.22865
20
8.713496875
30
0
0
VERTEX
8
0
10
52.22865
20
6.5265031250000005
30
0
0
VERTEX
8
0
10
52.236625000000004
20
6.435359375
30
0
42
0.38887859073828895
0
VERTEX
8
0
10
53.322146875
20
5.524500000000001
30
0
0
SEQEND
0
POLYLINE
66
1
8
16_copper
10
0.0
20
0.0
30
0.0
70
1
0
VERTEX
8
0
10
34.2111375
20
71.94162812500001
30
0
0
VERTEX
8
0
10
34.3281
20
72.05859062500001
30
0
0
VERTEX
8
0
10
34.3281
20
72.72140937500001
30
0
0
VERTEX
8
0
10
33.859409375
20
73.1901
30
0
0
VERTEX
8
0
10
33.196590625
20
73.1901
30
0
0
VERTEX
8
0
10
32.7279
20
72.72140937500001
30
0
0
VERTEX
8
0
10
32.7279
20
72.05859062500001
30
0
0
VERTEX
8
0
10
33.196590625
20
71.5899
30
0
0
VERTEX
8
0
10
33.859409375
20
71.5899
30
0
0
VERTEX
8
0
10
34.103375
20
71.833865625
30
0
0
VERTEX
8
0
10
35.50611875
20
70.43111875000001
30
0
0
VERTEX
8
0
10
35.512903125
20
70.426046875
30
0
0
VERTEX
8
0
10
35.519403125000004
20
70.4205125
30
0
42
0.08765145259213399
0
VERTEX
8
0
10
35.54395625
20
70.410509375
30
0
0
VERTEX
8
0
10
35.551331250000004
20
70.41
30
0
0
VERTEX
8
0
10
35.56
20
70.4088
30
0
0
VERTEX
8
0
10
43.1038
20
70.4088
30
0
0
VERTEX
8
0
10
43.1038
20
39.401562500000004
30
0
0
VERTEX
8
0
10
33.77569375
20
30.073456250000003
30
0
0
VERTEX
8
0
10
33.774662500000005
20
30.083943750000003
30
0
42
0.9063472543261978
0
VERTEX
8
0
10
32.258
20
30.009434375
30
0
0
VERTEX
8
0
10
32.258
20
28.410565625
30
0
0
VERTEX
8
0
10
32.2653375
20
28.336056250000002
30
0
42
0.9063472543261978
0
VERTEX
8
0
10
33.782000000000004
20
28.410565625
30
0
0
VERTEX
8
0
10
33.782000000000004
20
29.4871625
30
0
0
VERTEX
8
0
10
35.1812375
20
30.886400000000002
30
0
0
VERTEX
8
0
10
35.9387625
20
30.886400000000002
30
0
0
VERTEX
8
0
10
36.4744
20
30.350762500000002
30
0
0
VERTEX
8
0
10
36.4744
20
28.0692375
30
0
0
VERTEX
8
0
10
27.35271875
20
18.94755625
30
0
0
VERTEX
8
0
10
27.347646875000002
20
18.940771875
30
0
0
VERTEX
8
0
10
27.342112500000002
20
18.934271875
30
0
42
0.08765145259213399
0
VERTEX
8
0
10
27.332109375
20
18.90971875
30
0
0
VERTEX
8
0
10
27.3316
20
18.90234375
30
0
0
VERTEX
8
0
10
27.3304
20
18.893675
30
0
0
VERTEX
8
0
10
27.3304
20
9.41300625
30
0
0
VERTEX
8
0
10
27.331615625
20
9.404578125
30
0
0
VERTEX
8
0
10
27.332296875
20
9.396112500000001
30
0
42
0.08765396656356698
0
VERTEX
8
0
10
27.342581250000002
20
9.371675
30
0
0
VERTEX
8
0
10
27.347453125
20
9.36608125
30
0
0
VERTEX
8
0
10
27.35271875
20
9.359125
30
0
0
VERTEX
8
0
10
28.409125000000003
20
8.30271875
30
0
0
VERTEX
8
0
10
28.415909375000002
20
8.297646875
30
0
0
VERTEX
8
0
10
28.422409375
20
8.2921125
30
0
42
0.08765145259213399
0
VERTEX
8
0
10
28.4469625
20
8.282109375000001
30
0
0
VERTEX
8
0
10
28.4543375
20
8.281600000000001
30
0
0
VERTEX
8
0
10
28.463006250000003
20
8.2804
30
0
0
VERTEX
8
0
10
29.956993750000002
20
8.2804
30
0
0
VERTEX
8
0
10
29.965421875
20
8.281615625
30
0
0
VERTEX
8
0
10
29.9738875
20
8.282296875
30
0
42
0.08765396656356698
0
VERTEX
8
0
10
29.998325
20
8.29258125
30
0
0
VERTEX
8
0
10
30.00391875
20
8.297453125
30
0
0
VERTEX
8
0
10
30.010875000000002
20
8.30271875
30
0
0
VERTEX
8
0
10
31.791956250000002
20
10.0838
30
0
0
VERTEX
8
0
10
35.2552
20
10.0838
30
0
0
VERTEX
8
0
10
35.2552
20
9.507696875
30
0
0
VERTEX
8
0
10
36.177696875
20
8.5852
30
0
0
VERTEX
8
0
10
37.482303125
20
8.5852
30
0
0
VERTEX
8
0
10
38.4048
20
9.507696875
30
0
0
VERTEX
8
0
10
38.4048
20
10.0838
30
0
0
VERTEX
8
0
10
50.1334375
20
10.0838
30
0
0
VERTEX
8
0
10
52.22865
20
7.9885875
30
0
0
VERTEX
8
0
10
52.22865
20
6.5265031250000005
30
0
0
VERTEX
8
0
10
52.236625000000004
20
6.435359375
30
0
42
0.9163299653151645
0
VERTEX
8
0
10
54.32415
20
6.5265031250000005
30
0
0
VERTEX
8
0
10
54.32415
20
8.713496875
30
0
0
VERTEX
8
0
10
54.316175
20
8.804640625000001
30
0
42
0.9163299653151645
0
VERTEX
8
0
10
52.22865
20
8.713496875
30
0
0
VERTEX
8
0
10
52.22865
20
8.2041125
30
0
0
VERTEX
8
0
10
50.21888125
20
10.21388125
30
0
0
VERTEX
8
0
10
50.212096875
20
10.218953125
30
0
0
VERTEX
8
0
10
50.205596875000005
20
10.2244875
30
0
42
0.08765145259213399
0
VERTEX
8
0
10
50.18104375
20
10.234490625000001
30
0
0
VERTEX
8
0
10
50.173668750000004
20
10.235000000000001
30
0
0
VERTEX
8
0
10
50.165
20
10.2362
30
0
0
VERTEX
8
0
10
38.4048
20
10.2362
30
0
0
VERTEX
8
0
10
38.4048
20
10.812303125
30
0
0
VERTEX
8
0
10
37.482303125
20
11.7348
30
0
0
VERTEX
8
0
10
36.177696875
20
11.7348
30
0
0
VERTEX
8
0
10
35.2552
20
10.812303125
30
0
0
VERTEX
8
0
10
35.2552
20
10.2362
30
0
0
VERTEX
8
0
10
31.760393750000002
20
10.2362
30
0
0
VERTEX
8
0
10
31.751965625
20
10.234984375
30
0
0
VERTEX
8
0
10
31.7435
20
10.234303125
30
0
42
0.08765396656356698
0
VERTEX
8
0
10
31.719062500000003
20
10.22401875
30
0
0
VERTEX
8
0
10
31.71346875
20
10.219146875
30
0
0
VERTEX
8
0
10
31.706512500000002
20
10.21388125
30
0
0
VERTEX
8
0
10
29.925431250000003
20
8.4328
30
0
0
VERTEX
8
0
10
28.494568750000003
20
8.4328
30
0
0
VERTEX
8
0
10
27.4828
20
9.44456875
30
0
0
VERTEX
8
0
10
27.4828
20
18.862112500000002
30
0
0
VERTEX
8
0
10
36.60448125
20
27.98379375
30
0
0
VERTEX
8
0
10
36.609553125000005
20
27.990578125000003
30
0
0
VERTEX
8
0
10
36.6150875
20
27.997078125
30
0
42
0.08765145259213399
0
VERTEX
8
0
10
36.625090625
20
28.021631250000002
30
0
0
VERTEX
8
0
10
36.6256
20
28.029006250000002
30
0
0
VERTEX
8
0
10
36.6268
20
28.037675
30
0
0
VERTEX
8
0
10
36.6268
20
30.382325
30
0
0
VERTEX
8
0
10
36.625584375
20
30.390753125
30
0
0
VERTEX
8
0
10
36.624903125
20
30.399218750000003
30
0
42
0.08765396656356698
0
VERTEX
8
0
10
36.61461875
20
30.42365625
30
0
0
VERTEX
8
0
10
36.609746875
20
30.42925
30
0
0
VERTEX
8
0
10
36.60448125
20
30.43620625
30
0
0
VERTEX
8
0
10
36.02420625
20
31.016481250000002
30
0
0
VERTEX
8
0
10
36.017421875000004
20
31.021553125
30
0
0
VERTEX
8
0
10
36.010921875
20
31.0270875
30
0
42
0.08765145259213399
0
VERTEX
8
0
10
35.986368750000004
20
31.037090625
30
0
0
VERTEX
8
0
10
35.97899375
20
31.0376
30
0
0
VERTEX
8
0
10
35.970325
20
31.038800000000002
30
0
0
VERTEX
8
0
10
35.149675
20
31.038800000000002
30
0
0
VERTEX
8
0
10
35.141246875
20
31.037584375
30
0
0
VERTEX
8
0
10
35.13278125
20
31.036903125000002
30
0
42
0.08765396656356698
0
VERTEX
8
0
10
35.10834375
20
31.02661875
30
0
0
VERTEX
8
0
10
35.10275
20
31.021746875
30
0
0
VERTEX
8
0
10
35.09579375
20
31.016481250000002
30
0
0
VERTEX
8
0
10
33.782000000000004
20
29.7026875
30
0
0
VERTEX
8
0
10
33.782000000000004
20
29.8642375
30
0
0
VERTEX
8
0
10
43.23388125
20
39.31611875
30
0
0
VERTEX
8
0
10
43.238953125
20
39.322903125
30
0
0
VERTEX
8
0
10
43.244487500000005
20
39.329403125
30
0
42
0.08765145259213399
0
VERTEX
8
0
10
43.254490625
20
39.35395625
30
0
0
VERTEX
8
0
10
43.255
20
39.36133125
30
0
0
VERTEX
8
0
10
43.2562
20
39.370000000000005
30
0
0
VERTEX
8
0
10
43.2562
20
70.4088
30
0
0
VERTEX
8
0
10
90.805
20
70.4088
30
0
0
VERTEX
8
0
10
90.813428125
20
70.410015625
30
0
0
VERTEX
8
0
10
90.82189375
20
70.410696875
30
0
42
0.08765396656356698
0
VERTEX
8
0
10
90.84633125
20
70.42098125
30
0
0
VERTEX
8
0
10
90.85192500000001
20
70.425853125
30
0
0
VERTEX
8
0
10
90.85888125000001
20
70.43111875000001
30
0
0
VERTEX
8
0
10
93.232340625
20
72.804578125
30
0
0
VERTEX
8
0
10
93.23326250000001
20
72.79523125
30
0
42
0.9063473624237881
0
VERTEX
8
0
10
94.73400000000001
20
72.868959375
30
0
0
VERTEX
8
0
10
94.73400000000001
20
74.451040625
30
0
0
VERTEX
8
0
10
94.7267375
20
74.52476875
30
0
42
0.9063473624237881
0
VERTEX
8
0
10
93.226
20
74.451040625
30
0
0
VERTEX
8
0
10
93.226
20
73.0137625
30
0
0
VERTEX
8
0
10
90.7734375
20
70.5612
30
0
0
VERTEX
8
0
10
35.5915625
20
70.5612
30
0
0
SEQEND
0
POLYLINE
66
1
8
1_copper
10
0.0
20
0.0
30
0.0
70
1
0
VERTEX
8
0
10
46.745890625
20
70.937475
30
0
42
0.36396949020334257
0
VERTEX
8
0
10
47.65675
20
71.931503125
30
0
0
VERTEX
8
0
10
47.65675
20
74.118496875
30
0
0
VERTEX
8
0
10
47.648775
20
74.209640625
30
0
42
0.9163299653151645
0
VERTEX
8
0
10
45.56125
20
74.118496875
30
0
0
VERTEX
8
0
10
45.56125
20
71.931503125
30
0
0
VERTEX
8
0
10
45.569225
20
71.840359375
30
0
42
0.38887859073828895
0
VERTEX
8
0
10
46.654746875
20
70.9295
30
0
0
SEQEND
0
POLYLINE
66
1
8
1_copper
10
0.0
20
0.0
30
0.0
70
1
0
VERTEX
8
0
10
35.671943750000004
20
27.693337500000002
30
0
42
0.3578057741447831
0
VERTEX
8
0
10
36.322
20
28.410565625
30
0
0
VERTEX
8
0
10
36.322
20
30.009434375
30
0
0
VERTEX
8
0
10
36.314662500000004
20
30.083943750000003
30
0
42
0.9063472543261978
0
VERTEX
8
0
10
34.798
20
30.009434375
30
0
0
VERTEX
8
0
10
34.798
20
28.410565625
30
0
0
VERTEX
8
0
10
34.8053375
20
28.336056250000002
30
0
42
0.38574240611503685
0
VERTEX
8
0
10
35.597434375
20
27.686
30
0
0
SEQEND
0
POLYLINE
66
1
8
16_copper
10
0.0
20
0.0
30
0.0
70
1
0
VERTEX
8
0
10
33.438753125
20
27.382415625
30
0
0
VERTEX
8
0
10
33.447218750000005
20
27.383096875
30
0
42
0.08765396656356698
0
VERTEX
8
0
10
33.47165625
20
27.39338125
30
0
0
VERTEX
8
0
10
33.477250000000005
20
27.398253125
30
0
0
VERTEX
8
0
10
33.48420625
20
27.40351875
30
0
0
VERTEX
8
0
10
34.798
20
28.717312500000002
30
0
0
VERTEX
8
0
10
34.798
20
28.410565625
30
0
0
VERTEX
8
0
10
34.8053375
20
28.336056250000002
30
0
42
0.9063472543261978
0
VERTEX
8
0
10
36.322
20
28.410565625
30
0
0
VERTEX
8
0
10
36.322
20
30.009434375
30
0
0
VERTEX
8
0
10
36.314662500000004
20
30.083943750000003
30
0
42
0.9063472543261978
0
VERTEX
8
0
10
34.798
20
30.009434375
30
0
0
VERTEX
8
0
10
34.798
20
28.9328375
30
0
0
VERTEX
8
0
10
33.398762500000004
20
27.5336
30
0
0
VERTEX
8
0
10
32.6412375
20
27.5336
30
0
0
VERTEX
8
0
10
32.1056
20
28.0692375
30
0
0
VERTEX
8
0
10
32.1056
20
30.350762500000002
30
0
0
VERTEX
8
0
10
37.34108125
20
35.58624375
30
0
0
VERTEX
8
0
10
37.346153125
20
35.593028125000004
30
0
0
VERTEX
8
0
10
37.351687500000004
20
35.599528125
30
0
42
0.08765145259213399
0
VERTEX
8
0
10
37.361690625
20
35.62408125
30
0
0
VERTEX
8
0
10
37.3622
20
35.63145625
30
0
0
VERTEX
8
0
10
37.3634
20
35.640125000000005
30
0
0
VERTEX
8
0
10
37.3634
20
65.0748
30
0
0
VERTEX
8
0
10
37.362184375000005
20
65.083228125
30
0
0
VERTEX
8
0
10
37.361503125
20
65.09169375
30
0
42
0.08765396656356698
0
VERTEX
8
0
10
37.35121875
20
65.11613125000001
30
0
0
VERTEX
8
0
10
37.346346875
20
65.121725
30
0
0
VERTEX
8
0
10
37.34108125
20
65.12868125
30
0
0
VERTEX
8
0
10
30.1559625
20
72.3138
30
0
0
VERTEX
8
0
10
30.48
20
72.3138
30
0
0
VERTEX
8
0
10
30.488428125000002
20
72.315015625
30
0
0
VERTEX
8
0
10
30.49689375
20
72.315696875
30
0
42
0.08765396656356698
0
VERTEX
8
0
10
30.521331250000003
20
72.32598125
30
0
0
VERTEX
8
0
10
30.526925000000002
20
72.330853125
30
0
0
VERTEX
8
0
10
30.53388125
20
72.33611875
30
0
0
VERTEX
8
0
10
31.781562500000003
20
73.5838
30
0
0
VERTEX
8
0
10
45.56125
20
73.5838
30
0
0
VERTEX
8
0
10
45.56125
20
71.931503125
30
0
0
VERTEX
8
0
10
45.569225
20
71.840359375
30
0
42
0.9163299653151645
0
VERTEX
8
0
10
47.65675
20
71.931503125
30
0
0
VERTEX
8
0
10
47.65675
20
74.118496875
30
0
0
VERTEX
8
0
10
47.648775
20
74.209640625
30
0
42
0.9163299653151645
0
VERTEX
8
0
10
45.56125
20
74.118496875
30
0
0
VERTEX
8
0
10
45.56125
20
73.7362
30
0
0
VERTEX
8
0
10
31.75
20
73.7362
30
0
0
VERTEX
8
0
10
31.741571875
20
73.73498437500001
30
0
0
VERTEX
8
0
10
31.733106250000002
20
73.734303125
30
0
42
0.08765396656356698
0
VERTEX
8
0
10
31.70866875
20
73.72401875
30
0
0
VERTEX
8
0
10
31.703075000000002
20
73.719146875
30
0
0
VERTEX
8
0
10
31.69611875
20
73.71388125
30
0
0
VERTEX
8
0
10
30.4484375
20
72.4662
30
0
0
VERTEX
8
0
10
29.972
20
72.4662
30
0
0
VERTEX
8
0
10
29.96916875
20
72.465790625
30
0
0
VERTEX
8
0
10
29.966328125
20
72.4659875
30
0
42
0.548409711059846
0
VERTEX
8
0
10
29.905503125000003
20
72.3527875
30
0
0
VERTEX
8
0
10
29.910778125
20
72.34581875
30
0
0
VERTEX
8
0
10
29.914828125
20
72.339621875
30
0
42
0.015772426617527556
0
VERTEX
8
0
10
29.91811875
20
72.33611875
30
0
0
VERTEX
8
0
10
37.211
20
65.0432375
30
0
0
VERTEX
8
0
10
37.211
20
35.671687500000004
30
0
0
VERTEX
8
0
10
31.975518750000003
20
30.43620625
30
0
0
VERTEX
8
0
10
31.970446875
20
30.429421875000003
30
0
0
VERTEX
8
0
10
31.9649125
20
30.422921875
30
0
42
0.08765145259213399
0
VERTEX
8
0
10
31.954909375000003
20
30.398368750000003
30
0
0
VERTEX
8
0
10
31.954400000000003
20
30.39099375
30
0
0
VERTEX
8
0
10
31.953200000000002
20
30.382325
30
0
0
VERTEX
8
0
10
31.953200000000002
20
28.037675
30
0
0
VERTEX
8
0
10
31.954415625000003
20
28.029246875000002
30
0
0
VERTEX
8
0
10
31.955096875000002
20
28.020781250000002
30
0
42
0.08765396656356698
0
VERTEX
8
0
10
31.96538125
20
27.99634375
30
0
0
VERTEX
8
0
10
31.970253125000003
20
27.990750000000002
30
0
0
VERTEX
8
0
10
31.975518750000003
20
27.98379375
30
0
0
VERTEX
8
0
10
32.55579375
20
27.40351875
30
0
0
VERTEX
8
0
10
32.562578125
20
27.398446875
30
0
0
VERTEX
8
0
10
32.569078125000004
20
27.3929125
30
0
42
0.08765145259213399
0
VERTEX
8
0
10
32.59363125
20
27.382909375
30
0
0
VERTEX
8
0
10
32.601006250000005
20
27.3824
30
0
0
VERTEX
8
0
10
32.609675
20
27.3812
30
0
0
VERTEX
8
0
10
33.430325
20
27.3812
30
0
0
SEQEND
0
POLYLINE
66
1
8
1_copper
10
0.0
20
0.0
30
0.0
70
1
0
VERTEX
8
0
10
91.55076875
20
72.1592625
30
0
42
0.3578058410891132
0
VERTEX
8
0
10
92.194
20
72.868959375
30
0
0
VERTEX
8
0
10
92.194
20
74.451040625
30
0
0
VERTEX
8
0
10
92.1867375
20
74.52476875
30
0
42
0.9063473624237881
0
VERTEX
8
0
10
90.686
20
74.451040625
30
0
0
VERTEX
8
0
10
90.686
20
72.868959375
30
0
0
VERTEX
8
0
10
90.6932625
20
72.79523125
30
0
42
0.3857419132923675
0
VERTEX
8
0
10
91.477040625
20
72.152
30
0
0
SEQEND
0
POLYLINE
66
1
8
1_copper
10
0.0
20
0.0
30
0.0
70
1
0
VERTEX
8
0
10
57.667890625000005
20
70.937475
30
0
42
0.36396949020334257
0
VERTEX
8
0
10
58.57875
20
71.931503125
30
0
0
VERTEX
8
0
10
58.57875
20
74.118496875
30
0
0
VERTEX
8
0
10
58.570775000000005
20
74.209640625
30
0
42
0.9163299653151645
0
VERTEX
8
0
10
56.483250000000005
20
74.118496875
30
0
0
VERTEX
8
0
10
56.483250000000005
20
71.931503125
30
0
0
VERTEX
8
0
10
56.491225
20
71.840359375
30
0
42
0.38887859073828895
0
VERTEX
8
0
10
57.576746875000005
20
70.9295
30
0
0
SEQEND
0
POLYLINE
66
1
8
16_copper
10
0.0
20
0.0
30
0.0
70
1
0
VERTEX
8
0
10
57.667890625000005
20
70.937475
30
0
42
0.36396949020334257
0
VERTEX
8
0
10
58.57875
20
71.931503125
30
0
0
VERTEX
8
0
10
58.57875
20
72.9488
30
0
0
VERTEX
8
0
10
90.686
20
72.9488
30
0
0
VERTEX
8
0
10
90.686
20
72.868959375
30
0
42
0.9520804327636221
0
VERTEX
8
0
10
92.194
20
72.868959375
30
0
0
VERTEX
8
0
10
92.194
20
74.451040625
30
0
0
VERTEX
8
0
10
92.1867375
20
74.52476875
30
0
42
0.9063473624237881
0
VERTEX
8
0
10
90.686
20
74.451040625
30
0
0
VERTEX
8
0
10
90.686
20
73.1012
30
0
0
VERTEX
8
0
10
58.57875
20
73.1012
30
0
0
VERTEX
8
0
10
58.57875
20
74.118496875
30
0
0
VERTEX
8
0
10
58.570775000000005
20
74.209640625
30
0
42
0.9163299653151645
0
VERTEX
8
0
10
56.483250000000005
20
74.118496875
30
0
0
VERTEX
8
0
10
56.483250000000005
20
71.931503125
30
0
0
VERTEX
8
0
10
56.491225
20
71.840359375
30
0
42
0.38887859073828895
0
VERTEX
8
0
10
57.576746875000005
20
70.9295
30
0
0
SEQEND
0
POLYLINE
66
1
8
16_copper
10
0.0
20
0.0
30
0.0
70
1
0
VERTEX
8
0
10
97.620625
20
1.0172125
30
0
0
VERTEX
8
0
10
97.629090625
20
1.01789375
30
0
42
0.08765396656356698
0
VERTEX
8
0
10
97.65352812500001
20
1.028178125
30
0
0
VERTEX
8
0
10
97.65912187500001
20
1.03305
30
0
0
VERTEX
8
0
10
97.666078125
20
1.038315625
30
0
0
VERTEX
8
0
10
98.96168125
20
2.33391875
30
0
0
VERTEX
8
0
10
98.96333125000001
20
2.336121875
30
0
0
VERTEX
8
0
10
98.96534062500001
20
2.337875
30
0
42
0.054020841307830636
0
VERTEX
8
0
10
98.974715625
20
2.35135
30
0
0
VERTEX
8
0
10
98.9758125
20
2.354303125
30
0
0
VERTEX
8
0
10
98.977040625
20
2.35623125
30
0
0
VERTEX
8
0
10
98.978409375
20
2.360971875
30
0
0
VERTEX
8
0
10
98.98113125
20
2.36709375
30
0
42
0.015766932116074574
0
VERTEX
8
0
10
98.982290625
20
2.3717562500000002
30
0
0
VERTEX
8
0
10
98.98253125000001
20
2.3752500000000003
30
0
0
VERTEX
8
0
10
98.983078125
20
2.37714375
30
0
0
VERTEX
8
0
10
98.98305625
20
2.3809875000000003
30
0
0
VERTEX
8
0
10
98.98400000000001
20
2.3878
30
0
0
VERTEX
8
0
10
98.98400000000001
20
10.846753125000001
30
0
0
VERTEX
8
0
10
98.983590625
20
10.849584375000001
30
0
42
0.018662796520580907
0
VERTEX
8
0
10
98.983165625
20
10.855228125
30
0
0
VERTEX
8
0
10
98.98315625000001
20
10.857112500000001
30
0
0
VERTEX
8
0
10
98.98190625000001
20
10.86126875
30
0
0
VERTEX
8
0
10
98.980890625
20
10.868296875
30
0
42
0.018629569271228993
0
VERTEX
8
0
10
98.979084375
20
10.873678125
30
0
0
VERTEX
8
0
10
98.97707187500001
20
10.877321875
30
0
0
VERTEX
8
0
10
98.97688125
20
10.87795625
30
0
0
VERTEX
8
0
10
98.97585625
20
10.879521875
30
0
0
VERTEX
8
0
10
98.97519062500001
20
10.88073125
30
0
0
VERTEX
8
0
10
98.97181875000001
20
10.888084375
30
0
42
0.39585318846215733
0
VERTEX
8
0
10
98.8705875
20
10.91325
30
0
0
VERTEX
8
0
10
98.86687500000001
20
10.910440625
30
0
0
VERTEX
8
0
10
98.86551250000001
20
10.909815625
30
0
0
VERTEX
8
0
10
98.86274375
20
10.907403125
30
0
0
VERTEX
8
0
10
98.857421875
20
10.903925000000001
30
0
42
0.015772426617527556
0
VERTEX
8
0
10
98.85391875
20
10.900634375000001
30
0
0
VERTEX
8
0
10
96.17871562500001
20
8.225428125
30
0
0
VERTEX
8
0
10
96.17364375000001
20
8.21864375
30
0
0
VERTEX
8
0
10
96.168109375
20
8.212143750000001
30
0
42
0.08765145259213399
0
VERTEX
8
0
10
96.15810625
20
8.187590625
30
0
0
VERTEX
8
0
10
96.15759687500001
20
8.180215625
30
0
0
VERTEX
8
0
10
96.156396875
20
8.171546875
30
0
0
VERTEX
8
0
10
96.156396875
20
6.685703125000001
30
0
0
VERTEX
8
0
10
96.01840625
20
6.3525625
30
0
0
VERTEX
8
0
10
95.763434375
20
6.0975906250000005
30
0
0
VERTEX
8
0
10
95.43029375
20
5.9596
30
0
0
VERTEX
8
0
10
95.069703125
20
5.9596
30
0
0
VERTEX
8
0
10
94.7365625
20
6.0975906250000005
30
0
0
VERTEX
8
0
10
94.48159062500001
20
6.3525625
30
0
0
VERTEX
8
0
10
94.34360000000001
20
6.685703125000001
30
0
0
VERTEX
8
0
10
94.34360000000001
20
8.554293750000001
30
0
0
VERTEX
8
0
10
94.48159062500001
20
8.887434375
30
0
0
VERTEX
8
0
10
94.7365625
20
9.14240625
30
0
0
VERTEX
8
0
10
95.069703125
20
9.280396875000001
30
0
0
VERTEX
8
0
10
95.43029375
20
9.280396875000001
30
0
0
VERTEX
8
0
10
95.763434375
20
9.14240625
30
0
0
VERTEX
8
0
10
96.018409375
20
8.88743125
30
0
0
VERTEX
8
0
10
96.02623750000001
20
8.868528125000001
30
0
42
0.4585734987205198
0
VERTEX
8
0
10
96.135925
20
8.83239375
30
0
0
VERTEX
8
0
10
96.14197812500001
20
8.8373375
30
0
0
VERTEX
8
0
10
96.15051875
20
8.843803125
30
0
0
VERTEX
8
0
10
98.65688125
20
11.35016875
30
0
0
VERTEX
8
0
10
98.66195312500001
20
11.356953125
30
0
0
VERTEX
8
0
10
98.66748750000001
20
11.363453125000001
30
0
42
0.08765145259213399
0
VERTEX
8
0
10
98.677490625
20
11.38800625
30
0
0
VERTEX
8
0
10
98.67800000000001
20
11.39538125
30
0
0
VERTEX
8
0
10
98.67920000000001
20
11.40405
30
0
0
VERTEX
8
0
10
98.67920000000001
20
46.6852
30
0
0
VERTEX
8
0
10
98.6783875
20
46.690818750000005
30
0
42
0.39258815634569955
0
VERTEX
8
0
10
98.60300000000001
20
46.7614
30
0
0
VERTEX
8
0
10
97.00209375
20
46.7614
30
0
0
VERTEX
8
0
10
97.00045625
20
46.761162500000005
30
0
0
VERTEX
8
0
10
96.99881875
20
46.761328125000006
30
0
42
0.21834638570063183
0
VERTEX
8
0
10
96.94226875000001
20
46.73239375
30
0
0
VERTEX
8
0
10
96.93686562500001
20
46.72318125
30
0
0
VERTEX
8
0
10
96.93265000000001
20
46.716565625
30
0
42
0.007889569284554799
0
VERTEX
8
0
10
96.93169375000001
20
46.714359375
30
0
0
VERTEX
8
0
10
96.82240312500001
20
46.450506250000004
30
0
0
VERTEX
8
0
10
96.554490625
20
46.18259375
30
0
0
VERTEX
8
0
10
96.20444375000001
20
46.037600000000005
30
0
0
VERTEX
8
0
10
95.825553125
20
46.037600000000005
30
0
0
VERTEX
8
0
10
95.47550625000001
20
46.18259375
30
0
0
VERTEX
8
0
10
95.20759375
20
46.450506250000004
30
0
0
VERTEX
8
0
10
95.0626
20
46.800553125
30
0
0
VERTEX
8
0
10
95.0626
20
47.179443750000004
30
0
0
VERTEX
8
0
10
95.20759375
20
47.529490625
30
0
0
VERTEX
8
0
10
95.47550625000001
20
47.797403125
30
0
0
VERTEX
8
0
10
95.825553125
20
47.942396875
30
0
0
VERTEX
8
0
10
96.20444375000001
20
47.942396875
30
0
0
VERTEX
8
0
10
96.554490625
20
47.797403125
30
0
0
VERTEX
8
0
10
96.82240312500001
20
47.529490625
30
0
0
VERTEX
8
0
10
96.93169375000001
20
47.265637500000004
30
0
0
VERTEX
8
0
10
96.93253750000001
20
47.264218750000005
30
0
0
VERTEX
8
0
10
96.9330125
20
47.262637500000004
30
0
42
0.2183495123382137
0
VERTEX
8
0
10
96.98138750000001
20
47.221465625
30
0
0
VERTEX
8
0
10
96.99194687500001
20
47.220003125000005
30
0
0
VERTEX
8
0
10
96.999690625
20
47.218634375
30
0
42
0.00788569762177906
0
VERTEX
8
0
10
97.00209375
20
47.218596875
30
0
0
VERTEX
8
0
10
98.90780000000001
20
47.218596875
30
0
0
VERTEX
8
0
10
98.91341875
20
47.219409375000005
30
0
42
0.39258815634569955
0
VERTEX
8
0
10
98.98400000000001
20
47.294796875
30
0
0
VERTEX
8
0
10
98.98400000000001
20
76.352196875
30
0
0
VERTEX
8
0
10
98.98278437500001
20
76.360625
30
0
0
VERTEX
8
0
10
98.98210312500001
20
76.369090625
30
0
42
0.08765396656356698
0
VERTEX
8
0
10
98.97181875000001
20
76.393528125
30
0
0
VERTEX
8
0
10
98.966946875
20
76.399121875
30
0
0
VERTEX
8
0
10
98.96168125
20
76.40607812500001
30
0
0
VERTEX
8
0
10
96.40607812500001
20
78.96168125
30
0
0
VERTEX
8
0
10
96.39929375
20
78.966753125
30
0
0
VERTEX
8
0
10
96.39279375000001
20
78.97228750000001
30
0
42
0.08765145259213399
0
VERTEX
8
0
10
96.368240625
20
78.982290625
30
0
0
VERTEX
8
0
10
96.360865625
20
78.9828
30
0
0
VERTEX
8
0
10
96.352196875
20
78.98400000000001
30
0
0
VERTEX
8
0
10
28.1078
20
78.98400000000001
30
0
0
VERTEX
8
0
10
28.099371875000003
20
78.98278437500001
30
0
0
VERTEX
8
0
10
28.09090625
20
78.98210312500001
30
0
42
0.08765396656356698
0
VERTEX
8
0
10
28.066468750000002
20
78.97181875
30
0
0
VERTEX
8
0
10
28.060875000000003
20
78.966946875
30
0
0
VERTEX
8
0
10
28.05391875
20
78.96168125
30
0
0
VERTEX
8
0
10
23.898315625000002
20
74.806078125
30
0
0
VERTEX
8
0
10
23.89324375
20
74.79929375
30
0
0
VERTEX
8
0
10
23.887709375
20
74.79279375
30
0
42
0.08765145259213399
0
VERTEX
8
0
10
23.877706250000003
20
74.768240625
30
0
0
VERTEX
8
0
10
23.877196875000003
20
74.76086562500001
30
0
0
VERTEX
8
0
10
23.875996875000002
20
74.75219687500001
30
0
0
VERTEX
8
0
10
23.875996875000002
20
5.2578000000000005
30
0
0
VERTEX
8
0
10
23.877212500000002
20
5.2493718750000005
30
0
0
VERTEX
8
0
10
23.877893750000002
20
5.24090625
30
0
42
0.08765396656356698
0
VERTEX
8
0
10
23.888178125
20
5.216468750000001
30
0
0
VERTEX
8
0
10
23.893050000000002
20
5.210875000000001
30
0
0
VERTEX
8
0
10
23.898315625000002
20
5.203918750000001
30
0
0
VERTEX
8
0
10
28.063918750000003
20
1.038315625
30
0
0
VERTEX
8
0
10
28.070703125
20
1.03324375
30
0
0
VERTEX
8
0
10
28.077203125
20
1.0277093750000001
30
0
42
0.08765145259213399
0
VERTEX
8
0
10
28.10175625
20
1.01770625
30
0
0
VERTEX
8
0
10
28.10913125
20
1.017196875
30
0
0
VERTEX
8
0
10
28.117800000000003
20
1.0159968750000001
30
0
0
VERTEX
8
0
10
97.61219687500001
20
1.0159968750000001
30
0
0
SEQEND
0
POLYLINE
66
1
8
16_copper
10
0.0
20
0.0
30
0.0
70
1
0
VERTEX
8
0
10
67.943821875
20
4.7625
30
0
0
VERTEX
8
0
10
65.337240625
20
7.369081250000001
30
0
0
VERTEX
8
0
10
65.33045625
20
7.374153125
30
0
0
VERTEX
8
0
10
65.32395625000001
20
7.3796875
30
0
42
0.08765145259213399
0
VERTEX
8
0
10
65.299403125
20
7.389690625
30
0
0
VERTEX
8
0
10
65.292028125
20
7.3902
30
0
0
VERTEX
8
0
10
65.283359375
20
7.3914
30
0
0
VERTEX
8
0
10
62.045746875000006
20
7.3914
30
0
0
VERTEX
8
0
10
62.040128125
20
7.3905875000000005
30
0
42
0.39258815634569955
0
VERTEX
8
0
10
61.969546875000006
20
7.3152
30
0
0
VERTEX
8
0
10
61.969546875000006
20
6.333521875000001
30
0
0
VERTEX
8
0
10
61.786834375000005
20
5.892415625
30
0
0
VERTEX
8
0
10
61.449231250000004
20
5.554812500000001
30
0
0
VERTEX
8
0
10
61.008125
20
5.3721000000000005
30
0
0
VERTEX
8
0
10
60.530671875
20
5.3721000000000005
30
0
0
VERTEX
8
0
10
60.089565625000006
20
5.554812500000001
30
0
0
VERTEX
8
0
10
59.751962500000005
20
5.892415625
30
0
0
VERTEX
8
0
10
59.569250000000004
20
6.333521875000001
30
0
0
VERTEX
8
0
10
59.569250000000004
20
8.906475
30
0
0
VERTEX
8
0
10
59.751962500000005
20
9.347581250000001
30
0
0
VERTEX
8
0
10
60.089565625000006
20
9.685184375
30
0
0
VERTEX
8
0
10
60.530671875
20
9.867896875000001
30
0
0
VERTEX
8
0
10
61.008125
20
9.867896875000001
30
0
0
VERTEX
8
0
10
61.449231250000004
20
9.685184375
30
0
0
VERTEX
8
0
10
61.786834375000005
20
9.347581250000001
30
0
0
VERTEX
8
0
10
61.969546875000006
20
8.906475
30
0
0
VERTEX
8
0
10
61.969546875000006
20
7.924796875
30
0
0
VERTEX
8
0
10
61.970359375
20
7.919178125
30
0
42
0.39258815634569955
0
VERTEX
8
0
10
62.045746875000006
20
7.848596875
30
0
0
VERTEX
8
0
10
65.5043
20
7.848596875
30
0
0
VERTEX
8
0
10
66.93216875
20
6.420725
30
0
0
VERTEX
8
0
10
66.934446875
20
6.419021875
30
0
0
VERTEX
8
0
10
66.936328125
20
6.416862500000001
30
0
42
0.5484095900174472
0
VERTEX
8
0
10
67.05938125
20
6.4539
30
0
0
VERTEX
8
0
10
67.06058125
20
6.462562500000001
30
0
0
VERTEX
8
0
10
67.06209687500001
20
6.469803125
30
0
42
0.015770375218223928
0
VERTEX
8
0
10
67.06225
20
6.47460625
30
0
0
VERTEX
8
0
10
67.06225
20
8.906475
30
0
0
VERTEX
8
0
10
67.2449625
20
9.347581250000001
30
0
0
VERTEX
8
0
10
67.582565625
20
9.685184375
30
0
0
VERTEX
8
0
10
68.023671875
20
9.867896875000001
30
0
0
VERTEX
8
0
10
68.501125
20
9.867896875000001
30
0
0
VERTEX
8
0
10
68.94223125
20
9.685184375
30
0
0
VERTEX
8
0
10
69.27983437500001
20
9.347581250000001
30
0
0
VERTEX
8
0
10
69.462546875
20
8.906475
30
0
0
VERTEX
8
0
10
69.462546875
20
7.924796875
30
0
0
VERTEX
8
0
10
69.46335937500001
20
7.919178125
30
0
42
0.39258815634569955
0
VERTEX
8
0
10
69.538746875
20
7.848596875
30
0
0
VERTEX
8
0
10
75.5119
20
7.848596875
30
0
0
VERTEX
8
0
10
76.93976875
20
6.420725
30
0
0
VERTEX
8
0
10
76.942046875
20
6.419021875
30
0
0
VERTEX
8
0
10
76.943928125
20
6.416862500000001
30
0
42
0.5484095900174472
0
VERTEX
8
0
10
77.06698125
20
6.4539
30
0
0
VERTEX
8
0
10
77.06818125000001
20
6.462562500000001
30
0
0
VERTEX
8
0
10
77.069696875
20
6.469803125
30
0
42
0.015770375218223928
0
VERTEX
8
0
10
77.06985
20
6.47460625
30
0
0
VERTEX
8
0
10
77.06985
20
8.300296875
30
0
0
VERTEX
8
0
10
77.068634375
20
8.308725
30
0
0
VERTEX
8
0
10
77.067953125
20
8.317190625
30
0
42
0.08765396656356698
0
VERTEX
8
0
10
77.05766875
20
8.341628125
30
0
0
VERTEX
8
0
10
77.052796875
20
8.347221875
30
0
0
VERTEX
8
0
10
77.04753125
20
8.354178125
30
0
0
VERTEX
8
0
10
72.317628125
20
13.08408125
30
0
0
VERTEX
8
0
10
72.31084375
20
13.089153125000001
30
0
0
VERTEX
8
0
10
72.30434375
20
13.094687500000001
30
0
42
0.08765145259213399
0
VERTEX
8
0
10
72.279790625
20
13.104690625
30
0
0
VERTEX
8
0
10
72.27241562500001
20
13.1052
30
0
0
VERTEX
8
0
10
72.26374687500001
20
13.1064
30
0
0
VERTEX
8
0
10
32.511250000000004
20
13.1064
30
0
0
VERTEX
8
0
10
32.502821875
20
13.105184375
30
0
0
VERTEX
8
0
10
32.49435625
20
13.104503125
30
0
42
0.08765396656356698
0
VERTEX
8
0
10
32.469918750000005
20
13.094218750000001
30
0
0
VERTEX
8
0
10
32.464325
20
13.089346875
30
0
0
VERTEX
8
0
10
32.45736875
20
13.08408125
30
0
0
VERTEX
8
0
10
30.6468375
20
11.27355
30
0
0
VERTEX
8
0
10
30.6434375
20
11.269003125000001
30
0
42
0.33494831345234216
0
VERTEX
8
0
10
30.637521875
20
11.1781
30
0
0
VERTEX
8
0
10
30.63995625
20
11.1736875
30
0
42
0.022594434137467197
0
VERTEX
8
0
10
30.646840625000003
20
11.165784375000001
30
0
0
VERTEX
8
0
10
30.674246875
20
11.138378125000001
30
0
0
VERTEX
8
0
10
30.937196875
20
10.503562500000001
30
0
0
VERTEX
8
0
10
30.937196875
20
10.464796875000001
30
0
42
0.41421356237309503
0
VERTEX
8
0
10
31.013396875
20
10.388596875000001
30
0
0
VERTEX
8
0
10
31.203084375000003
20
10.388596875000001
30
0
0
VERTEX
8
0
10
31.2115125
20
10.3898125
30
0
0
VERTEX
8
0
10
31.219978125
20
10.390493750000001
30
0
42
0.08765396656356698
0
VERTEX
8
0
10
31.244415625000002
20
10.400778125
30
0
0
VERTEX
8
0
10
31.250009375
20
10.40565
30
0
0
VERTEX
8
0
10
31.256965625000003
20
10.410915625000001
30
0
0
VERTEX
8
0
10
33.038046875
20
12.191996875000001
30
0
0
VERTEX
8
0
10
51.880475000000004
20
12.191996875000001
30
0
0
VERTEX
8
0
10
54.781346875000004
20
9.291125000000001
30
0
0
VERTEX
8
0
10
54.781346875000004
20
5.948871875
30
0
0
VERTEX
8
0
10
53.899775000000005
20
5.0673
30
0
0
VERTEX
8
0
10
30.997959375
20
5.0673
30
0
0
VERTEX
8
0
10
26.8732
20
9.192059375000001
30
0
0
VERTEX
8
0
10
26.8732
20
25.9264875
30
0
0
VERTEX
8
0
10
29.54328125
20
28.596568750000003
30
0
0
VERTEX
8
0
10
29.548353125000002
20
28.603353125
30
0
0
VERTEX
8
0
10
29.553887500000002
20
28.609853125
30
0
42
0.08765145259213399
0
VERTEX
8
0
10
29.563890625000003
20
28.63440625
30
0
0
VERTEX
8
0
10
29.564400000000003
20
28.64178125
30
0
0
VERTEX
8
0
10
29.5656
20
28.650450000000003
30
0
0
VERTEX
8
0
10
29.5656
20
30.153884375
30
0
0
VERTEX
8
0
10
29.704809375
20
30.489965625
30
0
0
VERTEX
8
0
10
29.962031250000003
20
30.747187500000003
30
0
0
VERTEX
8
0
10
30.204359375000003
20
30.847562500000002
30
0
0
VERTEX
8
0
10
30.205778125000002
20
30.84840625
30
0
0
VERTEX
8
0
10
30.207359375000003
20
30.84888125
30
0
42
0.2183495123382137
0
VERTEX
8
0
10
30.248531250000003
20
30.89725625
30
0
0
VERTEX
8
0
10
30.24999375
20
30.907815625
30
0
0
VERTEX
8
0
10
30.251362500000003
20
30.915559375
30
0
42
0.00788569762177906
0
VERTEX
8
0
10
30.2514
20
30.9179625
30
0
0
VERTEX
8
0
10
30.2514
20
40.575009375
30
0
0
VERTEX
8
0
10
30.250184375
20
40.5834375
30
0
0
VERTEX
8
0
10
30.249503125
20
40.591903125
30
0
42
0.08765396656356698
0
VERTEX
8
0
10
30.239218750000003
20
40.616340625
30
0
0
VERTEX
8
0
10
30.234346875
20
40.621934375
30
0
0
VERTEX
8
0
10
30.22908125
20
40.628890625000004
30
0
0
VERTEX
8
0
10
28.5242
20
42.333771875000004
30
0
0
VERTEX
8
0
10
28.5242
20
72.72029375000001
30
0
0
VERTEX
8
0
10
31.381603125
20
75.577696875
30
0
0
VERTEX
8
0
10
47.232375000000005
20
75.577696875
30
0
0
VERTEX
8
0
10
49.53415625
20
73.27591562500001
30
0
0
VERTEX
8
0
10
49.540940625000005
20
73.27084375
30
0
0
VERTEX
8
0
10
49.547440625
20
73.265309375
30
0
42
0.08765145259213399
0
VERTEX
8
0
10
49.571993750000004
20
73.25530625
30
0
0
VERTEX
8
0
10
49.57936875
20
73.254796875
30
0
0
VERTEX
8
0
10
49.588037500000006
20
73.253596875
30
0
0
VERTEX
8
0
10
50.79365
20
73.253596875
30
0
0
VERTEX
8
0
10
50.79926875
20
73.25440937500001
30
0
42
0.39258815634569955
0
VERTEX
8
0
10
50.86985
20
73.329796875
30
0
0
VERTEX
8
0
10
50.86985
20
74.311475
30
0
0
VERTEX
8
0
10
51.0525625
20
74.75258125
30
0
0
VERTEX
8
0
10
51.390165625
20
75.090184375
30
0
0
VERTEX
8
0
10
51.831271875000006
20
75.272896875
30
0
0
VERTEX
8
0
10
52.308725
20
75.272896875
30
0
0
VERTEX
8
0
10
52.74983125
20
75.090184375
30
0
0
VERTEX
8
0
10
53.087434375
20
74.75258125
30
0
0
VERTEX
8
0
10
53.270146875
20
74.311475
30
0
0
VERTEX
8
0
10
53.270146875
20
71.738521875
30
0
0
VERTEX
8
0
10
53.087434375
20
71.297415625
30
0
0
VERTEX
8
0
10
52.74983125
20
70.9598125
30
0
0
VERTEX
8
0
10
52.50933125
20
70.860196875
30
0
0
VERTEX
8
0
10
52.50341875
20
70.856684375
30
0
0
VERTEX
8
0
10
52.497159375
20
70.85381562500001
30
0
42
0.7477774313238661
0
VERTEX
8
0
10
52.538490625
20
70.71359687500001
30
0
0
VERTEX
8
0
10
57.062506250000006
20
70.71359687500001
30
0
0
VERTEX
8
0
10
57.069325
20
70.71458125000001
30
0
0
VERTEX
8
0
10
57.07619375
20
70.7148375
30
0
42
0.747773970328163
0
VERTEX
8
0
10
57.091665625000005
20
70.860196875
30
0
0
VERTEX
8
0
10
56.851165625
20
70.9598125
30
0
0
VERTEX
8
0
10
56.513562500000006
20
71.297415625
30
0
0
VERTEX
8
0
10
56.330850000000005
20
71.738521875
30
0
0
VERTEX
8
0
10
56.330850000000005
20
74.311475
30
0
0
VERTEX
8
0
10
56.513562500000006
20
74.75258125
30
0
0
VERTEX
8
0
10
56.851165625
20
75.090184375
30
0
0
VERTEX
8
0
10
57.292271875000004
20
75.272896875
30
0
0
VERTEX
8
0
10
57.769725
20
75.272896875
30
0
0
VERTEX
8
0
10
58.210831250000005
20
75.090184375
30
0
0
VERTEX
8
0
10
58.548434375
20
74.75258125
30
0
0
VERTEX
8
0
10
58.731146875
20
74.311475
30
0
0
VERTEX
8
0
10
58.731146875
20
73.329796875
30
0
0
VERTEX
8
0
10
58.731959375
20
73.324178125
30
0
42
0.39258815634569955
0
VERTEX
8
0
10
58.807346875
20
73.253596875
30
0
0
VERTEX
8
0
10
90.4574
20
73.253596875
30
0
0
VERTEX
8
0
10
90.46301875
20
73.25440937500001
30
0
42
0.39258815634569955
0
VERTEX
8
0
10
90.5336
20
73.329796875
30
0
0
VERTEX
8
0
10
90.5336
20
74.59429375
30
0
0
VERTEX
8
0
10
90.67159062500001
20
74.927434375
30
0
0
VERTEX
8
0
10
90.9265625
20
75.18240625
30
0
0
VERTEX
8
0
10
91.259703125
20
75.320396875
30
0
0
VERTEX
8
0
10
91.62029375
20
75.320396875
30
0
0
VERTEX
8
0
10
91.953434375
20
75.18240625
30
0
0
VERTEX
8
0
10
92.20840625000001
20
74.927434375
30
0
0
VERTEX
8
0
10
92.34639687500001
20
74.59429375
30
0
0
VERTEX
8
0
10
92.34639687500001
20
72.72570312500001
30
0
0
VERTEX
8
0
10
92.22710625
20
72.4377125
30
0
0
VERTEX
8
0
10
92.22540625
20
72.4310375
30
0
0
VERTEX
8
0
10
92.223015625
20
72.424596875
30
0
42
0.7477870678791171
0
VERTEX
8
0
10
92.3513875
20
72.35467187500001
30
0
0
VERTEX
8
0
10
93.05128125
20
73.05456562500001
30
0
0
VERTEX
8
0
10
93.056353125
20
73.06135
30
0
0
VERTEX
8
0
10
93.0618875
20
73.06785
30
0
42
0.08765145259213399
0
VERTEX
8
0
10
93.07189062500001
20
73.092403125
30
0
0
VERTEX
8
0
10
93.0724
20
73.099778125
30
0
0
VERTEX
8
0
10
93.0736
20
73.108446875
30
0
0
VERTEX
8
0
10
93.0736
20
74.59429375
30
0
0
VERTEX
8
0
10
93.211590625
20
74.927434375
30
0
0
VERTEX
8
0
10
93.46656250000001
20
75.18240625
30
0
0
VERTEX
8
0
10
93.79970312500001
20
75.320396875
30
0
0
VERTEX
8
0
10
94.16029375000001
20
75.320396875
30
0
0
VERTEX
8
0
10
94.493434375
20
75.18240625
30
0
0
VERTEX
8
0
10
94.74840625
20
74.927434375
30
0
0
VERTEX
8
0
10
94.886396875
20
74.59429375
30
0
0
VERTEX
8
0
10
94.886396875
20
72.72570312500001
30
0
0
VERTEX
8
0
10
94.74840625
20
72.3925625
30
0
0
VERTEX
8
0
10
94.493434375
20
72.137590625
30
0
0
VERTEX
8
0
10
94.16029375000001
20
71.9996
30
0
0
VERTEX
8
0
10
93.79970312500001
20
71.9996
30
0
0
VERTEX
8
0
10
93.46656250000001
20
72.137590625
30
0
0
VERTEX
8
0
10
93.21158750000001
20
72.392565625
30
0
0
VERTEX
8
0
10
93.203759375
20
72.41146875
30
0
42
0.4585734987205198
0
VERTEX
8
0
10
93.094071875
20
72.447603125
30
0
0
VERTEX
8
0
10
93.08801875
20
72.442659375
30
0
0
VERTEX
8
0
10
93.07947812500001
20
72.43619375
30
0
0
VERTEX
8
0
10
91.05591562500001
20
70.41263125
30
0
0
VERTEX
8
0
10
91.05590625
20
70.41261875000001
30
0
0
VERTEX
8
0
10
90.8996875
20
70.2564
30
0
0
VERTEX
8
0
10
43.484796875
20
70.2564
30
0
0
VERTEX
8
0
10
43.479178125000004
20
70.2555875
30
0
42
0.39258815634569955
0
VERTEX
8
0
10
43.408596875
20
70.1802
30
0
0
VERTEX
8
0
10
43.408596875
20
39.275309375
30
0
0
VERTEX
8
0
10
43.25236875
20
39.11908125
30
0
0
VERTEX
8
0
10
35.4545625
20
31.321278125000003
30
0
0
VERTEX
8
0
10
35.452859375
20
31.319000000000003
30
0
0
VERTEX
8
0
10
35.450700000000005
20
31.317118750000002
30
0
42
0.5484095900174472
0
VERTEX
8
0
10
35.4877375
20
31.194065625
30
0
0
VERTEX
8
0
10
35.4964
20
31.192865625000003
30
0
0
VERTEX
8
0
10
35.503640625
20
31.19135
30
0
42
0.015770375218223928
0
VERTEX
8
0
10
35.508443750000005
20
31.191196875000003
30
0
0
VERTEX
8
0
10
36.0650125
20
31.191196875000003
30
0
0
VERTEX
8
0
10
36.779196875000004
20
30.4770125
30
0
0
VERTEX
8
0
10
36.779196875000004
20
27.942984375
30
0
0
VERTEX
8
0
10
27.657515625000002
20
18.821303125
30
0
0
VERTEX
8
0
10
27.65244375
20
18.81451875
30
0
0
VERTEX
8
0
10
27.646909375
20
18.808018750000002
30
0
42
0.08765145259213399
0
VERTEX
8
0
10
27.636906250000003
20
18.783465625
30
0
0
VERTEX
8
0
10
27.636396875000003
20
18.776090625000002
30
0
0
VERTEX
8
0
10
27.635196875000002
20
18.767421875
30
0
0
VERTEX
8
0
10
27.635196875000002
20
11.2117875
30
0
0
VERTEX
8
0
10
27.635606250000002
20
11.20895625
30
0
0
VERTEX
8
0
10
27.635409375000002
20
11.206115625
30
0
42
0.548409711059846
0
VERTEX
8
0
10
27.748609375
20
11.145290625000001
30
0
0
VERTEX
8
0
10
27.755578125000003
20
11.150565625
30
0
0
VERTEX
8
0
10
27.761775
20
11.154615625
30
0
42
0.015772426617527556
0
VERTEX
8
0
10
27.765278125000002
20
11.15790625
30
0
0
VERTEX
8
0
10
28.231615625
20
11.624246875
30
0
0
VERTEX
8
0
10
28.866434375
20
11.887196875
30
0
0
VERTEX
8
0
10
29.5535625
20
11.887196875
30
0
0
VERTEX
8
0
10
30.188378125
20
11.624246875
30
0
0
VERTEX
8
0
10
30.215784375000002
20
11.596840625
30
0
42
0.41423054967025297
0
VERTEX
8
0
10
30.32355
20
11.596837500000001
30
0
0
VERTEX
8
0
10
32.290309375
20
13.563596875
30
0
0
VERTEX
8
0
10
72.4846875
20
13.563596875
30
0
0
VERTEX
8
0
10
72.640915625
20
13.40736875
30
0
0
VERTEX
8
0
10
77.0102875
20
9.03799375
30
0
0
VERTEX
8
0
10
77.01804375
20
9.032193750000001
30
0
0
VERTEX
8
0
10
77.0199
20
9.0307125
30
0
0
VERTEX
8
0
10
77.022253125
20
9.028709375
30
0
0
VERTEX
8
0
10
77.02260625000001
20
9.028553125
30
0
0
VERTEX
8
0
10
77.025628125
20
9.026140625
30
0
42
0.44107123998265213
0
VERTEX
8
0
10
77.132759375
20
9.059628125
30
0
0
VERTEX
8
0
10
77.1341625
20
9.061831250000001
30
0
0
VERTEX
8
0
10
77.13427187500001
20
9.062209375
30
0
0
VERTEX
8
0
10
77.13456875
20
9.062715625000001
30
0
0
VERTEX
8
0
10
77.25256250000001
20
9.347581250000001
30
0
0
VERTEX
8
0
10
77.590165625
20
9.685184375
30
0
0
VERTEX
8
0
10
77.899428125
20
9.813281250000001
30
0
0
VERTEX
8
0
10
77.907790625
20
9.818246875
30
0
0
VERTEX
8
0
10
77.91625
20
9.822918750000001
30
0
42
0.3834763853360074
0
VERTEX
8
0
10
77.935559375
20
9.922971875
30
0
0
VERTEX
8
0
10
77.93058125
20
9.9290625
30
0
0
VERTEX
8
0
10
77.92415
20
9.9375625
30
0
0
VERTEX
8
0
10
59.5113375
20
28.350375
30
0
0
VERTEX
8
0
10
59.510015625
20
28.3513625
30
0
0
VERTEX
8
0
10
59.508971875
20
28.352640625000003
30
0
0
VERTEX
8
0
10
59.5025125
20
28.35705
30
0
0
VERTEX
8
0
10
59.49895
20
28.360084375000003
30
0
0
VERTEX
8
0
10
59.497478125
20
28.360740625000002
30
0
0
VERTEX
8
0
10
59.49390625
20
28.363409375
30
0
42
0.010749834475634214
0
VERTEX
8
0
10
59.490996875
20
28.364915625000002
30
0
0
VERTEX
8
0
10
59.482150000000004
20
28.367771875000003
30
0
0
VERTEX
8
0
10
59.479159375
20
28.368884375
30
0
0
VERTEX
8
0
10
59.479059375000006
20
28.368928125
30
0
0
VERTEX
8
0
10
59.479028125000006
20
28.368931250000003
30
0
0
VERTEX
8
0
10
59.4735
20
28.370984375000003
30
0
42
0.0825911592529327
0
VERTEX
8
0
10
59.448525000000004
20
28.37216875
30
0
0
VERTEX
8
0
10
59.438171875
20
28.369468750000003
30
0
0
VERTEX
8
0
10
59.436315625000006
20
28.369059375000003
30
0
0
VERTEX
8
0
10
59.433746875000004
20
28.3686875
30
0
0
VERTEX
8
0
10
59.4329125
20
28.36830625
30
0
0
VERTEX
8
0
10
59.43053125
20
28.367778125
30
0
42
0.007884456392637858
0
VERTEX
8
0
10
59.428296875
20
28.366893750000003
30
0
0
VERTEX
8
0
10
59.164443750000004
20
28.2576
30
0
0
VERTEX
8
0
10
58.785553125
20
28.2576
30
0
0
VERTEX
8
0
10
58.43550625
20
28.40259375
30
0
0
VERTEX
8
0
10
58.16759375
20
28.670506250000003
30
0
0
VERTEX
8
0
10
58.022600000000004
20
29.020553125000003
30
0
0
VERTEX
8
0
10
58.022600000000004
20
29.39944375
30
0
0
VERTEX
8
0
10
58.16759375
20
29.749490625
30
0
0
VERTEX
8
0
10
58.43550625
20
30.017403125
30
0
0
VERTEX
8
0
10
58.785553125
20
30.162396875000002
30
0
0
VERTEX
8
0
10
59.164443750000004
20
30.162396875000002
30
0
0
VERTEX
8
0
10
59.514490625
20
30.017403125
30
0
0
VERTEX
8
0
10
59.782403125
20
29.749490625
30
0
0
VERTEX
8
0
10
59.927396875
20
29.39944375
30
0
0
VERTEX
8
0
10
59.927396875
20
29.020553125000003
30
0
0
VERTEX
8
0
10
59.818103125
20
28.756700000000002
30
0
0
VERTEX
8
0
10
59.817696875
20
28.755103125
30
0
0
VERTEX
8
0
10
59.816915625
20
28.75365
30
0
42
0.21835452448693754
0
VERTEX
8
0
10
59.82200625
20
28.690328125
30
0
0
VERTEX
8
0
10
59.8284625
20
28.681796875
30
0
0
VERTEX
8
0
10
59.832950000000004
20
28.675384375
30
0
42
0.007881903973716804
0
VERTEX
8
0
10
59.834621875
20
28.673659375
30
0
0
VERTEX
8
0
10
78.31326875
20
10.195015625
30
0
0
VERTEX
8
0
10
78.320053125
20
10.189943750000001
30
0
0
VERTEX
8
0
10
78.326553125
20
10.184409375000001
30
0
42
0.08765145259213399
0
VERTEX
8
0
10
78.35110625
20
10.17440625
30
0
0
VERTEX
8
0
10
78.35848125
20
10.173896875
30
0
0
VERTEX
8
0
10
78.36715000000001
20
10.172696875
30
0
0
VERTEX
8
0
10
78.493896875
20
10.172696875
30
0
0
VERTEX
8
0
10
78.496728125
20
10.17310625
30
0
0
VERTEX
8
0
10
78.49956875000001
20
10.172909375
30
0
42
0.548409711059846
0
VERTEX
8
0
10
78.56039375
20
10.286109375
30
0
0
VERTEX
8
0
10
78.55511875
20
10.293078125000001
30
0
0
VERTEX
8
0
10
78.55106875
20
10.299275
30
0
42
0.015772426617527556
0
VERTEX
8
0
10
78.54777812500001
20
10.302778125
30
0
0
VERTEX
8
0
10
60.540800000000004
20
28.309753125
30
0
0
VERTEX
8
0
10
60.540800000000004
20
47.689346875000005
30
0
0
VERTEX
8
0
10
60.539584375000004
20
47.697775
30
0
0
VERTEX
8
0
10
60.538903125000004
20
47.706240625
30
0
42
0.08765396656356698
0
VERTEX
8
0
10
60.52861875
20
47.730678125000004
30
0
0
VERTEX
8
0
10
60.523746875
20
47.736271875
30
0
0
VERTEX
8
0
10
60.51848125
20
47.743228125
30
0
0
VERTEX
8
0
10
59.5913375
20
48.670375
30
0
0
VERTEX
8
0
10
59.590015625
20
48.6713625
30
0
0
VERTEX
8
0
10
59.588971875000006
20
48.672640625
30
0
42
0.21834535467815266
0
VERTEX
8
0
10
59.528525
20
48.69216875
30
0
0
VERTEX
8
0
10
59.518171875
20
48.68946875
30
0
0
VERTEX
8
0
10
59.51053125
20
48.687778125
30
0
42
0.007884456392637858
0
VERTEX
8
0
10
59.508296875000006
20
48.68689375
30
0
0
VERTEX
8
0
10
59.24444375
20
48.577600000000004
30
0
0
VERTEX
8
0
10
58.865553125000005
20
48.577600000000004
30
0
0
VERTEX
8
0
10
58.51550625
20
48.72259375
30
0
0
VERTEX
8
0
10
58.24759375
20
48.99050625
30
0
0
VERTEX
8
0
10
58.1026
20
49.340553125
30
0
0
VERTEX
8
0
10
58.1026
20
49.71944375
30
0
0
VERTEX
8
0
10
58.24759375
20
50.069490625
30
0
0
VERTEX
8
0
10
58.51550625
20
50.337403125
30
0
0
VERTEX
8
0
10
58.865553125000005
20
50.482396875
30
0
0
VERTEX
8
0
10
59.24444375
20
50.482396875
30
0
0
VERTEX
8
0
10
59.594490625000006
20
50.337403125
30
0
0
VERTEX
8
0
10
59.862403125
20
50.069490625
30
0
0
VERTEX
8
0
10
60.007396875000005
20
49.71944375
30
0
0
VERTEX
8
0
10
60.007396875000005
20
49.340553125
30
0
0
VERTEX
8
0
10
59.898103125000006
20
49.0767
30
0
0
VERTEX
8
0
10
59.897696875
20
49.075103125000005
30
0
0
VERTEX
8
0
10
59.896915625000005
20
49.07365
30
0
42
0.21835452448693754
0
VERTEX
8
0
10
59.90200625
20
49.010328125
30
0
0
VERTEX
8
0
10
59.908462500000006
20
49.001796875000004
30
0
0
VERTEX
8
0
10
59.91295
20
48.995384375
30
0
42
0.007881903973716804
0
VERTEX
8
0
10
59.914621875
20
48.993659375
30
0
0
VERTEX
8
0
10
60.84176875
20
48.066515625
30
0
0
VERTEX
8
0
10
60.997996875000005
20
47.9102875
30
0
0
VERTEX
8
0
10
60.997996875000005
20
28.53069375
30
0
0
VERTEX
8
0
10
60.999212500000006
20
28.522265625000003
30
0
0
VERTEX
8
0
10
60.999893750000005
20
28.5138
30
0
42
0.08765396656356698
0
VERTEX
8
0
10
61.010178125
20
28.489362500000002
30
0
0
VERTEX
8
0
10
61.01505
20
28.483768750000003
30
0
0
VERTEX
8
0
10
61.020315625
20
28.4768125
30
0
0
VERTEX
8
0
10
80.079746875
20
9.41738125
30
0
0
VERTEX
8
0
10
80.079746875
20
5.822615625
30
0
0
VERTEX
8
0
10
79.92351875
20
5.6663875
30
0
0
VERTEX
8
0
10
79.175859375
20
4.91873125
30
0
0
VERTEX
8
0
10
79.17585
20
4.91871875
30
0
0
VERTEX
8
0
10
79.01963125
20
4.7625
30
0
0
SEQEND
0
POLYLINE
66
1
8
16_copper
10
0.0
20
0.0
30
0.0
70
1
0
VERTEX
8
0
10
30.738303125
20
73.003296875
30
0
42
0.19743077648091498
0
VERTEX
8
0
10
30.791753125000003
20
73.025040625
30
0
0
VERTEX
8
0
10
31.655309375
20
73.888596875
30
0
0
VERTEX
8
0
10
45.33265
20
73.888596875
30
0
0
VERTEX
8
0
10
45.338268750000005
20
73.889409375
30
0
42
0.39258815634569955
0
VERTEX
8
0
10
45.40885
20
73.964796875
30
0
0
VERTEX
8
0
10
45.40885
20
74.311475
30
0
0
VERTEX
8
0
10
45.5915625
20
74.75258125
30
0
0
VERTEX
8
0
10
45.829403125
20
74.99041875
30
0
0
VERTEX
8
0
10
45.831106250000005
20
74.99269687500001
30
0
0
VERTEX
8
0
10
45.833265625
20
74.994578125
30
0
42
0.5484095900174472
0
VERTEX
8
0
10
45.796228125
20
75.11763125
30
0
0
VERTEX
8
0
10
45.787565625
20
75.11883125
30
0
0
VERTEX
8
0
10
45.780325000000005
20
75.12034687500001
30
0
42
0.015770375218223928
0
VERTEX
8
0
10
45.775521875
20
75.1205
30
0
0
VERTEX
8
0
10
31.602543750000002
20
75.1205
30
0
0
VERTEX
8
0
10
31.594115625
20
75.119284375
30
0
0
VERTEX
8
0
10
31.58565
20
75.118603125
30
0
42
0.08765396656356698
0
VERTEX
8
0
10
31.5612125
20
75.10831875000001
30
0
0
VERTEX
8
0
10
31.55561875
20
75.103446875
30
0
0
VERTEX
8
0
10
31.548662500000002
20
75.09818125000001
30
0
0
VERTEX
8
0
10
29.923056250000002
20
73.472578125
30
0
0
VERTEX
8
0
10
29.921353125000003
20
73.47030000000001
30
0
0
VERTEX
8
0
10
29.91919375
20
73.46841875
30
0
42
0.5484095900174472
0
VERTEX
8
0
10
29.956231250000002
20
73.345365625
30
0
0
VERTEX
8
0
10
29.96489375
20
73.344165625
30
0
0
VERTEX
8
0
10
29.972134375000003
20
73.34265
30
0
42
0.015770375218223928
0
VERTEX
8
0
10
29.976937500000002
20
73.34249687500001
30
0
0
VERTEX
8
0
10
30.161465625
20
73.34249687500001
30
0
0
VERTEX
8
0
10
30.511546875
20
73.19748750000001
30
0
0
VERTEX
8
0
10
30.683990625
20
73.025040625
30
0
0
VERTEX
8
0
10
30.688540625
20
73.0216375
30
0
42
0.16339719047755988
0
VERTEX
8
0
10
30.73306875
20
73.002875
30
0
0
SEQEND
0
POLYLINE
66
1
8
16_copper
10
0.0
20
0.0
30
0.0
70
1
0
VERTEX
8
0
10
51.608325
20
70.71458125000001
30
0
0
VERTEX
8
0
10
51.61519375
20
70.7148375
30
0
42
0.747773970328163
0
VERTEX
8
0
10
51.630665625000006
20
70.860196875
30
0
0
VERTEX
8
0
10
51.390165625
20
70.9598125
30
0
0
VERTEX
8
0
10
51.0525625
20
71.297415625
30
0
0
VERTEX
8
0
10
50.86985
20
71.738521875
30
0
0
VERTEX
8
0
10
50.86985
20
72.7202
30
0
0
VERTEX
8
0
10
50.869037500000005
20
72.72581875
30
0
42
0.39258815634569955
0
VERTEX
8
0
10
50.79365
20
72.7964
30
0
0
VERTEX
8
0
10
49.367096875
20
72.7964
30
0
0
VERTEX
8
0
10
47.939228125
20
74.224271875
30
0
0
VERTEX
8
0
10
47.93695
20
74.225975
30
0
0
VERTEX
8
0
10
47.93506875
20
74.22813437500001
30
0
0
VERTEX
8
0
10
47.928603125
20
74.23225625
30
0
0
VERTEX
8
0
10
47.928334375000006
20
74.232484375
30
0
0
VERTEX
8
0
10
47.928115625000004
20
74.23258125000001
30
0
0
VERTEX
8
0
10
47.921796875000005
20
74.23730625
30
0
42
0.4813209980618829
0
VERTEX
8
0
10
47.812015625
20
74.191096875
30
0
0
VERTEX
8
0
10
47.810815625000004
20
74.182434375
30
0
0
VERTEX
8
0
10
47.8102875
20
74.17990937500001
30
0
0
VERTEX
8
0
10
47.809865625
20
74.17845
30
0
0
VERTEX
8
0
10
47.80986875
20
74.1779125
30
0
0
VERTEX
8
0
10
47.8093
20
74.17519375
30
0
42
0.015770375218223928
0
VERTEX
8
0
10
47.809146875
20
74.17039062500001
30
0
0
VERTEX
8
0
10
47.809146875
20
71.738521875
30
0
0
VERTEX
8
0
10
47.626434375
20
71.297415625
30
0
0
VERTEX
8
0
10
47.28883125
20
70.9598125
30
0
0
VERTEX
8
0
10
47.048331250000004
20
70.860196875
30
0
0
VERTEX
8
0
10
47.04241875
20
70.856684375
30
0
0
VERTEX
8
0
10
47.036159375000004
20
70.85381562500001
30
0
42
0.7477774313238661
0
VERTEX
8
0
10
47.077490625
20
70.71359687500001
30
0
0
VERTEX
8
0
10
51.60150625
20
70.71359687500001
30
0
0
SEQEND
0
POLYLINE
66
1
8
16_copper
10
0.0
20
0.0
30
0.0
70
1
0
VERTEX
8
0
10
46.147325
20
70.71458125000001
30
0
0
VERTEX
8
0
10
46.154193750000005
20
70.7148375
30
0
42
0.747773970328163
0
VERTEX
8
0
10
46.169665625
20
70.860196875
30
0
0
VERTEX
8
0
10
45.929165625
20
70.9598125
30
0
0
VERTEX
8
0
10
45.5915625
20
71.297415625
30
0
0
VERTEX
8
0
10
45.40885
20
71.738521875
30
0
0
VERTEX
8
0
10
45.40885
20
73.35520000000001
30
0
0
VERTEX
8
0
10
45.4080375
20
73.36081875
30
0
42
0.39258815634569955
0
VERTEX
8
0
10
45.33265
20
73.4314
30
0
0
VERTEX
8
0
10
34.01759375
20
73.4314
30
0
0
VERTEX
8
0
10
34.0147625
20
73.430990625
30
0
0
VERTEX
8
0
10
34.011921875
20
73.43118750000001
30
0
42
0.548409711059846
0
VERTEX
8
0
10
33.951096875000005
20
73.3179875
30
0
0
VERTEX
8
0
10
33.956371875
20
73.31101875
30
0
0
VERTEX
8
0
10
33.960421875
20
73.304821875
30
0
42
0.015772426617527556
0
VERTEX
8
0
10
33.9637125
20
73.30131875000001
30
0
0
VERTEX
8
0
10
34.480496875
20
72.7845375
30
0
0
VERTEX
8
0
10
34.480496875
20
71.99544375
30
0
0
VERTEX
8
0
10
34.477137500000005
20
71.990953125
30
0
42
0.1398283613220004
0
VERTEX
8
0
10
34.458796875000004
20
71.941190625
30
0
0
VERTEX
8
0
10
34.458434375
20
71.93595
30
0
42
0.17961864646782408
0
VERTEX
8
0
10
34.480540625
20
71.887740625
30
0
0
VERTEX
8
0
10
35.632368750000005
20
70.735915625
30
0
0
VERTEX
8
0
10
35.639153125
20
70.73084375
30
0
0
VERTEX
8
0
10
35.645653125
20
70.72530937500001
30
0
42
0.08765145259213399
0
VERTEX
8
0
10
35.67020625
20
70.71530625
30
0
0
VERTEX
8
0
10
35.67758125
20
70.714796875
30
0
0
VERTEX
8
0
10
35.68625
20
70.71359687500001
30
0
0
VERTEX
8
0
10
46.14050625
20
70.71359687500001
30
0
0
SEQEND
0
POLYLINE
66
1
8
16_copper
10
0.0
20
0.0
30
0.0
70
1
0
VERTEX
8
0
10
33.882365625
20
30.421071875000003
30
0
0
VERTEX
8
0
10
33.891996875000004
20
30.421846875
30
0
42
0.07970074036771702
0
VERTEX
8
0
10
33.914390625
20
30.430859375
30
0
0
VERTEX
8
0
10
33.920443750000004
20
30.435803125000003
30
0
0
VERTEX
8
0
10
33.928984375
20
30.44226875
30
0
0
VERTEX
8
0
10
42.92908125
20
39.44236875
30
0
0
VERTEX
8
0
10
42.932387500000004
20
39.446790625
30
0
0
VERTEX
8
0
10
42.93294375
20
39.447275000000005
30
0
0
VERTEX
8
0
10
42.9340625
20
39.449031250000004
30
0
0
VERTEX
8
0
10
42.934153125
20
39.449153125
30
0
0
VERTEX
8
0
10
42.939687500000005
20
39.455653125000005
30
0
42
0.015769721011977475
0
VERTEX
8
0
10
42.942115625
20
39.4598
30
0
0
VERTEX
8
0
10
42.943771875
20
39.464265625
30
0
0
VERTEX
8
0
10
42.944643750000004
20
39.46563125
30
0
0
VERTEX
8
0
10
42.945606250000004
20
39.468965625
30
0
0
VERTEX
8
0
10
42.94853125
20
39.47554375
30
0
42
0.015766932116074574
0
VERTEX
8
0
10
42.949690625
20
39.48020625
30
0
0
VERTEX
8
0
10
42.949953125
20
39.484025
30
0
0
VERTEX
8
0
10
42.95068125
20
39.48654375
30
0
0
VERTEX
8
0
10
42.95065625
20
39.49088125
30
0
0
VERTEX
8
0
10
42.9514
20
39.49625
30
0
0
VERTEX
8
0
10
42.9514
20
70.1802
30
0
0
VERTEX
8
0
10
42.950587500000005
20
70.18581875000001
30
0
42
0.39258815634569955
0
VERTEX
8
0
10
42.8752
20
70.2564
30
0
0
VERTEX
8
0
10
35.465309375000004
20
70.2564
30
0
0
VERTEX
8
0
10
34.15725625
20
71.56445625
30
0
0
VERTEX
8
0
10
34.15270625
20
71.567859375
30
0
42
0.39256960445629635
0
VERTEX
8
0
10
34.04949375
20
71.56445625
30
0
0
VERTEX
8
0
10
33.922537500000004
20
71.4375
30
0
0
VERTEX
8
0
10
33.133459375
20
71.4375
30
0
0
VERTEX
8
0
10
32.5755
20
71.99545937500001
30
0
0
VERTEX
8
0
10
32.5755
20
72.7845375
30
0
0
VERTEX
8
0
10
33.092284375
20
73.30131875000001
30
0
0
VERTEX
8
0
10
33.093987500000004
20
73.303596875
30
0
0
VERTEX
8
0
10
33.096146875
20
73.30547812500001
30
0
42
0.5484095900174472
0
VERTEX
8
0
10
33.059109375
20
73.42853125
30
0
0
VERTEX
8
0
10
33.050446875
20
73.42973125
30
0
0
VERTEX
8
0
10
33.043206250000004
20
73.431246875
30
0
42
0.015770375218223928
0
VERTEX
8
0
10
33.038403125
20
73.4314
30
0
0
VERTEX
8
0
10
31.876250000000002
20
73.4314
30
0
0
VERTEX
8
0
10
31.867821875
20
73.43018437500001
30
0
0
VERTEX
8
0
10
31.85935625
20
73.429503125
30
0
42
0.08765396656356698
0
VERTEX
8
0
10
31.83491875
20
73.41921875
30
0
0
VERTEX
8
0
10
31.829325
20
73.414346875
30
0
0
VERTEX
8
0
10
31.822368750000003
20
73.40908125
30
0
0
VERTEX
8
0
10
30.946815625000003
20
72.533528125
30
0
0
VERTEX
8
0
10
30.94174375
20
72.52674375000001
30
0
0
VERTEX
8
0
10
30.936209375
20
72.52024375
30
0
42
0.08765145259213399
0
VERTEX
8
0
10
30.92620625
20
72.49569062500001
30
0
0
VERTEX
8
0
10
30.925696875
20
72.488315625
30
0
0
VERTEX
8
0
10
30.924496875000003
20
72.479646875
30
0
0
VERTEX
8
0
10
30.924496875000003
20
72.20053125
30
0
0
VERTEX
8
0
10
30.815181250000002
20
71.936625
30
0
0
VERTEX
8
0
10
30.814775
20
71.935028125
30
0
0
VERTEX
8
0
10
30.81399375
20
71.933575
30
0
42
0.21835452448693754
0
VERTEX
8
0
10
30.819084375000003
20
71.870253125
30
0
0
VERTEX
8
0
10
30.825540625000002
20
71.861721875
30
0
0
VERTEX
8
0
10
30.830028125000002
20
71.855309375
30
0
42
0.007881903973716804
0
VERTEX
8
0
10
30.8317
20
71.853584375
30
0
0
VERTEX
8
0
10
37.515796875
20
65.1694875
30
0
0
VERTEX
8
0
10
37.515796875
20
35.545434375
30
0
0
VERTEX
8
0
10
37.35956875
20
35.38920625
30
0
0
VERTEX
8
0
10
32.9868375
20
31.016478125000003
30
0
0
VERTEX
8
0
10
32.985134375
20
31.014200000000002
30
0
0
VERTEX
8
0
10
32.982975
20
31.012318750000002
30
0
42
0.5484095900174472
0
VERTEX
8
0
10
33.0200125
20
30.889265625
30
0
0
VERTEX
8
0
10
33.028675
20
30.888065625000003
30
0
0
VERTEX
8
0
10
33.035915625
20
30.88655
30
0
42
0.015770375218223928
0
VERTEX
8
0
10
33.04071875
20
30.886396875000003
30
0
0
VERTEX
8
0
10
33.201884375
20
30.886396875000003
30
0
0
VERTEX
8
0
10
33.537965625
20
30.747187500000003
30
0
0
VERTEX
8
0
10
33.795187500000004
20
30.489965625
30
0
0
VERTEX
8
0
10
33.804703125
20
30.466990625
30
0
42
0.2947489128946716
0
VERTEX
8
0
10
33.872696875
20
30.4199875
30
0
0
SEQEND
0
POLYLINE
66
1
8
16_copper
10
0.0
20
0.0
30
0.0
70
1
0
VERTEX
8
0
10
90.687178125
20
70.71481250000001
30
0
0
VERTEX
8
0
10
90.69564375
20
70.71549375000001
30
0
42
0.08765396656356698
0
VERTEX
8
0
10
90.72008125
20
70.725778125
30
0
0
VERTEX
8
0
10
90.72567500000001
20
70.73065
30
0
0
VERTEX
8
0
10
90.73263125000001
20
70.735915625
30
0
0
VERTEX
8
0
10
91.991325
20
71.99460937500001
30
0
0
VERTEX
8
0
10
91.995446875
20
72.000121875
30
0
0
VERTEX
8
0
10
92.00012500000001
20
72.0051625
30
0
42
0.747776549086395
0
VERTEX
8
0
10
91.90828437500001
20
72.118890625
30
0
0
VERTEX
8
0
10
91.62029375
20
71.9996
30
0
0
VERTEX
8
0
10
91.259703125
20
71.9996
30
0
0
VERTEX
8
0
10
90.9265625
20
72.137590625
30
0
0
VERTEX
8
0
10
90.67159062500001
20
72.3925625
30
0
0
VERTEX
8
0
10
90.53277812500001
20
72.7276875
30
0
0
VERTEX
8
0
10
90.53275625
20
72.731515625
30
0
42
0.33678083932991687
0
VERTEX
8
0
10
90.4574
20
72.7964
30
0
0
VERTEX
8
0
10
58.807346875
20
72.7964
30
0
0
VERTEX
8
0
10
58.801728125000004
20
72.79558750000001
30
0
42
0.39258815634569955
0
VERTEX
8
0
10
58.731146875
20
72.7202
30
0
0
VERTEX
8
0
10
58.731146875
20
71.738521875
30
0
0
VERTEX
8
0
10
58.548434375
20
71.297415625
30
0
0
VERTEX
8
0
10
58.210831250000005
20
70.9598125
30
0
0
VERTEX
8
0
10
57.97033125
20
70.860196875
30
0
0
VERTEX
8
0
10
57.96441875
20
70.856684375
30
0
0
VERTEX
8
0
10
57.958159375
20
70.85381562500001
30
0
42
0.7477774313238661
0
VERTEX
8
0
10
57.999490625
20
70.71359687500001
30
0
0
VERTEX
8
0
10
90.67875000000001
20
70.71359687500001
30
0
0
SEQEND
0
POLYLINE
66
1
8
16_copper
10
0.0
20
0.0
30
0.0
70
1
0
VERTEX
8
0
10
29.05988125
20
45.791900000000005
30
0
0
VERTEX
8
0
10
29.0689125
20
45.791953125
30
0
42
0.15700205781148927
0
VERTEX
8
0
10
29.110750000000003
20
45.812709375000004
30
0
0
VERTEX
8
0
10
29.116975
20
45.820709375
30
0
0
VERTEX
8
0
10
29.122084375
20
45.8267125
30
0
42
0.009562477146321646
0
VERTEX
8
0
10
29.123587500000003
20
45.829209375000005
30
0
0
VERTEX
8
0
10
29.666365625
20
46.769334375
30
0
0
VERTEX
8
0
10
30.446662500000002
20
47.549631250000004
30
0
0
VERTEX
8
0
10
31.402334375000002
20
48.1013875
30
0
0
VERTEX
8
0
10
32.468240625
20
48.386996875
30
0
0
VERTEX
8
0
10
33.57175625
20
48.386996875
30
0
0
VERTEX
8
0
10
34.637662500000005
20
48.1013875
30
0
0
VERTEX
8
0
10
35.593334375000005
20
47.549631250000004
30
0
0
VERTEX
8
0
10
36.37363125
20
46.769334375
30
0
0
VERTEX
8
0
10
36.916409375
20
45.829209375000005
30
0
0
VERTEX
8
0
10
36.917584375000004
20
45.827715625
30
0
0
VERTEX
8
0
10
36.91838125
20
45.825978125
30
0
42
0.6456013644168357
0
VERTEX
8
0
10
37.05573125
20
45.846603125
30
0
0
VERTEX
8
0
10
37.057128125
20
45.856693750000005
30
0
0
VERTEX
8
0
10
37.05854375
20
45.864396875000004
30
0
42
0.009558136755147257
0
VERTEX
8
0
10
37.0586
20
45.867309375000005
30
0
0
VERTEX
8
0
10
37.0586
20
64.948546875
30
0
0
VERTEX
8
0
10
37.057784375000004
20
64.95419687500001
30
0
0
VERTEX
8
0
10
37.057756250000004
20
64.9591125
30
0
0
VERTEX
8
0
10
37.0570125
20
64.96158125000001
30
0
0
VERTEX
8
0
10
37.056703125
20
64.965440625
30
0
42
0.015770042330091556
0
VERTEX
8
0
10
37.055490625000004
20
64.970090625
30
0
0
VERTEX
8
0
10
37.052462500000004
20
64.97669375000001
30
0
0
VERTEX
8
0
10
37.05148125
20
64.97995625
30
0
0
VERTEX
8
0
10
37.050621875000004
20
64.981271875
30
0
0
VERTEX
8
0
10
37.048896875000004
20
64.985759375
30
0
42
0.015773954014740632
0
VERTEX
8
0
10
37.04641875
20
64.989878125
30
0
0
VERTEX
8
0
10
37.041546875
20
64.995471875
30
0
0
VERTEX
8
0
10
37.040025
20
64.99748125
30
0
0
VERTEX
8
0
10
37.039571875
20
64.998175
30
0
0
VERTEX
8
0
10
37.039371875
20
64.99834687500001
30
0
0
VERTEX
8
0
10
37.03628125
20
65.00242812500001
30
0
0
VERTEX
8
0
10
30.508412500000002
20
71.530296875
30
0
0
VERTEX
8
0
10
30.507090625
20
71.531284375
30
0
0
VERTEX
8
0
10
30.506046875000003
20
71.5325625
30
0
42
0.21834535467815266
0
VERTEX
8
0
10
30.445600000000002
20
71.552090625
30
0
0
VERTEX
8
0
10
30.435246875
20
71.549390625
30
0
0
VERTEX
8
0
10
30.42760625
20
71.5477
30
0
42
0.007884456392637858
0
VERTEX
8
0
10
30.425371875
20
71.54681562500001
30
0
0
VERTEX
8
0
10
30.161465625
20
71.4375
30
0
0
VERTEX
8
0
10
29.78253125
20
71.4375
30
0
0
VERTEX
8
0
10
29.432450000000003
20
71.582509375
30
0
0
VERTEX
8
0
10
29.164509375
20
71.85045000000001
30
0
0
VERTEX
8
0
10
29.127996875
20
71.938603125
30
0
0
VERTEX
8
0
10
29.124484375
20
71.94451562500001
30
0
0
VERTEX
8
0
10
29.121615625
20
71.95077500000001
30
0
42
0.7477774313238661
0
VERTEX
8
0
10
28.981396875
20
71.90944375000001
30
0
0
VERTEX
8
0
10
28.981396875
20
45.867309375000005
30
0
0
VERTEX
8
0
10
28.98166875
20
45.865425
30
0
0
VERTEX
8
0
10
28.981490625000003
20
45.863525
30
0
42
0.37446218147507704
0
VERTEX
8
0
10
29.05090625
20
45.791403125
30
0
0
SEQEND
0
POLYLINE
66
1
8
16_copper
10
0.0
20
0.0
30
0.0
70
1
0
VERTEX
8
0
10
77.02357500000001
20
58.204100000000004
30
0
0
VERTEX
8
0
10
76.161159375
20
58.435184375000006
30
0
0
VERTEX
8
0
10
75.3879375
20
58.881603125000005
30
0
0
VERTEX
8
0
10
74.756603125
20
59.5129375
30
0
0
VERTEX
8
0
10
74.310184375
20
60.286159375000004
30
0
0
VERTEX
8
0
10
74.0791
20
61.148575
30
0
0
VERTEX
8
0
10
74.0791
20
62.041421875000005
30
0
0
VERTEX
8
0
10
74.310184375
20
62.9038375
30
0
0
VERTEX
8
0
10
74.756603125
20
63.677059375000006
30
0
0
VERTEX
8
0
10
75.3879375
20
64.30839375000001
30
0
0
VERTEX
8
0
10
76.161159375
20
64.7548125
30
0
0
VERTEX
8
0
10
77.02357500000001
20
64.98589687500001
30
0
0
VERTEX
8
0
10
77.916421875
20
64.98589687500001
30
0
0
VERTEX
8
0
10
78.77883750000001
20
64.7548125
30
0
0
VERTEX
8
0
10
79.552059375
20
64.30839375000001
30
0
0
VERTEX
8
0
10
80.18339375000001
20
63.677059375000006
30
0
0
VERTEX
8
0
10
80.6298125
20
62.9038375
30
0
0
VERTEX
8
0
10
80.86089687500001
20
62.041421875000005
30
0
0
VERTEX
8
0
10
80.86089687500001
20
61.148575
30
0
0
VERTEX
8
0
10
80.6298125
20
60.286159375000004
30
0
0
VERTEX
8
0
10
80.18339375000001
20
59.5129375
30
0
0
VERTEX
8
0
10
79.552059375
20
58.881603125000005
30
0
0
VERTEX
8
0
10
78.77883750000001
20
58.435184375000006
30
0
0
VERTEX
8
0
10
77.916421875
20
58.204100000000004
30
0
0
SEQEND
0
POLYLINE
66
1
8
16_copper
10
0.0
20
0.0
30
0.0
70
1
0
VERTEX
8
0
10
27.409809375000002
20
19.249315625
30
0
0
VERTEX
8
0
10
27.4179125
20
19.2493625
30
0
42
0.09053247093623687
0
VERTEX
8
0
10
27.443809375
20
19.258221875
30
0
0
VERTEX
8
0
10
27.450778125000003
20
19.263496875
30
0
0
VERTEX
8
0
10
27.456975
20
19.267546875
30
0
42
0.015772426617527556
0
VERTEX
8
0
10
27.460478125
20
19.270837500000003
30
0
0
VERTEX
8
0
10
35.593159375
20
27.40351875
30
0
0
VERTEX
8
0
10
35.594862500000005
20
27.405796875
30
0
0
VERTEX
8
0
10
35.596265625
20
27.407018750000002
30
0
0
VERTEX
8
0
10
35.597021875
20
27.407678125
30
0
42
0.5484095900174472
0
VERTEX
8
0
10
35.559984375
20
27.530731250000002
30
0
0
VERTEX
8
0
10
35.551321875
20
27.531931250000003
30
0
0
VERTEX
8
0
10
35.544081250000005
20
27.533446875000003
30
0
42
0.015770375218223928
0
VERTEX
8
0
10
35.539278125
20
27.5336
30
0
0
VERTEX
8
0
10
35.3781125
20
27.5336
30
0
0
VERTEX
8
0
10
35.04203125
20
27.672809375
30
0
0
VERTEX
8
0
10
34.784809375
20
27.930031250000003
30
0
0
VERTEX
8
0
10
34.664853125
20
28.2196375
30
0
0
VERTEX
8
0
10
34.6598875
20
28.228
30
0
0
VERTEX
8
0
10
34.655215625000004
20
28.236459375000003
30
0
42
0.3834763853360074
0
VERTEX
8
0
10
34.5551625
20
28.25576875
30
0
0
VERTEX
8
0
10
34.549071875
20
28.250790625
30
0
0
VERTEX
8
0
10
34.540571875000005
20
28.244359375000002
30
0
0
VERTEX
8
0
10
33.5250125
20
27.2288
30
0
0
VERTEX
8
0
10
32.514984375000004
20
27.2288
30
0
0
VERTEX
8
0
10
31.800800000000002
20
27.942984375
30
0
0
VERTEX
8
0
10
31.800800000000002
20
30.4770125
30
0
0
VERTEX
8
0
10
37.03628125
20
35.71249375
30
0
0
VERTEX
8
0
10
37.041353125
20
35.719278125
30
0
0
VERTEX
8
0
10
37.046887500000004
20
35.725778125000005
30
0
42
0.08765145259213399
0
VERTEX
8
0
10
37.056890625
20
35.75033125
30
0
0
VERTEX
8
0
10
37.0574
20
35.75770625
30
0
0
VERTEX
8
0
10
37.0586
20
35.766375000000004
30
0
0
VERTEX
8
0
10
37.0586
20
42.5246875
30
0
0
VERTEX
8
0
10
37.058328125
20
42.526571875
30
0
0
VERTEX
8
0
10
37.05850625
20
42.528471875
30
0
42
0.6455929975858509
0
VERTEX
8
0
10
36.929246875000004
20
42.5792875
30
0
0
VERTEX
8
0
10
36.923021875
20
42.571287500000004
30
0
0
VERTEX
8
0
10
36.9179125
20
42.565284375000005
30
0
42
0.009562477146321646
0
VERTEX
8
0
10
36.916409375
20
42.5627875
30
0
0
VERTEX
8
0
10
36.37363125
20
41.622662500000004
30
0
0
VERTEX
8
0
10
35.593334375000005
20
40.842365625
30
0
0
VERTEX
8
0
10
34.637662500000005
20
40.290609375
30
0
0
VERTEX
8
0
10
33.57175625
20
40.005
30
0
0
VERTEX
8
0
10
32.468240625
20
40.005
30
0
0
VERTEX
8
0
10
31.402334375000002
20
40.290609375
30
0
0
VERTEX
8
0
10
30.822896875
20
40.625150000000005
30
0
0
VERTEX
8
0
10
30.819365625000003
20
40.6265625
30
0
0
VERTEX
8
0
10
30.8161625
20
40.628603125000005
30
0
42
0.45857153234275605
0
VERTEX
8
0
10
30.711465625000002
20
40.579865625000004
30
0
0
VERTEX
8
0
10
30.710428125
20
40.572378125
30
0
0
VERTEX
8
0
10
30.708890625000002
20
40.565850000000005
30
0
42
0.02198255447871562
0
VERTEX
8
0
10
30.708596875
20
40.559159375
30
0
0
VERTEX
8
0
10
30.708596875
20
30.9179625
30
0
0
VERTEX
8
0
10
30.708834375000002
20
30.916325
30
0
0
VERTEX
8
0
10
30.70866875
20
30.914687500000003
30
0
42
0.21834638570063183
0
VERTEX
8
0
10
30.737603125000003
20
30.8581375
30
0
0
VERTEX
8
0
10
30.746815625
20
30.852734375
30
0
0
VERTEX
8
0
10
30.753431250000002
20
30.84851875
30
0
42
0.007889569284554799
0
VERTEX
8
0
10
30.755637500000002
20
30.847562500000002
30
0
0
VERTEX
8
0
10
30.997965625000003
20
30.747187500000003
30
0
0
VERTEX
8
0
10
31.2551875
20
30.489965625
30
0
0
VERTEX
8
0
10
31.394396875
20
30.153884375
30
0
0
VERTEX
8
0
10
31.394396875
20
28.266112500000002
30
0
0
VERTEX
8
0
10
31.2551875
20
27.930031250000003
30
0
0
VERTEX
8
0
10
30.997965625000003
20
27.672809375
30
0
0
VERTEX
8
0
10
30.661884375000003
20
27.5336
30
0
0
VERTEX
8
0
10
30.298112500000002
20
27.5336
30
0
0
VERTEX
8
0
10
29.962031250000003
20
27.672809375
30
0
0
VERTEX
8
0
10
29.704809375
20
27.930031250000003
30
0
0
VERTEX
8
0
10
29.69529375
20
27.95300625
30
0
42
0.45856203441350496
0
VERTEX
8
0
10
29.58560625
20
27.989137500000002
30
0
0
VERTEX
8
0
10
29.579553125
20
27.984193750000003
30
0
0
VERTEX
8
0
10
29.571012500000002
20
27.977728125000002
30
0
0
VERTEX
8
0
10
27.352715625000002
20
25.759428125000003
30
0
0
VERTEX
8
0
10
27.349403125000002
20
25.754996875
30
0
0
VERTEX
8
0
10
27.348853125
20
25.754518750000003
30
0
0
VERTEX
8
0
10
27.347746875000002
20
25.752784375
30
0
0
VERTEX
8
0
10
27.34764375
20
25.75264375
30
0
0
VERTEX
8
0
10
27.342109375
20
25.74614375
30
0
42
0.015769721011977475
0
VERTEX
8
0
10
27.33968125
20
25.741996875
30
0
0
VERTEX
8
0
10
27.338021875000003
20
25.737525
30
0
0
VERTEX
8
0
10
27.337153125
20
25.736162500000002
30
0
0
VERTEX
8
0
10
27.33619375
20
25.732837500000002
30
0
0
VERTEX
8
0
10
27.333265625000003
20
25.726253125
30
0
42
0.015766932116074574
0
VERTEX
8
0
10
27.332106250000002
20
25.721590625
30
0
0
VERTEX
8
0
10
27.33184375
20
25.71776875
30
0
0
VERTEX
8
0
10
27.331115625000002
20
25.71525
30
0
0
VERTEX
8
0
10
27.331140625
20
25.710915625000002
30
0
0
VERTEX
8
0
10
27.330396875
20
25.705546875
30
0
0
VERTEX
8
0
10
27.330396875
20
19.324718750000002
30
0
0
VERTEX
8
0
10
27.330806250000002
20
19.321887500000003
30
0
0
VERTEX
8
0
10
27.330609375
20
19.319046875
30
0
42
0.3744677985373014
0
VERTEX
8
0
10
27.401793750000003
20
19.248671875
30
0
0
SEQEND
0
POLYLINE
66
1
8
16_copper
10
0.0
20
0.0
30
0.0
70
1
0
VERTEX
8
0
10
58.865553125000005
20
38.4176
30
0
0
VERTEX
8
0
10
58.51550625
20
38.562593750000005
30
0
0
VERTEX
8
0
10
58.24759375
20
38.83050625
30
0
0
VERTEX
8
0
10
58.1026
20
39.180553125
30
0
0
VERTEX
8
0
10
58.1026
20
39.55944375
30
0
0
VERTEX
8
0
10
58.24759375
20
39.909490625000004
30
0
0
VERTEX
8
0
10
58.51550625
20
40.177403125000005
30
0
0
VERTEX
8
0
10
58.865553125000005
20
40.322396875
30
0
0
VERTEX
8
0
10
59.24444375
20
40.322396875
30
0
0
VERTEX
8
0
10
59.594490625000006
20
40.177403125000005
30
0
0
VERTEX
8
0
10
59.862403125
20
39.909490625000004
30
0
0
VERTEX
8
0
10
60.007396875000005
20
39.55944375
30
0
0
VERTEX
8
0
10
60.007396875000005
20
39.180553125
30
0
0
VERTEX
8
0
10
59.862403125
20
38.83050625
30
0
0
VERTEX
8
0
10
59.594490625000006
20
38.562593750000005
30
0
0
VERTEX
8
0
10
59.24444375
20
38.4176
30
0
0
SEQEND
0
POLYLINE
66
1
8
16_copper
10
0.0
20
0.0
30
0.0
70
1
0
VERTEX
8
0
10
92.529703125
20
5.9596
30
0
0
VERTEX
8
0
10
92.1965625
20
6.0975906250000005
30
0
0
VERTEX
8
0
10
91.941590625
20
6.3525625
30
0
0
VERTEX
8
0
10
91.8036
20
6.685703125000001
30
0
0
VERTEX
8
0
10
91.8036
20
8.554293750000001
30
0
0
VERTEX
8
0
10
91.941590625
20
8.887434375
30
0
0
VERTEX
8
0
10
92.1965625
20
9.14240625
30
0
0
VERTEX
8
0
10
92.434359375
20
9.240903125
30
0
0
VERTEX
8
0
10
92.435778125
20
9.241746875
30
0
0
VERTEX
8
0
10
92.437359375
20
9.242221875
30
0
42
0.2183495123382137
0
VERTEX
8
0
10
92.47853125
20
9.290596875
30
0
0
VERTEX
8
0
10
92.47999375
20
9.30115625
30
0
0
VERTEX
8
0
10
92.4813625
20
9.308900000000001
30
0
42
0.00788569762177906
0
VERTEX
8
0
10
92.48140000000001
20
9.311303125
30
0
0
VERTEX
8
0
10
92.48140000000001
20
28.539687500000003
30
0
0
VERTEX
8
0
10
95.155375
20
31.213659375000002
30
0
0
VERTEX
8
0
10
95.1563625
20
31.21498125
30
0
0
VERTEX
8
0
10
95.157640625
20
31.216025000000002
30
0
42
0.007214360547404374
0
VERTEX
8
0
10
95.15909375000001
20
31.217675
30
0
0
VERTEX
8
0
10
95.163228125
20
31.224162500000002
30
0
0
VERTEX
8
0
10
95.16840937500001
20
31.231090625
30
0
42
0.010749834475634214
0
VERTEX
8
0
10
95.169915625
20
31.234
30
0
0
VERTEX
8
0
10
95.17034375
20
31.235325000000003
30
0
0
VERTEX
8
0
10
95.17079375
20
31.23603125
30
0
0
VERTEX
8
0
10
95.1726625
20
31.242500000000003
30
0
0
VERTEX
8
0
10
95.17277187500001
20
31.242846875
30
0
0
VERTEX
8
0
10
95.175984375
20
31.251496875
30
0
42
0.015939135457941477
0
VERTEX
8
0
10
95.176646875
20
31.25630625
30
0
0
VERTEX
8
0
10
95.17683125
20
31.25694375
30
0
0
VERTEX
8
0
10
95.1768
20
31.262240625
30
0
0
VERTEX
8
0
10
95.17684687500001
20
31.264003125000002
30
0
0
VERTEX
8
0
10
95.17748125
20
31.273212500000003
30
0
42
0.01668255490242132
0
VERTEX
8
0
10
95.176709375
20
31.278234375
30
0
0
VERTEX
8
0
10
95.17670625000001
20
31.2787125
30
0
0
VERTEX
8
0
10
95.175796875
20
31.281737500000002
30
0
0
VERTEX
8
0
10
95.17446875
20
31.286825
30
0
0
VERTEX
8
0
10
95.17277812500001
20
31.294465625
30
0
42
0.007884456392637858
0
VERTEX
8
0
10
95.17189375000001
20
31.2967
30
0
0
VERTEX
8
0
10
95.0626
20
31.560553125000002
30
0
0
VERTEX
8
0
10
95.0626
20
31.939443750000002
30
0
0
VERTEX
8
0
10
95.20759375
20
32.289490625
30
0
0
VERTEX
8
0
10
95.47550625000001
20
32.557403125
30
0
0
VERTEX
8
0
10
95.825553125
20
32.702396875
30
0
0
VERTEX
8
0
10
96.20444375000001
20
32.702396875
30
0
0
VERTEX
8
0
10
96.554490625
20
32.557403125
30
0
0
VERTEX
8
0
10
96.82240312500001
20
32.289490625
30
0
0
VERTEX
8
0
10
96.967396875
20
31.939443750000002
30
0
0
VERTEX
8
0
10
96.967396875
20
31.560553125000002
30
0
0
VERTEX
8
0
10
96.82240312500001
20
31.21050625
30
0
0
VERTEX
8
0
10
96.554490625
20
30.94259375
30
0
0
VERTEX
8
0
10
96.20444375000001
20
30.797600000000003
30
0
0
VERTEX
8
0
10
95.825553125
20
30.797600000000003
30
0
0
VERTEX
8
0
10
95.5617
20
30.906893750000002
30
0
0
VERTEX
8
0
10
95.560103125
20
30.907300000000003
30
0
0
VERTEX
8
0
10
95.55865
20
30.908081250000002
30
0
42
0.21835452448693754
0
VERTEX
8
0
10
95.495328125
20
30.902990625
30
0
0
VERTEX
8
0
10
95.48679687500001
20
30.896534375
30
0
0
VERTEX
8
0
10
95.480384375
20
30.892046875000002
30
0
42
0.007881903973716804
0
VERTEX
8
0
10
95.478659375
20
30.890375000000002
30
0
0
VERTEX
8
0
10
92.960915625
20
28.372628125000002
30
0
0
VERTEX
8
0
10
92.95584375
20
28.36584375
30
0
0
VERTEX
8
0
10
92.950309375
20
28.35934375
30
0
42
0.08765145259213399
0
VERTEX
8
0
10
92.94030625
20
28.334790625
30
0
0
VERTEX
8
0
10
92.939796875
20
28.327415625
30
0
0
VERTEX
8
0
10
92.938596875
20
28.318746875000002
30
0
0
VERTEX
8
0
10
92.938596875
20
9.311303125
30
0
0
VERTEX
8
0
10
92.938834375
20
9.309665625000001
30
0
0
VERTEX
8
0
10
92.93866875
20
9.308028125
30
0
42
0.21834638570063183
0
VERTEX
8
0
10
92.96760312500001
20
9.251478125
30
0
0
VERTEX
8
0
10
92.976815625
20
9.246075000000001
30
0
0
VERTEX
8
0
10
92.98343125000001
20
9.241859375
30
0
42
0.007889569284554799
0
VERTEX
8
0
10
92.98563750000001
20
9.240903125
30
0
0
VERTEX
8
0
10
93.22343437500001
20
9.14240625
30
0
0
VERTEX
8
0
10
93.47840625
20
8.887434375
30
0
0
VERTEX
8
0
10
93.616396875
20
8.554293750000001
30
0
0
VERTEX
8
0
10
93.616396875
20
6.685703125000001
30
0
0
VERTEX
8
0
10
93.47840625
20
6.3525625
30
0
0
VERTEX
8
0
10
93.22343437500001
20
6.0975906250000005
30
0
0
VERTEX
8
0
10
92.89029375
20
5.9596
30
0
0
SEQEND
0
POLYLINE
66
1
8
16_copper
10
0.0
20
0.0
30
0.0
70
1
0
VERTEX
8
0
10
34.013809375
20
28.393315625
30
0
0
VERTEX
8
0
10
34.0219125
20
28.393362500000002
30
0
42
0.09053247093623687
0
VERTEX
8
0
10
34.047809375
20
28.402221875000002
30
0
0
VERTEX
8
0
10
34.054778125
20
28.407496875
30
0
0
VERTEX
8
0
10
34.060975
20
28.411546875000003
30
0
42
0.015772426617527556
0
VERTEX
8
0
10
34.064478125
20
28.4148375
30
0
0
VERTEX
8
0
10
34.623281250000005
20
28.97364375
30
0
0
VERTEX
8
0
10
34.628353125000004
20
28.980428125000003
30
0
0
VERTEX
8
0
10
34.6338875
20
28.986928125000002
30
0
42
0.08765145259213399
0
VERTEX
8
0
10
34.643890625000004
20
29.011481250000003
30
0
0
VERTEX
8
0
10
34.644400000000005
20
29.018856250000002
30
0
0
VERTEX
8
0
10
34.6456
20
29.027525
30
0
0
VERTEX
8
0
10
34.6456
20
29.951278125
30
0
0
VERTEX
8
0
10
34.645190625000005
20
29.954109375
30
0
0
VERTEX
8
0
10
34.6453875
20
29.956950000000003
30
0
42
0.548409711059846
0
VERTEX
8
0
10
34.5321875
20
30.017775
30
0
0
VERTEX
8
0
10
34.52521875
20
30.012500000000003
30
0
0
VERTEX
8
0
10
34.519021875
20
30.00845
30
0
42
0.015772426617527556
0
VERTEX
8
0
10
34.51551875
20
30.005159375
30
0
0
VERTEX
8
0
10
33.956715625
20
29.446353125
30
0
0
VERTEX
8
0
10
33.95164375
20
29.439568750000003
30
0
0
VERTEX
8
0
10
33.946109375
20
29.43306875
30
0
42
0.08765145259213399
0
VERTEX
8
0
10
33.93610625
20
29.408515625
30
0
0
VERTEX
8
0
10
33.935596875
20
29.401140625
30
0
0
VERTEX
8
0
10
33.934396875000004
20
29.392471875000002
30
0
0
VERTEX
8
0
10
33.934396875000004
20
28.46871875
30
0
0
VERTEX
8
0
10
33.93480625
20
28.4658875
30
0
0
VERTEX
8
0
10
33.934609375
20
28.463046875
30
0
42
0.3744677985373014
0
VERTEX
8
0
10
34.00579375
20
28.392671875
30
0
0
SEQEND
0
POLYLINE
66
1
8
16_copper
10
0.0
20
0.0
30
0.0
70
1
0
VERTEX
8
0
10
77.02357500000001
20
13.754100000000001
30
0
0
VERTEX
8
0
10
76.161159375
20
13.985184375000001
30
0
0
VERTEX
8
0
10
75.3879375
20
14.431603125
30
0
0
VERTEX
8
0
10
74.756603125
20
15.0629375
30
0
0
VERTEX
8
0
10
74.310184375
20
15.836159375000001
30
0
0
VERTEX
8
0
10
74.0791
20
16.698575
30
0
0
VERTEX
8
0
10
74.0791
20
17.591421875
30
0
0
VERTEX
8
0
10
74.310184375
20
18.453837500000002
30
0
0
VERTEX
8
0
10
74.756603125
20
19.227059375
30
0
0
VERTEX
8
0
10
75.3879375
20
19.85839375
30
0
0
VERTEX
8
0
10
76.161159375
20
20.3048125
30
0
0
VERTEX
8
0
10
77.02357500000001
20
20.535896875000002
30
0
0
VERTEX
8
0
10
77.916421875
20
20.535896875000002
30
0
0
VERTEX
8
0
10
78.77883750000001
20
20.3048125
30
0
0
VERTEX
8
0
10
79.552059375
20
19.85839375
30
0
0
VERTEX
8
0
10
80.18339375000001
20
19.227059375
30
0
0
VERTEX
8
0
10
80.6298125
20
18.453837500000002
30
0
0
VERTEX
8
0
10
80.86089687500001
20
17.591421875
30
0
0
VERTEX
8
0
10
80.86089687500001
20
16.698575
30
0
0
VERTEX
8
0
10
80.6298125
20
15.836159375000001
30
0
0
VERTEX
8
0
10
80.18339375000001
20
15.0629375
30
0
0
VERTEX
8
0
10
79.552059375
20
14.431603125
30
0
0
VERTEX
8
0
10
78.77883750000001
20
13.985184375000001
30
0
0
VERTEX
8
0
10
77.916421875
20
13.754100000000001
30
0
0
SEQEND
0
POLYLINE
66
1
8
16_copper
10
0.0
20
0.0
30
0.0
70
1
0
VERTEX
8
0
10
35.03221875
20
10.389409375
30
0
42
0.39258815634569955
0
VERTEX
8
0
10
35.1028
20
10.464796875000001
30
0
0
VERTEX
8
0
10
35.1028
20
10.875428125000001
30
0
0
VERTEX
8
0
10
35.83209375
20
11.60471875
30
0
0
VERTEX
8
0
10
35.833796875000004
20
11.606996875
30
0
0
VERTEX
8
0
10
35.83595625
20
11.608878125
30
0
42
0.5484095900174472
0
VERTEX
8
0
10
35.79891875
20
11.73193125
30
0
0
VERTEX
8
0
10
35.79025625
20
11.733131250000001
30
0
0
VERTEX
8
0
10
35.783015625000004
20
11.734646875000001
30
0
42
0.015770375218223928
0
VERTEX
8
0
10
35.7782125
20
11.7348
30
0
0
VERTEX
8
0
10
33.2589875
20
11.7348
30
0
0
VERTEX
8
0
10
33.250559375
20
11.733584375000001
30
0
0
VERTEX
8
0
10
33.24209375
20
11.732903125
30
0
42
0.08765396656356698
0
VERTEX
8
0
10
33.217656250000005
20
11.72261875
30
0
0
VERTEX
8
0
10
33.2120625
20
11.717746875000001
30
0
0
VERTEX
8
0
10
33.20510625
20
11.71248125
30
0
0
VERTEX
8
0
10
32.0113
20
10.518678125000001
30
0
0
VERTEX
8
0
10
32.009596875
20
10.5164
30
0
0
VERTEX
8
0
10
32.0074375
20
10.51451875
30
0
42
0.5484095900174472
0
VERTEX
8
0
10
32.044475
20
10.391465625
30
0
0
VERTEX
8
0
10
32.0531375
20
10.390265625
30
0
0
VERTEX
8
0
10
32.060378125
20
10.38875
30
0
42
0.015770375218223928
0
VERTEX
8
0
10
32.06518125
20
10.388596875000001
30
0
0
VERTEX
8
0
10
35.0266
20
10.388596875000001
30
0
0
SEQEND
0
POLYLINE
66
1
8
16_copper
10
0.0
20
0.0
30
0.0
70
1
0
VERTEX
8
0
10
52.008500000000005
20
8.680621875
30
0
0
VERTEX
8
0
10
52.011365625
20
8.6806375
30
0
42
0.29475366676537273
0
VERTEX
8
0
10
52.073381250000004
20
8.7352875
30
0
0
VERTEX
8
0
10
52.07458125
20
8.74395
30
0
0
VERTEX
8
0
10
52.076096875000005
20
8.751190625
30
0
42
0.015770375218223928
0
VERTEX
8
0
10
52.07625
20
8.75599375
30
0
0
VERTEX
8
0
10
52.07625
20
8.906475
30
0
0
VERTEX
8
0
10
52.2589625
20
9.347581250000001
30
0
0
VERTEX
8
0
10
52.596565625000004
20
9.685184375
30
0
0
VERTEX
8
0
10
53.037671875
20
9.867896875000001
30
0
0
VERTEX
8
0
10
53.374040625
20
9.867896875000001
30
0
0
VERTEX
8
0
10
53.376871875
20
9.86830625
30
0
0
VERTEX
8
0
10
53.379712500000004
20
9.868109375000001
30
0
42
0.548409711059846
0
VERTEX
8
0
10
53.440537500000005
20
9.981309375
30
0
0
VERTEX
8
0
10
53.4352625
20
9.988278125
30
0
0
VERTEX
8
0
10
53.4312125
20
9.994475000000001
30
0
42
0.015772426617527556
0
VERTEX
8
0
10
53.427921875
20
9.997978125000001
30
0
0
VERTEX
8
0
10
51.713415625
20
11.71248125
30
0
0
VERTEX
8
0
10
51.70663125
20
11.717553125
30
0
0
VERTEX
8
0
10
51.700131250000005
20
11.7230875
30
0
42
0.08765145259213399
0
VERTEX
8
0
10
51.675578125
20
11.733090625
30
0
0
VERTEX
8
0
10
51.668203125000005
20
11.733600000000001
30
0
0
VERTEX
8
0
10
51.659534375
20
11.7348
30
0
0
VERTEX
8
0
10
37.881784375
20
11.7348
30
0
0
VERTEX
8
0
10
37.878953125
20
11.734390625000001
30
0
0
VERTEX
8
0
10
37.876112500000005
20
11.7345875
30
0
42
0.548409711059846
0
VERTEX
8
0
10
37.815287500000004
20
11.6213875
30
0
0
VERTEX
8
0
10
37.8205625
20
11.61441875
30
0
0
VERTEX
8
0
10
37.8246125
20
11.608221875
30
0
42
0.015772426617527556
0
VERTEX
8
0
10
37.827903125
20
11.60471875
30
0
0
VERTEX
8
0
10
38.557196875
20
10.875428125000001
30
0
0
VERTEX
8
0
10
38.557196875
20
10.464796875000001
30
0
0
VERTEX
8
0
10
38.558009375000005
20
10.459178125000001
30
0
42
0.39258815634569955
0
VERTEX
8
0
10
38.633396875
20
10.388596875000001
30
0
0
VERTEX
8
0
10
50.259687500000005
20
10.388596875000001
30
0
0
VERTEX
8
0
10
50.41590625
20
10.232378125
30
0
0
VERTEX
8
0
10
50.415915625000004
20
10.232365625
30
0
0
VERTEX
8
0
10
51.946168750000005
20
8.7021125
30
0
0
VERTEX
8
0
10
51.948446875
20
8.700409375
30
0
0
VERTEX
8
0
10
51.950328125000006
20
8.69825
30
0
42
0.19891139780372522
0
VERTEX
8
0
10
52.005721875
20
8.68000625
30
0
0
SEQEND
0
POLYLINE
66
1
8
16_copper
10
0.0
20
0.0
30
0.0
70
1
0
VERTEX
8
0
10
31.016609375
20
9.768646875
30
0
0
VERTEX
8
0
10
31.024712500000003
20
9.76869375
30
0
42
0.07937712611614046
0
VERTEX
8
0
10
31.050609375
20
9.777553125
30
0
0
VERTEX
8
0
10
31.057578125000003
20
9.782828125
30
0
0
VERTEX
8
0
10
31.063775000000003
20
9.786878125000001
30
0
42
0.014135911353795425
0
VERTEX
8
0
10
31.067278125
20
9.790168750000001
30
0
0
VERTEX
8
0
10
31.078428125000002
20
9.80131875
30
0
42
0.4994664345905353
0
VERTEX
8
0
10
31.045253125000002
20
9.92853125
30
0
0
VERTEX
8
0
10
31.036590625000002
20
9.92973125
30
0
0
VERTEX
8
0
10
31.02935
20
9.931246875000001
30
0
42
0.015373031037430535
0
VERTEX
8
0
10
31.024546875000002
20
9.9314
30
0
0
VERTEX
8
0
10
31.013396875
20
9.9314
30
0
42
0.41421356237309503
0
VERTEX
8
0
10
30.937196875
20
9.8552
30
0
0
VERTEX
8
0
10
30.937196875
20
9.844050000000001
30
0
42
0.3566857439235762
0
VERTEX
8
0
10
31.008593750000003
20
9.768003125
30
0
0
SEQEND
0
POLYLINE
66
1
8
16_copper
10
0.0
20
0.0
30
0.0
70
1
0
VERTEX
8
0
10
52.445750000000004
20
5.52490625
30
0
0
VERTEX
8
0
10
52.44859375
20
5.5247093750000005
30
0
42
0.548409711059846
0
VERTEX
8
0
10
52.50941875
20
5.6379093750000004
30
0
0
VERTEX
8
0
10
52.504143750000004
20
5.644878125
30
0
0
VERTEX
8
0
10
52.500093750000005
20
5.6510750000000005
30
0
42
0.015772426617527556
0
VERTEX
8
0
10
52.496803125
20
5.6545781250000005
30
0
0
VERTEX
8
0
10
52.2589625
20
5.892415625
30
0
0
VERTEX
8
0
10
52.07625
20
6.333521875000001
30
0
0
VERTEX
8
0
10
52.07625
20
7.8939
30
0
0
VERTEX
8
0
10
52.075034375
20
7.902328125
30
0
0
VERTEX
8
0
10
52.074353125
20
7.910793750000001
30
0
42
0.08765396656356698
0
VERTEX
8
0
10
52.064068750000004
20
7.93523125
30
0
0
VERTEX
8
0
10
52.059196875000005
20
7.940825
30
0
0
VERTEX
8
0
10
52.053931250000005
20
7.94778125
30
0
0
VERTEX
8
0
10
50.092631250000004
20
9.90908125
30
0
0
VERTEX
8
0
10
50.085846875
20
9.914153125
30
0
0
VERTEX
8
0
10
50.079346875000006
20
9.9196875
30
0
42
0.08765145259213399
0
VERTEX
8
0
10
50.05479375
20
9.929690625000001
30
0
0
VERTEX
8
0
10
50.047418750000006
20
9.930200000000001
30
0
0
VERTEX
8
0
10
50.03875
20
9.9314
30
0
0
VERTEX
8
0
10
38.633396875
20
9.9314
30
0
0
VERTEX
8
0
10
38.627778125
20
9.9305875
30
0
42
0.39258815634569955
0
VERTEX
8
0
10
38.557196875
20
9.8552
30
0
0
VERTEX
8
0
10
38.557196875
20
9.44456875
30
0
0
VERTEX
8
0
10
37.545428125
20
8.4328
30
0
0
VERTEX
8
0
10
36.114568750000004
20
8.4328
30
0
0
VERTEX
8
0
10
35.1028
20
9.44456875
30
0
0
VERTEX
8
0
10
35.1028
20
9.8552
30
0
0
VERTEX
8
0
10
35.1019875
20
9.86081875
30
0
42
0.39258815634569955
0
VERTEX
8
0
10
35.0266
20
9.9314
30
0
0
VERTEX
8
0
10
31.88664375
20
9.9314
30
0
0
VERTEX
8
0
10
31.878215625000003
20
9.930184375
30
0
0
VERTEX
8
0
10
31.86975
20
9.929503125
30
0
42
0.08765396656356698
0
VERTEX
8
0
10
31.845312500000002
20
9.91921875
30
0
0
VERTEX
8
0
10
31.839718750000003
20
9.914346875
30
0
0
VERTEX
8
0
10
31.8327625
20
9.90908125
30
0
0
VERTEX
8
0
10
30.05168125
20
8.128
30
0
0
VERTEX
8
0
10
28.767793750000003
20
8.128
30
0
0
VERTEX
8
0
10
28.764962500000003
20
8.127590625
30
0
0
VERTEX
8
0
10
28.762121875000002
20
8.1277875
30
0
42
0.548409711059846
0
VERTEX
8
0
10
28.701296875
20
8.014587500000001
30
0
0
VERTEX
8
0
10
28.706571875
20
8.00761875
30
0
0
VERTEX
8
0
10
28.710621875
20
8.001421875
30
0
42
0.015772426617527556
0
VERTEX
8
0
10
28.713912500000003
20
7.99791875
30
0
0
VERTEX
8
0
10
31.16501875
20
5.546815625000001
30
0
0
VERTEX
8
0
10
31.171803125
20
5.54174375
30
0
0
VERTEX
8
0
10
31.178303125000003
20
5.536209375
30
0
42
0.08765145259213399
0
VERTEX
8
0
10
31.20285625
20
5.52620625
30
0
0
VERTEX
8
0
10
31.210231250000003
20
5.525696875
30
0
0
VERTEX
8
0
10
31.2189
20
5.5244968750000005
30
0
0
VERTEX
8
0
10
52.442921875
20
5.5244968750000005
30
0
0
SEQEND
0
POLYLINE
66
1
8
16_copper
10
0.0
20
0.0
30
0.0
70
1
0
VERTEX
8
0
10
77.313096875
20
5.220106250000001
30
0
0
VERTEX
8
0
10
77.3159375
20
5.219909375
30
0
42
0.548409711059846
0
VERTEX
8
0
10
77.3767625
20
5.333109375
30
0
0
VERTEX
8
0
10
77.3714875
20
5.340078125000001
30
0
0
VERTEX
8
0
10
77.36743750000001
20
5.346275
30
0
42
0.015772426617527556
0
VERTEX
8
0
10
77.364146875
20
5.349778125
30
0
0
VERTEX
8
0
10
75.344840625
20
7.369081250000001
30
0
0
VERTEX
8
0
10
75.33805625000001
20
7.374153125
30
0
0
VERTEX
8
0
10
75.33155625
20
7.3796875
30
0
42
0.08765145259213399
0
VERTEX
8
0
10
75.30700312500001
20
7.389690625
30
0
0
VERTEX
8
0
10
75.299628125
20
7.3902
30
0
0
VERTEX
8
0
10
75.290959375
20
7.3914
30
0
0
VERTEX
8
0
10
69.538746875
20
7.3914
30
0
0
VERTEX
8
0
10
69.533128125
20
7.3905875000000005
30
0
42
0.39258815634569955
0
VERTEX
8
0
10
69.462546875
20
7.3152
30
0
0
VERTEX
8
0
10
69.462546875
20
6.333521875000001
30
0
0
VERTEX
8
0
10
69.27983437500001
20
5.892415625
30
0
0
VERTEX
8
0
10
68.94223125
20
5.554812500000001
30
0
0
VERTEX
8
0
10
68.501125
20
5.3721000000000005
30
0
0
VERTEX
8
0
10
68.16475625
20
5.3721000000000005
30
0
0
VERTEX
8
0
10
68.1606125
20
5.371503125
30
0
0
VERTEX
8
0
10
68.15641875
20
5.3716437500000005
30
0
42
0.7477127290346086
0
VERTEX
8
0
10
68.130678125
20
5.22774375
30
0
0
VERTEX
8
0
10
68.130684375
20
5.227740625
30
0
42
0.11643382146585332
0
VERTEX
8
0
10
68.16476250000001
20
5.219696875
30
0
0
VERTEX
8
0
10
77.310265625
20
5.219696875
30
0
0
SEQEND
0
POLYLINE
66
1
8
16_copper
10
0.0
20
0.0
30
0.0
70
1
0
VERTEX
8
0
10
97.87462500000001
20
1.2712125
30
0
0
VERTEX
8
0
10
97.88309062500001
20
1.27189375
30
0
42
0.08765396656356698
0
VERTEX
8
0
10
97.907528125
20
1.2821781250000002
30
0
0
VERTEX
8
0
10
97.913121875
20
1.28705
30
0
0
VERTEX
8
0
10
97.920078125
20
1.292315625
30
0
0
VERTEX
8
0
10
98.70768125000001
20
2.07991875
30
0
0
VERTEX
8
0
10
98.712753125
20
2.086703125
30
0
0
VERTEX
8
0
10
98.7182875
20
2.093203125
30
0
42
0.08765145259213399
0
VERTEX
8
0
10
98.728290625
20
2.1177562500000002
30
0
0
VERTEX
8
0
10
98.7288
20
2.12513125
30
0
0
VERTEX
8
0
10
98.73
20
2.1338
30
0
0
VERTEX
8
0
10
98.73
20
9.012228125
30
0
0
VERTEX
8
0
10
98.729590625
20
9.015059375
30
0
0
VERTEX
8
0
10
98.7297875
20
9.017900000000001
30
0
42
0.548409711059846
0
VERTEX
8
0
10
98.61658750000001
20
9.078725
30
0
0
VERTEX
8
0
10
98.60961875000001
20
9.073450000000001
30
0
0
VERTEX
8
0
10
98.60342187500001
20
9.0694
30
0
42
0.015772426617527556
0
VERTEX
8
0
10
98.59991875
20
9.066109375
30
0
0
VERTEX
8
0
10
97.296315625
20
7.762503125
30
0
0
VERTEX
8
0
10
97.29124375
20
7.755718750000001
30
0
0
VERTEX
8
0
10
97.28570937500001
20
7.749218750000001
30
0
42
0.08765145259213399
0
VERTEX
8
0
10
97.27570625
20
7.724665625
30
0
0
VERTEX
8
0
10
97.275196875
20
7.717290625
30
0
0
VERTEX
8
0
10
97.27399687500001
20
7.708621875
30
0
0
VERTEX
8
0
10
97.27399687500001
20
6.463396875
30
0
0
VERTEX
8
0
10
96.9658625
20
5.719493750000001
30
0
0
VERTEX
8
0
10
96.39650312500001
20
5.150134375
30
0
0
VERTEX
8
0
10
95.6526
20
4.8420000000000005
30
0
0
VERTEX
8
0
10
94.847396875
20
4.8420000000000005
30
0
0
VERTEX
8
0
10
94.10349375
20
5.150134375
30
0
0
VERTEX
8
0
10
94.033878125
20
5.21975
30
0
0
VERTEX
8
0
10
94.02931875
20
5.223159375
30
0
42
0.39252692588609156
0
VERTEX
8
0
10
93.92611562500001
20
5.21975
30
0
0
VERTEX
8
0
10
93.856503125
20
5.150134375
30
0
0
VERTEX
8
0
10
93.1126
20
4.8420000000000005
30
0
0
VERTEX
8
0
10
92.30739687500001
20
4.8420000000000005
30
0
0
VERTEX
8
0
10
91.56349375
20
5.150134375
30
0
0
VERTEX
8
0
10
90.994134375
20
5.719493750000001
30
0
0
VERTEX
8
0
10
90.686
20
6.463396875
30
0
0
VERTEX
8
0
10
90.686
20
8.7766
30
0
0
VERTEX
8
0
10
90.994134375
20
9.520503125000001
30
0
0
VERTEX
8
0
10
91.34148125
20
9.86785
30
0
0
VERTEX
8
0
10
91.346553125
20
9.874634375000001
30
0
0
VERTEX
8
0
10
91.35208750000001
20
9.881134375
30
0
42
0.08765145259213399
0
VERTEX
8
0
10
91.36209062500001
20
9.9056875
30
0
0
VERTEX
8
0
10
91.3626
20
9.9130625
30
0
0
VERTEX
8
0
10
91.3638
20
9.92173125
30
0
0
VERTEX
8
0
10
91.3638
20
28.712775
30
0
0
VERTEX
8
0
10
91.568746875
20
29.207559375000002
30
0
0
VERTEX
8
0
10
93.92268125000001
20
31.56149375
30
0
0
VERTEX
8
0
10
93.92775312500001
20
31.568278125000003
30
0
0
VERTEX
8
0
10
93.9332875
20
31.574778125
30
0
42
0.08765145259213399
0
VERTEX
8
0
10
93.943290625
20
31.599331250000002
30
0
0
VERTEX
8
0
10
93.94380000000001
20
31.606706250000002
30
0
0
VERTEX
8
0
10
93.94500000000001
20
31.615375
30
0
0
VERTEX
8
0
10
93.94500000000001
20
32.161750000000005
30
0
0
VERTEX
8
0
10
94.2601375
20
32.922559375
30
0
0
VERTEX
8
0
10
94.8424375
20
33.504859375
30
0
0
VERTEX
8
0
10
95.60324687500001
20
33.819996875
30
0
0
VERTEX
8
0
10
96.42675
20
33.819996875
30
0
0
VERTEX
8
0
10
97.187559375
20
33.504859375
30
0
0
VERTEX
8
0
10
97.43151875000001
20
33.260896875
30
0
0
VERTEX
8
0
10
97.433796875
20
33.25919375
30
0
0
VERTEX
8
0
10
97.43567812500001
20
33.257034375
30
0
42
0.5484095900174472
0
VERTEX
8
0
10
97.55873125000001
20
33.294071875
30
0
0
VERTEX
8
0
10
97.55993125
20
33.302734375
30
0
0
VERTEX
8
0
10
97.561446875
20
33.309975
30
0
42
0.015770375218223928
0
VERTEX
8
0
10
97.5616
20
33.314778125000004
30
0
0
VERTEX
8
0
10
97.5616
20
45.42521875
30
0
0
VERTEX
8
0
10
97.56119062500001
20
45.42805
30
0
0
VERTEX
8
0
10
97.56138750000001
20
45.430890625
30
0
42
0.548409711059846
0
VERTEX
8
0
10
97.4481875
20
45.491715625000005
30
0
0
VERTEX
8
0
10
97.44121875
20
45.486440625
30
0
0
VERTEX
8
0
10
97.435021875
20
45.482390625
30
0
42
0.015772426617527556
0
VERTEX
8
0
10
97.43151875000001
20
45.4791
30
0
0
VERTEX
8
0
10
97.187559375
20
45.2351375
30
0
0
VERTEX
8
0
10
96.42675
20
44.92
30
0
0
VERTEX
8
0
10
95.60324687500001
20
44.92
30
0
0
VERTEX
8
0
10
94.8424375
20
45.2351375
30
0
0
VERTEX
8
0
10
94.2601375
20
45.817437500000004
30
0
0
VERTEX
8
0
10
93.94500000000001
20
46.578246875000005
30
0
0
VERTEX
8
0
10
93.94500000000001
20
47.40175
30
0
0
VERTEX
8
0
10
94.2601375
20
48.162559375
30
0
0
VERTEX
8
0
10
94.8424375
20
48.744859375000004
30
0
0
VERTEX
8
0
10
95.60324687500001
20
49.059996875
30
0
0
VERTEX
8
0
10
96.42675
20
49.059996875
30
0
0
VERTEX
8
0
10
97.187559375
20
48.744859375000004
30
0
0
VERTEX
8
0
10
97.57390000000001
20
48.358515625
30
0
0
VERTEX
8
0
10
97.580684375
20
48.353443750000004
30
0
0
VERTEX
8
0
10
97.587184375
20
48.347909375
30
0
42
0.08765145259213399
0
VERTEX
8
0
10
97.6117375
20
48.33790625
30
0
0
VERTEX
8
0
10
97.6191125
20
48.337396875
30
0
0
VERTEX
8
0
10
97.62778125
20
48.336196875
30
0
0
VERTEX
8
0
10
98.6538
20
48.336196875
30
0
0
VERTEX
8
0
10
98.65941875
20
48.337009375
30
0
42
0.39258815634569955
0
VERTEX
8
0
10
98.73
20
48.412396875
30
0
0
VERTEX
8
0
10
98.73
20
76.60619687500001
30
0
0
VERTEX
8
0
10
98.728784375
20
76.614625
30
0
0
VERTEX
8
0
10
98.728103125
20
76.623090625
30
0
42
0.08765396656356698
0
VERTEX
8
0
10
98.71781875
20
76.64752812500001
30
0
0
VERTEX
8
0
10
98.712946875
20
76.65312187500001
30
0
0
VERTEX
8
0
10
98.70768125000001
20
76.660078125
30
0
0
VERTEX
8
0
10
96.660078125
20
78.70768125000001
30
0
0
VERTEX
8
0
10
96.65329375
20
78.712753125
30
0
0
VERTEX
8
0
10
96.64679375
20
78.7182875
30
0
42
0.08765145259213399
0
VERTEX
8
0
10
96.622240625
20
78.728290625
30
0
0
VERTEX
8
0
10
96.61486562500001
20
78.7288
30
0
0
VERTEX
8
0
10
96.60619687500001
20
78.73
30
0
0
VERTEX
8
0
10
27.8538
20
78.73
30
0
0
VERTEX
8
0
10
27.845371875
20
78.728784375
30
0
0
VERTEX
8
0
10
27.836906250000002
20
78.728103125
30
0
42
0.08765396656356698
0
VERTEX
8
0
10
27.81246875
20
78.71781875
30
0
0
VERTEX
8
0
10
27.806875
20
78.712946875
30
0
0
VERTEX
8
0
10
27.79991875
20
78.70768125000001
30
0
0
VERTEX
8
0
10
24.152315625
20
75.060078125
30
0
0
VERTEX
8
0
10
24.14724375
20
75.05329375000001
30
0
0
VERTEX
8
0
10
24.141709375
20
75.04679375
30
0
42
0.08765145259213399
0
VERTEX
8
0
10
24.13170625
20
75.02224062500001
30
0
0
VERTEX
8
0
10
24.131196875
20
75.014865625
30
0
0
VERTEX
8
0
10
24.129996875
20
75.006196875
30
0
0
VERTEX
8
0
10
24.129996875
20
5.0038
30
0
0
VERTEX
8
0
10
24.1308125
20
4.998159375
30
0
0
VERTEX
8
0
10
24.13084375
20
4.99248125
30
0
42
0.1604313839122979
0
VERTEX
8
0
10
24.152315625
20
4.94991875
30
0
0
VERTEX
8
0
10
27.80991875
20
1.292315625
30
0
0
VERTEX
8
0
10
27.816703125
20
1.28724375
30
0
0
VERTEX
8
0
10
27.823203125000003
20
1.2817093750000002
30
0
42
0.08765145259213399
0
VERTEX
8
0
10
27.84775625
20
1.27170625
30
0
0
VERTEX
8
0
10
27.855131250000003
20
1.271196875
30
0
0
VERTEX
8
0
10
27.8638
20
1.2699968750000001
30
0
0
VERTEX
8
0
10
97.866196875
20
1.2699968750000001
30
0
0
SEQEND
0
POLYLINE
66
1
8
16_copper
10
0.0
20
0.0
30
0.0
70
1
0
VERTEX
8
0
10
67.770734375
20
3.6449000000000003
30
0
0
VERTEX
8
0
10
67.27595000000001
20
3.8498468750000003
30
0
0
VERTEX
8
0
10
64.87431562500001
20
6.25148125
30
0
0
VERTEX
8
0
10
64.86753125
20
6.256553125
30
0
0
VERTEX
8
0
10
64.86103125
20
6.262087500000001
30
0
42
0.08765145259213399
0
VERTEX
8
0
10
64.836478125
20
6.272090625000001
30
0
0
VERTEX
8
0
10
64.829103125
20
6.272600000000001
30
0
0
VERTEX
8
0
10
64.820434375
20
6.2738000000000005
30
0
0
VERTEX
8
0
10
63.163346875
20
6.2738000000000005
30
0
0
VERTEX
8
0
10
63.157728125000006
20
6.2729875
30
0
42
0.39258815634569955
0
VERTEX
8
0
10
63.087146875
20
6.1976
30
0
0
VERTEX
8
0
10
63.087146875
20
6.11121875
30
0
0
VERTEX
8
0
10
62.734290625
20
5.259346875
30
0
0
VERTEX
8
0
10
62.082300000000004
20
4.6073562500000005
30
0
0
VERTEX
8
0
10
61.230428125
20
4.2545
30
0
0
VERTEX
8
0
10
60.30836875
20
4.2545
30
0
0
VERTEX
8
0
10
59.456496875000006
20
4.6073562500000005
30
0
0
VERTEX
8
0
10
58.80450625
20
5.259346875
30
0
0
VERTEX
8
0
10
58.45165
20
6.11121875
30
0
0
VERTEX
8
0
10
58.45165
20
9.128778125
30
0
0
VERTEX
8
0
10
58.80450625
20
9.98065
30
0
0
VERTEX
8
0
10
59.456496875000006
20
10.632640625
30
0
0
VERTEX
8
0
10
60.30836875
20
10.985496875
30
0
0
VERTEX
8
0
10
61.230428125
20
10.985496875
30
0
0
VERTEX
8
0
10
62.082300000000004
20
10.632640625
30
0
0
VERTEX
8
0
10
62.734290625
20
9.98065
30
0
0
VERTEX
8
0
10
63.087146875
20
9.128778125
30
0
0
VERTEX
8
0
10
63.087146875
20
9.042396875
30
0
0
VERTEX
8
0
10
63.087959375000004
20
9.036778125
30
0
42
0.39258815634569955
0
VERTEX
8
0
10
63.163346875
20
8.966196875
30
0
0
VERTEX
8
0
10
65.677384375
20
8.966196875
30
0
0
VERTEX
8
0
10
65.8392875
20
8.89913125
30
0
0
VERTEX
8
0
10
65.84869375000001
20
8.896734375000001
30
0
0
VERTEX
8
0
10
65.857996875
20
8.89405
30
0
42
0.38348119112289003
0
VERTEX
8
0
10
65.9424
20
8.951146875000001
30
0
0
VERTEX
8
0
10
65.943190625
20
8.959
30
0
0
VERTEX
8
0
10
65.94465000000001
20
8.969531250000001
30
0
0
VERTEX
8
0
10
65.94465000000001
20
9.128778125
30
0
0
VERTEX
8
0
10
66.29750625
20
9.98065
30
0
0
VERTEX
8
0
10
66.94949687500001
20
10.632640625
30
0
0
VERTEX
8
0
10
67.80136875000001
20
10.985496875
30
0
0
VERTEX
8
0
10
68.723428125
20
10.985496875
30
0
0
VERTEX
8
0
10
69.5753
20
10.632640625
30
0
0
VERTEX
8
0
10
70.22729062500001
20
9.98065
30
0
0
VERTEX
8
0
10
70.580146875
20
9.128778125
30
0
0
VERTEX
8
0
10
70.580146875
20
9.042396875
30
0
0
VERTEX
8
0
10
70.580959375
20
9.036778125
30
0
42
0.39258815634569955
0
VERTEX
8
0
10
70.656346875
20
8.966196875
30
0
0
VERTEX
8
0
10
74.671028125
20
8.966196875
30
0
0
VERTEX
8
0
10
74.673859375
20
8.96660625
30
0
0
VERTEX
8
0
10
74.6767
20
8.966409375
30
0
42
0.548409711059846
0
VERTEX
8
0
10
74.737525
20
9.079609375
30
0
0
VERTEX
8
0
10
74.73225000000001
20
9.086578125
30
0
0
VERTEX
8
0
10
74.7282
20
9.092775
30
0
42
0.015772426617527556
0
VERTEX
8
0
10
74.72490937500001
20
9.096278125
30
0
0
VERTEX
8
0
10
71.854703125
20
11.966481250000001
30
0
0
VERTEX
8
0
10
71.84791875
20
11.971553125
30
0
0
VERTEX
8
0
10
71.84141875
20
11.977087500000001
30
0
42
0.08765145259213399
0
VERTEX
8
0
10
71.816865625
20
11.987090625
30
0
0
VERTEX
8
0
10
71.80949062500001
20
11.9876
30
0
0
VERTEX
8
0
10
71.800821875
20
11.988800000000001
30
0
0
VERTEX
8
0
10
53.84815625
20
11.988800000000001
30
0
0
VERTEX
8
0
10
53.845325
20
11.988390625000001
30
0
0
VERTEX
8
0
10
53.842484375000005
20
11.988587500000001
30
0
42
0.548409711059846
0
VERTEX
8
0
10
53.781659375000004
20
11.8753875
30
0
0
VERTEX
8
0
10
53.786934375
20
11.86841875
30
0
0
VERTEX
8
0
10
53.790984375
20
11.862221875000001
30
0
42
0.015772426617527556
0
VERTEX
8
0
10
53.794275000000006
20
11.858718750000001
30
0
0
VERTEX
8
0
10
55.694
20
9.958996875
30
0
0
VERTEX
8
0
10
55.898946875
20
9.4642125
30
0
0
VERTEX
8
0
10
55.898946875
20
5.775784375000001
30
0
0
VERTEX
8
0
10
55.694
20
5.281000000000001
30
0
0
VERTEX
8
0
10
54.567646875
20
4.154646875
30
0
0
VERTEX
8
0
10
54.0728625
20
3.9497
30
0
0
VERTEX
8
0
10
30.824871875000003
20
3.9497
30
0
0
VERTEX
8
0
10
30.3300875
20
4.154646875
30
0
0
VERTEX
8
0
10
25.960546875000002
20
8.5241875
30
0
0
VERTEX
8
0
10
25.7556
20
9.018971875
30
0
0
VERTEX
8
0
10
25.7556
20
26.099575
30
0
0
VERTEX
8
0
10
25.960546875000002
20
26.594359375
30
0
0
VERTEX
8
0
10
28.42568125
20
29.05949375
30
0
0
VERTEX
8
0
10
28.430753125000003
20
29.066278125
30
0
0
VERTEX
8
0
10
28.436287500000002
20
29.072778125000003
30
0
42
0.08765145259213399
0
VERTEX
8
0
10
28.446290625
20
29.09733125
30
0
0
VERTEX
8
0
10
28.4468
20
29.104706250000003
30
0
0
VERTEX
8
0
10
28.448
20
29.113375
30
0
0
VERTEX
8
0
10
28.448
20
30.376190625000003
30
0
0
VERTEX
8
0
10
28.757353125
20
31.123034375000003
30
0
0
VERTEX
8
0
10
29.11148125
20
31.477159375000003
30
0
0
VERTEX
8
0
10
29.116553125000003
20
31.48394375
30
0
0
VERTEX
8
0
10
29.122087500000003
20
31.49044375
30
0
42
0.08765145259213399
0
VERTEX
8
0
10
29.132090625
20
31.514996875
30
0
0
VERTEX
8
0
10
29.1326
20
31.522371875
30
0
0
VERTEX
8
0
10
29.1338
20
31.531040625000003
30
0
0
VERTEX
8
0
10
29.1338
20
40.112084375
30
0
0
VERTEX
8
0
10
29.132584375
20
40.120512500000004
30
0
0
VERTEX
8
0
10
29.131903125
20
40.128978125
30
0
42
0.08765396656356698
0
VERTEX
8
0
10
29.12161875
20
40.153415625
30
0
0
VERTEX
8
0
10
29.116746875
20
40.159009375000004
30
0
0
VERTEX
8
0
10
29.11148125
20
40.165965625000005
30
0
0
VERTEX
8
0
10
27.611546875000002
20
41.6659
30
0
0
VERTEX
8
0
10
27.4066
20
42.160684375
30
0
0
VERTEX
8
0
10
27.4066
20
72.89338125
30
0
0
VERTEX
8
0
10
27.611546875000002
20
73.388165625
30
0
0
VERTEX
8
0
10
30.713731250000002
20
76.49035
30
0
0
VERTEX
8
0
10
31.208515625
20
76.695296875
30
0
0
VERTEX
8
0
10
47.4054625
20
76.695296875
30
0
0
VERTEX
8
0
10
47.900246875
20
76.49035
30
0
0
VERTEX
8
0
10
48.28965625
20
76.100940625
30
0
0
VERTEX
8
0
10
49.7022375
20
74.68835625
30
0
0
VERTEX
8
0
10
49.70999375
20
74.68255625
30
0
0
VERTEX
8
0
10
49.717578125
20
74.67650312500001
30
0
42
0.3834733377546366
0
VERTEX
8
0
10
49.817403125000006
20
74.69695312500001
30
0
0
VERTEX
8
0
10
49.821125
20
74.703878125
30
0
0
VERTEX
8
0
10
49.826518750000005
20
74.71307812500001
30
0
0
VERTEX
8
0
10
50.105106250000006
20
75.38565
30
0
0
VERTEX
8
0
10
50.757096875
20
76.03764062500001
30
0
0
VERTEX
8
0
10
51.60896875
20
76.390496875
30
0
0
VERTEX
8
0
10
52.531028125000006
20
76.390496875
30
0
0
VERTEX
8
0
10
53.3829
20
76.03764062500001
30
0
0
VERTEX
8
0
10
54.034890625
20
75.38565
30
0
0
VERTEX
8
0
10
54.387746875000005
20
74.533778125
30
0
0
VERTEX
8
0
10
54.387746875000005
20
71.907396875
30
0
0
VERTEX
8
0
10
54.388559375
20
71.901778125
30
0
42
0.39258815634569955
0
VERTEX
8
0
10
54.463946875000005
20
71.831196875
30
0
0
VERTEX
8
0
10
55.13705
20
71.831196875
30
0
0
VERTEX
8
0
10
55.142668750000006
20
71.832009375
30
0
42
0.39258815634569955
0
VERTEX
8
0
10
55.21325
20
71.907396875
30
0
0
VERTEX
8
0
10
55.21325
20
74.533778125
30
0
0
VERTEX
8
0
10
55.566106250000004
20
75.38565
30
0
0
VERTEX
8
0
10
56.218096875
20
76.03764062500001
30
0
0
VERTEX
8
0
10
57.06996875
20
76.390496875
30
0
0
VERTEX
8
0
10
57.992028125000004
20
76.390496875
30
0
0
VERTEX
8
0
10
58.843900000000005
20
76.03764062500001
30
0
0
VERTEX
8
0
10
59.495890625
20
75.38565
30
0
0
VERTEX
8
0
10
59.848746875
20
74.533778125
30
0
0
VERTEX
8
0
10
59.848746875
20
74.44739687500001
30
0
0
VERTEX
8
0
10
59.849559375000005
20
74.441778125
30
0
42
0.39258815634569955
0
VERTEX
8
0
10
59.924946875
20
74.37119687500001
30
0
0
VERTEX
8
0
10
89.33980000000001
20
74.37119687500001
30
0
0
VERTEX
8
0
10
89.34541875000001
20
74.372009375
30
0
42
0.39258815634569955
0
VERTEX
8
0
10
89.41600000000001
20
74.44739687500001
30
0
0
VERTEX
8
0
10
89.41600000000001
20
74.81660000000001
30
0
0
VERTEX
8
0
10
89.724134375
20
75.560503125
30
0
0
VERTEX
8
0
10
90.29349375000001
20
76.1298625
30
0
0
VERTEX
8
0
10
91.037396875
20
76.43799687500001
30
0
0
VERTEX
8
0
10
91.8426
20
76.43799687500001
30
0
0
VERTEX
8
0
10
92.58650312500001
20
76.1298625
30
0
0
VERTEX
8
0
10
92.656115625
20
76.060246875
30
0
0
VERTEX
8
0
10
92.66066562500001
20
76.05684375
30
0
42
0.39256960445629635
0
VERTEX
8
0
10
92.763878125
20
76.060246875
30
0
0
VERTEX
8
0
10
92.83349375
20
76.1298625
30
0
0
VERTEX
8
0
10
93.577396875
20
76.43799687500001
30
0
0
VERTEX
8
0
10
94.38260000000001
20
76.43799687500001
30
0
0
VERTEX
8
0
10
95.126503125
20
76.1298625
30
0
0
VERTEX
8
0
10
95.6958625
20
75.560503125
30
0
0
VERTEX
8
0
10
96.003996875
20
74.81660000000001
30
0
0
VERTEX
8
0
10
96.003996875
20
72.503396875
30
0
0
VERTEX
8
0
10
95.6958625
20
71.75949375
30
0
0
VERTEX
8
0
10
95.126503125
20
71.190134375
30
0
0
VERTEX
8
0
10
94.38260000000001
20
70.882
30
0
0
VERTEX
8
0
10
93.577396875
20
70.882
30
0
0
VERTEX
8
0
10
93.29097187500001
20
71.000640625
30
0
0
VERTEX
8
0
10
93.289375
20
71.001046875
30
0
0
VERTEX
8
0
10
93.28792187500001
20
71.001828125
30
0
42
0.21835452448693754
0
VERTEX
8
0
10
93.22460000000001
20
70.99673750000001
30
0
0
VERTEX
8
0
10
93.21608437500001
20
70.990290625
30
0
0
VERTEX
8
0
10
93.20965625000001
20
70.98579375
30
0
42
0.007881903973716804
0
VERTEX
8
0
10
93.20793125
20
70.984121875
30
0
0
VERTEX
8
0
10
91.95696875
20
69.733159375
30
0
0
VERTEX
8
0
10
91.95695937500001
20
69.733146875
30
0
0
VERTEX
8
0
10
91.567559375
20
69.34374687500001
30
0
0
VERTEX
8
0
10
91.07277500000001
20
69.1388
30
0
0
VERTEX
8
0
10
44.602396875000004
20
69.1388
30
0
0
VERTEX
8
0
10
44.596778125
20
69.13798750000001
30
0
42
0.39258815634569955
0
VERTEX
8
0
10
44.526196875000004
20
69.0626
30
0
0
VERTEX
8
0
10
44.526196875000004
20
39.102221875000005
30
0
0
VERTEX
8
0
10
44.32125
20
38.6074375
30
0
0
VERTEX
8
0
10
43.931840625
20
38.218028125000004
30
0
0
VERTEX
8
0
10
37.329153125000005
20
31.61534375
30
0
0
VERTEX
8
0
10
37.32575
20
31.610793750000003
30
0
42
0.39256960445629635
0
VERTEX
8
0
10
37.329153125000005
20
31.50758125
30
0
0
VERTEX
8
0
10
37.69185
20
31.144884375
30
0
0
VERTEX
8
0
10
37.896796875
20
30.650100000000002
30
0
0
VERTEX
8
0
10
37.896796875
20
27.769896875
30
0
0
VERTEX
8
0
10
37.69185
20
27.275112500000002
30
0
0
VERTEX
8
0
10
28.775115625
20
18.358378125
30
0
0
VERTEX
8
0
10
28.770043750000003
20
18.35159375
30
0
0
VERTEX
8
0
10
28.764509375000003
20
18.34509375
30
0
42
0.08765145259213399
0
VERTEX
8
0
10
28.754506250000002
20
18.320540625
30
0
0
VERTEX
8
0
10
28.753996875000002
20
18.313165625
30
0
0
VERTEX
8
0
10
28.752796875
20
18.304496875
30
0
0
VERTEX
8
0
10
28.752796875
20
13.080996875
30
0
0
VERTEX
8
0
10
28.753609375
20
13.075378125
30
0
42
0.39258815634569955
0
VERTEX
8
0
10
28.828996875
20
13.004796875
30
0
0
VERTEX
8
0
10
29.584525000000003
20
13.004796875
30
0
0
VERTEX
8
0
10
29.988781250000002
20
12.896475
30
0
0
VERTEX
8
0
10
29.996296875000002
20
12.895581250000001
30
0
0
VERTEX
8
0
10
30.003700000000002
20
12.894031250000001
30
0
42
0.16681691028900422
0
VERTEX
8
0
10
30.051409375000002
20
12.90710625
30
0
0
VERTEX
8
0
10
30.056346875000003
20
12.911628125
30
0
0
VERTEX
8
0
10
30.062384375
20
12.916196875
30
0
0
VERTEX
8
0
10
31.6224375
20
14.47625
30
0
0
VERTEX
8
0
10
32.117221875
20
14.681196875000001
30
0
0
VERTEX
8
0
10
71.416028125
20
14.681196875000001
30
0
0
VERTEX
8
0
10
71.418859375
20
14.681606250000002
30
0
0
VERTEX
8
0
10
71.4217
20
14.681409375000001
30
0
42
0.548409711059846
0
VERTEX
8
0
10
71.48252500000001
20
14.794609375
30
0
0
VERTEX
8
0
10
71.47725
20
14.801578125
30
0
0
VERTEX
8
0
10
71.4732
20
14.807775000000001
30
0
42
0.015772426617527556
0
VERTEX
8
0
10
71.469909375
20
14.811278125000001
30
0
0
VERTEX
8
0
10
59.163506250000005
20
27.11768125
30
0
0
VERTEX
8
0
10
59.156721875
20
27.122753125000003
30
0
0
VERTEX
8
0
10
59.150221875
20
27.128287500000003
30
0
42
0.08765145259213399
0
VERTEX
8
0
10
59.12566875
20
27.138290625
30
0
0
VERTEX
8
0
10
59.11829375
20
27.1388
30
0
0
VERTEX
8
0
10
59.109625
20
27.14
30
0
0
VERTEX
8
0
10
58.563246875000004
20
27.14
30
0
0
VERTEX
8
0
10
57.8024375
20
27.455137500000003
30
0
0
VERTEX
8
0
10
57.2201375
20
28.037437500000003
30
0
0
VERTEX
8
0
10
56.905
20
28.798246875
30
0
0
VERTEX
8
0
10
56.905
20
29.621750000000002
30
0
0
VERTEX
8
0
10
57.2201375
20
30.382559375000003
30
0
0
VERTEX
8
0
10
57.8024375
20
30.964859375000003
30
0
0
VERTEX
8
0
10
58.563246875000004
20
31.279996875000002
30
0
0
VERTEX
8
0
10
59.347
20
31.279996875000002
30
0
0
VERTEX
8
0
10
59.352618750000005
20
31.280809375
30
0
42
0.39258815634569955
0
VERTEX
8
0
10
59.4232
20
31.356196875000002
30
0
0
VERTEX
8
0
10
59.4232
20
37.223800000000004
30
0
0
VERTEX
8
0
10
59.422387500000006
20
37.22941875
30
0
42
0.39258815634569955
0
VERTEX
8
0
10
59.347
20
37.300000000000004
30
0
0
VERTEX
8
0
10
58.643246875
20
37.300000000000004
30
0
0
VERTEX
8
0
10
57.8824375
20
37.6151375
30
0
0
VERTEX
8
0
10
57.300137500000005
20
38.1974375
30
0
0
VERTEX
8
0
10
56.985
20
38.958246875
30
0
0
VERTEX
8
0
10
56.985
20
39.78175
30
0
0
VERTEX
8
0
10
57.300137500000005
20
40.542559375
30
0
0
VERTEX
8
0
10
57.8824375
20
41.124859375
30
0
0
VERTEX
8
0
10
58.643246875
20
41.439996875
30
0
0
VERTEX
8
0
10
59.347
20
41.439996875
30
0
0
VERTEX
8
0
10
59.352618750000005
20
41.440809375
30
0
42
0.39258815634569955
0
VERTEX
8
0
10
59.4232
20
41.516196875
30
0
0
VERTEX
8
0
10
59.4232
20
47.226421875
30
0
0
VERTEX
8
0
10
59.421984375
20
47.234853125
30
0
0
VERTEX
8
0
10
59.421303125
20
47.243315625
30
0
42
0.08765396656356698
0
VERTEX
8
0
10
59.411018750000004
20
47.267753125000006
30
0
0
VERTEX
8
0
10
59.406146875000005
20
47.273346875
30
0
0
VERTEX
8
0
10
59.400881250000005
20
47.280303125
30
0
0
VERTEX
8
0
10
59.24350625
20
47.437681250000004
30
0
0
VERTEX
8
0
10
59.236721875
20
47.442753125
30
0
0
VERTEX
8
0
10
59.230221875000005
20
47.4482875
30
0
42
0.08765145259213399
0
VERTEX
8
0
10
59.20566875
20
47.458290625000004
30
0
0
VERTEX
8
0
10
59.198293750000005
20
47.458800000000004
30
0
0
VERTEX
8
0
10
59.189625
20
47.46
30
0
0
VERTEX
8
0
10
58.643246875
20
47.46
30
0
0
VERTEX
8
0
10
57.8824375
20
47.7751375
30
0
0
VERTEX
8
0
10
57.300137500000005
20
48.3574375
30
0
0
VERTEX
8
0
10
56.985
20
49.118246875000004
30
0
0
VERTEX
8
0
10
56.985
20
49.94175
30
0
0
VERTEX
8
0
10
57.300137500000005
20
50.702559375
30
0
0
VERTEX
8
0
10
57.8824375
20
51.284859375
30
0
0
VERTEX
8
0
10
58.643246875
20
51.599996875
30
0
0
VERTEX
8
0
10
59.466750000000005
20
51.599996875
30
0
0
VERTEX
8
0
10
60.227559375000006
20
51.284859375
30
0
0
VERTEX
8
0
10
60.809859375
20
50.702559375
30
0
0
VERTEX
8
0
10
61.124996875
20
49.94175
30
0
0
VERTEX
8
0
10
61.124996875
20
49.395371875
30
0
0
VERTEX
8
0
10
61.1262125
20
49.38694375
30
0
0
VERTEX
8
0
10
61.12689375
20
49.378478125
30
0
42
0.08765396656356698
0
VERTEX
8
0
10
61.137178125000005
20
49.354040625
30
0
0
VERTEX
8
0
10
61.142050000000005
20
49.348446875
30
0
0
VERTEX
8
0
10
61.147315625000005
20
49.341490625000006
30
0
0
VERTEX
8
0
10
61.521237500000005
20
48.967568750000005
30
0
0
VERTEX
8
0
10
61.52125
20
48.967559375
30
0
0
VERTEX
8
0
10
61.910650000000004
20
48.578159375000006
30
0
0
VERTEX
8
0
10
62.115596875
20
48.083375000000004
30
0
0
VERTEX
8
0
10
62.115596875
20
28.993618750000003
30
0
0
VERTEX
8
0
10
62.1168125
20
28.985190625
30
0
0
VERTEX
8
0
10
62.11749375
20
28.976725000000002
30
0
42
0.08765396656356698
0
VERTEX
8
0
10
62.127778125000006
20
28.9522875
30
0
0
VERTEX
8
0
10
62.132650000000005
20
28.94669375
30
0
0
VERTEX
8
0
10
62.137915625000005
20
28.9397375
30
0
0
VERTEX
8
0
10
73.69501875
20
17.38263125
30
0
0
VERTEX
8
0
10
73.697296875
20
17.380928125
30
0
0
VERTEX
8
0
10
73.699178125
20
17.378768750000003
30
0
42
0.5484095900174472
0
VERTEX
8
0
10
73.82223125
20
17.41580625
30
0
0
VERTEX
8
0
10
73.82343125
20
17.42446875
30
0
0
VERTEX
8
0
10
73.82494687500001
20
17.431709375
30
0
42
0.015770375218223928
0
VERTEX
8
0
10
73.8251
20
17.4365125
30
0
0
VERTEX
8
0
10
73.8251
20
17.624859375
30
0
0
VERTEX
8
0
10
74.07349375
20
18.551878125
30
0
0
VERTEX
8
0
10
74.553353125
20
19.38301875
30
0
0
VERTEX
8
0
10
75.231978125
20
20.06164375
30
0
0
VERTEX
8
0
10
76.06311875
20
20.541503125000002
30
0
0
VERTEX
8
0
10
76.9901375
20
20.789896875
30
0
0
VERTEX
8
0
10
77.949859375
20
20.789896875
30
0
0
VERTEX
8
0
10
78.876878125
20
20.541503125000002
30
0
0
VERTEX
8
0
10
79.70801875000001
20
20.06164375
30
0
0
VERTEX
8
0
10
80.38664375
20
19.38301875
30
0
0
VERTEX
8
0
10
80.86650312500001
20
18.551878125
30
0
0
VERTEX
8
0
10
81.114896875
20
17.624859375
30
0
0
VERTEX
8
0
10
81.114896875
20
16.6651375
30
0
0
VERTEX
8
0
10
80.86650312500001
20
15.73811875
30
0
0
VERTEX
8
0
10
80.38664375
20
14.906978125
30
0
0
VERTEX
8
0
10
79.70801875000001
20
14.228353125
30
0
0
VERTEX
8
0
10
78.876878125
20
13.748493750000002
30
0
0
VERTEX
8
0
10
77.949859375
20
13.5001
30
0
0
VERTEX
8
0
10
77.76151250000001
20
13.5001
30
0
0
VERTEX
8
0
10
77.75868125000001
20
13.499690625000001
30
0
0
VERTEX
8
0
10
77.755840625
20
13.4998875
30
0
42
0.548409711059846
0
VERTEX
8
0
10
77.69501562500001
20
13.3866875
30
0
0
VERTEX
8
0
10
77.70029062500001
20
13.37971875
30
0
0
VERTEX
8
0
10
77.704340625
20
13.373521875
30
0
42
0.015772426617527556
0
VERTEX
8
0
10
77.70763125
20
13.37001875
30
0
0
VERTEX
8
0
10
80.9924
20
10.085253125000001
30
0
0
VERTEX
8
0
10
81.19734687500001
20
9.590468750000001
30
0
0
VERTEX
8
0
10
81.19734687500001
20
5.649528125000001
30
0
0
VERTEX
8
0
10
80.9924
20
5.154743750000001
30
0
0
VERTEX
8
0
10
80.602990625
20
4.765334375
30
0
0
VERTEX
8
0
10
80.0769125
20
4.2392593750000005
30
0
0
VERTEX
8
0
10
80.076903125
20
4.239246875
30
0
0
VERTEX
8
0
10
79.687503125
20
3.8498468750000003
30
0
0
VERTEX
8
0
10
79.19271875
20
3.6449000000000003
30
0
0
SEQEND
0
POLYLINE
66
1
8
16_copper
10
0.0
20
0.0
30
0.0
70
1
0
VERTEX
8
0
10
44.22066875
20
71.832009375
30
0
42
0.39258815634569955
0
VERTEX
8
0
10
44.291250000000005
20
71.907396875
30
0
0
VERTEX
8
0
10
44.291250000000005
20
72.2376
30
0
0
VERTEX
8
0
10
44.2904375
20
72.24321875
30
0
42
0.39258815634569955
0
VERTEX
8
0
10
44.215050000000005
20
72.3138
30
0
0
VERTEX
8
0
10
35.81896875
20
72.3138
30
0
0
VERTEX
8
0
10
35.8161375
20
72.313390625
30
0
0
VERTEX
8
0
10
35.813296875
20
72.3135875
30
0
42
0.548409711059846
0
VERTEX
8
0
10
35.752471875000005
20
72.2003875
30
0
0
VERTEX
8
0
10
35.757746875
20
72.19341875
30
0
0
VERTEX
8
0
10
35.761796875
20
72.187221875
30
0
42
0.015772426617527556
0
VERTEX
8
0
10
35.7650875
20
72.18371875
30
0
0
VERTEX
8
0
10
36.09529375
20
71.853515625
30
0
0
VERTEX
8
0
10
36.102090625
20
71.848434375
30
0
0
VERTEX
8
0
10
36.108578125
20
71.842909375
30
0
42
0.08765145259213399
0
VERTEX
8
0
10
36.133131250000005
20
71.83290625000001
30
0
0
VERTEX
8
0
10
36.14050625
20
71.832396875
30
0
0
VERTEX
8
0
10
36.149175
20
71.831196875
30
0
0
VERTEX
8
0
10
44.215050000000005
20
71.831196875
30
0
0
SEQEND
0
POLYLINE
66
1
8
16_copper
10
0.0
20
0.0
30
0.0
70
1
0
VERTEX
8
0
10
30.179368750000002
20
48.871959375
30
0
0
VERTEX
8
0
10
30.186512500000003
20
48.872
30
0
42
0.024843131722442287
0
VERTEX
8
0
10
30.193931250000002
20
48.87349375
30
0
0
VERTEX
8
0
10
30.200946875000003
20
48.876346875
30
0
0
VERTEX
8
0
10
30.20735625
20
48.878275
30
0
42
0.021980788444165286
0
VERTEX
8
0
10
30.213296875
20
48.881365625
30
0
0
VERTEX
8
0
10
30.91213125
20
49.284840625
30
0
0
VERTEX
8
0
10
32.30104375
20
49.656996875000004
30
0
0
VERTEX
8
0
10
33.738953125
20
49.656996875000004
30
0
0
VERTEX
8
0
10
35.127865625
20
49.284840625
30
0
0
VERTEX
8
0
10
35.8267
20
48.881365625
30
0
0
VERTEX
8
0
10
35.830231250000004
20
48.879953125
30
0
0
VERTEX
8
0
10
35.833434375
20
48.8779125
30
0
42
0.45857153234275605
0
VERTEX
8
0
10
35.938131250000005
20
48.92665
30
0
0
VERTEX
8
0
10
35.93916875
20
48.934137500000006
30
0
0
VERTEX
8
0
10
35.940706250000005
20
48.940665625
30
0
42
0.02198255447871562
0
VERTEX
8
0
10
35.941
20
48.947356250000006
30
0
0
VERTEX
8
0
10
35.941
20
64.485621875
30
0
0
VERTEX
8
0
10
35.939784375
20
64.49405
30
0
0
VERTEX
8
0
10
35.939103125
20
64.502515625
30
0
42
0.08765396656356698
0
VERTEX
8
0
10
35.928818750000005
20
64.526953125
30
0
0
VERTEX
8
0
10
35.923946875
20
64.53254687500001
30
0
0
VERTEX
8
0
10
35.91868125
20
64.53950312500001
30
0
0
VERTEX
8
0
10
30.229078125
20
70.22910937500001
30
0
0
VERTEX
8
0
10
30.2268
20
70.2308125
30
0
0
VERTEX
8
0
10
30.22491875
20
70.232971875
30
0
42
0.5484095900174472
0
VERTEX
8
0
10
30.101865625000002
20
70.19593437500001
30
0
0
VERTEX
8
0
10
30.100665625
20
70.18727187500001
30
0
0
VERTEX
8
0
10
30.09915
20
70.18003125
30
0
42
0.015770375218223928
0
VERTEX
8
0
10
30.098996875
20
70.175228125
30
0
0
VERTEX
8
0
10
30.098996875
20
48.947356250000006
30
0
0
VERTEX
8
0
10
30.099540625000003
20
48.9436
30
0
0
VERTEX
8
0
10
30.099371875000003
20
48.939796875
30
0
42
0.3744627403089192
0
VERTEX
8
0
10
30.172284375
20
48.871212500000006
30
0
0
SEQEND
0
POLYLINE
66
1
8
16_copper
10
0.0
20
0.0
30
0.0
70
1
0
VERTEX
8
0
10
38.712809375
20
36.835765625
30
0
0
VERTEX
8
0
10
38.720912500000004
20
36.8358125
30
0
42
0.09053247093623687
0
VERTEX
8
0
10
38.746809375000005
20
36.844671875
30
0
0
VERTEX
8
0
10
38.753778125000004
20
36.849946875
30
0
0
VERTEX
8
0
10
38.759975000000004
20
36.853996875
30
0
42
0.015772426617527556
0
VERTEX
8
0
10
38.763478125
20
36.857287500000005
30
0
0
VERTEX
8
0
10
41.81148125
20
39.90529375
30
0
0
VERTEX
8
0
10
41.816553125
20
39.912078125
30
0
0
VERTEX
8
0
10
41.8220875
20
39.918578125
30
0
42
0.08765145259213399
0
VERTEX
8
0
10
41.832090625
20
39.94313125
30
0
0
VERTEX
8
0
10
41.8326
20
39.950506250000004
30
0
0
VERTEX
8
0
10
41.833800000000004
20
39.959175
30
0
0
VERTEX
8
0
10
41.833800000000004
20
69.0626
30
0
0
VERTEX
8
0
10
41.8329875
20
69.06821875
30
0
42
0.39258815634569955
0
VERTEX
8
0
10
41.757600000000004
20
69.1388
30
0
0
VERTEX
8
0
10
35.31096875
20
69.1388
30
0
0
VERTEX
8
0
10
35.3081375
20
69.138390625
30
0
0
VERTEX
8
0
10
35.305296875
20
69.1385875
30
0
42
0.548409711059846
0
VERTEX
8
0
10
35.244471875
20
69.02538750000001
30
0
0
VERTEX
8
0
10
35.249746875
20
69.01841875000001
30
0
0
VERTEX
8
0
10
35.253796875
20
69.01222187500001
30
0
42
0.015772426617527556
0
VERTEX
8
0
10
35.257087500000004
20
69.00871875
30
0
0
VERTEX
8
0
10
38.039040625
20
66.22676875
30
0
0
VERTEX
8
0
10
38.428450000000005
20
65.837359375
30
0
0
VERTEX
8
0
10
38.633396875
20
65.342575
30
0
0
VERTEX
8
0
10
38.633396875
20
36.91116875
30
0
0
VERTEX
8
0
10
38.63380625
20
36.9083375
30
0
0
VERTEX
8
0
10
38.633609375
20
36.905496875000004
30
0
42
0.3744677985373014
0
VERTEX
8
0
10
38.70479375
20
36.835121875
30
0
0
SEQEND
0
POLYLINE
66
1
8
16_copper
10
0.0
20
0.0
30
0.0
70
1
0
VERTEX
8
0
10
76.9901375
20
57.950100000000006
30
0
0
VERTEX
8
0
10
76.06311875
20
58.198493750000004
30
0
0
VERTEX
8
0
10
75.231978125
20
58.678353125
30
0
0
VERTEX
8
0
10
74.553353125
20
59.356978125000005
30
0
0
VERTEX
8
0
10
74.07349375
20
60.18811875
30
0
0
VERTEX
8
0
10
73.8251
20
61.1151375
30
0
0
VERTEX
8
0
10
73.8251
20
62.074859375
30
0
0
VERTEX
8
0
10
74.07349375
20
63.001878125000005
30
0
0
VERTEX
8
0
10
74.553353125
20
63.83301875
30
0
0
VERTEX
8
0
10
75.231978125
20
64.51164375
30
0
0
VERTEX
8
0
10
76.06311875
20
64.99150312500001
30
0
0
VERTEX
8
0
10
76.9901375
20
65.239896875
30
0
0
VERTEX
8
0
10
77.949859375
20
65.239896875
30
0
0
VERTEX
8
0
10
78.876878125
20
64.99150312500001
30
0
0
VERTEX
8
0
10
79.70801875000001
20
64.51164375
30
0
0
VERTEX
8
0
10
80.38664375
20
63.83301875
30
0
0
VERTEX
8
0
10
80.86650312500001
20
63.001878125000005
30
0
0
VERTEX
8
0
10
81.114896875
20
62.074859375
30
0
0
VERTEX
8
0
10
81.114896875
20
61.1151375
30
0
0
VERTEX
8
0
10
80.86650312500001
20
60.18811875
30
0
0
VERTEX
8
0
10
80.38664375
20
59.356978125000005
30
0
0
VERTEX
8
0
10
79.70801875000001
20
58.678353125
30
0
0
VERTEX
8
0
10
78.876878125
20
58.198493750000004
30
0
0
VERTEX
8
0
10
77.949859375
20
57.950100000000006
30
0
0
SEQEND
0
POLYLINE
66
1
8
16_copper
10
0.0
20
0.0
30
0.0
70
1
0
VERTEX
8
0
10
31.905609375
20
32.191490625
30
0
0
VERTEX
8
0
10
31.913712500000003
20
32.1915375
30
0
42
0.09053247093623687
0
VERTEX
8
0
10
31.939609375
20
32.200396875
30
0
0
VERTEX
8
0
10
31.946578125000002
20
32.205671875
30
0
0
VERTEX
8
0
10
31.952775000000003
20
32.209721875
30
0
42
0.015772426617527556
0
VERTEX
8
0
10
31.956278125
20
32.213012500000005
30
0
0
VERTEX
8
0
10
35.91868125
20
36.17541875
30
0
0
VERTEX
8
0
10
35.923753125000005
20
36.182203125
30
0
0
VERTEX
8
0
10
35.9292875
20
36.188703125
30
0
42
0.08765145259213399
0
VERTEX
8
0
10
35.939290625000005
20
36.21325625
30
0
0
VERTEX
8
0
10
35.9398
20
36.220631250000004
30
0
0
VERTEX
8
0
10
35.941
20
36.2293
30
0
0
VERTEX
8
0
10
35.941
20
39.444640625000005
30
0
0
VERTEX
8
0
10
35.940456250000004
20
39.448396875
30
0
0
VERTEX
8
0
10
35.940625000000004
20
39.452200000000005
30
0
42
0.4585695399305796
0
VERTEX
8
0
10
35.846065625
20
39.518503125
30
0
0
VERTEX
8
0
10
35.83905
20
39.51565
30
0
0
VERTEX
8
0
10
35.832640625
20
39.513721875
30
0
42
0.021980788444165286
0
VERTEX
8
0
10
35.8267
20
39.51063125
30
0
0
VERTEX
8
0
10
35.127865625
20
39.10715625
30
0
0
VERTEX
8
0
10
33.738953125
20
38.735
30
0
0
VERTEX
8
0
10
32.30104375
20
38.735
30
0
0
VERTEX
8
0
10
31.922118750000003
20
38.836534375
30
0
0
VERTEX
8
0
10
31.917418750000003
20
38.83709375
30
0
0
VERTEX
8
0
10
31.912850000000002
20
38.838412500000004
30
0
42
0.45511795353706486
0
VERTEX
8
0
10
31.826196875
20
38.76293125
30
0
0
VERTEX
8
0
10
31.826196875
20
32.26689375
30
0
0
VERTEX
8
0
10
31.82660625
20
32.2640625
30
0
0
VERTEX
8
0
10
31.826409375
20
32.261221875000004
30
0
42
0.3744677985373014
0
VERTEX
8
0
10
31.897593750000002
20
32.190846875
30
0
0
SEQEND
0
POLYLINE
66
1
8
16_copper
10
0.0
20
0.0
30
0.0
70
1
0
VERTEX
8
0
10
94.142525
20
10.10895
30
0
0
VERTEX
8
0
10
94.1437125
20
10.10895625
30
0
0
VERTEX
8
0
10
94.15123750000001
20
10.111221875
30
0
42
0.017870756352804842
0
VERTEX
8
0
10
94.156559375
20
10.11230625
30
0
0
VERTEX
8
0
10
94.15809375
20
10.113009375
30
0
0
VERTEX
8
0
10
94.16155625
20
10.1139125
30
0
0
VERTEX
8
0
10
94.847396875
20
10.397996875
30
0
0
VERTEX
8
0
10
95.6526
20
10.397996875
30
0
0
VERTEX
8
0
10
95.93902187500001
20
10.279356250000001
30
0
0
VERTEX
8
0
10
95.94061875
20
10.27895
30
0
0
VERTEX
8
0
10
95.94207187500001
20
10.27816875
30
0
42
0.21835452448693754
0
VERTEX
8
0
10
96.00539375000001
20
10.283259375
30
0
0
VERTEX
8
0
10
96.01390937500001
20
10.28970625
30
0
0
VERTEX
8
0
10
96.02033750000001
20
10.294203125000001
30
0
42
0.007881903973716804
0
VERTEX
8
0
10
96.0220625
20
10.295875
30
0
0
VERTEX
8
0
10
97.53928125
20
11.81309375
30
0
0
VERTEX
8
0
10
97.544353125
20
11.819878125
30
0
0
VERTEX
8
0
10
97.54988750000001
20
11.826378125
30
0
42
0.08765145259213399
0
VERTEX
8
0
10
97.55989062500001
20
11.85093125
30
0
0
VERTEX
8
0
10
97.5604
20
11.85830625
30
0
0
VERTEX
8
0
10
97.5616
20
11.866975
30
0
0
VERTEX
8
0
10
97.5616
20
30.18521875
30
0
0
VERTEX
8
0
10
97.56119062500001
20
30.18805
30
0
0
VERTEX
8
0
10
97.56138750000001
20
30.190890625
30
0
42
0.548409711059846
0
VERTEX
8
0
10
97.4481875
20
30.251715625000003
30
0
0
VERTEX
8
0
10
97.44121875
20
30.246440625
30
0
0
VERTEX
8
0
10
97.435021875
20
30.242390625000002
30
0
42
0.015772426617527556
0
VERTEX
8
0
10
97.43151875000001
20
30.2391
30
0
0
VERTEX
8
0
10
97.187559375
20
29.995137500000002
30
0
0
VERTEX
8
0
10
96.42675
20
29.68
30
0
0
VERTEX
8
0
10
95.880375
20
29.68
30
0
0
VERTEX
8
0
10
95.871946875
20
29.678784375000003
30
0
0
VERTEX
8
0
10
95.86348125
20
29.678103125
30
0
42
0.08765396656356698
0
VERTEX
8
0
10
95.83904375
20
29.667818750000002
30
0
0
VERTEX
8
0
10
95.83345
20
29.662946875000003
30
0
0
VERTEX
8
0
10
95.82649375000001
20
29.657681250000003
30
0
0
VERTEX
8
0
10
94.07851562500001
20
27.909703125
30
0
0
VERTEX
8
0
10
94.07344375000001
20
27.90291875
30
0
0
VERTEX
8
0
10
94.067909375
20
27.896418750000002
30
0
42
0.08765145259213399
0
VERTEX
8
0
10
94.05790625
20
27.871865625
30
0
0
VERTEX
8
0
10
94.05739687500001
20
27.864490625000002
30
0
0
VERTEX
8
0
10
94.056196875
20
27.855821875
30
0
0
VERTEX
8
0
10
94.056196875
20
10.1843125
30
0
0
VERTEX
8
0
10
94.057015625
20
10.178646875
30
0
0
VERTEX
8
0
10
94.057040625
20
10.17408125
30
0
0
VERTEX
8
0
10
94.05801562500001
20
10.170840625
30
0
0
VERTEX
8
0
10
94.05866250000001
20
10.165084375000001
30
0
42
0.007885807941533743
0
VERTEX
8
0
10
94.05930625
20
10.16276875
30
0
0
VERTEX
8
0
10
94.06262500000001
20
10.155528125
30
0
0
VERTEX
8
0
10
94.063315625
20
10.153237500000001
30
0
0
VERTEX
8
0
10
94.06425
20
10.15180625
30
0
0
VERTEX
8
0
10
94.06710625000001
20
10.145021875000001
30
0
42
0.007889264497969065
0
VERTEX
8
0
10
94.06837812500001
20
10.14298125
30
0
0
VERTEX
8
0
10
94.074775
20
10.1356375
30
0
0
VERTEX
8
0
10
94.07500312500001
20
10.135359375
30
0
0
VERTEX
8
0
10
94.075225
20
10.13501875
30
0
0
VERTEX
8
0
10
94.075409375
20
10.1348625
30
0
0
VERTEX
8
0
10
94.08088125
20
10.128165625000001
30
0
42
0.21834535467815266
0
VERTEX
8
0
10
94.141328125
20
10.1086375
30
0
0
SEQEND
0
POLYLINE
66
1
8
16_copper
10
0.0
20
0.0
30
0.0
70
1
0
VERTEX
8
0
10
28.527409375
20
21.947440625000002
30
0
0
VERTEX
8
0
10
28.535512500000003
20
21.9474875
30
0
42
0.09053247093623687
0
VERTEX
8
0
10
28.561409375
20
21.956346875
30
0
0
VERTEX
8
0
10
28.568378125000002
20
21.961621875000002
30
0
0
VERTEX
8
0
10
28.574575000000003
20
21.965671875
30
0
42
0.015772426617527556
0
VERTEX
8
0
10
28.578078125
20
21.9689625
30
0
0
VERTEX
8
0
10
32.590234375
20
25.98111875
30
0
0
VERTEX
8
0
10
32.5919375
20
25.983396875
30
0
0
VERTEX
8
0
10
32.594096875
20
25.985278125
30
0
42
0.5484095900174472
0
VERTEX
8
0
10
32.557059375
20
26.108331250000003
30
0
0
VERTEX
8
0
10
32.548396875
20
26.10953125
30
0
0
VERTEX
8
0
10
32.54115625
20
26.111046875
30
0
42
0.015770375218223928
0
VERTEX
8
0
10
32.536353125000005
20
26.1112
30
0
0
VERTEX
8
0
10
32.341896875
20
26.1112
30
0
0
VERTEX
8
0
10
31.8471125
20
26.316146875
30
0
0
VERTEX
8
0
10
31.530475000000003
20
26.632787500000003
30
0
0
VERTEX
8
0
10
31.529153125
20
26.633775
30
0
0
VERTEX
8
0
10
31.528109375000003
20
26.635053125000002
30
0
42
0.21834535467815266
0
VERTEX
8
0
10
31.467662500000003
20
26.65458125
30
0
0
VERTEX
8
0
10
31.457309375
20
26.651881250000002
30
0
0
VERTEX
8
0
10
31.44966875
20
26.650190625
30
0
42
0.007884456392637858
0
VERTEX
8
0
10
31.447434375
20
26.649306250000002
30
0
0
VERTEX
8
0
10
30.884190625000002
20
26.416
30
0
0
VERTEX
8
0
10
30.075806250000003
20
26.416
30
0
0
VERTEX
8
0
10
29.77919375
20
26.5388625
30
0
0
VERTEX
8
0
10
29.777596875
20
26.53926875
30
0
0
VERTEX
8
0
10
29.776143750000003
20
26.54005
30
0
42
0.21835452448693754
0
VERTEX
8
0
10
29.712821875000003
20
26.534959375
30
0
0
VERTEX
8
0
10
29.704306250000002
20
26.5285125
30
0
0
VERTEX
8
0
10
29.697878125000003
20
26.524015625
30
0
42
0.007881903973716804
0
VERTEX
8
0
10
29.696153125000002
20
26.52234375
30
0
0
VERTEX
8
0
10
28.470315625
20
25.296503125
30
0
0
VERTEX
8
0
10
28.465243750000003
20
25.289718750000002
30
0
0
VERTEX
8
0
10
28.459709375000003
20
25.28321875
30
0
42
0.08765145259213399
0
VERTEX
8
0
10
28.449706250000002
20
25.258665625000003
30
0
0
VERTEX
8
0
10
28.449196875000002
20
25.251290625000003
30
0
0
VERTEX
8
0
10
28.447996875
20
25.242621875
30
0
0
VERTEX
8
0
10
28.447996875
20
22.02284375
30
0
0
VERTEX
8
0
10
28.44840625
20
22.0200125
30
0
0
VERTEX
8
0
10
28.448209375
20
22.017171875000003
30
0
42
0.3744677985373014
0
VERTEX
8
0
10
28.519393750000003
20
21.946796875
30
0
0
SEQEND
0
POLYLINE
66
1
8
16_copper
10
0.0
20
0.0
30
0.0
70
1
0
VERTEX
8
0
10
50.88806875
20
6.642909375
30
0
42
0.39258815634569955
0
VERTEX
8
0
10
50.958650000000006
20
6.718296875
30
0
0
VERTEX
8
0
10
50.958650000000006
20
7.430975
30
0
0
VERTEX
8
0
10
50.957434375000005
20
7.439403125
30
0
0
VERTEX
8
0
10
50.956753125000006
20
7.4478687500000005
30
0
42
0.08765396656356698
0
VERTEX
8
0
10
50.94646875
20
7.47230625
30
0
0
VERTEX
8
0
10
50.941596875
20
7.4779
30
0
0
VERTEX
8
0
10
50.93633125
20
7.48485625
30
0
0
VERTEX
8
0
10
49.629706250000005
20
8.79148125
30
0
0
VERTEX
8
0
10
49.622921875
20
8.796553125
30
0
0
VERTEX
8
0
10
49.616421875
20
8.8020875
30
0
42
0.08765145259213399
0
VERTEX
8
0
10
49.59186875
20
8.812090625
30
0
0
VERTEX
8
0
10
49.58449375
20
8.8126
30
0
0
VERTEX
8
0
10
49.575825
20
8.8138
30
0
0
VERTEX
8
0
10
39.538515625
20
8.8138
30
0
0
VERTEX
8
0
10
39.5300875
20
8.812584375
30
0
0
VERTEX
8
0
10
39.521621875
20
8.811903125
30
0
42
0.08765396656356698
0
VERTEX
8
0
10
39.497184375
20
8.801618750000001
30
0
0
VERTEX
8
0
10
39.491590625
20
8.796746875
30
0
0
VERTEX
8
0
10
39.484634375
20
8.79148125
30
0
0
VERTEX
8
0
10
38.008353125
20
7.3152
30
0
0
VERTEX
8
0
10
35.651643750000005
20
7.3152
30
0
0
VERTEX
8
0
10
34.175365625000005
20
8.79148125
30
0
0
VERTEX
8
0
10
34.16858125
20
8.796553125
30
0
0
VERTEX
8
0
10
34.16208125
20
8.8020875
30
0
42
0.08765145259213399
0
VERTEX
8
0
10
34.137528125
20
8.812090625
30
0
0
VERTEX
8
0
10
34.130153125
20
8.8126
30
0
0
VERTEX
8
0
10
34.121484375
20
8.8138
30
0
0
VERTEX
8
0
10
32.34956875
20
8.8138
30
0
0
VERTEX
8
0
10
32.341140625
20
8.812584375
30
0
0
VERTEX
8
0
10
32.332675
20
8.811903125
30
0
42
0.08765396656356698
0
VERTEX
8
0
10
32.308237500000004
20
8.801618750000001
30
0
0
VERTEX
8
0
10
32.30823125
20
8.801615625
30
0
0
VERTEX
8
0
10
32.302621875
20
8.79673125
30
0
0
VERTEX
8
0
10
32.2956875
20
8.79148125
30
0
0
VERTEX
8
0
10
30.9521625
20
7.447959375
30
0
0
VERTEX
8
0
10
30.948759375
20
7.443409375000001
30
0
42
0.39256960445629635
0
VERTEX
8
0
10
30.9521625
20
7.340196875
30
0
0
VERTEX
8
0
10
31.62794375
20
6.664415625
30
0
0
VERTEX
8
0
10
31.634728125000002
20
6.659343750000001
30
0
0
VERTEX
8
0
10
31.641228125
20
6.653809375000001
30
0
42
0.08765145259213399
0
VERTEX
8
0
10
31.665781250000002
20
6.64380625
30
0
0
VERTEX
8
0
10
31.67315625
20
6.643296875
30
0
0
VERTEX
8
0
10
31.681825
20
6.642096875
30
0
0
VERTEX
8
0
10
50.882450000000006
20
6.642096875
30
0
0
SEQEND
0
CIRCLE
8
drills_NPTH
10
77.47
20
61.595000000000006
30
0
40
2.3749000000000002
0
CIRCLE
8
drills_NPTH
10
77.47
20
17.145
30
0
40
2.3749000000000002
0
CIRCLE
8
drills_NPTH
10
33.02
20
44.196000000000005
30
0
40
1.651
0
CIRCLE
8
drills_PTH
10
78.27000000000001
20
7.62
30
0
40
0.6985
0
CIRCLE
8
drills_PTH
10
68.2624
20
7.62
30
0
40
0.6985
0
CIRCLE
8
drills_PTH
10
60.769400000000005
20
7.62
30
0
40
0.6985
0
CIRCLE
8
drills_PTH
10
53.2764
20
7.62
30
0
40
0.6985
0
CIRCLE
8
drills_PTH
10
46.609
20
73.025
30
0
40
0.6985
0
CIRCLE
8
drills_PTH
10
52.07
20
73.025
30
0
40
0.6985
0
CIRCLE
8
drills_PTH
10
57.531000000000006
20
73.025
30
0
40
0.6985
0
CIRCLE
8
drills_PTH
10
36.83
20
10.16
30
0
40
0.508
0
CIRCLE
8
drills_PTH
10
29.21
20
10.16
30
0
40
0.508
0
CIRCLE
8
drills_PTH
10
30.48
20
29.21
30
0
40
0.508
0
CIRCLE
8
drills_PTH
10
33.02
20
29.21
30
0
40
0.508
0
CIRCLE
8
drills_PTH
10
35.56
20
29.21
30
0
40
0.508
0
CIRCLE
8
drills_PTH
10
96.015
20
31.75
30
0
40
0.5
0
CIRCLE
8
drills_PTH
10
96.015
20
46.99
30
0
40
0.5
0
CIRCLE
8
drills_PTH
10
58.975
20
29.21
30
0
40
0.5
0
CIRCLE
8
drills_PTH
10
59.055
20
49.53
30
0
40
0.5
0
CIRCLE
8
drills_PTH
10
59.055
20
39.370000000000005
30
0
40
0.5
0
CIRCLE
8
drills_PTH
10
92.71000000000001
20
7.62
30
0
40
0.5
0
CIRCLE
8
drills_PTH
10
95.25
20
7.62
30
0
40
0.5
0
CIRCLE
8
drills_PTH
10
91.44
20
73.66
30
0
40
0.5
0
CIRCLE
8
drills_PTH
10
93.98
20
73.66
30
0
40
0.5
0
CIRCLE
8
drills_PTH
10
33.528
20
72.39
30
0
40
0.40640000000000004
0
CIRCLE
8
drills_PTH
10
29.972
20
72.39
30
0
40
0.40640000000000004
0
ENDSEC
0
EOF