G04 EAGLE Gerber RS-274X export*
G75*
%MOMM*%
%FSLAX34Y34*%
%LPD*%
%INBottom Copper*%
%IPPOS*%
%AMOC8*
5,1,8,0,0,1.08239X$1,22.5*%
G01*
%ADD10C,2.095500*%
%ADD11P,3.409096X8X22.500000*%
%ADD12C,3.149600*%
%ADD13P,1.732040X8X22.500000*%
%ADD14C,1.600200*%
%ADD15C,1.524000*%
%ADD16C,1.600000*%
%ADD17C,1.508000*%
%ADD18C,0.152400*%

G36*
X976212Y10175D02*
X976212Y10175D01*
X976303Y10183D01*
X976333Y10195D01*
X976365Y10200D01*
X976445Y10243D01*
X976529Y10279D01*
X976561Y10305D01*
X976582Y10316D01*
X976604Y10339D01*
X976660Y10384D01*
X989616Y23340D01*
X989660Y23401D01*
X989693Y23435D01*
X989699Y23448D01*
X989729Y23483D01*
X989741Y23513D01*
X989760Y23539D01*
X989787Y23626D01*
X989821Y23711D01*
X989825Y23752D01*
X989832Y23775D01*
X989831Y23807D01*
X989839Y23878D01*
X989839Y108468D01*
X989828Y108538D01*
X989826Y108610D01*
X989808Y108659D01*
X989800Y108710D01*
X989766Y108774D01*
X989741Y108841D01*
X989709Y108882D01*
X989684Y108928D01*
X989632Y108977D01*
X989588Y109033D01*
X989544Y109061D01*
X989506Y109097D01*
X989441Y109127D01*
X989381Y109166D01*
X989330Y109179D01*
X989283Y109201D01*
X989212Y109209D01*
X989142Y109226D01*
X989090Y109222D01*
X989039Y109228D01*
X988968Y109213D01*
X988897Y109207D01*
X988849Y109187D01*
X988798Y109176D01*
X988737Y109139D01*
X988671Y109111D01*
X988615Y109066D01*
X988587Y109049D01*
X988572Y109032D01*
X988540Y109006D01*
X961788Y82254D01*
X961746Y82195D01*
X961699Y82146D01*
X961691Y82129D01*
X961675Y82110D01*
X961663Y82080D01*
X961644Y82054D01*
X961620Y81976D01*
X961596Y81923D01*
X961594Y81909D01*
X961583Y81882D01*
X961579Y81841D01*
X961572Y81819D01*
X961573Y81787D01*
X961565Y81715D01*
X961565Y66857D01*
X960185Y63525D01*
X957635Y60975D01*
X954303Y59595D01*
X950697Y59595D01*
X947365Y60975D01*
X944815Y63525D01*
X943435Y66857D01*
X943435Y85543D01*
X944815Y88875D01*
X947365Y91425D01*
X950697Y92805D01*
X954303Y92805D01*
X957635Y91425D01*
X960185Y88875D01*
X960263Y88686D01*
X960287Y88647D01*
X960303Y88603D01*
X960352Y88543D01*
X960393Y88477D01*
X960428Y88447D01*
X960457Y88411D01*
X960522Y88369D01*
X960582Y88320D01*
X960625Y88303D01*
X960664Y88278D01*
X960739Y88259D01*
X960812Y88231D01*
X960858Y88230D01*
X960902Y88218D01*
X960980Y88224D01*
X961058Y88221D01*
X961102Y88234D01*
X961147Y88237D01*
X961219Y88268D01*
X961294Y88290D01*
X961332Y88316D01*
X961374Y88334D01*
X961481Y88419D01*
X961496Y88430D01*
X961499Y88434D01*
X961505Y88439D01*
X986568Y113502D01*
X986621Y113576D01*
X986681Y113646D01*
X986693Y113676D01*
X986712Y113702D01*
X986739Y113789D01*
X986773Y113874D01*
X986777Y113915D01*
X986784Y113937D01*
X986783Y113969D01*
X986791Y114041D01*
X986791Y466852D01*
X986788Y466872D01*
X986790Y466891D01*
X986768Y466993D01*
X986752Y467095D01*
X986742Y467112D01*
X986738Y467132D01*
X986685Y467221D01*
X986636Y467312D01*
X986622Y467326D01*
X986612Y467343D01*
X986533Y467410D01*
X986458Y467482D01*
X986440Y467490D01*
X986425Y467503D01*
X986329Y467542D01*
X986235Y467585D01*
X986215Y467587D01*
X986197Y467595D01*
X986030Y467613D01*
X970021Y467613D01*
X969906Y467594D01*
X969790Y467577D01*
X969784Y467575D01*
X969778Y467574D01*
X969676Y467519D01*
X969571Y467466D01*
X969566Y467461D01*
X969561Y467458D01*
X969481Y467374D01*
X969399Y467290D01*
X969395Y467284D01*
X969391Y467280D01*
X969384Y467263D01*
X969318Y467143D01*
X968225Y464505D01*
X965545Y461825D01*
X962045Y460375D01*
X958255Y460375D01*
X954755Y461825D01*
X952075Y464505D01*
X950625Y468005D01*
X950625Y471795D01*
X952075Y475295D01*
X954755Y477975D01*
X958255Y479425D01*
X962045Y479425D01*
X965545Y477975D01*
X968225Y475295D01*
X969318Y472657D01*
X969379Y472557D01*
X969439Y472457D01*
X969444Y472453D01*
X969447Y472448D01*
X969537Y472373D01*
X969626Y472297D01*
X969632Y472295D01*
X969637Y472291D01*
X969745Y472249D01*
X969854Y472205D01*
X969862Y472204D01*
X969866Y472203D01*
X969885Y472202D01*
X970021Y472187D01*
X989078Y472187D01*
X989098Y472190D01*
X989117Y472188D01*
X989219Y472210D01*
X989321Y472226D01*
X989338Y472236D01*
X989358Y472240D01*
X989447Y472293D01*
X989538Y472342D01*
X989552Y472356D01*
X989569Y472366D01*
X989636Y472445D01*
X989708Y472520D01*
X989716Y472538D01*
X989729Y472553D01*
X989768Y472649D01*
X989811Y472743D01*
X989813Y472763D01*
X989821Y472781D01*
X989839Y472948D01*
X989839Y763522D01*
X989825Y763612D01*
X989817Y763703D01*
X989805Y763733D01*
X989800Y763765D01*
X989757Y763845D01*
X989721Y763929D01*
X989695Y763961D01*
X989684Y763982D01*
X989661Y764004D01*
X989616Y764060D01*
X964060Y789616D01*
X963986Y789669D01*
X963917Y789729D01*
X963887Y789741D01*
X963861Y789760D01*
X963774Y789787D01*
X963689Y789821D01*
X963648Y789825D01*
X963625Y789832D01*
X963593Y789831D01*
X963522Y789839D01*
X281078Y789839D01*
X280988Y789825D01*
X280897Y789817D01*
X280867Y789805D01*
X280835Y789800D01*
X280755Y789757D01*
X280671Y789721D01*
X280639Y789695D01*
X280618Y789684D01*
X280596Y789661D01*
X280540Y789616D01*
X238984Y748060D01*
X238931Y747986D01*
X238871Y747917D01*
X238859Y747887D01*
X238840Y747861D01*
X238813Y747774D01*
X238779Y747689D01*
X238775Y747648D01*
X238768Y747625D01*
X238769Y747593D01*
X238761Y747522D01*
X238761Y52578D01*
X238775Y52488D01*
X238783Y52397D01*
X238795Y52367D01*
X238800Y52335D01*
X238843Y52255D01*
X238879Y52171D01*
X238905Y52139D01*
X238916Y52118D01*
X238939Y52096D01*
X238984Y52040D01*
X280640Y10384D01*
X280714Y10331D01*
X280783Y10271D01*
X280813Y10259D01*
X280839Y10240D01*
X280926Y10213D01*
X281011Y10179D01*
X281052Y10175D01*
X281075Y10168D01*
X281107Y10169D01*
X281178Y10161D01*
X976122Y10161D01*
X976212Y10175D01*
G37*
%LPC*%
G36*
X679438Y47624D02*
X679438Y47624D01*
X653372Y73690D01*
X653298Y73743D01*
X653228Y73803D01*
X653198Y73815D01*
X653172Y73834D01*
X653085Y73861D01*
X653000Y73895D01*
X652959Y73899D01*
X652937Y73906D01*
X652905Y73905D01*
X652834Y73913D01*
X620457Y73913D01*
X620438Y73910D01*
X620418Y73912D01*
X620317Y73890D01*
X620215Y73874D01*
X620197Y73864D01*
X620178Y73860D01*
X620089Y73807D01*
X619997Y73758D01*
X619984Y73744D01*
X619967Y73734D01*
X619899Y73655D01*
X619828Y73580D01*
X619820Y73562D01*
X619807Y73547D01*
X619768Y73451D01*
X619724Y73357D01*
X619722Y73337D01*
X619715Y73319D01*
X619696Y73152D01*
X619696Y63335D01*
X617869Y58924D01*
X614493Y55548D01*
X610081Y53720D01*
X605307Y53720D01*
X600895Y55548D01*
X597519Y58924D01*
X595692Y63335D01*
X595692Y89065D01*
X597519Y93476D01*
X600895Y96852D01*
X605307Y98680D01*
X610081Y98680D01*
X614493Y96852D01*
X617869Y93476D01*
X619696Y89065D01*
X619696Y79248D01*
X619699Y79228D01*
X619697Y79209D01*
X619719Y79107D01*
X619736Y79005D01*
X619745Y78988D01*
X619750Y78968D01*
X619803Y78879D01*
X619851Y78788D01*
X619865Y78774D01*
X619876Y78757D01*
X619954Y78690D01*
X620029Y78618D01*
X620047Y78610D01*
X620063Y78597D01*
X620159Y78558D01*
X620252Y78515D01*
X620272Y78513D01*
X620291Y78505D01*
X620457Y78487D01*
X655043Y78487D01*
X669322Y64208D01*
X669380Y64166D01*
X669432Y64117D01*
X669480Y64095D01*
X669522Y64064D01*
X669590Y64043D01*
X669656Y64013D01*
X669707Y64007D01*
X669757Y63992D01*
X669829Y63994D01*
X669900Y63986D01*
X669951Y63997D01*
X670003Y63998D01*
X670070Y64023D01*
X670140Y64038D01*
X670185Y64065D01*
X670234Y64083D01*
X670290Y64128D01*
X670351Y64164D01*
X670385Y64204D01*
X670426Y64236D01*
X670465Y64297D01*
X670511Y64351D01*
X670531Y64400D01*
X670559Y64443D01*
X670576Y64513D01*
X670603Y64579D01*
X670611Y64651D01*
X670619Y64682D01*
X670617Y64705D01*
X670622Y64746D01*
X670622Y89065D01*
X672449Y93476D01*
X675825Y96852D01*
X680237Y98680D01*
X685011Y98680D01*
X689423Y96852D01*
X692799Y93476D01*
X694626Y89065D01*
X694626Y79248D01*
X694629Y79228D01*
X694627Y79209D01*
X694649Y79107D01*
X694666Y79005D01*
X694675Y78988D01*
X694680Y78968D01*
X694733Y78879D01*
X694781Y78788D01*
X694795Y78774D01*
X694806Y78757D01*
X694884Y78690D01*
X694959Y78618D01*
X694977Y78610D01*
X694993Y78597D01*
X695089Y78558D01*
X695182Y78515D01*
X695202Y78513D01*
X695221Y78505D01*
X695387Y78487D01*
X755119Y78487D01*
X769398Y64208D01*
X769456Y64166D01*
X769508Y64117D01*
X769556Y64095D01*
X769598Y64064D01*
X769666Y64043D01*
X769732Y64013D01*
X769783Y64007D01*
X769833Y63992D01*
X769905Y63994D01*
X769976Y63986D01*
X770027Y63997D01*
X770079Y63998D01*
X770146Y64023D01*
X770216Y64038D01*
X770261Y64065D01*
X770310Y64083D01*
X770366Y64128D01*
X770427Y64164D01*
X770461Y64204D01*
X770502Y64236D01*
X770541Y64297D01*
X770587Y64351D01*
X770607Y64400D01*
X770635Y64443D01*
X770652Y64513D01*
X770679Y64579D01*
X770687Y64651D01*
X770695Y64682D01*
X770693Y64705D01*
X770698Y64746D01*
X770698Y83003D01*
X770683Y83093D01*
X770676Y83184D01*
X770663Y83214D01*
X770658Y83246D01*
X770615Y83326D01*
X770580Y83410D01*
X770554Y83442D01*
X770543Y83463D01*
X770520Y83485D01*
X770475Y83541D01*
X723176Y130840D01*
X723102Y130893D01*
X723032Y130953D01*
X723002Y130965D01*
X722976Y130984D01*
X722889Y131011D01*
X722804Y131045D01*
X722763Y131049D01*
X722741Y131056D01*
X722709Y131055D01*
X722637Y131063D01*
X325113Y131063D01*
X325022Y131049D01*
X324932Y131041D01*
X324902Y131029D01*
X324870Y131024D01*
X324789Y130981D01*
X324705Y130945D01*
X324673Y130919D01*
X324652Y130908D01*
X324630Y130885D01*
X324574Y130840D01*
X306469Y112735D01*
X306457Y112719D01*
X306442Y112706D01*
X306386Y112619D01*
X306325Y112535D01*
X306320Y112516D01*
X306309Y112499D01*
X306283Y112399D01*
X306253Y112300D01*
X306254Y112280D01*
X306249Y112261D01*
X306257Y112158D01*
X306259Y112054D01*
X306266Y112035D01*
X306268Y112016D01*
X306308Y111921D01*
X306344Y111823D01*
X306356Y111808D01*
X306364Y111789D01*
X306469Y111658D01*
X306743Y111384D01*
X309373Y105036D01*
X309373Y104648D01*
X309376Y104628D01*
X309374Y104609D01*
X309396Y104507D01*
X309412Y104405D01*
X309422Y104388D01*
X309426Y104368D01*
X309479Y104279D01*
X309528Y104188D01*
X309542Y104174D01*
X309552Y104157D01*
X309631Y104090D01*
X309706Y104018D01*
X309724Y104010D01*
X309739Y103997D01*
X309835Y103958D01*
X309929Y103915D01*
X309949Y103913D01*
X309967Y103905D01*
X310134Y103887D01*
X312031Y103887D01*
X312121Y103901D01*
X312212Y103909D01*
X312242Y103921D01*
X312274Y103926D01*
X312354Y103969D01*
X312438Y104005D01*
X312470Y104031D01*
X312491Y104042D01*
X312513Y104065D01*
X312569Y104110D01*
X330380Y121921D01*
X518805Y121921D01*
X547814Y92912D01*
X547814Y59488D01*
X538998Y50672D01*
X309979Y50672D01*
X268731Y91920D01*
X268731Y259265D01*
X295432Y285966D01*
X295476Y286027D01*
X295513Y286066D01*
X295520Y286081D01*
X295545Y286110D01*
X295557Y286140D01*
X295576Y286166D01*
X295603Y286253D01*
X295637Y286338D01*
X295641Y286379D01*
X295648Y286401D01*
X295647Y286433D01*
X295655Y286505D01*
X295655Y301539D01*
X297047Y304900D01*
X299620Y307473D01*
X302043Y308476D01*
X302143Y308538D01*
X302243Y308598D01*
X302247Y308603D01*
X302252Y308606D01*
X302327Y308696D01*
X302403Y308785D01*
X302405Y308791D01*
X302409Y308795D01*
X302451Y308903D01*
X302495Y309013D01*
X302496Y309020D01*
X302497Y309025D01*
X302498Y309043D01*
X302513Y309180D01*
X302513Y405750D01*
X302499Y405840D01*
X302491Y405931D01*
X302479Y405961D01*
X302474Y405993D01*
X302431Y406074D01*
X302395Y406157D01*
X302369Y406190D01*
X302358Y406210D01*
X302335Y406232D01*
X302290Y406288D01*
X285241Y423337D01*
X285241Y727203D01*
X313816Y755778D01*
X472324Y755778D01*
X495342Y732760D01*
X495416Y732707D01*
X495486Y732647D01*
X495516Y732635D01*
X495542Y732616D01*
X495629Y732589D01*
X495714Y732555D01*
X495755Y732551D01*
X495777Y732544D01*
X495809Y732545D01*
X495880Y732537D01*
X507937Y732537D01*
X507956Y732540D01*
X507976Y732538D01*
X508077Y732560D01*
X508179Y732576D01*
X508197Y732586D01*
X508216Y732590D01*
X508305Y732643D01*
X508397Y732692D01*
X508410Y732706D01*
X508427Y732716D01*
X508495Y732795D01*
X508566Y732870D01*
X508574Y732888D01*
X508587Y732903D01*
X508626Y732999D01*
X508670Y733093D01*
X508672Y733113D01*
X508679Y733131D01*
X508698Y733298D01*
X508698Y743115D01*
X510525Y747526D01*
X513901Y750902D01*
X518313Y752730D01*
X523087Y752730D01*
X527499Y750902D01*
X530875Y747526D01*
X532702Y743115D01*
X532702Y717385D01*
X530875Y712974D01*
X527499Y709598D01*
X525094Y708601D01*
X525011Y708550D01*
X524925Y708504D01*
X524907Y708486D01*
X524885Y708472D01*
X524822Y708396D01*
X524755Y708326D01*
X524744Y708302D01*
X524728Y708282D01*
X524693Y708191D01*
X524652Y708103D01*
X524649Y708077D01*
X524640Y708053D01*
X524635Y707955D01*
X524625Y707859D01*
X524630Y707833D01*
X524629Y707807D01*
X524656Y707713D01*
X524677Y707618D01*
X524690Y707596D01*
X524698Y707571D01*
X524753Y707491D01*
X524803Y707407D01*
X524823Y707390D01*
X524838Y707369D01*
X524916Y707310D01*
X524990Y707247D01*
X525014Y707237D01*
X525035Y707222D01*
X525128Y707192D01*
X525218Y707155D01*
X525251Y707152D01*
X525269Y707146D01*
X525302Y707146D01*
X525385Y707137D01*
X570625Y707137D01*
X570721Y707152D01*
X570818Y707162D01*
X570842Y707172D01*
X570868Y707176D01*
X570954Y707222D01*
X571043Y707262D01*
X571062Y707279D01*
X571085Y707292D01*
X571152Y707362D01*
X571224Y707428D01*
X571237Y707451D01*
X571255Y707470D01*
X571296Y707558D01*
X571343Y707644D01*
X571347Y707669D01*
X571358Y707693D01*
X571369Y707790D01*
X571386Y707886D01*
X571382Y707912D01*
X571385Y707937D01*
X571365Y708033D01*
X571350Y708129D01*
X571339Y708152D01*
X571333Y708178D01*
X571283Y708261D01*
X571239Y708348D01*
X571220Y708367D01*
X571207Y708389D01*
X571133Y708452D01*
X571063Y708520D01*
X571035Y708536D01*
X571020Y708549D01*
X570989Y708561D01*
X570916Y708601D01*
X568511Y709598D01*
X565135Y712974D01*
X563308Y717385D01*
X563308Y743115D01*
X565135Y747526D01*
X568511Y750902D01*
X572923Y752730D01*
X577697Y752730D01*
X582109Y750902D01*
X585485Y747526D01*
X587312Y743115D01*
X587312Y733298D01*
X587315Y733278D01*
X587313Y733259D01*
X587335Y733157D01*
X587352Y733055D01*
X587361Y733038D01*
X587366Y733018D01*
X587419Y732929D01*
X587467Y732838D01*
X587481Y732824D01*
X587492Y732807D01*
X587570Y732740D01*
X587645Y732668D01*
X587663Y732660D01*
X587679Y732647D01*
X587775Y732608D01*
X587868Y732565D01*
X587888Y732563D01*
X587907Y732555D01*
X588073Y732537D01*
X904574Y732537D01*
X904594Y732540D01*
X904613Y732538D01*
X904715Y732560D01*
X904817Y732576D01*
X904834Y732586D01*
X904854Y732590D01*
X904943Y732643D01*
X905034Y732692D01*
X905048Y732706D01*
X905065Y732716D01*
X905132Y732795D01*
X905204Y732870D01*
X905212Y732888D01*
X905225Y732903D01*
X905264Y732999D01*
X905307Y733093D01*
X905309Y733113D01*
X905317Y733131D01*
X905335Y733298D01*
X905335Y745943D01*
X906715Y749275D01*
X909265Y751825D01*
X912597Y753205D01*
X916203Y753205D01*
X919535Y751825D01*
X922085Y749275D01*
X923465Y745943D01*
X923465Y727257D01*
X922272Y724377D01*
X922250Y724282D01*
X922221Y724189D01*
X922222Y724163D01*
X922216Y724137D01*
X922225Y724041D01*
X922227Y723943D01*
X922236Y723919D01*
X922239Y723893D01*
X922278Y723804D01*
X922312Y723712D01*
X922328Y723692D01*
X922339Y723668D01*
X922405Y723596D01*
X922465Y723520D01*
X922487Y723506D01*
X922505Y723487D01*
X922590Y723440D01*
X922672Y723387D01*
X922698Y723381D01*
X922721Y723368D01*
X922817Y723351D01*
X922911Y723327D01*
X922937Y723329D01*
X922963Y723324D01*
X923059Y723339D01*
X923156Y723346D01*
X923180Y723356D01*
X923206Y723360D01*
X923293Y723404D01*
X923382Y723442D01*
X923408Y723463D01*
X923425Y723472D01*
X923449Y723495D01*
X923513Y723547D01*
X930512Y730546D01*
X930557Y730609D01*
X930584Y730636D01*
X930588Y730647D01*
X930625Y730690D01*
X930637Y730720D01*
X930656Y730746D01*
X930683Y730833D01*
X930717Y730918D01*
X930721Y730959D01*
X930728Y730981D01*
X930727Y731013D01*
X930735Y731084D01*
X930735Y745943D01*
X932115Y749275D01*
X934665Y751825D01*
X937997Y753205D01*
X941603Y753205D01*
X944935Y751825D01*
X947485Y749275D01*
X948865Y745943D01*
X948865Y727257D01*
X947485Y723925D01*
X944935Y721375D01*
X941603Y719995D01*
X937997Y719995D01*
X934665Y721375D01*
X932115Y723925D01*
X932037Y724114D01*
X932013Y724153D01*
X931997Y724197D01*
X931948Y724257D01*
X931907Y724323D01*
X931872Y724353D01*
X931843Y724389D01*
X931778Y724431D01*
X931718Y724480D01*
X931675Y724497D01*
X931636Y724522D01*
X931561Y724541D01*
X931488Y724569D01*
X931442Y724570D01*
X931398Y724582D01*
X931320Y724576D01*
X931242Y724579D01*
X931198Y724566D01*
X931153Y724563D01*
X931081Y724532D01*
X931006Y724510D01*
X930968Y724484D01*
X930926Y724466D01*
X930819Y724381D01*
X930804Y724370D01*
X930801Y724366D01*
X930795Y724361D01*
X910560Y704126D01*
X908997Y702563D01*
X434848Y702563D01*
X434828Y702560D01*
X434809Y702562D01*
X434707Y702540D01*
X434605Y702524D01*
X434588Y702514D01*
X434568Y702510D01*
X434479Y702457D01*
X434388Y702408D01*
X434374Y702394D01*
X434357Y702384D01*
X434290Y702305D01*
X434218Y702230D01*
X434210Y702212D01*
X434197Y702197D01*
X434158Y702101D01*
X434115Y702007D01*
X434113Y701987D01*
X434105Y701969D01*
X434087Y701802D01*
X434087Y392753D01*
X432524Y391190D01*
X354546Y313212D01*
X354504Y313154D01*
X354455Y313102D01*
X354433Y313055D01*
X354403Y313013D01*
X354382Y312944D01*
X354351Y312879D01*
X354346Y312827D01*
X354330Y312777D01*
X354332Y312706D01*
X354324Y312635D01*
X354335Y312584D01*
X354337Y312532D01*
X354361Y312464D01*
X354376Y312394D01*
X354403Y312350D01*
X354421Y312301D01*
X354466Y312245D01*
X354503Y312183D01*
X354542Y312149D01*
X354575Y312109D01*
X354635Y312070D01*
X354690Y312023D01*
X354738Y312004D01*
X354782Y311976D01*
X354851Y311958D01*
X354918Y311931D01*
X354989Y311923D01*
X355020Y311915D01*
X355044Y311917D01*
X355084Y311913D01*
X360650Y311913D01*
X367793Y304770D01*
X367793Y279430D01*
X276576Y188213D01*
X276522Y188138D01*
X276463Y188069D01*
X276451Y188039D01*
X276432Y188013D01*
X276405Y187926D01*
X276371Y187841D01*
X276367Y187800D01*
X276360Y187778D01*
X276361Y187746D01*
X276353Y187674D01*
X276353Y112118D01*
X276364Y112047D01*
X276366Y111975D01*
X276384Y111926D01*
X276392Y111875D01*
X276426Y111812D01*
X276451Y111744D01*
X276483Y111704D01*
X276508Y111658D01*
X276560Y111608D01*
X276604Y111552D01*
X276648Y111524D01*
X276686Y111488D01*
X276751Y111458D01*
X276811Y111419D01*
X276862Y111407D01*
X276909Y111385D01*
X276980Y111377D01*
X277050Y111359D01*
X277102Y111363D01*
X277153Y111358D01*
X277224Y111373D01*
X277295Y111378D01*
X277343Y111399D01*
X277394Y111410D01*
X277455Y111447D01*
X277521Y111475D01*
X277577Y111520D01*
X277605Y111536D01*
X277620Y111554D01*
X277652Y111580D01*
X282316Y116243D01*
X288664Y118873D01*
X295536Y118873D01*
X301884Y116243D01*
X302158Y115969D01*
X302175Y115957D01*
X302187Y115942D01*
X302274Y115886D01*
X302358Y115825D01*
X302377Y115820D01*
X302394Y115809D01*
X302494Y115783D01*
X302593Y115753D01*
X302613Y115754D01*
X302632Y115749D01*
X302735Y115757D01*
X302839Y115759D01*
X302858Y115766D01*
X302878Y115768D01*
X302973Y115808D01*
X303070Y115844D01*
X303086Y115856D01*
X303104Y115864D01*
X303235Y115969D01*
X322903Y135637D01*
X724847Y135637D01*
X726410Y134074D01*
X770103Y90380D01*
X770141Y90354D01*
X770172Y90320D01*
X770240Y90282D01*
X770303Y90237D01*
X770347Y90223D01*
X770387Y90201D01*
X770464Y90187D01*
X770538Y90165D01*
X770584Y90166D01*
X770629Y90158D01*
X770706Y90169D01*
X770784Y90171D01*
X770827Y90187D01*
X770873Y90193D01*
X770942Y90229D01*
X771015Y90255D01*
X771051Y90284D01*
X771092Y90305D01*
X771146Y90360D01*
X771207Y90409D01*
X771232Y90448D01*
X771264Y90480D01*
X771330Y90600D01*
X771340Y90616D01*
X771341Y90621D01*
X771345Y90627D01*
X772525Y93476D01*
X775901Y96852D01*
X778994Y98134D01*
X779033Y98158D01*
X779076Y98173D01*
X779137Y98222D01*
X779203Y98263D01*
X779232Y98299D01*
X779268Y98327D01*
X779310Y98393D01*
X779360Y98453D01*
X779376Y98495D01*
X779401Y98534D01*
X779420Y98610D01*
X779448Y98682D01*
X779450Y98728D01*
X779461Y98773D01*
X779455Y98850D01*
X779458Y98928D01*
X779446Y98972D01*
X779442Y99018D01*
X779412Y99089D01*
X779390Y99164D01*
X779364Y99202D01*
X779346Y99244D01*
X779260Y99351D01*
X779250Y99366D01*
X779246Y99369D01*
X779241Y99375D01*
X595113Y283503D01*
X595019Y283571D01*
X594924Y283641D01*
X594918Y283643D01*
X594913Y283647D01*
X594802Y283681D01*
X594690Y283717D01*
X594684Y283717D01*
X594678Y283719D01*
X594561Y283716D01*
X594444Y283715D01*
X594437Y283713D01*
X594432Y283713D01*
X594415Y283706D01*
X594283Y283668D01*
X591645Y282575D01*
X587855Y282575D01*
X584355Y284025D01*
X581675Y286705D01*
X580225Y290205D01*
X580225Y293995D01*
X581675Y297495D01*
X584355Y300175D01*
X587855Y301625D01*
X591645Y301625D01*
X595145Y300175D01*
X597825Y297495D01*
X599275Y293995D01*
X599275Y290205D01*
X598182Y287567D01*
X598155Y287453D01*
X598127Y287340D01*
X598127Y287333D01*
X598126Y287327D01*
X598137Y287211D01*
X598146Y287094D01*
X598148Y287089D01*
X598149Y287082D01*
X598197Y286975D01*
X598242Y286868D01*
X598247Y286862D01*
X598249Y286858D01*
X598261Y286844D01*
X598318Y286773D01*
X598323Y286765D01*
X598328Y286760D01*
X598347Y286737D01*
X783133Y101951D01*
X783207Y101898D01*
X783277Y101838D01*
X783307Y101826D01*
X783333Y101807D01*
X783420Y101780D01*
X783505Y101746D01*
X783546Y101742D01*
X783568Y101735D01*
X783600Y101736D01*
X783672Y101728D01*
X784939Y101728D01*
X785010Y101739D01*
X785081Y101741D01*
X785130Y101759D01*
X785182Y101767D01*
X785245Y101801D01*
X785312Y101826D01*
X785353Y101858D01*
X785399Y101883D01*
X785448Y101935D01*
X785504Y101979D01*
X785533Y102023D01*
X785568Y102061D01*
X785599Y102126D01*
X785637Y102186D01*
X785650Y102237D01*
X785672Y102284D01*
X785680Y102355D01*
X785698Y102425D01*
X785693Y102477D01*
X785699Y102528D01*
X785684Y102599D01*
X785678Y102670D01*
X785658Y102718D01*
X785647Y102769D01*
X785610Y102830D01*
X785582Y102896D01*
X785537Y102952D01*
X785521Y102980D01*
X785503Y102995D01*
X785477Y103027D01*
X605407Y283097D01*
X605407Y476893D01*
X605393Y476984D01*
X605385Y477074D01*
X605373Y477104D01*
X605368Y477136D01*
X605325Y477217D01*
X605289Y477301D01*
X605263Y477333D01*
X605252Y477354D01*
X605229Y477376D01*
X605184Y477432D01*
X595913Y486703D01*
X595818Y486771D01*
X595724Y486841D01*
X595718Y486843D01*
X595713Y486847D01*
X595602Y486881D01*
X595490Y486917D01*
X595484Y486917D01*
X595478Y486919D01*
X595361Y486916D01*
X595244Y486915D01*
X595237Y486913D01*
X595232Y486913D01*
X595215Y486906D01*
X595083Y486868D01*
X592445Y485775D01*
X588655Y485775D01*
X585155Y487225D01*
X582475Y489905D01*
X581025Y493405D01*
X581025Y497195D01*
X582475Y500695D01*
X585155Y503375D01*
X588655Y504825D01*
X592445Y504825D01*
X595945Y503375D01*
X598625Y500695D01*
X600075Y497195D01*
X600075Y493405D01*
X598982Y490767D01*
X598973Y490730D01*
X598966Y490714D01*
X598963Y490686D01*
X598955Y490653D01*
X598927Y490540D01*
X598927Y490533D01*
X598926Y490527D01*
X598937Y490411D01*
X598946Y490294D01*
X598948Y490289D01*
X598949Y490282D01*
X598997Y490175D01*
X599042Y490068D01*
X599047Y490062D01*
X599049Y490058D01*
X599061Y490044D01*
X599147Y489937D01*
X608418Y480666D01*
X609981Y479103D01*
X609981Y285307D01*
X609995Y285217D01*
X610003Y285126D01*
X610015Y285096D01*
X610020Y285064D01*
X610063Y284984D01*
X610099Y284900D01*
X610125Y284868D01*
X610136Y284847D01*
X610159Y284825D01*
X610204Y284769D01*
X800798Y94174D01*
X800798Y58226D01*
X799236Y56663D01*
X791759Y49187D01*
X790197Y47624D01*
X679438Y47624D01*
G37*
%LPD*%
G36*
X338764Y304209D02*
X338764Y304209D01*
X338842Y304206D01*
X338886Y304219D01*
X338932Y304222D01*
X339004Y304253D01*
X339078Y304274D01*
X339116Y304300D01*
X339158Y304318D01*
X339265Y304404D01*
X339280Y304415D01*
X339283Y304419D01*
X339289Y304423D01*
X429290Y394424D01*
X429343Y394498D01*
X429403Y394568D01*
X429415Y394598D01*
X429434Y394624D01*
X429461Y394711D01*
X429495Y394796D01*
X429499Y394837D01*
X429506Y394859D01*
X429505Y394891D01*
X429513Y394963D01*
X429513Y701802D01*
X429510Y701822D01*
X429512Y701841D01*
X429490Y701943D01*
X429474Y702045D01*
X429464Y702062D01*
X429460Y702082D01*
X429407Y702171D01*
X429358Y702262D01*
X429344Y702276D01*
X429334Y702293D01*
X429255Y702360D01*
X429180Y702432D01*
X429162Y702440D01*
X429147Y702453D01*
X429051Y702492D01*
X428957Y702535D01*
X428937Y702537D01*
X428919Y702545D01*
X428752Y702563D01*
X354653Y702563D01*
X341572Y715644D01*
X341556Y715656D01*
X341543Y715671D01*
X341464Y715722D01*
X341456Y715729D01*
X341451Y715731D01*
X341372Y715788D01*
X341353Y715793D01*
X341337Y715804D01*
X341236Y715830D01*
X341137Y715860D01*
X341117Y715859D01*
X341098Y715864D01*
X340995Y715856D01*
X340891Y715854D01*
X340873Y715847D01*
X340853Y715845D01*
X340758Y715805D01*
X340660Y715769D01*
X340645Y715757D01*
X340626Y715749D01*
X340547Y715685D01*
X340546Y715685D01*
X340546Y715684D01*
X340495Y715644D01*
X339226Y714374D01*
X331334Y714374D01*
X325754Y719954D01*
X325754Y727846D01*
X330922Y733014D01*
X330964Y733072D01*
X331014Y733124D01*
X331035Y733171D01*
X331066Y733213D01*
X331087Y733282D01*
X331117Y733347D01*
X331123Y733399D01*
X331138Y733449D01*
X331136Y733520D01*
X331144Y733591D01*
X331133Y733642D01*
X331132Y733694D01*
X331107Y733762D01*
X331092Y733832D01*
X331065Y733877D01*
X331047Y733925D01*
X331003Y733981D01*
X330966Y734043D01*
X330926Y734077D01*
X330894Y734117D01*
X330833Y734156D01*
X330779Y734203D01*
X330731Y734222D01*
X330687Y734250D01*
X330617Y734268D01*
X330551Y734295D01*
X330479Y734303D01*
X330448Y734311D01*
X330425Y734309D01*
X330384Y734313D01*
X318763Y734313D01*
X318672Y734299D01*
X318582Y734291D01*
X318552Y734279D01*
X318520Y734274D01*
X318439Y734231D01*
X318355Y734195D01*
X318323Y734169D01*
X318302Y734158D01*
X318280Y734135D01*
X318224Y734090D01*
X309469Y725335D01*
X309416Y725261D01*
X309356Y725191D01*
X309344Y725161D01*
X309325Y725135D01*
X309298Y725048D01*
X309264Y724963D01*
X309260Y724922D01*
X309253Y724900D01*
X309254Y724868D01*
X309246Y724796D01*
X309246Y722005D01*
X308153Y719366D01*
X308126Y719252D01*
X308097Y719139D01*
X308098Y719133D01*
X308096Y719127D01*
X308107Y719009D01*
X308116Y718894D01*
X308119Y718888D01*
X308119Y718882D01*
X308167Y718774D01*
X308213Y718667D01*
X308217Y718662D01*
X308219Y718657D01*
X308232Y718643D01*
X308318Y718536D01*
X375159Y651695D01*
X375159Y355454D01*
X373596Y353892D01*
X329869Y310164D01*
X329827Y310106D01*
X329778Y310054D01*
X329756Y310007D01*
X329725Y309965D01*
X329704Y309896D01*
X329674Y309831D01*
X329668Y309779D01*
X329653Y309729D01*
X329655Y309658D01*
X329647Y309587D01*
X329658Y309536D01*
X329659Y309484D01*
X329684Y309416D01*
X329699Y309346D01*
X329726Y309301D01*
X329744Y309253D01*
X329789Y309197D01*
X329825Y309135D01*
X329865Y309101D01*
X329898Y309061D01*
X329958Y309022D01*
X330012Y308975D01*
X330061Y308956D01*
X330104Y308928D01*
X330174Y308910D01*
X330240Y308883D01*
X330312Y308875D01*
X330343Y308867D01*
X330366Y308869D01*
X330407Y308865D01*
X332019Y308865D01*
X335380Y307473D01*
X337953Y304900D01*
X338048Y304670D01*
X338072Y304631D01*
X338088Y304588D01*
X338136Y304527D01*
X338177Y304461D01*
X338213Y304432D01*
X338241Y304396D01*
X338307Y304354D01*
X338367Y304304D01*
X338410Y304288D01*
X338448Y304263D01*
X338524Y304244D01*
X338596Y304216D01*
X338642Y304214D01*
X338687Y304203D01*
X338764Y304209D01*
G37*
G36*
X369938Y457929D02*
X369938Y457929D01*
X370013Y457936D01*
X370057Y457955D01*
X370104Y457965D01*
X370169Y458004D01*
X370238Y458034D01*
X370274Y458067D01*
X370315Y458091D01*
X370364Y458149D01*
X370420Y458200D01*
X370444Y458242D01*
X370475Y458278D01*
X370503Y458349D01*
X370540Y458415D01*
X370549Y458462D01*
X370567Y458506D01*
X370581Y458635D01*
X370585Y458657D01*
X370584Y458663D01*
X370585Y458673D01*
X370585Y649485D01*
X370571Y649576D01*
X370563Y649666D01*
X370551Y649696D01*
X370546Y649728D01*
X370503Y649809D01*
X370467Y649893D01*
X370441Y649925D01*
X370430Y649946D01*
X370407Y649968D01*
X370362Y650024D01*
X305084Y715302D01*
X304990Y715370D01*
X304895Y715440D01*
X304889Y715442D01*
X304884Y715446D01*
X304773Y715480D01*
X304661Y715517D01*
X304655Y715517D01*
X304649Y715518D01*
X304532Y715515D01*
X304415Y715514D01*
X304408Y715512D01*
X304403Y715512D01*
X304385Y715506D01*
X304254Y715467D01*
X301615Y714374D01*
X297825Y714374D01*
X294324Y715824D01*
X291644Y718504D01*
X291279Y719386D01*
X291228Y719469D01*
X291182Y719555D01*
X291164Y719573D01*
X291150Y719595D01*
X291074Y719657D01*
X291004Y719724D01*
X290980Y719735D01*
X290960Y719752D01*
X290869Y719787D01*
X290781Y719828D01*
X290755Y719830D01*
X290731Y719840D01*
X290633Y719844D01*
X290537Y719855D01*
X290511Y719849D01*
X290485Y719850D01*
X290391Y719823D01*
X290296Y719802D01*
X290274Y719789D01*
X290249Y719782D01*
X290169Y719726D01*
X290085Y719676D01*
X290068Y719656D01*
X290047Y719641D01*
X289988Y719563D01*
X289925Y719489D01*
X289915Y719465D01*
X289900Y719444D01*
X289870Y719352D01*
X289833Y719261D01*
X289830Y719229D01*
X289824Y719210D01*
X289824Y719177D01*
X289815Y719094D01*
X289815Y458673D01*
X289822Y458626D01*
X289821Y458578D01*
X289842Y458505D01*
X289854Y458430D01*
X289877Y458388D01*
X289891Y458342D01*
X289934Y458280D01*
X289970Y458213D01*
X290004Y458180D01*
X290032Y458141D01*
X290093Y458096D01*
X290148Y458044D01*
X290191Y458023D01*
X290230Y457995D01*
X290302Y457972D01*
X290371Y457940D01*
X290419Y457935D01*
X290464Y457920D01*
X290540Y457921D01*
X290615Y457913D01*
X290662Y457923D01*
X290710Y457924D01*
X290782Y457949D01*
X290856Y457965D01*
X290897Y457990D01*
X290942Y458006D01*
X291002Y458052D01*
X291067Y458091D01*
X291098Y458128D01*
X291136Y458157D01*
X291212Y458261D01*
X291227Y458278D01*
X291229Y458284D01*
X291235Y458292D01*
X296663Y467694D01*
X304466Y475497D01*
X314023Y481015D01*
X324682Y483871D01*
X335718Y483871D01*
X346377Y481015D01*
X355934Y475497D01*
X363737Y467694D01*
X369165Y458292D01*
X369195Y458255D01*
X369218Y458213D01*
X369273Y458161D01*
X369321Y458102D01*
X369361Y458077D01*
X369396Y458044D01*
X369465Y458012D01*
X369529Y457971D01*
X369576Y457960D01*
X369619Y457940D01*
X369694Y457932D01*
X369768Y457914D01*
X369816Y457918D01*
X369863Y457913D01*
X369938Y457929D01*
G37*
G36*
X524500Y55257D02*
X524500Y55257D01*
X524572Y55259D01*
X524621Y55277D01*
X524672Y55285D01*
X524735Y55319D01*
X524803Y55344D01*
X524843Y55376D01*
X524889Y55401D01*
X524939Y55453D01*
X524995Y55497D01*
X525023Y55541D01*
X525059Y55579D01*
X525089Y55644D01*
X525128Y55704D01*
X525140Y55755D01*
X525162Y55802D01*
X525170Y55873D01*
X525188Y55943D01*
X525184Y55995D01*
X525189Y56046D01*
X525174Y56117D01*
X525169Y56188D01*
X525148Y56236D01*
X525137Y56287D01*
X525100Y56348D01*
X525072Y56414D01*
X525028Y56470D01*
X525011Y56498D01*
X524993Y56513D01*
X524968Y56545D01*
X522589Y58924D01*
X520762Y63335D01*
X520762Y78939D01*
X520747Y79029D01*
X520740Y79120D01*
X520727Y79150D01*
X520722Y79182D01*
X520679Y79262D01*
X520644Y79346D01*
X520618Y79378D01*
X520607Y79399D01*
X520584Y79421D01*
X520539Y79477D01*
X500926Y99090D01*
X500852Y99143D01*
X500782Y99203D01*
X500752Y99215D01*
X500726Y99234D01*
X500639Y99261D01*
X500554Y99295D01*
X500513Y99299D01*
X500491Y99306D01*
X500459Y99305D01*
X500388Y99313D01*
X386334Y99313D01*
X386314Y99310D01*
X386295Y99312D01*
X386193Y99290D01*
X386091Y99274D01*
X386074Y99264D01*
X386054Y99260D01*
X385965Y99207D01*
X385874Y99158D01*
X385860Y99144D01*
X385843Y99134D01*
X385776Y99055D01*
X385704Y98980D01*
X385696Y98962D01*
X385683Y98947D01*
X385644Y98851D01*
X385601Y98757D01*
X385599Y98737D01*
X385591Y98719D01*
X385573Y98552D01*
X385573Y94445D01*
X375455Y84327D01*
X361145Y84327D01*
X351027Y94445D01*
X351027Y98552D01*
X351024Y98572D01*
X351026Y98591D01*
X351004Y98693D01*
X350988Y98795D01*
X350978Y98812D01*
X350974Y98832D01*
X350921Y98921D01*
X350872Y99012D01*
X350858Y99026D01*
X350848Y99043D01*
X350769Y99110D01*
X350694Y99182D01*
X350676Y99190D01*
X350661Y99203D01*
X350565Y99242D01*
X350471Y99285D01*
X350451Y99287D01*
X350433Y99295D01*
X350266Y99313D01*
X318866Y99313D01*
X318776Y99299D01*
X318685Y99291D01*
X318656Y99279D01*
X318624Y99274D01*
X318543Y99231D01*
X318459Y99195D01*
X318427Y99169D01*
X318406Y99158D01*
X318384Y99135D01*
X318328Y99090D01*
X300517Y81279D01*
X287678Y81279D01*
X287607Y81268D01*
X287536Y81266D01*
X287487Y81248D01*
X287435Y81240D01*
X287372Y81206D01*
X287305Y81181D01*
X287264Y81149D01*
X287218Y81124D01*
X287168Y81072D01*
X287112Y81028D01*
X287084Y80984D01*
X287048Y80946D01*
X287018Y80881D01*
X286979Y80821D01*
X286967Y80770D01*
X286945Y80723D01*
X286937Y80652D01*
X286919Y80582D01*
X286923Y80530D01*
X286918Y80479D01*
X286933Y80408D01*
X286939Y80337D01*
X286959Y80289D01*
X286970Y80238D01*
X287007Y80177D01*
X287035Y80111D01*
X287080Y80055D01*
X287096Y80027D01*
X287114Y80012D01*
X287140Y79980D01*
X311651Y55469D01*
X311725Y55416D01*
X311794Y55356D01*
X311824Y55344D01*
X311850Y55325D01*
X311937Y55298D01*
X312022Y55264D01*
X312063Y55260D01*
X312086Y55253D01*
X312118Y55254D01*
X312189Y55246D01*
X524429Y55246D01*
X524500Y55257D01*
G37*
G36*
X274176Y192502D02*
X274176Y192502D01*
X274247Y192508D01*
X274295Y192528D01*
X274346Y192539D01*
X274407Y192576D01*
X274473Y192604D01*
X274529Y192649D01*
X274557Y192665D01*
X274572Y192683D01*
X274604Y192709D01*
X355931Y274036D01*
X355973Y274094D01*
X356022Y274146D01*
X356044Y274193D01*
X356075Y274235D01*
X356096Y274304D01*
X356126Y274369D01*
X356132Y274421D01*
X356147Y274471D01*
X356145Y274542D01*
X356153Y274613D01*
X356142Y274664D01*
X356141Y274716D01*
X356116Y274784D01*
X356101Y274854D01*
X356074Y274898D01*
X356056Y274947D01*
X356011Y275003D01*
X355975Y275065D01*
X355935Y275099D01*
X355902Y275139D01*
X355842Y275178D01*
X355788Y275225D01*
X355739Y275244D01*
X355696Y275272D01*
X355626Y275290D01*
X355560Y275317D01*
X355488Y275325D01*
X355457Y275333D01*
X355434Y275331D01*
X355393Y275335D01*
X353781Y275335D01*
X350420Y276727D01*
X347847Y279300D01*
X346648Y282196D01*
X346624Y282235D01*
X346608Y282278D01*
X346559Y282339D01*
X346518Y282405D01*
X346483Y282434D01*
X346454Y282470D01*
X346389Y282512D01*
X346329Y282562D01*
X346286Y282578D01*
X346247Y282603D01*
X346172Y282622D01*
X346099Y282650D01*
X346053Y282652D01*
X346009Y282663D01*
X345931Y282657D01*
X345853Y282661D01*
X345809Y282648D01*
X345764Y282644D01*
X345692Y282614D01*
X345617Y282592D01*
X345579Y282566D01*
X345537Y282548D01*
X345431Y282463D01*
X345415Y282452D01*
X345412Y282448D01*
X345406Y282443D01*
X335250Y272287D01*
X325150Y272287D01*
X318007Y279430D01*
X318007Y304770D01*
X370362Y357125D01*
X370415Y357199D01*
X370475Y357269D01*
X370487Y357299D01*
X370506Y357325D01*
X370533Y357412D01*
X370567Y357497D01*
X370571Y357538D01*
X370578Y357560D01*
X370577Y357592D01*
X370585Y357664D01*
X370585Y425247D01*
X370578Y425294D01*
X370579Y425342D01*
X370558Y425415D01*
X370546Y425490D01*
X370523Y425532D01*
X370509Y425578D01*
X370466Y425640D01*
X370430Y425707D01*
X370396Y425740D01*
X370368Y425779D01*
X370307Y425824D01*
X370252Y425876D01*
X370209Y425897D01*
X370170Y425925D01*
X370098Y425948D01*
X370029Y425980D01*
X369981Y425985D01*
X369936Y426000D01*
X369860Y425999D01*
X369785Y426007D01*
X369738Y425997D01*
X369690Y425996D01*
X369618Y425971D01*
X369544Y425955D01*
X369503Y425930D01*
X369458Y425914D01*
X369398Y425868D01*
X369333Y425829D01*
X369302Y425792D01*
X369264Y425763D01*
X369188Y425659D01*
X369173Y425642D01*
X369171Y425636D01*
X369165Y425628D01*
X363737Y416226D01*
X355934Y408423D01*
X346377Y402905D01*
X335718Y400049D01*
X324682Y400049D01*
X314023Y402905D01*
X308229Y406251D01*
X308140Y406285D01*
X308053Y406325D01*
X308025Y406328D01*
X307999Y406338D01*
X307903Y406341D01*
X307809Y406352D01*
X307781Y406346D01*
X307753Y406347D01*
X307661Y406320D01*
X307568Y406300D01*
X307544Y406285D01*
X307517Y406277D01*
X307439Y406222D01*
X307357Y406173D01*
X307339Y406152D01*
X307316Y406136D01*
X307259Y406059D01*
X307197Y405986D01*
X307187Y405960D01*
X307170Y405938D01*
X307141Y405847D01*
X307105Y405758D01*
X307101Y405723D01*
X307095Y405703D01*
X307095Y405670D01*
X307087Y405592D01*
X307087Y309180D01*
X307106Y309065D01*
X307123Y308949D01*
X307125Y308943D01*
X307126Y308937D01*
X307181Y308834D01*
X307234Y308729D01*
X307239Y308725D01*
X307242Y308720D01*
X307326Y308640D01*
X307410Y308557D01*
X307416Y308554D01*
X307420Y308550D01*
X307437Y308542D01*
X307557Y308476D01*
X309980Y307473D01*
X312553Y304900D01*
X313945Y301539D01*
X313945Y282661D01*
X312553Y279300D01*
X309980Y276727D01*
X306619Y275335D01*
X302981Y275335D01*
X299620Y276727D01*
X297047Y279300D01*
X296952Y279530D01*
X296928Y279569D01*
X296912Y279612D01*
X296864Y279673D01*
X296823Y279739D01*
X296787Y279768D01*
X296759Y279804D01*
X296693Y279846D01*
X296633Y279896D01*
X296590Y279912D01*
X296552Y279937D01*
X296476Y279956D01*
X296404Y279984D01*
X296358Y279986D01*
X296313Y279997D01*
X296236Y279991D01*
X296158Y279994D01*
X296114Y279981D01*
X296068Y279978D01*
X295996Y279947D01*
X295922Y279926D01*
X295884Y279900D01*
X295842Y279882D01*
X295735Y279796D01*
X295720Y279785D01*
X295717Y279781D01*
X295711Y279777D01*
X273528Y257594D01*
X273475Y257520D01*
X273415Y257450D01*
X273403Y257420D01*
X273384Y257394D01*
X273357Y257307D01*
X273323Y257222D01*
X273319Y257181D01*
X273312Y257159D01*
X273313Y257127D01*
X273305Y257055D01*
X273305Y193247D01*
X273316Y193176D01*
X273318Y193105D01*
X273336Y193056D01*
X273344Y193004D01*
X273378Y192941D01*
X273403Y192874D01*
X273435Y192833D01*
X273460Y192787D01*
X273511Y192738D01*
X273556Y192682D01*
X273600Y192654D01*
X273638Y192618D01*
X273703Y192588D01*
X273763Y192549D01*
X273814Y192536D01*
X273861Y192514D01*
X273932Y192506D01*
X274002Y192489D01*
X274054Y192493D01*
X274105Y192487D01*
X274176Y192502D01*
G37*
G36*
X906878Y707151D02*
X906878Y707151D01*
X906969Y707159D01*
X906998Y707171D01*
X907030Y707176D01*
X907111Y707219D01*
X907195Y707255D01*
X907227Y707281D01*
X907248Y707292D01*
X907270Y707315D01*
X907326Y707360D01*
X919913Y719947D01*
X919970Y720026D01*
X920032Y720101D01*
X920041Y720125D01*
X920056Y720146D01*
X920085Y720239D01*
X920120Y720330D01*
X920121Y720356D01*
X920129Y720381D01*
X920126Y720479D01*
X920130Y720576D01*
X920123Y720601D01*
X920122Y720627D01*
X920089Y720719D01*
X920062Y720812D01*
X920047Y720834D01*
X920038Y720858D01*
X919977Y720934D01*
X919921Y721014D01*
X919900Y721030D01*
X919884Y721050D01*
X919802Y721103D01*
X919724Y721161D01*
X919699Y721169D01*
X919677Y721183D01*
X919583Y721207D01*
X919490Y721237D01*
X919464Y721237D01*
X919439Y721243D01*
X919342Y721236D01*
X919244Y721235D01*
X919213Y721226D01*
X919193Y721224D01*
X919163Y721211D01*
X919083Y721188D01*
X916203Y719995D01*
X912597Y719995D01*
X909265Y721375D01*
X906715Y723925D01*
X905326Y727279D01*
X905312Y727343D01*
X905296Y727445D01*
X905286Y727462D01*
X905282Y727482D01*
X905229Y727571D01*
X905180Y727662D01*
X905166Y727676D01*
X905156Y727693D01*
X905077Y727760D01*
X905002Y727832D01*
X904984Y727840D01*
X904969Y727853D01*
X904873Y727892D01*
X904779Y727935D01*
X904759Y727937D01*
X904741Y727945D01*
X904574Y727963D01*
X588073Y727963D01*
X588054Y727960D01*
X588034Y727962D01*
X587933Y727940D01*
X587831Y727924D01*
X587813Y727914D01*
X587794Y727910D01*
X587705Y727857D01*
X587613Y727808D01*
X587600Y727794D01*
X587583Y727784D01*
X587515Y727705D01*
X587444Y727630D01*
X587436Y727612D01*
X587423Y727597D01*
X587384Y727501D01*
X587340Y727407D01*
X587338Y727387D01*
X587331Y727369D01*
X587312Y727202D01*
X587312Y717385D01*
X585485Y712974D01*
X582109Y709598D01*
X579704Y708601D01*
X579621Y708550D01*
X579535Y708504D01*
X579517Y708486D01*
X579495Y708472D01*
X579432Y708396D01*
X579365Y708326D01*
X579354Y708302D01*
X579338Y708282D01*
X579303Y708191D01*
X579262Y708103D01*
X579259Y708077D01*
X579250Y708053D01*
X579245Y707955D01*
X579235Y707859D01*
X579240Y707833D01*
X579239Y707807D01*
X579266Y707713D01*
X579287Y707618D01*
X579300Y707596D01*
X579308Y707571D01*
X579363Y707491D01*
X579413Y707407D01*
X579433Y707390D01*
X579448Y707369D01*
X579526Y707310D01*
X579600Y707247D01*
X579624Y707237D01*
X579645Y707222D01*
X579738Y707192D01*
X579828Y707155D01*
X579861Y707152D01*
X579879Y707146D01*
X579912Y707146D01*
X579995Y707137D01*
X906788Y707137D01*
X906878Y707151D01*
G37*
%LPC*%
G36*
X770236Y582040D02*
X770236Y582040D01*
X761611Y584351D01*
X753879Y588815D01*
X747565Y595129D01*
X743101Y602861D01*
X740790Y611486D01*
X740790Y620414D01*
X743101Y629039D01*
X747565Y636771D01*
X753879Y643085D01*
X761611Y647549D01*
X770236Y649860D01*
X779164Y649860D01*
X787789Y647549D01*
X795521Y643085D01*
X801835Y636771D01*
X806299Y629039D01*
X808610Y620414D01*
X808610Y611486D01*
X806299Y602861D01*
X801835Y595129D01*
X795521Y588815D01*
X787789Y584351D01*
X779164Y582040D01*
X770236Y582040D01*
G37*
%LPD*%
%LPC*%
G36*
X770236Y137540D02*
X770236Y137540D01*
X761611Y139851D01*
X753879Y144315D01*
X747565Y150629D01*
X743101Y158361D01*
X740790Y166986D01*
X740790Y175914D01*
X743101Y184539D01*
X747565Y192271D01*
X753879Y198585D01*
X761611Y203049D01*
X770236Y205360D01*
X779164Y205360D01*
X787789Y203049D01*
X795521Y198585D01*
X801835Y192271D01*
X806299Y184539D01*
X808610Y175914D01*
X808610Y166986D01*
X806299Y158361D01*
X801835Y150629D01*
X795521Y144315D01*
X787789Y139851D01*
X779164Y137540D01*
X770236Y137540D01*
G37*
%LPD*%
G36*
X461501Y707152D02*
X461501Y707152D01*
X461598Y707162D01*
X461622Y707172D01*
X461648Y707176D01*
X461734Y707222D01*
X461823Y707262D01*
X461842Y707279D01*
X461865Y707292D01*
X461932Y707362D01*
X462004Y707428D01*
X462017Y707451D01*
X462035Y707470D01*
X462076Y707558D01*
X462123Y707644D01*
X462127Y707669D01*
X462138Y707693D01*
X462149Y707790D01*
X462166Y707886D01*
X462162Y707912D01*
X462165Y707937D01*
X462145Y708033D01*
X462130Y708129D01*
X462119Y708152D01*
X462113Y708178D01*
X462063Y708261D01*
X462019Y708348D01*
X462000Y708367D01*
X461987Y708389D01*
X461913Y708452D01*
X461843Y708520D01*
X461815Y708536D01*
X461800Y708549D01*
X461769Y708561D01*
X461696Y708601D01*
X459291Y709598D01*
X455915Y712974D01*
X454088Y717385D01*
X454088Y733552D01*
X454085Y733572D01*
X454087Y733591D01*
X454065Y733693D01*
X454048Y733795D01*
X454039Y733812D01*
X454034Y733832D01*
X453981Y733921D01*
X453933Y734012D01*
X453919Y734026D01*
X453908Y734043D01*
X453830Y734110D01*
X453755Y734182D01*
X453737Y734190D01*
X453721Y734203D01*
X453625Y734242D01*
X453532Y734285D01*
X453512Y734287D01*
X453493Y734295D01*
X453327Y734313D01*
X340176Y734313D01*
X340105Y734302D01*
X340034Y734300D01*
X339985Y734282D01*
X339933Y734274D01*
X339870Y734240D01*
X339803Y734215D01*
X339762Y734183D01*
X339716Y734158D01*
X339666Y734106D01*
X339610Y734062D01*
X339582Y734018D01*
X339546Y733980D01*
X339516Y733915D01*
X339477Y733855D01*
X339465Y733804D01*
X339443Y733757D01*
X339435Y733686D01*
X339417Y733616D01*
X339421Y733564D01*
X339416Y733513D01*
X339431Y733442D01*
X339437Y733371D01*
X339457Y733323D01*
X339468Y733272D01*
X339505Y733211D01*
X339533Y733145D01*
X339578Y733089D01*
X339594Y733061D01*
X339612Y733046D01*
X339638Y733014D01*
X344806Y727846D01*
X344806Y719954D01*
X344794Y719938D01*
X344779Y719926D01*
X344723Y719839D01*
X344662Y719755D01*
X344657Y719736D01*
X344646Y719719D01*
X344620Y719618D01*
X344590Y719520D01*
X344591Y719500D01*
X344586Y719480D01*
X344594Y719377D01*
X344596Y719274D01*
X344603Y719255D01*
X344605Y719235D01*
X344645Y719140D01*
X344681Y719043D01*
X344693Y719027D01*
X344701Y719009D01*
X344806Y718878D01*
X356324Y707360D01*
X356398Y707307D01*
X356468Y707247D01*
X356498Y707235D01*
X356524Y707216D01*
X356611Y707189D01*
X356696Y707155D01*
X356737Y707151D01*
X356759Y707144D01*
X356791Y707145D01*
X356863Y707137D01*
X461405Y707137D01*
X461501Y707152D01*
G37*
G36*
X520091Y86811D02*
X520091Y86811D01*
X520143Y86812D01*
X520210Y86837D01*
X520280Y86852D01*
X520325Y86879D01*
X520374Y86897D01*
X520430Y86941D01*
X520491Y86978D01*
X520525Y87018D01*
X520566Y87050D01*
X520605Y87111D01*
X520651Y87165D01*
X520671Y87213D01*
X520699Y87257D01*
X520716Y87327D01*
X520743Y87393D01*
X520751Y87465D01*
X520759Y87496D01*
X520757Y87519D01*
X520762Y87560D01*
X520762Y89065D01*
X522589Y93476D01*
X525965Y96852D01*
X530377Y98680D01*
X533740Y98680D01*
X533811Y98691D01*
X533883Y98693D01*
X533932Y98711D01*
X533983Y98719D01*
X534047Y98753D01*
X534114Y98778D01*
X534155Y98810D01*
X534201Y98835D01*
X534250Y98887D01*
X534306Y98931D01*
X534334Y98975D01*
X534370Y99013D01*
X534400Y99078D01*
X534439Y99138D01*
X534452Y99189D01*
X534474Y99236D01*
X534481Y99307D01*
X534499Y99377D01*
X534495Y99429D01*
X534501Y99480D01*
X534485Y99551D01*
X534480Y99622D01*
X534459Y99670D01*
X534448Y99721D01*
X534412Y99782D01*
X534384Y99848D01*
X534339Y99904D01*
X534322Y99932D01*
X534304Y99947D01*
X534279Y99979D01*
X517134Y117124D01*
X517060Y117177D01*
X516990Y117237D01*
X516960Y117249D01*
X516934Y117268D01*
X516847Y117295D01*
X516762Y117329D01*
X516721Y117333D01*
X516699Y117340D01*
X516667Y117339D01*
X516595Y117347D01*
X378818Y117347D01*
X378747Y117336D01*
X378675Y117334D01*
X378626Y117316D01*
X378575Y117308D01*
X378512Y117274D01*
X378444Y117249D01*
X378404Y117217D01*
X378358Y117192D01*
X378308Y117140D01*
X378252Y117096D01*
X378224Y117052D01*
X378188Y117014D01*
X378158Y116949D01*
X378119Y116889D01*
X378107Y116838D01*
X378085Y116791D01*
X378077Y116720D01*
X378059Y116650D01*
X378063Y116598D01*
X378058Y116547D01*
X378073Y116476D01*
X378078Y116405D01*
X378099Y116357D01*
X378110Y116306D01*
X378147Y116245D01*
X378175Y116179D01*
X378220Y116123D01*
X378236Y116095D01*
X378254Y116080D01*
X378280Y116048D01*
X385573Y108755D01*
X385573Y104648D01*
X385576Y104628D01*
X385574Y104609D01*
X385596Y104507D01*
X385612Y104405D01*
X385622Y104388D01*
X385626Y104368D01*
X385679Y104279D01*
X385728Y104188D01*
X385742Y104174D01*
X385752Y104157D01*
X385831Y104090D01*
X385906Y104018D01*
X385924Y104010D01*
X385939Y103997D01*
X386035Y103958D01*
X386129Y103915D01*
X386149Y103913D01*
X386167Y103905D01*
X386334Y103887D01*
X502597Y103887D01*
X504160Y102324D01*
X519462Y87022D01*
X519520Y86980D01*
X519572Y86930D01*
X519620Y86908D01*
X519662Y86878D01*
X519730Y86857D01*
X519796Y86827D01*
X519847Y86821D01*
X519897Y86806D01*
X519969Y86808D01*
X520040Y86800D01*
X520091Y86811D01*
G37*
G36*
X307417Y730039D02*
X307417Y730039D01*
X307521Y730041D01*
X307540Y730048D01*
X307560Y730050D01*
X307655Y730090D01*
X307752Y730126D01*
X307768Y730138D01*
X307786Y730146D01*
X307917Y730251D01*
X316553Y738887D01*
X453327Y738887D01*
X453346Y738890D01*
X453366Y738888D01*
X453467Y738910D01*
X453569Y738926D01*
X453587Y738936D01*
X453606Y738940D01*
X453695Y738993D01*
X453787Y739042D01*
X453800Y739056D01*
X453817Y739066D01*
X453885Y739145D01*
X453956Y739220D01*
X453964Y739238D01*
X453977Y739253D01*
X454016Y739349D01*
X454060Y739443D01*
X454062Y739463D01*
X454069Y739481D01*
X454088Y739648D01*
X454088Y743115D01*
X455915Y747526D01*
X458294Y749905D01*
X458335Y749963D01*
X458385Y750015D01*
X458407Y750062D01*
X458437Y750104D01*
X458458Y750173D01*
X458488Y750238D01*
X458494Y750290D01*
X458509Y750340D01*
X458508Y750411D01*
X458515Y750482D01*
X458504Y750533D01*
X458503Y750585D01*
X458478Y750653D01*
X458463Y750723D01*
X458436Y750768D01*
X458419Y750816D01*
X458374Y750872D01*
X458337Y750934D01*
X458297Y750968D01*
X458265Y751008D01*
X458205Y751047D01*
X458150Y751094D01*
X458102Y751113D01*
X458058Y751141D01*
X457989Y751159D01*
X457922Y751186D01*
X457851Y751194D01*
X457819Y751202D01*
X457796Y751200D01*
X457755Y751204D01*
X316025Y751204D01*
X315935Y751190D01*
X315844Y751182D01*
X315815Y751170D01*
X315783Y751165D01*
X315702Y751122D01*
X315618Y751086D01*
X315586Y751060D01*
X315565Y751049D01*
X315543Y751026D01*
X315487Y750981D01*
X299231Y734725D01*
X299189Y734667D01*
X299140Y734615D01*
X299118Y734568D01*
X299088Y734526D01*
X299067Y734457D01*
X299036Y734392D01*
X299031Y734340D01*
X299015Y734290D01*
X299017Y734219D01*
X299009Y734148D01*
X299020Y734097D01*
X299022Y734045D01*
X299046Y733977D01*
X299061Y733907D01*
X299088Y733862D01*
X299106Y733814D01*
X299151Y733758D01*
X299188Y733696D01*
X299227Y733662D01*
X299260Y733622D01*
X299320Y733583D01*
X299375Y733536D01*
X299423Y733517D01*
X299467Y733489D01*
X299536Y733471D01*
X299603Y733444D01*
X299674Y733436D01*
X299705Y733428D01*
X299728Y733430D01*
X299769Y733426D01*
X301615Y733426D01*
X305116Y731976D01*
X306840Y730251D01*
X306857Y730239D01*
X306869Y730224D01*
X306956Y730168D01*
X307040Y730107D01*
X307059Y730102D01*
X307076Y730091D01*
X307176Y730065D01*
X307275Y730035D01*
X307295Y730036D01*
X307315Y730031D01*
X307417Y730039D01*
G37*
%LPC*%
G36*
X925297Y59595D02*
X925297Y59595D01*
X921965Y60975D01*
X919415Y63525D01*
X918035Y66857D01*
X918035Y85543D01*
X919415Y88875D01*
X921965Y91425D01*
X924343Y92410D01*
X924443Y92472D01*
X924543Y92531D01*
X924547Y92536D01*
X924552Y92539D01*
X924627Y92630D01*
X924703Y92718D01*
X924705Y92724D01*
X924709Y92729D01*
X924751Y92837D01*
X924795Y92946D01*
X924796Y92954D01*
X924797Y92958D01*
X924798Y92977D01*
X924813Y93113D01*
X924813Y285397D01*
X951553Y312137D01*
X951621Y312231D01*
X951691Y312326D01*
X951693Y312332D01*
X951697Y312337D01*
X951731Y312448D01*
X951767Y312560D01*
X951767Y312566D01*
X951769Y312572D01*
X951766Y312689D01*
X951765Y312806D01*
X951763Y312813D01*
X951763Y312818D01*
X951756Y312835D01*
X951718Y312967D01*
X950625Y315605D01*
X950625Y319395D01*
X952075Y322895D01*
X954755Y325575D01*
X958255Y327025D01*
X962045Y327025D01*
X965545Y325575D01*
X968225Y322895D01*
X969675Y319395D01*
X969675Y315605D01*
X968225Y312105D01*
X965545Y309425D01*
X962045Y307975D01*
X958255Y307975D01*
X955617Y309068D01*
X955503Y309095D01*
X955390Y309123D01*
X955383Y309123D01*
X955377Y309124D01*
X955261Y309113D01*
X955144Y309104D01*
X955139Y309102D01*
X955132Y309101D01*
X955025Y309053D01*
X954918Y309008D01*
X954912Y309003D01*
X954908Y309001D01*
X954894Y308989D01*
X954787Y308903D01*
X929610Y283726D01*
X929557Y283652D01*
X929497Y283582D01*
X929485Y283552D01*
X929466Y283526D01*
X929439Y283439D01*
X929405Y283354D01*
X929401Y283313D01*
X929394Y283291D01*
X929395Y283259D01*
X929387Y283187D01*
X929387Y93113D01*
X929388Y93103D01*
X929388Y93098D01*
X929394Y93069D01*
X929406Y92998D01*
X929423Y92882D01*
X929425Y92876D01*
X929426Y92870D01*
X929481Y92768D01*
X929534Y92663D01*
X929539Y92658D01*
X929542Y92653D01*
X929626Y92573D01*
X929710Y92491D01*
X929716Y92487D01*
X929720Y92484D01*
X929737Y92476D01*
X929857Y92410D01*
X932235Y91425D01*
X934785Y88875D01*
X936165Y85543D01*
X936165Y66857D01*
X934785Y63525D01*
X932235Y60975D01*
X928903Y59595D01*
X925297Y59595D01*
G37*
%LPD*%
G36*
X773173Y52209D02*
X773173Y52209D01*
X773245Y52211D01*
X773294Y52229D01*
X773345Y52237D01*
X773409Y52271D01*
X773476Y52296D01*
X773517Y52328D01*
X773563Y52353D01*
X773612Y52405D01*
X773668Y52449D01*
X773696Y52493D01*
X773732Y52531D01*
X773762Y52596D01*
X773801Y52656D01*
X773814Y52707D01*
X773836Y52754D01*
X773844Y52825D01*
X773861Y52895D01*
X773857Y52947D01*
X773863Y52998D01*
X773848Y53069D01*
X773842Y53140D01*
X773822Y53188D01*
X773811Y53239D01*
X773774Y53300D01*
X773746Y53366D01*
X773701Y53422D01*
X773684Y53450D01*
X773667Y53465D01*
X773641Y53497D01*
X753448Y73690D01*
X753374Y73743D01*
X753304Y73803D01*
X753274Y73815D01*
X753248Y73834D01*
X753161Y73861D01*
X753076Y73895D01*
X753035Y73899D01*
X753013Y73906D01*
X752981Y73905D01*
X752910Y73913D01*
X695387Y73913D01*
X695368Y73910D01*
X695348Y73912D01*
X695247Y73890D01*
X695145Y73874D01*
X695127Y73864D01*
X695108Y73860D01*
X695019Y73807D01*
X694927Y73758D01*
X694914Y73744D01*
X694897Y73734D01*
X694829Y73655D01*
X694758Y73580D01*
X694750Y73562D01*
X694737Y73547D01*
X694698Y73451D01*
X694654Y73357D01*
X694652Y73337D01*
X694645Y73319D01*
X694626Y73152D01*
X694626Y63335D01*
X692799Y58924D01*
X689423Y55548D01*
X685011Y53720D01*
X681648Y53720D01*
X681578Y53709D01*
X681507Y53707D01*
X681457Y53689D01*
X681405Y53681D01*
X681342Y53648D01*
X681276Y53623D01*
X681234Y53590D01*
X681187Y53565D01*
X681139Y53514D01*
X681084Y53470D01*
X681055Y53426D01*
X681018Y53387D01*
X680988Y53323D01*
X680950Y53264D01*
X680937Y53212D01*
X680914Y53164D01*
X680907Y53094D01*
X680889Y53025D01*
X680893Y52972D01*
X680887Y52920D01*
X680902Y52850D01*
X680908Y52780D01*
X680928Y52731D01*
X680940Y52679D01*
X680976Y52619D01*
X681003Y52553D01*
X681039Y52514D01*
X681066Y52468D01*
X681119Y52422D01*
X681166Y52369D01*
X681228Y52329D01*
X681253Y52308D01*
X681274Y52300D01*
X681307Y52278D01*
X681395Y52251D01*
X681481Y52216D01*
X681520Y52212D01*
X681542Y52205D01*
X681575Y52206D01*
X681648Y52198D01*
X773103Y52198D01*
X773173Y52209D01*
G37*
G36*
X516111Y707152D02*
X516111Y707152D01*
X516208Y707162D01*
X516232Y707172D01*
X516258Y707176D01*
X516344Y707222D01*
X516433Y707262D01*
X516452Y707279D01*
X516475Y707292D01*
X516542Y707362D01*
X516614Y707428D01*
X516627Y707451D01*
X516645Y707470D01*
X516686Y707558D01*
X516733Y707644D01*
X516737Y707669D01*
X516748Y707693D01*
X516759Y707790D01*
X516776Y707886D01*
X516772Y707912D01*
X516775Y707937D01*
X516755Y708033D01*
X516740Y708129D01*
X516729Y708152D01*
X516723Y708178D01*
X516673Y708261D01*
X516629Y708348D01*
X516610Y708367D01*
X516597Y708389D01*
X516523Y708452D01*
X516453Y708520D01*
X516425Y708536D01*
X516410Y708549D01*
X516379Y708561D01*
X516306Y708601D01*
X513901Y709598D01*
X510525Y712974D01*
X508698Y717385D01*
X508698Y727202D01*
X508695Y727222D01*
X508697Y727241D01*
X508675Y727343D01*
X508658Y727445D01*
X508649Y727462D01*
X508644Y727482D01*
X508591Y727571D01*
X508543Y727662D01*
X508529Y727676D01*
X508518Y727693D01*
X508440Y727760D01*
X508365Y727832D01*
X508347Y727840D01*
X508331Y727853D01*
X508235Y727892D01*
X508142Y727935D01*
X508122Y727937D01*
X508103Y727945D01*
X507937Y727963D01*
X493671Y727963D01*
X479392Y742242D01*
X479334Y742284D01*
X479282Y742333D01*
X479234Y742355D01*
X479192Y742386D01*
X479124Y742407D01*
X479058Y742437D01*
X479007Y742443D01*
X478957Y742458D01*
X478885Y742456D01*
X478814Y742464D01*
X478763Y742453D01*
X478711Y742452D01*
X478644Y742427D01*
X478574Y742412D01*
X478529Y742385D01*
X478480Y742367D01*
X478424Y742322D01*
X478363Y742286D01*
X478329Y742246D01*
X478288Y742214D01*
X478249Y742153D01*
X478203Y742099D01*
X478183Y742050D01*
X478155Y742007D01*
X478138Y741937D01*
X478111Y741871D01*
X478103Y741799D01*
X478095Y741768D01*
X478097Y741745D01*
X478092Y741704D01*
X478092Y717385D01*
X476265Y712974D01*
X472889Y709598D01*
X470484Y708601D01*
X470401Y708550D01*
X470315Y708504D01*
X470297Y708486D01*
X470275Y708472D01*
X470212Y708396D01*
X470145Y708326D01*
X470134Y708302D01*
X470118Y708282D01*
X470083Y708191D01*
X470042Y708103D01*
X470039Y708077D01*
X470030Y708053D01*
X470025Y707955D01*
X470015Y707859D01*
X470020Y707833D01*
X470019Y707807D01*
X470046Y707713D01*
X470067Y707618D01*
X470080Y707596D01*
X470088Y707571D01*
X470143Y707491D01*
X470193Y707407D01*
X470213Y707390D01*
X470228Y707369D01*
X470306Y707310D01*
X470380Y707247D01*
X470404Y707237D01*
X470425Y707222D01*
X470518Y707192D01*
X470608Y707155D01*
X470641Y707152D01*
X470659Y707146D01*
X470692Y707146D01*
X470775Y707137D01*
X516015Y707137D01*
X516111Y707152D01*
G37*
G36*
X350286Y103890D02*
X350286Y103890D01*
X350305Y103888D01*
X350407Y103910D01*
X350509Y103926D01*
X350526Y103936D01*
X350546Y103940D01*
X350635Y103993D01*
X350726Y104042D01*
X350740Y104056D01*
X350757Y104066D01*
X350824Y104145D01*
X350896Y104220D01*
X350904Y104238D01*
X350917Y104253D01*
X350956Y104349D01*
X350999Y104443D01*
X351001Y104463D01*
X351009Y104481D01*
X351027Y104648D01*
X351027Y108755D01*
X358320Y116048D01*
X358362Y116106D01*
X358412Y116158D01*
X358434Y116205D01*
X358464Y116247D01*
X358485Y116316D01*
X358515Y116381D01*
X358521Y116433D01*
X358536Y116483D01*
X358534Y116554D01*
X358542Y116625D01*
X358531Y116676D01*
X358530Y116728D01*
X358505Y116796D01*
X358490Y116866D01*
X358463Y116911D01*
X358446Y116959D01*
X358401Y117015D01*
X358364Y117077D01*
X358324Y117111D01*
X358292Y117151D01*
X358232Y117190D01*
X358177Y117237D01*
X358129Y117256D01*
X358085Y117284D01*
X358015Y117302D01*
X357949Y117329D01*
X357878Y117337D01*
X357846Y117345D01*
X357823Y117343D01*
X357782Y117347D01*
X332590Y117347D01*
X332500Y117333D01*
X332409Y117325D01*
X332379Y117313D01*
X332347Y117308D01*
X332266Y117265D01*
X332183Y117229D01*
X332150Y117203D01*
X332130Y117192D01*
X332108Y117169D01*
X332052Y117124D01*
X320114Y105186D01*
X320072Y105128D01*
X320022Y105076D01*
X320000Y105029D01*
X319970Y104987D01*
X319949Y104918D01*
X319919Y104853D01*
X319913Y104801D01*
X319898Y104751D01*
X319900Y104680D01*
X319892Y104609D01*
X319903Y104558D01*
X319904Y104506D01*
X319929Y104438D01*
X319944Y104368D01*
X319971Y104323D01*
X319988Y104275D01*
X320033Y104219D01*
X320070Y104157D01*
X320110Y104123D01*
X320142Y104083D01*
X320202Y104044D01*
X320257Y103997D01*
X320305Y103978D01*
X320349Y103950D01*
X320419Y103932D01*
X320485Y103905D01*
X320556Y103897D01*
X320588Y103889D01*
X320611Y103891D01*
X320652Y103887D01*
X350266Y103887D01*
X350286Y103890D01*
G37*
%LPC*%
G36*
X588655Y384175D02*
X588655Y384175D01*
X585155Y385625D01*
X582475Y388305D01*
X581025Y391805D01*
X581025Y395595D01*
X582475Y399095D01*
X585155Y401775D01*
X588655Y403225D01*
X592445Y403225D01*
X595945Y401775D01*
X598625Y399095D01*
X600075Y395595D01*
X600075Y391805D01*
X598625Y388305D01*
X595945Y385625D01*
X592445Y384175D01*
X588655Y384175D01*
G37*
%LPD*%
G36*
X340216Y283942D02*
X340216Y283942D01*
X340287Y283948D01*
X340335Y283968D01*
X340386Y283979D01*
X340447Y284016D01*
X340513Y284044D01*
X340569Y284089D01*
X340597Y284105D01*
X340612Y284123D01*
X340644Y284149D01*
X346232Y289737D01*
X346285Y289811D01*
X346345Y289880D01*
X346357Y289911D01*
X346376Y289937D01*
X346403Y290024D01*
X346437Y290109D01*
X346441Y290149D01*
X346448Y290172D01*
X346447Y290204D01*
X346455Y290275D01*
X346455Y299513D01*
X346444Y299584D01*
X346442Y299655D01*
X346424Y299704D01*
X346416Y299756D01*
X346382Y299819D01*
X346357Y299886D01*
X346325Y299927D01*
X346300Y299973D01*
X346248Y300022D01*
X346204Y300078D01*
X346160Y300106D01*
X346122Y300142D01*
X346057Y300172D01*
X345997Y300211D01*
X345946Y300224D01*
X345899Y300246D01*
X345828Y300254D01*
X345758Y300271D01*
X345706Y300267D01*
X345655Y300273D01*
X345584Y300258D01*
X345513Y300252D01*
X345465Y300232D01*
X345414Y300221D01*
X345353Y300184D01*
X345287Y300156D01*
X345231Y300111D01*
X345203Y300095D01*
X345188Y300077D01*
X345156Y300051D01*
X339568Y294463D01*
X339515Y294389D01*
X339455Y294320D01*
X339443Y294289D01*
X339424Y294263D01*
X339397Y294176D01*
X339363Y294091D01*
X339359Y294051D01*
X339352Y294028D01*
X339353Y293996D01*
X339345Y293925D01*
X339345Y284687D01*
X339356Y284616D01*
X339358Y284545D01*
X339376Y284496D01*
X339384Y284444D01*
X339418Y284381D01*
X339443Y284314D01*
X339475Y284273D01*
X339500Y284227D01*
X339552Y284178D01*
X339596Y284122D01*
X339640Y284094D01*
X339678Y284058D01*
X339743Y284028D01*
X339803Y283989D01*
X339854Y283976D01*
X339901Y283954D01*
X339972Y283946D01*
X340042Y283929D01*
X340094Y283933D01*
X340145Y283927D01*
X340216Y283942D01*
G37*
G36*
X310244Y97696D02*
X310244Y97696D01*
X310315Y97701D01*
X310363Y97721D01*
X310414Y97733D01*
X310475Y97769D01*
X310541Y97797D01*
X310597Y97842D01*
X310625Y97859D01*
X310640Y97877D01*
X310672Y97902D01*
X310784Y98014D01*
X310826Y98072D01*
X310875Y98124D01*
X310897Y98171D01*
X310927Y98213D01*
X310948Y98282D01*
X310979Y98347D01*
X310984Y98399D01*
X311000Y98449D01*
X310998Y98520D01*
X311006Y98591D01*
X310995Y98642D01*
X310993Y98694D01*
X310969Y98762D01*
X310953Y98832D01*
X310927Y98876D01*
X310909Y98925D01*
X310864Y98981D01*
X310827Y99043D01*
X310788Y99077D01*
X310755Y99117D01*
X310695Y99156D01*
X310640Y99203D01*
X310592Y99222D01*
X310548Y99250D01*
X310479Y99268D01*
X310412Y99295D01*
X310341Y99303D01*
X310310Y99311D01*
X310286Y99309D01*
X310245Y99313D01*
X310134Y99313D01*
X310114Y99310D01*
X310095Y99312D01*
X309993Y99290D01*
X309891Y99274D01*
X309874Y99264D01*
X309854Y99260D01*
X309765Y99207D01*
X309674Y99158D01*
X309660Y99144D01*
X309643Y99134D01*
X309576Y99055D01*
X309504Y98980D01*
X309496Y98962D01*
X309483Y98947D01*
X309444Y98851D01*
X309401Y98757D01*
X309399Y98737D01*
X309391Y98719D01*
X309373Y98552D01*
X309373Y98441D01*
X309374Y98431D01*
X309374Y98426D01*
X309379Y98402D01*
X309384Y98370D01*
X309386Y98298D01*
X309404Y98249D01*
X309412Y98198D01*
X309446Y98135D01*
X309471Y98067D01*
X309503Y98026D01*
X309528Y97980D01*
X309579Y97931D01*
X309624Y97875D01*
X309668Y97847D01*
X309706Y97811D01*
X309771Y97781D01*
X309831Y97742D01*
X309882Y97729D01*
X309929Y97707D01*
X310000Y97699D01*
X310070Y97682D01*
X310122Y97686D01*
X310173Y97680D01*
X310244Y97696D01*
G37*
D10*
X782700Y86678D02*
X782700Y65723D01*
X682624Y65723D02*
X682624Y86678D01*
X607694Y86678D02*
X607694Y65723D01*
X532764Y65723D02*
X532764Y86678D01*
D11*
X368300Y101600D03*
D12*
X292100Y101600D03*
D13*
X335280Y723900D03*
D14*
X299720Y723900D03*
D15*
X304800Y299720D02*
X304800Y284480D01*
X330200Y284480D02*
X330200Y299720D01*
X355600Y299720D02*
X355600Y284480D01*
D10*
X466090Y719773D02*
X466090Y740728D01*
X520700Y740728D02*
X520700Y719773D01*
X575310Y719773D02*
X575310Y740728D01*
D16*
X960150Y317500D03*
X960150Y469900D03*
X589750Y292100D03*
X590550Y495300D03*
X590550Y393700D03*
D17*
X927100Y83740D02*
X927100Y68660D01*
X952500Y68660D02*
X952500Y83740D01*
X914400Y729060D02*
X914400Y744140D01*
X939800Y744140D02*
X939800Y729060D01*
D18*
X927100Y284450D02*
X927100Y76200D01*
X927100Y284450D02*
X960150Y317500D01*
X989078Y112778D02*
X952500Y76200D01*
X989078Y112778D02*
X989078Y469900D01*
X960150Y469900D01*
X787987Y52959D02*
X777413Y52959D01*
X787987Y52959D02*
X795464Y60436D01*
X795464Y91964D01*
X787987Y99441D01*
X782409Y99441D01*
X589750Y292100D01*
X682624Y76200D02*
X754172Y76200D01*
X777413Y52959D01*
X607694Y478156D02*
X590550Y495300D01*
X798512Y59173D02*
X789249Y49911D01*
X798512Y59173D02*
X798512Y93227D01*
X607694Y284044D02*
X607694Y478156D01*
X607694Y284044D02*
X798512Y93227D01*
X789249Y49911D02*
X680385Y49911D01*
X654096Y76200D02*
X607694Y76200D01*
X654096Y76200D02*
X680385Y49911D01*
X723900Y133350D02*
X781050Y76200D01*
X723900Y133350D02*
X323850Y133350D01*
X292100Y101600D01*
X781050Y76200D02*
X782700Y76200D01*
X304800Y407013D02*
X287528Y424285D01*
X304800Y407013D02*
X304800Y292100D01*
X494618Y730250D02*
X520700Y730250D01*
X494618Y730250D02*
X471377Y753491D01*
X314763Y753491D01*
X287528Y726256D01*
X287528Y424285D01*
X545528Y91964D02*
X545528Y60436D01*
X538051Y52959D01*
X313293Y101600D02*
X292100Y101600D01*
X313293Y101600D02*
X331327Y119634D01*
X271018Y92868D02*
X271018Y258318D01*
X304800Y292100D01*
X331327Y119634D02*
X517858Y119634D01*
X545528Y91964D01*
X538051Y52959D02*
X310927Y52959D01*
X271018Y92868D01*
X501650Y101600D02*
X527050Y76200D01*
X501650Y101600D02*
X368300Y101600D01*
X527050Y76200D02*
X532764Y76200D01*
X908050Y704850D02*
X939800Y736600D01*
X431800Y704850D02*
X355600Y704850D01*
X431800Y704850D02*
X908050Y704850D01*
X355600Y704850D02*
X336550Y723900D01*
X335280Y723900D01*
X431800Y393700D02*
X330200Y292100D01*
X431800Y393700D02*
X431800Y704850D01*
X299570Y83566D02*
X284630Y83566D01*
X274066Y94130D01*
X365506Y280377D02*
X365506Y303823D01*
X359703Y309626D01*
X351497Y309626D01*
X333971Y292100D01*
X330200Y292100D01*
X274066Y188937D02*
X274066Y94130D01*
X274066Y188937D02*
X365506Y280377D01*
X368300Y101600D02*
X317604Y101600D01*
X299570Y83566D01*
X463550Y730250D02*
X457200Y736600D01*
X317500Y736600D01*
X304800Y723900D01*
X463550Y730250D02*
X466090Y730250D01*
X304800Y723900D02*
X299720Y723900D01*
X320294Y303823D02*
X320294Y280377D01*
X326097Y274574D01*
X334303Y274574D01*
X351829Y292100D02*
X355600Y292100D01*
X320294Y303823D02*
X372872Y356401D01*
X351829Y292100D02*
X334303Y274574D01*
X372872Y650748D02*
X299720Y723900D01*
X372872Y650748D02*
X372872Y356401D01*
X908050Y730250D02*
X914400Y736600D01*
X908050Y730250D02*
X575310Y730250D01*
M02*
