G04 EAGLE Gerber RS-274X export*
G75*
%MOMM*%
%FSLAX34Y34*%
%LPD*%
%IN*%
%IPPOS*%
%AMOC8*
5,1,8,0,0,1.08239X$1,22.5*%
G01*
%ADD10C,0.254000*%


D10*
X228600Y0D02*
X1000000Y0D01*
X1000000Y800000D01*
X228600Y800000D01*
X228600Y0D01*
X346710Y441420D02*
X346639Y440341D01*
X346498Y439269D01*
X346287Y438209D01*
X346008Y437165D01*
X345660Y436141D01*
X345246Y435143D01*
X344768Y434173D01*
X344228Y433237D01*
X343627Y432338D01*
X342969Y431481D01*
X342257Y430668D01*
X341492Y429904D01*
X340679Y429191D01*
X339822Y428533D01*
X338923Y427932D01*
X337987Y427392D01*
X337017Y426914D01*
X336019Y426500D01*
X334995Y426152D01*
X333951Y425873D01*
X332891Y425662D01*
X331819Y425521D01*
X330740Y425450D01*
X329660Y425450D01*
X328581Y425521D01*
X327509Y425662D01*
X326449Y425873D01*
X325405Y426152D01*
X324381Y426500D01*
X323383Y426914D01*
X322413Y427392D01*
X321477Y427932D01*
X320578Y428533D01*
X319721Y429191D01*
X318908Y429904D01*
X318144Y430668D01*
X317431Y431481D01*
X316773Y432338D01*
X316172Y433237D01*
X315632Y434173D01*
X315154Y435143D01*
X314740Y436141D01*
X314392Y437165D01*
X314113Y438209D01*
X313902Y439269D01*
X313761Y440341D01*
X313690Y441420D01*
X313690Y442500D01*
X313761Y443579D01*
X313902Y444651D01*
X314113Y445711D01*
X314392Y446755D01*
X314740Y447779D01*
X315154Y448777D01*
X315632Y449747D01*
X316172Y450683D01*
X316773Y451582D01*
X317431Y452439D01*
X318144Y453252D01*
X318908Y454017D01*
X319721Y454729D01*
X320578Y455387D01*
X321477Y455988D01*
X322413Y456528D01*
X323383Y457006D01*
X324381Y457420D01*
X325405Y457768D01*
X326449Y458047D01*
X327509Y458258D01*
X328581Y458399D01*
X329660Y458470D01*
X330740Y458470D01*
X331819Y458399D01*
X332891Y458258D01*
X333951Y458047D01*
X334995Y457768D01*
X336019Y457420D01*
X337017Y457006D01*
X337987Y456528D01*
X338923Y455988D01*
X339822Y455387D01*
X340679Y454729D01*
X341492Y454017D01*
X342257Y453252D01*
X342969Y452439D01*
X343627Y451582D01*
X344228Y450683D01*
X344768Y449747D01*
X345246Y448777D01*
X345660Y447779D01*
X346008Y446755D01*
X346287Y445711D01*
X346498Y444651D01*
X346639Y443579D01*
X346710Y442500D01*
X346710Y441420D01*
X775366Y639699D02*
X776697Y639624D01*
X778021Y639475D01*
X779335Y639252D01*
X780634Y638955D01*
X781915Y638586D01*
X783173Y638146D01*
X784404Y637636D01*
X785605Y637058D01*
X786771Y636413D01*
X787899Y635704D01*
X788986Y634933D01*
X790028Y634102D01*
X791022Y633214D01*
X791964Y632272D01*
X792852Y631278D01*
X793683Y630236D01*
X794454Y629149D01*
X795163Y628021D01*
X795808Y626855D01*
X796386Y625654D01*
X796896Y624423D01*
X797336Y623165D01*
X797705Y621884D01*
X798002Y620585D01*
X798225Y619271D01*
X798374Y617947D01*
X798449Y616616D01*
X798449Y615284D01*
X798374Y613953D01*
X798225Y612629D01*
X798002Y611315D01*
X797705Y610016D01*
X797336Y608735D01*
X796896Y607477D01*
X796386Y606246D01*
X795808Y605045D01*
X795163Y603879D01*
X794454Y602751D01*
X793683Y601664D01*
X792852Y600622D01*
X791964Y599628D01*
X791022Y598686D01*
X790028Y597798D01*
X788986Y596967D01*
X787899Y596196D01*
X786771Y595487D01*
X785605Y594842D01*
X784404Y594264D01*
X783173Y593754D01*
X781915Y593314D01*
X780634Y592945D01*
X779335Y592648D01*
X778021Y592425D01*
X776697Y592276D01*
X775366Y592201D01*
X774034Y592201D01*
X772703Y592276D01*
X771379Y592425D01*
X770065Y592648D01*
X768766Y592945D01*
X767485Y593314D01*
X766227Y593754D01*
X764996Y594264D01*
X763795Y594842D01*
X762629Y595487D01*
X761501Y596196D01*
X760414Y596967D01*
X759372Y597798D01*
X758378Y598686D01*
X757436Y599628D01*
X756548Y600622D01*
X755717Y601664D01*
X754946Y602751D01*
X754237Y603879D01*
X753592Y605045D01*
X753014Y606246D01*
X752504Y607477D01*
X752064Y608735D01*
X751695Y610016D01*
X751398Y611315D01*
X751175Y612629D01*
X751026Y613953D01*
X750951Y615284D01*
X750951Y616616D01*
X751026Y617947D01*
X751175Y619271D01*
X751398Y620585D01*
X751695Y621884D01*
X752064Y623165D01*
X752504Y624423D01*
X753014Y625654D01*
X753592Y626855D01*
X754237Y628021D01*
X754946Y629149D01*
X755717Y630236D01*
X756548Y631278D01*
X757436Y632272D01*
X758378Y633214D01*
X759372Y634102D01*
X760414Y634933D01*
X761501Y635704D01*
X762629Y636413D01*
X763795Y637058D01*
X764996Y637636D01*
X766227Y638146D01*
X767485Y638586D01*
X768766Y638955D01*
X770065Y639252D01*
X771379Y639475D01*
X772703Y639624D01*
X774034Y639699D01*
X775366Y639699D01*
X775366Y195199D02*
X776697Y195124D01*
X778021Y194975D01*
X779335Y194752D01*
X780634Y194455D01*
X781915Y194086D01*
X783173Y193646D01*
X784404Y193136D01*
X785605Y192558D01*
X786771Y191913D01*
X787899Y191204D01*
X788986Y190433D01*
X790028Y189602D01*
X791022Y188714D01*
X791964Y187772D01*
X792852Y186778D01*
X793683Y185736D01*
X794454Y184649D01*
X795163Y183521D01*
X795808Y182355D01*
X796386Y181154D01*
X796896Y179923D01*
X797336Y178665D01*
X797705Y177384D01*
X798002Y176085D01*
X798225Y174771D01*
X798374Y173447D01*
X798449Y172116D01*
X798449Y170784D01*
X798374Y169453D01*
X798225Y168129D01*
X798002Y166815D01*
X797705Y165516D01*
X797336Y164235D01*
X796896Y162977D01*
X796386Y161746D01*
X795808Y160545D01*
X795163Y159379D01*
X794454Y158251D01*
X793683Y157164D01*
X792852Y156122D01*
X791964Y155128D01*
X791022Y154186D01*
X790028Y153298D01*
X788986Y152467D01*
X787899Y151696D01*
X786771Y150987D01*
X785605Y150342D01*
X784404Y149764D01*
X783173Y149254D01*
X781915Y148814D01*
X780634Y148445D01*
X779335Y148148D01*
X778021Y147925D01*
X776697Y147776D01*
X775366Y147701D01*
X774034Y147701D01*
X772703Y147776D01*
X771379Y147925D01*
X770065Y148148D01*
X768766Y148445D01*
X767485Y148814D01*
X766227Y149254D01*
X764996Y149764D01*
X763795Y150342D01*
X762629Y150987D01*
X761501Y151696D01*
X760414Y152467D01*
X759372Y153298D01*
X758378Y154186D01*
X757436Y155128D01*
X756548Y156122D01*
X755717Y157164D01*
X754946Y158251D01*
X754237Y159379D01*
X753592Y160545D01*
X753014Y161746D01*
X752504Y162977D01*
X752064Y164235D01*
X751695Y165516D01*
X751398Y166815D01*
X751175Y168129D01*
X751026Y169453D01*
X750951Y170784D01*
X750951Y172116D01*
X751026Y173447D01*
X751175Y174771D01*
X751398Y176085D01*
X751695Y177384D01*
X752064Y178665D01*
X752504Y179923D01*
X753014Y181154D01*
X753592Y182355D01*
X754237Y183521D01*
X754946Y184649D01*
X755717Y185736D01*
X756548Y186778D01*
X757436Y187772D01*
X758378Y188714D01*
X759372Y189602D01*
X760414Y190433D01*
X761501Y191204D01*
X762629Y191913D01*
X763795Y192558D01*
X764996Y193136D01*
X766227Y193646D01*
X767485Y194086D01*
X768766Y194455D01*
X770065Y194752D01*
X771379Y194975D01*
X772703Y195124D01*
X774034Y195199D01*
X775366Y195199D01*
M02*
