G04 EAGLE Gerber RS-274X export*
G75*
%MOMM*%
%FSLAX34Y34*%
%LPD*%
%INSilkscreen Top*%
%IPPOS*%
%AMOC8*
5,1,8,0,0,1.08239X$1,22.5*%
G01*
%ADD10C,0.152400*%
%ADD11C,0.177800*%
%ADD12R,0.635000X3.810000*%
%ADD13C,0.127000*%
%ADD14C,0.050800*%
%ADD15C,0.101600*%
%ADD16R,1.270000X0.889000*%
%ADD17R,15.748000X1.143000*%
%ADD18R,1.016000X0.381000*%
%ADD19R,2.667000X0.381000*%
%ADD20C,0.254000*%


D10*
X496950Y106680D02*
X496950Y46990D01*
X818260Y46990D02*
X818260Y106680D01*
X543940Y106680D01*
X496950Y106680D01*
X543940Y46990D02*
X818260Y46990D01*
X543940Y46990D02*
X496950Y46990D01*
X670940Y96520D02*
X670942Y96661D01*
X670948Y96802D01*
X670958Y96943D01*
X670971Y97084D01*
X670989Y97224D01*
X671011Y97363D01*
X671036Y97502D01*
X671065Y97641D01*
X671098Y97778D01*
X671135Y97914D01*
X671176Y98049D01*
X671220Y98184D01*
X671268Y98316D01*
X671320Y98448D01*
X671375Y98578D01*
X671434Y98706D01*
X671497Y98833D01*
X671563Y98957D01*
X671632Y99080D01*
X671705Y99201D01*
X671781Y99320D01*
X671861Y99437D01*
X671944Y99551D01*
X672029Y99664D01*
X672118Y99773D01*
X672210Y99881D01*
X672305Y99985D01*
X672403Y100087D01*
X672504Y100186D01*
X672607Y100283D01*
X672713Y100376D01*
X672821Y100466D01*
X672932Y100554D01*
X673045Y100638D01*
X673161Y100719D01*
X673279Y100797D01*
X673399Y100872D01*
X673521Y100943D01*
X673645Y101011D01*
X673771Y101075D01*
X673898Y101136D01*
X674027Y101193D01*
X674158Y101246D01*
X674290Y101296D01*
X674423Y101343D01*
X674558Y101385D01*
X674694Y101424D01*
X674831Y101459D01*
X674968Y101490D01*
X675107Y101517D01*
X675246Y101541D01*
X675386Y101560D01*
X675526Y101576D01*
X675667Y101588D01*
X675808Y101596D01*
X675949Y101600D01*
X676091Y101600D01*
X676232Y101596D01*
X676373Y101588D01*
X676514Y101576D01*
X676654Y101560D01*
X676794Y101541D01*
X676933Y101517D01*
X677072Y101490D01*
X677209Y101459D01*
X677346Y101424D01*
X677482Y101385D01*
X677617Y101343D01*
X677750Y101296D01*
X677882Y101246D01*
X678013Y101193D01*
X678142Y101136D01*
X678269Y101075D01*
X678395Y101011D01*
X678519Y100943D01*
X678641Y100872D01*
X678761Y100797D01*
X678879Y100719D01*
X678995Y100638D01*
X679108Y100554D01*
X679219Y100466D01*
X679327Y100376D01*
X679433Y100283D01*
X679536Y100186D01*
X679637Y100087D01*
X679735Y99985D01*
X679830Y99881D01*
X679922Y99773D01*
X680011Y99664D01*
X680096Y99551D01*
X680179Y99437D01*
X680259Y99320D01*
X680335Y99201D01*
X680408Y99080D01*
X680477Y98957D01*
X680543Y98833D01*
X680606Y98706D01*
X680665Y98578D01*
X680720Y98448D01*
X680772Y98316D01*
X680820Y98184D01*
X680864Y98049D01*
X680905Y97914D01*
X680942Y97778D01*
X680975Y97641D01*
X681004Y97502D01*
X681029Y97363D01*
X681051Y97224D01*
X681069Y97084D01*
X681082Y96943D01*
X681092Y96802D01*
X681098Y96661D01*
X681100Y96520D01*
X670940Y96520D02*
X670938Y96379D01*
X670932Y96238D01*
X670922Y96097D01*
X670909Y95956D01*
X670891Y95816D01*
X670869Y95677D01*
X670844Y95538D01*
X670815Y95399D01*
X670782Y95262D01*
X670745Y95126D01*
X670704Y94991D01*
X670660Y94856D01*
X670612Y94724D01*
X670560Y94592D01*
X670505Y94462D01*
X670446Y94334D01*
X670383Y94207D01*
X670317Y94083D01*
X670248Y93960D01*
X670175Y93839D01*
X670099Y93720D01*
X670019Y93603D01*
X669936Y93489D01*
X669851Y93376D01*
X669762Y93267D01*
X669670Y93159D01*
X669575Y93055D01*
X669477Y92953D01*
X669376Y92854D01*
X669273Y92757D01*
X669167Y92664D01*
X669059Y92574D01*
X668948Y92486D01*
X668835Y92402D01*
X668719Y92321D01*
X668601Y92243D01*
X668481Y92168D01*
X668359Y92097D01*
X668235Y92029D01*
X668109Y91965D01*
X667982Y91904D01*
X667853Y91847D01*
X667722Y91794D01*
X667590Y91744D01*
X667457Y91697D01*
X667322Y91655D01*
X667186Y91616D01*
X667049Y91581D01*
X666912Y91550D01*
X666773Y91523D01*
X666634Y91499D01*
X666494Y91480D01*
X666354Y91464D01*
X666213Y91452D01*
X666072Y91444D01*
X665931Y91440D01*
X665789Y91440D01*
X665648Y91444D01*
X665507Y91452D01*
X665366Y91464D01*
X665226Y91480D01*
X665086Y91499D01*
X664947Y91523D01*
X664808Y91550D01*
X664671Y91581D01*
X664534Y91616D01*
X664398Y91655D01*
X664263Y91697D01*
X664130Y91744D01*
X663998Y91794D01*
X663867Y91847D01*
X663738Y91904D01*
X663611Y91965D01*
X663485Y92029D01*
X663361Y92097D01*
X663239Y92168D01*
X663119Y92243D01*
X663001Y92321D01*
X662885Y92402D01*
X662772Y92486D01*
X662661Y92574D01*
X662553Y92664D01*
X662447Y92757D01*
X662344Y92854D01*
X662243Y92953D01*
X662145Y93055D01*
X662050Y93159D01*
X661958Y93267D01*
X661869Y93376D01*
X661784Y93489D01*
X661701Y93603D01*
X661621Y93720D01*
X661545Y93839D01*
X661472Y93960D01*
X661403Y94083D01*
X661337Y94207D01*
X661274Y94334D01*
X661215Y94462D01*
X661160Y94592D01*
X661108Y94724D01*
X661060Y94856D01*
X661016Y94991D01*
X660975Y95126D01*
X660938Y95262D01*
X660905Y95399D01*
X660876Y95538D01*
X660851Y95677D01*
X660829Y95816D01*
X660811Y95956D01*
X660798Y96097D01*
X660788Y96238D01*
X660782Y96379D01*
X660780Y96520D01*
X594740Y96520D02*
X594738Y96379D01*
X594732Y96238D01*
X594722Y96097D01*
X594709Y95956D01*
X594691Y95816D01*
X594669Y95677D01*
X594644Y95538D01*
X594615Y95399D01*
X594582Y95262D01*
X594545Y95126D01*
X594504Y94991D01*
X594460Y94856D01*
X594412Y94724D01*
X594360Y94592D01*
X594305Y94462D01*
X594246Y94334D01*
X594183Y94207D01*
X594117Y94083D01*
X594048Y93960D01*
X593975Y93839D01*
X593899Y93720D01*
X593819Y93603D01*
X593736Y93489D01*
X593651Y93376D01*
X593562Y93267D01*
X593470Y93159D01*
X593375Y93055D01*
X593277Y92953D01*
X593176Y92854D01*
X593073Y92757D01*
X592967Y92664D01*
X592859Y92574D01*
X592748Y92486D01*
X592635Y92402D01*
X592519Y92321D01*
X592401Y92243D01*
X592281Y92168D01*
X592159Y92097D01*
X592035Y92029D01*
X591909Y91965D01*
X591782Y91904D01*
X591653Y91847D01*
X591522Y91794D01*
X591390Y91744D01*
X591257Y91697D01*
X591122Y91655D01*
X590986Y91616D01*
X590849Y91581D01*
X590712Y91550D01*
X590573Y91523D01*
X590434Y91499D01*
X590294Y91480D01*
X590154Y91464D01*
X590013Y91452D01*
X589872Y91444D01*
X589731Y91440D01*
X589589Y91440D01*
X589448Y91444D01*
X589307Y91452D01*
X589166Y91464D01*
X589026Y91480D01*
X588886Y91499D01*
X588747Y91523D01*
X588608Y91550D01*
X588471Y91581D01*
X588334Y91616D01*
X588198Y91655D01*
X588063Y91697D01*
X587930Y91744D01*
X587798Y91794D01*
X587667Y91847D01*
X587538Y91904D01*
X587411Y91965D01*
X587285Y92029D01*
X587161Y92097D01*
X587039Y92168D01*
X586919Y92243D01*
X586801Y92321D01*
X586685Y92402D01*
X586572Y92486D01*
X586461Y92574D01*
X586353Y92664D01*
X586247Y92757D01*
X586144Y92854D01*
X586043Y92953D01*
X585945Y93055D01*
X585850Y93159D01*
X585758Y93267D01*
X585669Y93376D01*
X585584Y93489D01*
X585501Y93603D01*
X585421Y93720D01*
X585345Y93839D01*
X585272Y93960D01*
X585203Y94083D01*
X585137Y94207D01*
X585074Y94334D01*
X585015Y94462D01*
X584960Y94592D01*
X584908Y94724D01*
X584860Y94856D01*
X584816Y94991D01*
X584775Y95126D01*
X584738Y95262D01*
X584705Y95399D01*
X584676Y95538D01*
X584651Y95677D01*
X584629Y95816D01*
X584611Y95956D01*
X584598Y96097D01*
X584588Y96238D01*
X584582Y96379D01*
X584580Y96520D01*
X594740Y96520D02*
X594742Y96661D01*
X594748Y96802D01*
X594758Y96943D01*
X594771Y97084D01*
X594789Y97224D01*
X594811Y97363D01*
X594836Y97502D01*
X594865Y97641D01*
X594898Y97778D01*
X594935Y97914D01*
X594976Y98049D01*
X595020Y98184D01*
X595068Y98316D01*
X595120Y98448D01*
X595175Y98578D01*
X595234Y98706D01*
X595297Y98833D01*
X595363Y98957D01*
X595432Y99080D01*
X595505Y99201D01*
X595581Y99320D01*
X595661Y99437D01*
X595744Y99551D01*
X595829Y99664D01*
X595918Y99773D01*
X596010Y99881D01*
X596105Y99985D01*
X596203Y100087D01*
X596304Y100186D01*
X596407Y100283D01*
X596513Y100376D01*
X596621Y100466D01*
X596732Y100554D01*
X596845Y100638D01*
X596961Y100719D01*
X597079Y100797D01*
X597199Y100872D01*
X597321Y100943D01*
X597445Y101011D01*
X597571Y101075D01*
X597698Y101136D01*
X597827Y101193D01*
X597958Y101246D01*
X598090Y101296D01*
X598223Y101343D01*
X598358Y101385D01*
X598494Y101424D01*
X598631Y101459D01*
X598768Y101490D01*
X598907Y101517D01*
X599046Y101541D01*
X599186Y101560D01*
X599326Y101576D01*
X599467Y101588D01*
X599608Y101596D01*
X599749Y101600D01*
X599891Y101600D01*
X600032Y101596D01*
X600173Y101588D01*
X600314Y101576D01*
X600454Y101560D01*
X600594Y101541D01*
X600733Y101517D01*
X600872Y101490D01*
X601009Y101459D01*
X601146Y101424D01*
X601282Y101385D01*
X601417Y101343D01*
X601550Y101296D01*
X601682Y101246D01*
X601813Y101193D01*
X601942Y101136D01*
X602069Y101075D01*
X602195Y101011D01*
X602319Y100943D01*
X602441Y100872D01*
X602561Y100797D01*
X602679Y100719D01*
X602795Y100638D01*
X602908Y100554D01*
X603019Y100466D01*
X603127Y100376D01*
X603233Y100283D01*
X603336Y100186D01*
X603437Y100087D01*
X603535Y99985D01*
X603630Y99881D01*
X603722Y99773D01*
X603811Y99664D01*
X603896Y99551D01*
X603979Y99437D01*
X604059Y99320D01*
X604135Y99201D01*
X604208Y99080D01*
X604277Y98957D01*
X604343Y98833D01*
X604406Y98706D01*
X604465Y98578D01*
X604520Y98448D01*
X604572Y98316D01*
X604620Y98184D01*
X604664Y98049D01*
X604705Y97914D01*
X604742Y97778D01*
X604775Y97641D01*
X604804Y97502D01*
X604829Y97363D01*
X604851Y97224D01*
X604869Y97084D01*
X604882Y96943D01*
X604892Y96802D01*
X604898Y96661D01*
X604900Y96520D01*
X538860Y96520D02*
X526160Y96520D01*
X761110Y96520D02*
X773810Y96520D01*
X767460Y102870D02*
X767460Y90170D01*
X543940Y59690D02*
X543940Y46990D01*
X543940Y92710D02*
X543940Y106680D01*
D11*
X793603Y33909D02*
X798048Y33909D01*
X798180Y33907D01*
X798311Y33901D01*
X798443Y33891D01*
X798574Y33878D01*
X798704Y33860D01*
X798834Y33839D01*
X798964Y33814D01*
X799092Y33785D01*
X799220Y33752D01*
X799346Y33715D01*
X799472Y33675D01*
X799596Y33631D01*
X799719Y33583D01*
X799840Y33532D01*
X799960Y33477D01*
X800078Y33419D01*
X800194Y33357D01*
X800308Y33291D01*
X800421Y33223D01*
X800531Y33151D01*
X800639Y33076D01*
X800745Y32997D01*
X800849Y32916D01*
X800950Y32831D01*
X801048Y32744D01*
X801144Y32653D01*
X801237Y32560D01*
X801328Y32464D01*
X801415Y32366D01*
X801500Y32265D01*
X801581Y32161D01*
X801660Y32055D01*
X801735Y31947D01*
X801807Y31837D01*
X801875Y31724D01*
X801941Y31610D01*
X802003Y31494D01*
X802061Y31376D01*
X802116Y31256D01*
X802167Y31135D01*
X802215Y31012D01*
X802259Y30888D01*
X802299Y30762D01*
X802336Y30636D01*
X802369Y30508D01*
X802398Y30380D01*
X802423Y30250D01*
X802444Y30120D01*
X802462Y29990D01*
X802475Y29859D01*
X802485Y29727D01*
X802491Y29596D01*
X802493Y29464D01*
X802491Y29332D01*
X802485Y29201D01*
X802475Y29069D01*
X802462Y28938D01*
X802444Y28808D01*
X802423Y28678D01*
X802398Y28548D01*
X802369Y28420D01*
X802336Y28292D01*
X802299Y28166D01*
X802259Y28040D01*
X802215Y27916D01*
X802167Y27793D01*
X802116Y27672D01*
X802061Y27552D01*
X802003Y27434D01*
X801941Y27318D01*
X801875Y27204D01*
X801807Y27091D01*
X801735Y26981D01*
X801660Y26873D01*
X801581Y26767D01*
X801500Y26663D01*
X801415Y26562D01*
X801328Y26464D01*
X801237Y26368D01*
X801144Y26275D01*
X801048Y26184D01*
X800950Y26097D01*
X800849Y26012D01*
X800745Y25931D01*
X800639Y25852D01*
X800531Y25777D01*
X800421Y25705D01*
X800308Y25637D01*
X800194Y25571D01*
X800078Y25509D01*
X799960Y25451D01*
X799840Y25396D01*
X799719Y25345D01*
X799596Y25297D01*
X799472Y25253D01*
X799346Y25213D01*
X799220Y25176D01*
X799092Y25143D01*
X798964Y25114D01*
X798834Y25089D01*
X798704Y25068D01*
X798574Y25050D01*
X798443Y25037D01*
X798311Y25027D01*
X798180Y25021D01*
X798048Y25019D01*
X793603Y25019D01*
X793603Y41021D01*
X798048Y41021D01*
X798166Y41019D01*
X798283Y41013D01*
X798400Y41004D01*
X798517Y40990D01*
X798633Y40973D01*
X798749Y40951D01*
X798864Y40926D01*
X798978Y40897D01*
X799091Y40865D01*
X799203Y40828D01*
X799313Y40788D01*
X799422Y40745D01*
X799530Y40697D01*
X799636Y40647D01*
X799740Y40592D01*
X799843Y40535D01*
X799943Y40474D01*
X800042Y40409D01*
X800138Y40342D01*
X800232Y40271D01*
X800324Y40197D01*
X800413Y40121D01*
X800499Y40041D01*
X800583Y39959D01*
X800664Y39873D01*
X800742Y39786D01*
X800818Y39695D01*
X800890Y39602D01*
X800959Y39507D01*
X801025Y39410D01*
X801088Y39310D01*
X801147Y39209D01*
X801203Y39106D01*
X801255Y39000D01*
X801304Y38893D01*
X801350Y38785D01*
X801392Y38675D01*
X801430Y38564D01*
X801464Y38451D01*
X801495Y38338D01*
X801522Y38223D01*
X801545Y38108D01*
X801565Y37992D01*
X801580Y37876D01*
X801592Y37759D01*
X801600Y37641D01*
X801604Y37524D01*
X801604Y37406D01*
X801600Y37289D01*
X801592Y37171D01*
X801580Y37054D01*
X801565Y36938D01*
X801545Y36822D01*
X801522Y36707D01*
X801495Y36592D01*
X801464Y36479D01*
X801430Y36366D01*
X801392Y36255D01*
X801350Y36145D01*
X801304Y36037D01*
X801255Y35930D01*
X801203Y35824D01*
X801147Y35721D01*
X801088Y35620D01*
X801025Y35520D01*
X800959Y35423D01*
X800890Y35328D01*
X800818Y35235D01*
X800742Y35144D01*
X800664Y35057D01*
X800583Y34971D01*
X800499Y34889D01*
X800413Y34809D01*
X800324Y34733D01*
X800232Y34659D01*
X800138Y34588D01*
X800042Y34521D01*
X799943Y34456D01*
X799843Y34395D01*
X799740Y34338D01*
X799636Y34283D01*
X799530Y34233D01*
X799422Y34185D01*
X799313Y34142D01*
X799203Y34102D01*
X799091Y34065D01*
X798978Y34033D01*
X798864Y34004D01*
X798749Y33979D01*
X798633Y33957D01*
X798517Y33940D01*
X798400Y33926D01*
X798283Y33917D01*
X798166Y33911D01*
X798048Y33909D01*
X808481Y37465D02*
X812926Y41021D01*
X812926Y25019D01*
X808481Y25019D02*
X817371Y25019D01*
D10*
X350520Y101600D02*
X336550Y101600D01*
X321310Y101600D02*
X309880Y101600D01*
X321310Y101600D02*
X321310Y120650D01*
X321310Y82550D02*
X327660Y82550D01*
X327660Y120650D01*
X321310Y120650D01*
X321310Y101600D02*
X321310Y82550D01*
X270510Y101600D02*
X255270Y101600D01*
X262890Y93980D02*
X262890Y109220D01*
X247650Y101600D02*
X247675Y103626D01*
X247749Y105651D01*
X247874Y107673D01*
X248048Y109691D01*
X248271Y111705D01*
X248543Y113713D01*
X248865Y115713D01*
X249236Y117705D01*
X249656Y119687D01*
X250124Y121658D01*
X250640Y123617D01*
X251205Y125563D01*
X251816Y127494D01*
X252476Y129410D01*
X253181Y131309D01*
X253934Y133191D01*
X254732Y135053D01*
X255576Y136895D01*
X256464Y138715D01*
X257397Y140514D01*
X258374Y142289D01*
X259395Y144039D01*
X260457Y145764D01*
X261562Y147462D01*
X262708Y149133D01*
X263895Y150775D01*
X265122Y152387D01*
X266388Y153969D01*
X267692Y155519D01*
X269034Y157037D01*
X270413Y158522D01*
X271828Y159972D01*
X273278Y161387D01*
X274763Y162766D01*
X276281Y164108D01*
X277831Y165412D01*
X279413Y166678D01*
X281025Y167905D01*
X282667Y169092D01*
X284338Y170238D01*
X286036Y171343D01*
X287761Y172405D01*
X289511Y173426D01*
X291286Y174403D01*
X293085Y175336D01*
X294905Y176224D01*
X296747Y177068D01*
X298609Y177866D01*
X300491Y178619D01*
X302390Y179324D01*
X304306Y179984D01*
X306237Y180595D01*
X308183Y181160D01*
X310142Y181676D01*
X312113Y182144D01*
X314095Y182564D01*
X316087Y182935D01*
X318087Y183257D01*
X320095Y183529D01*
X322109Y183752D01*
X324127Y183926D01*
X326149Y184051D01*
X328174Y184125D01*
X330200Y184150D01*
X332226Y184125D01*
X334251Y184051D01*
X336273Y183926D01*
X338291Y183752D01*
X340305Y183529D01*
X342313Y183257D01*
X344313Y182935D01*
X346305Y182564D01*
X348287Y182144D01*
X350258Y181676D01*
X352217Y181160D01*
X354163Y180595D01*
X356094Y179984D01*
X358010Y179324D01*
X359909Y178619D01*
X361791Y177866D01*
X363653Y177068D01*
X365495Y176224D01*
X367315Y175336D01*
X369114Y174403D01*
X370889Y173426D01*
X372639Y172405D01*
X374364Y171343D01*
X376062Y170238D01*
X377733Y169092D01*
X379375Y167905D01*
X380987Y166678D01*
X382569Y165412D01*
X384119Y164108D01*
X385637Y162766D01*
X387122Y161387D01*
X388572Y159972D01*
X389987Y158522D01*
X391366Y157037D01*
X392708Y155519D01*
X394012Y153969D01*
X395278Y152387D01*
X396505Y150775D01*
X397692Y149133D01*
X398838Y147462D01*
X399943Y145764D01*
X401005Y144039D01*
X402026Y142289D01*
X403003Y140514D01*
X403936Y138715D01*
X404824Y136895D01*
X405668Y135053D01*
X406466Y133191D01*
X407219Y131309D01*
X407924Y129410D01*
X408584Y127494D01*
X409195Y125563D01*
X409760Y123617D01*
X410276Y121658D01*
X410744Y119687D01*
X411164Y117705D01*
X411535Y115713D01*
X411857Y113713D01*
X412129Y111705D01*
X412352Y109691D01*
X412526Y107673D01*
X412651Y105651D01*
X412725Y103626D01*
X412750Y101600D01*
X412725Y99574D01*
X412651Y97549D01*
X412526Y95527D01*
X412352Y93509D01*
X412129Y91495D01*
X411857Y89487D01*
X411535Y87487D01*
X411164Y85495D01*
X410744Y83513D01*
X410276Y81542D01*
X409760Y79583D01*
X409195Y77637D01*
X408584Y75706D01*
X407924Y73790D01*
X407219Y71891D01*
X406466Y70009D01*
X405668Y68147D01*
X404824Y66305D01*
X403936Y64485D01*
X403003Y62686D01*
X402026Y60911D01*
X401005Y59161D01*
X399943Y57436D01*
X398838Y55738D01*
X397692Y54067D01*
X396505Y52425D01*
X395278Y50813D01*
X394012Y49231D01*
X392708Y47681D01*
X391366Y46163D01*
X389987Y44678D01*
X388572Y43228D01*
X387122Y41813D01*
X385637Y40434D01*
X384119Y39092D01*
X382569Y37788D01*
X380987Y36522D01*
X379375Y35295D01*
X377733Y34108D01*
X376062Y32962D01*
X374364Y31857D01*
X372639Y30795D01*
X370889Y29774D01*
X369114Y28797D01*
X367315Y27864D01*
X365495Y26976D01*
X363653Y26132D01*
X361791Y25334D01*
X359909Y24581D01*
X358010Y23876D01*
X356094Y23216D01*
X354163Y22605D01*
X352217Y22040D01*
X350258Y21524D01*
X348287Y21056D01*
X346305Y20636D01*
X344313Y20265D01*
X342313Y19943D01*
X340305Y19671D01*
X338291Y19448D01*
X336273Y19274D01*
X334251Y19149D01*
X332226Y19075D01*
X330200Y19050D01*
X328174Y19075D01*
X326149Y19149D01*
X324127Y19274D01*
X322109Y19448D01*
X320095Y19671D01*
X318087Y19943D01*
X316087Y20265D01*
X314095Y20636D01*
X312113Y21056D01*
X310142Y21524D01*
X308183Y22040D01*
X306237Y22605D01*
X304306Y23216D01*
X302390Y23876D01*
X300491Y24581D01*
X298609Y25334D01*
X296747Y26132D01*
X294905Y26976D01*
X293085Y27864D01*
X291286Y28797D01*
X289511Y29774D01*
X287761Y30795D01*
X286036Y31857D01*
X284338Y32962D01*
X282667Y34108D01*
X281025Y35295D01*
X279413Y36522D01*
X277831Y37788D01*
X276281Y39092D01*
X274763Y40434D01*
X273278Y41813D01*
X271828Y43228D01*
X270413Y44678D01*
X269034Y46163D01*
X267692Y47681D01*
X266388Y49231D01*
X265122Y50813D01*
X263895Y52425D01*
X262708Y54067D01*
X261562Y55738D01*
X260457Y57436D01*
X259395Y59161D01*
X258374Y60911D01*
X257397Y62686D01*
X256464Y64485D01*
X255576Y66305D01*
X254732Y68147D01*
X253934Y70009D01*
X253181Y71891D01*
X252476Y73790D01*
X251816Y75706D01*
X251205Y77637D01*
X250640Y79583D01*
X250124Y81542D01*
X249656Y83513D01*
X249236Y85495D01*
X248865Y87487D01*
X248543Y89487D01*
X248271Y91495D01*
X248048Y93509D01*
X247874Y95527D01*
X247749Y97549D01*
X247675Y99574D01*
X247650Y101600D01*
D12*
X335915Y101600D03*
D11*
X413385Y140589D02*
X416941Y140589D01*
X413385Y140589D02*
X413269Y140591D01*
X413152Y140597D01*
X413036Y140606D01*
X412921Y140619D01*
X412806Y140636D01*
X412691Y140657D01*
X412578Y140682D01*
X412465Y140710D01*
X412353Y140742D01*
X412242Y140778D01*
X412132Y140817D01*
X412024Y140860D01*
X411917Y140906D01*
X411812Y140956D01*
X411709Y141009D01*
X411607Y141065D01*
X411507Y141125D01*
X411409Y141188D01*
X411314Y141255D01*
X411220Y141324D01*
X411129Y141396D01*
X411040Y141471D01*
X410954Y141550D01*
X410871Y141631D01*
X410790Y141714D01*
X410711Y141800D01*
X410636Y141889D01*
X410564Y141980D01*
X410495Y142074D01*
X410428Y142169D01*
X410365Y142267D01*
X410305Y142367D01*
X410249Y142469D01*
X410196Y142572D01*
X410146Y142677D01*
X410100Y142784D01*
X410057Y142892D01*
X410018Y143002D01*
X409982Y143113D01*
X409950Y143225D01*
X409922Y143338D01*
X409897Y143451D01*
X409876Y143566D01*
X409859Y143681D01*
X409846Y143796D01*
X409837Y143912D01*
X409831Y144029D01*
X409829Y144145D01*
X409829Y153035D01*
X409831Y153151D01*
X409837Y153268D01*
X409846Y153384D01*
X409859Y153499D01*
X409876Y153614D01*
X409897Y153729D01*
X409922Y153842D01*
X409950Y153955D01*
X409982Y154067D01*
X410018Y154178D01*
X410057Y154288D01*
X410100Y154396D01*
X410146Y154503D01*
X410196Y154608D01*
X410249Y154711D01*
X410305Y154813D01*
X410365Y154913D01*
X410428Y155011D01*
X410495Y155106D01*
X410564Y155200D01*
X410636Y155291D01*
X410711Y155380D01*
X410790Y155466D01*
X410871Y155549D01*
X410954Y155630D01*
X411040Y155709D01*
X411129Y155784D01*
X411220Y155856D01*
X411314Y155925D01*
X411409Y155992D01*
X411507Y156055D01*
X411607Y156115D01*
X411709Y156171D01*
X411812Y156224D01*
X411917Y156274D01*
X412024Y156320D01*
X412132Y156363D01*
X412242Y156402D01*
X412353Y156438D01*
X412465Y156470D01*
X412578Y156498D01*
X412691Y156523D01*
X412806Y156544D01*
X412921Y156561D01*
X413036Y156574D01*
X413152Y156583D01*
X413269Y156589D01*
X413385Y156591D01*
X416941Y156591D01*
X422899Y153035D02*
X427344Y156591D01*
X427344Y140589D01*
X422899Y140589D02*
X431789Y140589D01*
D10*
X290830Y735330D02*
X283210Y735330D01*
X287020Y731520D02*
X287020Y739140D01*
X276860Y723900D02*
X276872Y724897D01*
X276909Y725894D01*
X276970Y726890D01*
X277056Y727883D01*
X277166Y728875D01*
X277300Y729863D01*
X277458Y730848D01*
X277641Y731828D01*
X277847Y732804D01*
X278078Y733775D01*
X278332Y734739D01*
X278610Y735697D01*
X278911Y736648D01*
X279236Y737591D01*
X279583Y738526D01*
X279954Y739452D01*
X280347Y740369D01*
X280762Y741276D01*
X281199Y742172D01*
X281659Y743058D01*
X282140Y743931D01*
X282642Y744793D01*
X283165Y745642D01*
X283709Y746478D01*
X284273Y747301D01*
X284858Y748109D01*
X285462Y748903D01*
X286085Y749682D01*
X286727Y750445D01*
X287388Y751192D01*
X288067Y751923D01*
X288763Y752637D01*
X289477Y753333D01*
X290208Y754012D01*
X290955Y754673D01*
X291718Y755315D01*
X292497Y755938D01*
X293291Y756542D01*
X294099Y757127D01*
X294922Y757691D01*
X295758Y758235D01*
X296607Y758758D01*
X297469Y759260D01*
X298342Y759741D01*
X299228Y760201D01*
X300124Y760638D01*
X301031Y761053D01*
X301948Y761446D01*
X302874Y761817D01*
X303809Y762164D01*
X304752Y762489D01*
X305703Y762790D01*
X306661Y763068D01*
X307625Y763322D01*
X308596Y763553D01*
X309572Y763759D01*
X310552Y763942D01*
X311537Y764100D01*
X312525Y764234D01*
X313517Y764344D01*
X314510Y764430D01*
X315506Y764491D01*
X316503Y764528D01*
X317500Y764540D01*
X318497Y764528D01*
X319494Y764491D01*
X320490Y764430D01*
X321483Y764344D01*
X322475Y764234D01*
X323463Y764100D01*
X324448Y763942D01*
X325428Y763759D01*
X326404Y763553D01*
X327375Y763322D01*
X328339Y763068D01*
X329297Y762790D01*
X330248Y762489D01*
X331191Y762164D01*
X332126Y761817D01*
X333052Y761446D01*
X333969Y761053D01*
X334876Y760638D01*
X335772Y760201D01*
X336658Y759741D01*
X337531Y759260D01*
X338393Y758758D01*
X339242Y758235D01*
X340078Y757691D01*
X340901Y757127D01*
X341709Y756542D01*
X342503Y755938D01*
X343282Y755315D01*
X344045Y754673D01*
X344792Y754012D01*
X345523Y753333D01*
X346237Y752637D01*
X346933Y751923D01*
X347612Y751192D01*
X348273Y750445D01*
X348915Y749682D01*
X349538Y748903D01*
X350142Y748109D01*
X350727Y747301D01*
X351291Y746478D01*
X351835Y745642D01*
X352358Y744793D01*
X352860Y743931D01*
X353341Y743058D01*
X353801Y742172D01*
X354238Y741276D01*
X354653Y740369D01*
X355046Y739452D01*
X355417Y738526D01*
X355764Y737591D01*
X356089Y736648D01*
X356390Y735697D01*
X356668Y734739D01*
X356922Y733775D01*
X357153Y732804D01*
X357359Y731828D01*
X357542Y730848D01*
X357700Y729863D01*
X357834Y728875D01*
X357944Y727883D01*
X358030Y726890D01*
X358091Y725894D01*
X358128Y724897D01*
X358140Y723900D01*
X358128Y722903D01*
X358091Y721906D01*
X358030Y720910D01*
X357944Y719917D01*
X357834Y718925D01*
X357700Y717937D01*
X357542Y716952D01*
X357359Y715972D01*
X357153Y714996D01*
X356922Y714025D01*
X356668Y713061D01*
X356390Y712103D01*
X356089Y711152D01*
X355764Y710209D01*
X355417Y709274D01*
X355046Y708348D01*
X354653Y707431D01*
X354238Y706524D01*
X353801Y705628D01*
X353341Y704742D01*
X352860Y703869D01*
X352358Y703007D01*
X351835Y702158D01*
X351291Y701322D01*
X350727Y700499D01*
X350142Y699691D01*
X349538Y698897D01*
X348915Y698118D01*
X348273Y697355D01*
X347612Y696608D01*
X346933Y695877D01*
X346237Y695163D01*
X345523Y694467D01*
X344792Y693788D01*
X344045Y693127D01*
X343282Y692485D01*
X342503Y691862D01*
X341709Y691258D01*
X340901Y690673D01*
X340078Y690109D01*
X339242Y689565D01*
X338393Y689042D01*
X337531Y688540D01*
X336658Y688059D01*
X335772Y687599D01*
X334876Y687162D01*
X333969Y686747D01*
X333052Y686354D01*
X332126Y685983D01*
X331191Y685636D01*
X330248Y685311D01*
X329297Y685010D01*
X328339Y684732D01*
X327375Y684478D01*
X326404Y684247D01*
X325428Y684041D01*
X324448Y683858D01*
X323463Y683700D01*
X322475Y683566D01*
X321483Y683456D01*
X320490Y683370D01*
X319494Y683309D01*
X318497Y683272D01*
X317500Y683260D01*
X316503Y683272D01*
X315506Y683309D01*
X314510Y683370D01*
X313517Y683456D01*
X312525Y683566D01*
X311537Y683700D01*
X310552Y683858D01*
X309572Y684041D01*
X308596Y684247D01*
X307625Y684478D01*
X306661Y684732D01*
X305703Y685010D01*
X304752Y685311D01*
X303809Y685636D01*
X302874Y685983D01*
X301948Y686354D01*
X301031Y686747D01*
X300124Y687162D01*
X299228Y687599D01*
X298342Y688059D01*
X297469Y688540D01*
X296607Y689042D01*
X295758Y689565D01*
X294922Y690109D01*
X294099Y690673D01*
X293291Y691258D01*
X292497Y691862D01*
X291718Y692485D01*
X290955Y693127D01*
X290208Y693788D01*
X289477Y694467D01*
X288763Y695163D01*
X288067Y695877D01*
X287388Y696608D01*
X286727Y697355D01*
X286085Y698118D01*
X285462Y698897D01*
X284858Y699691D01*
X284273Y700499D01*
X283709Y701322D01*
X283165Y702158D01*
X282642Y703007D01*
X282140Y703869D01*
X281659Y704742D01*
X281199Y705628D01*
X280762Y706524D01*
X280347Y707431D01*
X279954Y708348D01*
X279583Y709274D01*
X279236Y710209D01*
X278911Y711152D01*
X278610Y712103D01*
X278332Y713061D01*
X278078Y714025D01*
X277847Y714996D01*
X277641Y715972D01*
X277458Y716952D01*
X277300Y717937D01*
X277166Y718925D01*
X277056Y719917D01*
X276970Y720910D01*
X276909Y721906D01*
X276872Y722903D01*
X276860Y723900D01*
D13*
X353695Y752475D02*
X356235Y752475D01*
X353695Y752475D02*
X353595Y752477D01*
X353496Y752483D01*
X353396Y752493D01*
X353298Y752506D01*
X353199Y752524D01*
X353102Y752545D01*
X353006Y752570D01*
X352910Y752599D01*
X352816Y752632D01*
X352723Y752668D01*
X352632Y752708D01*
X352542Y752752D01*
X352454Y752799D01*
X352368Y752849D01*
X352284Y752903D01*
X352202Y752960D01*
X352123Y753020D01*
X352045Y753084D01*
X351971Y753150D01*
X351899Y753219D01*
X351830Y753291D01*
X351764Y753365D01*
X351700Y753443D01*
X351640Y753522D01*
X351583Y753604D01*
X351529Y753688D01*
X351479Y753774D01*
X351432Y753862D01*
X351388Y753952D01*
X351348Y754043D01*
X351312Y754136D01*
X351279Y754230D01*
X351250Y754326D01*
X351225Y754422D01*
X351204Y754519D01*
X351186Y754618D01*
X351173Y754716D01*
X351163Y754816D01*
X351157Y754915D01*
X351155Y755015D01*
X351155Y761365D01*
X351157Y761465D01*
X351163Y761564D01*
X351173Y761664D01*
X351186Y761762D01*
X351204Y761861D01*
X351225Y761958D01*
X351250Y762054D01*
X351279Y762150D01*
X351312Y762244D01*
X351348Y762337D01*
X351388Y762428D01*
X351432Y762518D01*
X351479Y762606D01*
X351529Y762692D01*
X351583Y762776D01*
X351640Y762858D01*
X351700Y762937D01*
X351764Y763015D01*
X351830Y763089D01*
X351899Y763161D01*
X351971Y763230D01*
X352045Y763296D01*
X352123Y763360D01*
X352202Y763420D01*
X352284Y763477D01*
X352368Y763531D01*
X352454Y763581D01*
X352542Y763628D01*
X352632Y763672D01*
X352723Y763712D01*
X352816Y763748D01*
X352910Y763781D01*
X353006Y763810D01*
X353102Y763835D01*
X353199Y763856D01*
X353298Y763874D01*
X353396Y763887D01*
X353496Y763897D01*
X353595Y763903D01*
X353695Y763905D01*
X356235Y763905D01*
X364210Y763906D02*
X364314Y763904D01*
X364419Y763898D01*
X364523Y763889D01*
X364626Y763876D01*
X364729Y763858D01*
X364831Y763838D01*
X364933Y763813D01*
X365033Y763785D01*
X365133Y763753D01*
X365231Y763717D01*
X365328Y763678D01*
X365423Y763636D01*
X365517Y763590D01*
X365609Y763540D01*
X365699Y763488D01*
X365787Y763432D01*
X365873Y763372D01*
X365957Y763310D01*
X366038Y763245D01*
X366117Y763177D01*
X366194Y763105D01*
X366267Y763032D01*
X366339Y762955D01*
X366407Y762876D01*
X366472Y762795D01*
X366534Y762711D01*
X366594Y762625D01*
X366650Y762537D01*
X366702Y762447D01*
X366752Y762355D01*
X366798Y762261D01*
X366840Y762166D01*
X366879Y762069D01*
X366915Y761971D01*
X366947Y761871D01*
X366975Y761771D01*
X367000Y761669D01*
X367020Y761567D01*
X367038Y761464D01*
X367051Y761361D01*
X367060Y761257D01*
X367066Y761152D01*
X367068Y761048D01*
X364210Y763905D02*
X364092Y763903D01*
X363973Y763897D01*
X363855Y763888D01*
X363738Y763875D01*
X363621Y763857D01*
X363504Y763837D01*
X363388Y763812D01*
X363273Y763784D01*
X363160Y763751D01*
X363047Y763716D01*
X362935Y763676D01*
X362825Y763634D01*
X362716Y763587D01*
X362608Y763537D01*
X362503Y763484D01*
X362399Y763427D01*
X362297Y763367D01*
X362197Y763304D01*
X362099Y763237D01*
X362003Y763168D01*
X361910Y763095D01*
X361819Y763019D01*
X361730Y762941D01*
X361644Y762859D01*
X361561Y762775D01*
X361480Y762689D01*
X361403Y762599D01*
X361328Y762508D01*
X361256Y762414D01*
X361187Y762317D01*
X361122Y762219D01*
X361059Y762118D01*
X361000Y762015D01*
X360944Y761911D01*
X360892Y761805D01*
X360843Y761697D01*
X360798Y761588D01*
X360756Y761477D01*
X360718Y761365D01*
X366115Y758826D02*
X366191Y758901D01*
X366266Y758980D01*
X366337Y759061D01*
X366406Y759145D01*
X366471Y759231D01*
X366533Y759319D01*
X366593Y759409D01*
X366649Y759501D01*
X366702Y759596D01*
X366751Y759692D01*
X366797Y759790D01*
X366840Y759889D01*
X366879Y759990D01*
X366914Y760092D01*
X366946Y760195D01*
X366974Y760299D01*
X366999Y760404D01*
X367020Y760511D01*
X367037Y760617D01*
X367050Y760724D01*
X367059Y760832D01*
X367065Y760940D01*
X367067Y761048D01*
X366115Y758825D02*
X360717Y752475D01*
X367067Y752475D01*
D10*
X382270Y317500D02*
X278130Y317500D01*
X278130Y476250D02*
X382270Y476250D01*
X382270Y441960D02*
X382270Y317500D01*
X382270Y441960D02*
X373380Y441960D01*
X373380Y457200D01*
X382270Y457200D01*
X382270Y476250D01*
X278130Y441960D02*
X278130Y317500D01*
X278130Y441960D02*
X287020Y441960D01*
X287020Y457200D01*
X278130Y457200D01*
X278130Y476250D01*
D14*
X284480Y323850D02*
X375920Y323850D01*
X375920Y406400D01*
X284480Y406400D01*
X284480Y323850D01*
D10*
X312166Y441960D02*
X312171Y442403D01*
X312188Y442845D01*
X312215Y443287D01*
X312253Y443728D01*
X312302Y444168D01*
X312361Y444606D01*
X312432Y445043D01*
X312513Y445478D01*
X312604Y445911D01*
X312706Y446342D01*
X312819Y446770D01*
X312943Y447195D01*
X313076Y447617D01*
X313220Y448035D01*
X313374Y448450D01*
X313539Y448861D01*
X313713Y449268D01*
X313897Y449671D01*
X314092Y450068D01*
X314295Y450461D01*
X314509Y450849D01*
X314732Y451231D01*
X314964Y451608D01*
X315205Y451979D01*
X315456Y452344D01*
X315715Y452703D01*
X315983Y453055D01*
X316260Y453401D01*
X316544Y453739D01*
X316838Y454071D01*
X317139Y454395D01*
X317448Y454712D01*
X317765Y455021D01*
X318089Y455322D01*
X318421Y455616D01*
X318759Y455900D01*
X319105Y456177D01*
X319457Y456445D01*
X319816Y456704D01*
X320181Y456955D01*
X320552Y457196D01*
X320929Y457428D01*
X321311Y457651D01*
X321699Y457865D01*
X322092Y458068D01*
X322489Y458263D01*
X322892Y458447D01*
X323299Y458621D01*
X323710Y458786D01*
X324125Y458940D01*
X324543Y459084D01*
X324965Y459217D01*
X325390Y459341D01*
X325818Y459454D01*
X326249Y459556D01*
X326682Y459647D01*
X327117Y459728D01*
X327554Y459799D01*
X327992Y459858D01*
X328432Y459907D01*
X328873Y459945D01*
X329315Y459972D01*
X329757Y459989D01*
X330200Y459994D01*
X330643Y459989D01*
X331085Y459972D01*
X331527Y459945D01*
X331968Y459907D01*
X332408Y459858D01*
X332846Y459799D01*
X333283Y459728D01*
X333718Y459647D01*
X334151Y459556D01*
X334582Y459454D01*
X335010Y459341D01*
X335435Y459217D01*
X335857Y459084D01*
X336275Y458940D01*
X336690Y458786D01*
X337101Y458621D01*
X337508Y458447D01*
X337911Y458263D01*
X338308Y458068D01*
X338701Y457865D01*
X339089Y457651D01*
X339471Y457428D01*
X339848Y457196D01*
X340219Y456955D01*
X340584Y456704D01*
X340943Y456445D01*
X341295Y456177D01*
X341641Y455900D01*
X341979Y455616D01*
X342311Y455322D01*
X342635Y455021D01*
X342952Y454712D01*
X343261Y454395D01*
X343562Y454071D01*
X343856Y453739D01*
X344140Y453401D01*
X344417Y453055D01*
X344685Y452703D01*
X344944Y452344D01*
X345195Y451979D01*
X345436Y451608D01*
X345668Y451231D01*
X345891Y450849D01*
X346105Y450461D01*
X346308Y450068D01*
X346503Y449671D01*
X346687Y449268D01*
X346861Y448861D01*
X347026Y448450D01*
X347180Y448035D01*
X347324Y447617D01*
X347457Y447195D01*
X347581Y446770D01*
X347694Y446342D01*
X347796Y445911D01*
X347887Y445478D01*
X347968Y445043D01*
X348039Y444606D01*
X348098Y444168D01*
X348147Y443728D01*
X348185Y443287D01*
X348212Y442845D01*
X348229Y442403D01*
X348234Y441960D01*
X348229Y441517D01*
X348212Y441075D01*
X348185Y440633D01*
X348147Y440192D01*
X348098Y439752D01*
X348039Y439314D01*
X347968Y438877D01*
X347887Y438442D01*
X347796Y438009D01*
X347694Y437578D01*
X347581Y437150D01*
X347457Y436725D01*
X347324Y436303D01*
X347180Y435885D01*
X347026Y435470D01*
X346861Y435059D01*
X346687Y434652D01*
X346503Y434249D01*
X346308Y433852D01*
X346105Y433459D01*
X345891Y433071D01*
X345668Y432689D01*
X345436Y432312D01*
X345195Y431941D01*
X344944Y431576D01*
X344685Y431217D01*
X344417Y430865D01*
X344140Y430519D01*
X343856Y430181D01*
X343562Y429849D01*
X343261Y429525D01*
X342952Y429208D01*
X342635Y428899D01*
X342311Y428598D01*
X341979Y428304D01*
X341641Y428020D01*
X341295Y427743D01*
X340943Y427475D01*
X340584Y427216D01*
X340219Y426965D01*
X339848Y426724D01*
X339471Y426492D01*
X339089Y426269D01*
X338701Y426055D01*
X338308Y425852D01*
X337911Y425657D01*
X337508Y425473D01*
X337101Y425299D01*
X336690Y425134D01*
X336275Y424980D01*
X335857Y424836D01*
X335435Y424703D01*
X335010Y424579D01*
X334582Y424466D01*
X334151Y424364D01*
X333718Y424273D01*
X333283Y424192D01*
X332846Y424121D01*
X332408Y424062D01*
X331968Y424013D01*
X331527Y423975D01*
X331085Y423948D01*
X330643Y423931D01*
X330200Y423926D01*
X329757Y423931D01*
X329315Y423948D01*
X328873Y423975D01*
X328432Y424013D01*
X327992Y424062D01*
X327554Y424121D01*
X327117Y424192D01*
X326682Y424273D01*
X326249Y424364D01*
X325818Y424466D01*
X325390Y424579D01*
X324965Y424703D01*
X324543Y424836D01*
X324125Y424980D01*
X323710Y425134D01*
X323299Y425299D01*
X322892Y425473D01*
X322489Y425657D01*
X322092Y425852D01*
X321699Y426055D01*
X321311Y426269D01*
X320929Y426492D01*
X320552Y426724D01*
X320181Y426965D01*
X319816Y427216D01*
X319457Y427475D01*
X319105Y427743D01*
X318759Y428020D01*
X318421Y428304D01*
X318089Y428598D01*
X317765Y428899D01*
X317448Y429208D01*
X317139Y429525D01*
X316838Y429849D01*
X316544Y430181D01*
X316260Y430519D01*
X315983Y430865D01*
X315715Y431217D01*
X315456Y431576D01*
X315205Y431941D01*
X314964Y432312D01*
X314732Y432689D01*
X314509Y433071D01*
X314295Y433459D01*
X314092Y433852D01*
X313897Y434249D01*
X313713Y434652D01*
X313539Y435059D01*
X313374Y435470D01*
X313220Y435885D01*
X313076Y436303D01*
X312943Y436725D01*
X312819Y437150D01*
X312706Y437578D01*
X312604Y438009D01*
X312513Y438442D01*
X312432Y438877D01*
X312361Y439314D01*
X312302Y439752D01*
X312253Y440192D01*
X312215Y440633D01*
X312188Y441075D01*
X312171Y441517D01*
X312166Y441960D01*
D15*
X289221Y418338D02*
X286258Y409448D01*
X292185Y409448D02*
X289221Y418338D01*
X291444Y411671D02*
X286999Y411671D01*
X295667Y416362D02*
X298137Y418338D01*
X298137Y409448D01*
X300606Y409448D02*
X295667Y409448D01*
X304583Y409448D02*
X307546Y409448D01*
X307635Y409450D01*
X307723Y409456D01*
X307811Y409466D01*
X307899Y409480D01*
X307986Y409498D01*
X308072Y409519D01*
X308157Y409545D01*
X308240Y409574D01*
X308323Y409607D01*
X308403Y409644D01*
X308482Y409684D01*
X308559Y409728D01*
X308635Y409775D01*
X308707Y409825D01*
X308778Y409879D01*
X308846Y409936D01*
X308912Y409996D01*
X308974Y410058D01*
X309034Y410124D01*
X309091Y410192D01*
X309145Y410263D01*
X309195Y410335D01*
X309242Y410410D01*
X309286Y410488D01*
X309326Y410567D01*
X309363Y410647D01*
X309396Y410730D01*
X309425Y410813D01*
X309451Y410898D01*
X309472Y410984D01*
X309490Y411071D01*
X309504Y411159D01*
X309514Y411247D01*
X309520Y411335D01*
X309522Y411424D01*
X309522Y412411D01*
X309520Y412497D01*
X309514Y412583D01*
X309505Y412669D01*
X309492Y412754D01*
X309475Y412839D01*
X309455Y412922D01*
X309431Y413005D01*
X309403Y413087D01*
X309372Y413167D01*
X309337Y413246D01*
X309299Y413323D01*
X309257Y413399D01*
X309213Y413473D01*
X309165Y413544D01*
X309114Y413614D01*
X309060Y413681D01*
X309003Y413746D01*
X308943Y413808D01*
X308881Y413868D01*
X308816Y413925D01*
X308749Y413979D01*
X308679Y414030D01*
X308608Y414078D01*
X308534Y414122D01*
X308458Y414164D01*
X308381Y414202D01*
X308302Y414237D01*
X308222Y414268D01*
X308140Y414296D01*
X308057Y414320D01*
X307974Y414340D01*
X307889Y414357D01*
X307804Y414370D01*
X307718Y414379D01*
X307632Y414385D01*
X307546Y414387D01*
X304583Y414387D01*
X304583Y418338D01*
X309522Y418338D01*
X313007Y409448D02*
X313501Y409448D01*
X313007Y409448D02*
X313007Y409942D01*
X313501Y409942D01*
X313501Y409448D01*
X312761Y407472D01*
X322004Y416116D02*
X322002Y416208D01*
X321996Y416300D01*
X321987Y416391D01*
X321974Y416482D01*
X321957Y416572D01*
X321936Y416662D01*
X321912Y416750D01*
X321884Y416838D01*
X321852Y416924D01*
X321817Y417009D01*
X321778Y417092D01*
X321736Y417174D01*
X321691Y417254D01*
X321642Y417332D01*
X321590Y417408D01*
X321535Y417481D01*
X321477Y417553D01*
X321417Y417622D01*
X321353Y417688D01*
X321287Y417752D01*
X321218Y417812D01*
X321146Y417870D01*
X321073Y417925D01*
X320997Y417977D01*
X320919Y418026D01*
X320839Y418071D01*
X320757Y418113D01*
X320674Y418152D01*
X320589Y418187D01*
X320503Y418219D01*
X320415Y418247D01*
X320327Y418271D01*
X320237Y418292D01*
X320147Y418309D01*
X320056Y418322D01*
X319965Y418331D01*
X319873Y418337D01*
X319781Y418339D01*
X319781Y418338D02*
X319675Y418336D01*
X319570Y418330D01*
X319465Y418320D01*
X319360Y418307D01*
X319256Y418289D01*
X319153Y418268D01*
X319050Y418243D01*
X318948Y418214D01*
X318848Y418181D01*
X318749Y418145D01*
X318651Y418105D01*
X318555Y418061D01*
X318460Y418014D01*
X318368Y417964D01*
X318277Y417910D01*
X318188Y417852D01*
X318102Y417792D01*
X318018Y417728D01*
X317936Y417662D01*
X317856Y417592D01*
X317780Y417519D01*
X317706Y417444D01*
X317635Y417366D01*
X317567Y417285D01*
X317501Y417202D01*
X317439Y417116D01*
X317381Y417029D01*
X317325Y416939D01*
X317273Y416847D01*
X317224Y416753D01*
X317179Y416658D01*
X317137Y416561D01*
X317099Y416462D01*
X317065Y416363D01*
X321262Y414387D02*
X321331Y414456D01*
X321397Y414526D01*
X321460Y414600D01*
X321519Y414676D01*
X321576Y414754D01*
X321630Y414834D01*
X321680Y414917D01*
X321727Y415001D01*
X321770Y415088D01*
X321810Y415176D01*
X321846Y415265D01*
X321879Y415356D01*
X321908Y415448D01*
X321933Y415542D01*
X321954Y415636D01*
X321972Y415731D01*
X321985Y415827D01*
X321995Y415923D01*
X322001Y416019D01*
X322003Y416116D01*
X321262Y414387D02*
X317064Y409448D01*
X322003Y409448D01*
X326377Y409448D02*
X326377Y415375D01*
X330822Y415375D01*
X330897Y415373D01*
X330972Y415367D01*
X331046Y415358D01*
X331120Y415345D01*
X331193Y415328D01*
X331266Y415307D01*
X331337Y415283D01*
X331406Y415255D01*
X331475Y415224D01*
X331541Y415189D01*
X331606Y415151D01*
X331669Y415109D01*
X331729Y415065D01*
X331787Y415017D01*
X331843Y414967D01*
X331896Y414914D01*
X331946Y414858D01*
X331994Y414800D01*
X332038Y414740D01*
X332080Y414677D01*
X332118Y414612D01*
X332153Y414546D01*
X332184Y414477D01*
X332212Y414408D01*
X332236Y414337D01*
X332257Y414264D01*
X332274Y414191D01*
X332287Y414117D01*
X332296Y414043D01*
X332302Y413968D01*
X332304Y413893D01*
X332304Y409448D01*
X329340Y409448D02*
X329340Y415375D01*
X337076Y415375D02*
X337076Y409448D01*
X337076Y415375D02*
X341521Y415375D01*
X341596Y415373D01*
X341671Y415367D01*
X341745Y415358D01*
X341819Y415345D01*
X341892Y415328D01*
X341965Y415307D01*
X342036Y415283D01*
X342105Y415255D01*
X342174Y415224D01*
X342240Y415189D01*
X342305Y415151D01*
X342368Y415109D01*
X342428Y415065D01*
X342486Y415017D01*
X342542Y414967D01*
X342595Y414914D01*
X342645Y414858D01*
X342693Y414800D01*
X342737Y414740D01*
X342779Y414677D01*
X342817Y414612D01*
X342852Y414546D01*
X342883Y414477D01*
X342911Y414408D01*
X342935Y414337D01*
X342956Y414264D01*
X342973Y414191D01*
X342986Y414117D01*
X342995Y414043D01*
X343001Y413968D01*
X343003Y413893D01*
X343002Y413893D02*
X343002Y409448D01*
X340039Y409448D02*
X340039Y415375D01*
D16*
X355600Y313055D03*
X330200Y313055D03*
X304800Y313055D03*
D11*
X294767Y381889D02*
X294767Y397891D01*
X292989Y381889D02*
X296545Y381889D01*
X296545Y397891D02*
X292989Y397891D01*
X306339Y381889D02*
X309895Y381889D01*
X306339Y381889D02*
X306223Y381891D01*
X306106Y381897D01*
X305990Y381906D01*
X305875Y381919D01*
X305760Y381936D01*
X305645Y381957D01*
X305532Y381982D01*
X305419Y382010D01*
X305307Y382042D01*
X305196Y382078D01*
X305086Y382117D01*
X304978Y382160D01*
X304871Y382206D01*
X304766Y382256D01*
X304663Y382309D01*
X304561Y382365D01*
X304461Y382425D01*
X304363Y382488D01*
X304268Y382555D01*
X304174Y382624D01*
X304083Y382696D01*
X303994Y382771D01*
X303908Y382850D01*
X303825Y382931D01*
X303744Y383014D01*
X303665Y383100D01*
X303590Y383189D01*
X303518Y383280D01*
X303449Y383374D01*
X303382Y383469D01*
X303319Y383567D01*
X303259Y383667D01*
X303203Y383769D01*
X303150Y383872D01*
X303100Y383977D01*
X303054Y384084D01*
X303011Y384192D01*
X302972Y384302D01*
X302936Y384413D01*
X302904Y384525D01*
X302876Y384638D01*
X302851Y384751D01*
X302830Y384866D01*
X302813Y384981D01*
X302800Y385096D01*
X302791Y385212D01*
X302785Y385329D01*
X302783Y385445D01*
X302783Y394335D01*
X302785Y394451D01*
X302791Y394568D01*
X302800Y394684D01*
X302813Y394799D01*
X302830Y394914D01*
X302851Y395029D01*
X302876Y395142D01*
X302904Y395255D01*
X302936Y395367D01*
X302972Y395478D01*
X303011Y395588D01*
X303054Y395696D01*
X303100Y395803D01*
X303150Y395908D01*
X303203Y396011D01*
X303259Y396113D01*
X303319Y396213D01*
X303382Y396311D01*
X303449Y396406D01*
X303518Y396500D01*
X303590Y396591D01*
X303665Y396680D01*
X303744Y396766D01*
X303825Y396849D01*
X303908Y396930D01*
X303994Y397009D01*
X304083Y397084D01*
X304174Y397156D01*
X304268Y397225D01*
X304363Y397292D01*
X304461Y397355D01*
X304561Y397415D01*
X304663Y397471D01*
X304766Y397524D01*
X304871Y397574D01*
X304978Y397620D01*
X305086Y397663D01*
X305196Y397702D01*
X305307Y397738D01*
X305419Y397770D01*
X305532Y397798D01*
X305645Y397823D01*
X305760Y397844D01*
X305875Y397861D01*
X305990Y397874D01*
X306106Y397883D01*
X306223Y397889D01*
X306339Y397891D01*
X309895Y397891D01*
X320743Y397892D02*
X320869Y397890D01*
X320994Y397884D01*
X321120Y397874D01*
X321244Y397860D01*
X321369Y397843D01*
X321493Y397821D01*
X321616Y397796D01*
X321738Y397766D01*
X321859Y397733D01*
X321979Y397696D01*
X322098Y397655D01*
X322216Y397611D01*
X322332Y397563D01*
X322447Y397511D01*
X322559Y397456D01*
X322670Y397397D01*
X322780Y397335D01*
X322887Y397269D01*
X322992Y397200D01*
X323095Y397128D01*
X323195Y397052D01*
X323293Y396974D01*
X323389Y396892D01*
X323482Y396808D01*
X323572Y396720D01*
X323660Y396630D01*
X323744Y396537D01*
X323826Y396441D01*
X323904Y396343D01*
X323980Y396243D01*
X324052Y396140D01*
X324121Y396035D01*
X324187Y395928D01*
X324249Y395818D01*
X324308Y395707D01*
X324363Y395595D01*
X324415Y395480D01*
X324463Y395364D01*
X324507Y395246D01*
X324548Y395127D01*
X324585Y395007D01*
X324618Y394886D01*
X324648Y394764D01*
X324673Y394641D01*
X324695Y394517D01*
X324712Y394392D01*
X324726Y394268D01*
X324736Y394142D01*
X324742Y394017D01*
X324744Y393891D01*
X320743Y397891D02*
X320602Y397889D01*
X320462Y397883D01*
X320322Y397874D01*
X320182Y397860D01*
X320043Y397843D01*
X319904Y397822D01*
X319765Y397797D01*
X319628Y397769D01*
X319491Y397736D01*
X319355Y397700D01*
X319220Y397660D01*
X319087Y397617D01*
X318954Y397570D01*
X318823Y397519D01*
X318694Y397465D01*
X318566Y397407D01*
X318439Y397346D01*
X318314Y397281D01*
X318192Y397213D01*
X318071Y397142D01*
X317951Y397067D01*
X317835Y396989D01*
X317720Y396908D01*
X317607Y396824D01*
X317497Y396736D01*
X317389Y396646D01*
X317284Y396553D01*
X317182Y396457D01*
X317082Y396358D01*
X316984Y396257D01*
X316890Y396153D01*
X316798Y396046D01*
X316710Y395937D01*
X316624Y395826D01*
X316542Y395712D01*
X316462Y395596D01*
X316386Y395478D01*
X316313Y395358D01*
X316244Y395236D01*
X316177Y395112D01*
X316114Y394986D01*
X316055Y394859D01*
X315999Y394730D01*
X315947Y394600D01*
X315898Y394468D01*
X315853Y394335D01*
X323409Y390779D02*
X323501Y390870D01*
X323591Y390963D01*
X323677Y391058D01*
X323761Y391156D01*
X323841Y391257D01*
X323919Y391360D01*
X323993Y391465D01*
X324064Y391573D01*
X324132Y391682D01*
X324196Y391794D01*
X324258Y391907D01*
X324315Y392022D01*
X324370Y392139D01*
X324421Y392258D01*
X324468Y392378D01*
X324511Y392499D01*
X324551Y392621D01*
X324587Y392745D01*
X324620Y392870D01*
X324649Y392995D01*
X324674Y393122D01*
X324695Y393249D01*
X324712Y393377D01*
X324726Y393505D01*
X324735Y393633D01*
X324741Y393762D01*
X324743Y393891D01*
X323410Y390779D02*
X315853Y381889D01*
X324743Y381889D01*
D10*
X590550Y711200D02*
X594360Y715010D01*
X595630Y746760D01*
X450850Y711200D02*
X447040Y715010D01*
X445770Y746760D01*
X584200Y711200D02*
X590550Y711200D01*
X566420Y711200D02*
X529590Y711200D01*
X511810Y711200D02*
X474980Y711200D01*
X457200Y711200D02*
X450850Y711200D01*
D17*
X520700Y756285D03*
D18*
X447040Y748665D03*
D19*
X493395Y748665D03*
X548005Y748665D03*
D18*
X594360Y748665D03*
D13*
X445135Y702310D02*
X445135Y697230D01*
X445135Y702310D02*
X445137Y702421D01*
X445143Y702531D01*
X445152Y702642D01*
X445166Y702752D01*
X445183Y702861D01*
X445204Y702970D01*
X445229Y703078D01*
X445258Y703185D01*
X445290Y703291D01*
X445326Y703396D01*
X445366Y703499D01*
X445409Y703601D01*
X445456Y703702D01*
X445507Y703801D01*
X445560Y703898D01*
X445617Y703992D01*
X445678Y704085D01*
X445741Y704176D01*
X445808Y704265D01*
X445878Y704351D01*
X445951Y704434D01*
X446026Y704516D01*
X446104Y704594D01*
X446186Y704669D01*
X446269Y704742D01*
X446355Y704812D01*
X446444Y704879D01*
X446535Y704942D01*
X446628Y705003D01*
X446723Y705060D01*
X446819Y705113D01*
X446918Y705164D01*
X447019Y705211D01*
X447121Y705254D01*
X447224Y705294D01*
X447329Y705330D01*
X447435Y705362D01*
X447542Y705391D01*
X447650Y705416D01*
X447759Y705437D01*
X447868Y705454D01*
X447978Y705468D01*
X448089Y705477D01*
X448199Y705483D01*
X448310Y705485D01*
X448421Y705483D01*
X448531Y705477D01*
X448642Y705468D01*
X448752Y705454D01*
X448861Y705437D01*
X448970Y705416D01*
X449078Y705391D01*
X449185Y705362D01*
X449291Y705330D01*
X449396Y705294D01*
X449499Y705254D01*
X449601Y705211D01*
X449702Y705164D01*
X449801Y705113D01*
X449898Y705060D01*
X449992Y705003D01*
X450085Y704942D01*
X450176Y704879D01*
X450265Y704812D01*
X450351Y704742D01*
X450434Y704669D01*
X450516Y704594D01*
X450594Y704516D01*
X450669Y704434D01*
X450742Y704351D01*
X450812Y704265D01*
X450879Y704176D01*
X450942Y704085D01*
X451003Y703992D01*
X451060Y703898D01*
X451113Y703801D01*
X451164Y703702D01*
X451211Y703601D01*
X451254Y703499D01*
X451294Y703396D01*
X451330Y703291D01*
X451362Y703185D01*
X451391Y703078D01*
X451416Y702970D01*
X451437Y702861D01*
X451454Y702752D01*
X451468Y702642D01*
X451477Y702531D01*
X451483Y702421D01*
X451485Y702310D01*
X451485Y697230D01*
X451483Y697119D01*
X451477Y697009D01*
X451468Y696898D01*
X451454Y696788D01*
X451437Y696679D01*
X451416Y696570D01*
X451391Y696462D01*
X451362Y696355D01*
X451330Y696249D01*
X451294Y696144D01*
X451254Y696041D01*
X451211Y695939D01*
X451164Y695838D01*
X451113Y695739D01*
X451060Y695643D01*
X451003Y695548D01*
X450942Y695455D01*
X450879Y695364D01*
X450812Y695275D01*
X450742Y695189D01*
X450669Y695106D01*
X450594Y695024D01*
X450516Y694946D01*
X450434Y694871D01*
X450351Y694798D01*
X450265Y694728D01*
X450176Y694661D01*
X450085Y694598D01*
X449992Y694537D01*
X449897Y694480D01*
X449801Y694427D01*
X449702Y694376D01*
X449601Y694329D01*
X449499Y694286D01*
X449396Y694246D01*
X449291Y694210D01*
X449185Y694178D01*
X449078Y694149D01*
X448970Y694124D01*
X448861Y694103D01*
X448752Y694086D01*
X448642Y694072D01*
X448531Y694063D01*
X448421Y694057D01*
X448310Y694055D01*
X448199Y694057D01*
X448089Y694063D01*
X447978Y694072D01*
X447868Y694086D01*
X447759Y694103D01*
X447650Y694124D01*
X447542Y694149D01*
X447435Y694178D01*
X447329Y694210D01*
X447224Y694246D01*
X447121Y694286D01*
X447019Y694329D01*
X446918Y694376D01*
X446819Y694427D01*
X446723Y694480D01*
X446628Y694537D01*
X446535Y694598D01*
X446444Y694661D01*
X446355Y694728D01*
X446269Y694798D01*
X446186Y694871D01*
X446104Y694946D01*
X446026Y695024D01*
X445951Y695106D01*
X445878Y695189D01*
X445808Y695275D01*
X445741Y695364D01*
X445678Y695455D01*
X445617Y695548D01*
X445560Y695643D01*
X445507Y695739D01*
X445456Y695838D01*
X445409Y695939D01*
X445366Y696041D01*
X445326Y696144D01*
X445290Y696249D01*
X445258Y696355D01*
X445229Y696462D01*
X445204Y696570D01*
X445183Y696679D01*
X445166Y696788D01*
X445152Y696898D01*
X445143Y697009D01*
X445137Y697119D01*
X445135Y697230D01*
X450215Y696595D02*
X452755Y694055D01*
X456196Y702945D02*
X459371Y705485D01*
X459371Y694055D01*
X456196Y694055D02*
X462546Y694055D01*
D20*
X831850Y189900D02*
X831833Y188519D01*
X831783Y187139D01*
X831700Y185760D01*
X831583Y184384D01*
X831433Y183011D01*
X831250Y181642D01*
X831034Y180278D01*
X830785Y178920D01*
X830504Y177568D01*
X830189Y176223D01*
X829843Y174886D01*
X829464Y173558D01*
X829053Y172240D01*
X828610Y170931D01*
X828136Y169634D01*
X827631Y168349D01*
X827095Y167076D01*
X826528Y165817D01*
X825931Y164572D01*
X825304Y163341D01*
X824647Y162126D01*
X823962Y160927D01*
X823247Y159745D01*
X822504Y158581D01*
X821734Y157435D01*
X820935Y156308D01*
X820110Y155201D01*
X819258Y154114D01*
X818381Y153047D01*
X817477Y152003D01*
X816549Y150980D01*
X815596Y149980D01*
X814620Y149004D01*
X813620Y148051D01*
X812597Y147123D01*
X811553Y146219D01*
X810486Y145342D01*
X809399Y144490D01*
X808292Y143665D01*
X807165Y142866D01*
X806019Y142096D01*
X804855Y141353D01*
X803673Y140638D01*
X802474Y139953D01*
X801259Y139296D01*
X800028Y138669D01*
X798783Y138072D01*
X797524Y137505D01*
X796251Y136969D01*
X794966Y136464D01*
X793669Y135990D01*
X792360Y135547D01*
X791042Y135136D01*
X789714Y134757D01*
X788377Y134411D01*
X787032Y134096D01*
X785680Y133815D01*
X784322Y133566D01*
X782958Y133350D01*
X781589Y133167D01*
X780216Y133017D01*
X778840Y132900D01*
X777461Y132817D01*
X776081Y132767D01*
X774700Y132750D01*
X831850Y189900D02*
X831850Y212125D01*
X831850Y243840D01*
X831850Y543560D01*
X831850Y574775D01*
X831850Y597000D01*
X831833Y598381D01*
X831783Y599761D01*
X831700Y601140D01*
X831583Y602516D01*
X831433Y603889D01*
X831250Y605258D01*
X831034Y606622D01*
X830785Y607980D01*
X830504Y609332D01*
X830189Y610677D01*
X829843Y612014D01*
X829464Y613342D01*
X829053Y614660D01*
X828610Y615969D01*
X828136Y617266D01*
X827631Y618551D01*
X827095Y619824D01*
X826528Y621083D01*
X825931Y622328D01*
X825304Y623559D01*
X824647Y624774D01*
X823962Y625973D01*
X823247Y627155D01*
X822504Y628319D01*
X821734Y629465D01*
X820935Y630592D01*
X820110Y631699D01*
X819258Y632786D01*
X818381Y633853D01*
X817477Y634897D01*
X816549Y635920D01*
X815596Y636920D01*
X814620Y637896D01*
X813620Y638849D01*
X812597Y639777D01*
X811553Y640681D01*
X810486Y641558D01*
X809399Y642410D01*
X808292Y643235D01*
X807165Y644034D01*
X806019Y644804D01*
X804855Y645547D01*
X803673Y646262D01*
X802474Y646947D01*
X801259Y647604D01*
X800028Y648231D01*
X798783Y648828D01*
X797524Y649395D01*
X796251Y649931D01*
X794966Y650436D01*
X793669Y650910D01*
X792360Y651353D01*
X791042Y651764D01*
X789714Y652143D01*
X788377Y652489D01*
X787032Y652804D01*
X785680Y653085D01*
X784322Y653334D01*
X782958Y653550D01*
X781589Y653733D01*
X780216Y653883D01*
X778840Y654000D01*
X777461Y654083D01*
X776081Y654133D01*
X774700Y654150D01*
X773319Y654133D01*
X771939Y654083D01*
X770560Y654000D01*
X769184Y653883D01*
X767811Y653733D01*
X766442Y653550D01*
X765078Y653334D01*
X763720Y653085D01*
X762368Y652804D01*
X761023Y652489D01*
X759686Y652143D01*
X758358Y651764D01*
X757040Y651353D01*
X755731Y650910D01*
X754434Y650436D01*
X753149Y649931D01*
X751876Y649395D01*
X750617Y648828D01*
X749372Y648231D01*
X748141Y647604D01*
X746926Y646947D01*
X745727Y646262D01*
X744545Y645547D01*
X743381Y644804D01*
X742235Y644034D01*
X741108Y643235D01*
X740001Y642410D01*
X738914Y641558D01*
X737847Y640681D01*
X736803Y639777D01*
X735780Y638849D01*
X734780Y637896D01*
X733804Y636920D01*
X732851Y635920D01*
X731923Y634897D01*
X731019Y633853D01*
X730142Y632786D01*
X729290Y631699D01*
X728465Y630592D01*
X727666Y629465D01*
X726896Y628319D01*
X726153Y627155D01*
X725438Y625973D01*
X724753Y624774D01*
X724096Y623559D01*
X723469Y622328D01*
X722872Y621083D01*
X722305Y619824D01*
X721769Y618551D01*
X721264Y617266D01*
X720790Y615969D01*
X720347Y614660D01*
X719936Y613342D01*
X719557Y612014D01*
X719211Y610677D01*
X718896Y609332D01*
X718615Y607980D01*
X718366Y606622D01*
X718150Y605258D01*
X717967Y603889D01*
X717817Y602516D01*
X717700Y601140D01*
X717617Y599761D01*
X717567Y598381D01*
X717550Y597000D01*
X717550Y574775D01*
X717550Y543560D01*
X717550Y243840D01*
X717550Y212125D01*
X717550Y189900D01*
X717567Y188519D01*
X717617Y187139D01*
X717700Y185760D01*
X717817Y184384D01*
X717967Y183011D01*
X718150Y181642D01*
X718366Y180278D01*
X718615Y178920D01*
X718896Y177568D01*
X719211Y176223D01*
X719557Y174886D01*
X719936Y173558D01*
X720347Y172240D01*
X720790Y170931D01*
X721264Y169634D01*
X721769Y168349D01*
X722305Y167076D01*
X722872Y165817D01*
X723469Y164572D01*
X724096Y163341D01*
X724753Y162126D01*
X725438Y160927D01*
X726153Y159745D01*
X726896Y158581D01*
X727666Y157435D01*
X728465Y156308D01*
X729290Y155201D01*
X730142Y154114D01*
X731019Y153047D01*
X731923Y152003D01*
X732851Y150980D01*
X733804Y149980D01*
X734780Y149004D01*
X735780Y148051D01*
X736803Y147123D01*
X737847Y146219D01*
X738914Y145342D01*
X740001Y144490D01*
X741108Y143665D01*
X742235Y142866D01*
X743381Y142096D01*
X744545Y141353D01*
X745727Y140638D01*
X746926Y139953D01*
X748141Y139296D01*
X749372Y138669D01*
X750617Y138072D01*
X751876Y137505D01*
X753149Y136969D01*
X754434Y136464D01*
X755731Y135990D01*
X757040Y135547D01*
X758358Y135136D01*
X759686Y134757D01*
X761023Y134411D01*
X762368Y134096D01*
X763720Y133815D01*
X765078Y133566D01*
X766442Y133350D01*
X767811Y133167D01*
X769184Y133017D01*
X770560Y132900D01*
X771939Y132817D01*
X773319Y132767D01*
X774700Y132750D01*
X831850Y543560D02*
X875060Y543560D01*
X876441Y543543D01*
X877821Y543493D01*
X879200Y543410D01*
X880576Y543293D01*
X881949Y543143D01*
X883318Y542960D01*
X884682Y542744D01*
X886040Y542495D01*
X887392Y542214D01*
X888737Y541899D01*
X890074Y541553D01*
X891402Y541174D01*
X892720Y540763D01*
X894029Y540320D01*
X895326Y539846D01*
X896611Y539341D01*
X897884Y538805D01*
X899143Y538238D01*
X900388Y537641D01*
X901619Y537014D01*
X902834Y536357D01*
X904033Y535672D01*
X905215Y534957D01*
X906379Y534214D01*
X907525Y533444D01*
X908652Y532645D01*
X909759Y531820D01*
X910846Y530968D01*
X911913Y530091D01*
X912957Y529187D01*
X913980Y528259D01*
X914980Y527306D01*
X915956Y526330D01*
X916909Y525330D01*
X917837Y524307D01*
X918741Y523263D01*
X919618Y522196D01*
X920470Y521109D01*
X921295Y520002D01*
X922094Y518875D01*
X922864Y517729D01*
X923607Y516565D01*
X924322Y515383D01*
X925007Y514184D01*
X925664Y512969D01*
X926291Y511738D01*
X926888Y510493D01*
X927455Y509234D01*
X927991Y507961D01*
X928496Y506676D01*
X928970Y505379D01*
X929413Y504070D01*
X929824Y502752D01*
X930203Y501424D01*
X930549Y500087D01*
X930864Y498742D01*
X931145Y497390D01*
X931394Y496032D01*
X931610Y494668D01*
X931793Y493299D01*
X931943Y491926D01*
X932060Y490550D01*
X932143Y489171D01*
X932193Y487791D01*
X932210Y486410D01*
X932210Y300990D01*
X932193Y299609D01*
X932143Y298229D01*
X932060Y296850D01*
X931943Y295474D01*
X931793Y294101D01*
X931610Y292732D01*
X931394Y291368D01*
X931145Y290010D01*
X930864Y288658D01*
X930549Y287313D01*
X930203Y285976D01*
X929824Y284648D01*
X929413Y283330D01*
X928970Y282021D01*
X928496Y280724D01*
X927991Y279439D01*
X927455Y278166D01*
X926888Y276907D01*
X926291Y275662D01*
X925664Y274431D01*
X925007Y273216D01*
X924322Y272017D01*
X923607Y270835D01*
X922864Y269671D01*
X922094Y268525D01*
X921295Y267398D01*
X920470Y266291D01*
X919618Y265204D01*
X918741Y264137D01*
X917837Y263093D01*
X916909Y262070D01*
X915956Y261070D01*
X914980Y260094D01*
X913980Y259141D01*
X912957Y258213D01*
X911913Y257309D01*
X910846Y256432D01*
X909759Y255580D01*
X908652Y254755D01*
X907525Y253956D01*
X906379Y253186D01*
X905215Y252443D01*
X904033Y251728D01*
X902834Y251043D01*
X901619Y250386D01*
X900388Y249759D01*
X899143Y249162D01*
X897884Y248595D01*
X896611Y248059D01*
X895326Y247554D01*
X894029Y247080D01*
X892720Y246637D01*
X891402Y246226D01*
X890074Y245847D01*
X888737Y245501D01*
X887392Y245186D01*
X886040Y244905D01*
X884682Y244656D01*
X883318Y244440D01*
X881949Y244257D01*
X880576Y244107D01*
X879200Y243990D01*
X877821Y243907D01*
X876441Y243857D01*
X875060Y243840D01*
X831850Y243840D01*
X717550Y243840D02*
X674840Y243840D01*
X673459Y243857D01*
X672079Y243907D01*
X670700Y243990D01*
X669324Y244107D01*
X667951Y244257D01*
X666582Y244440D01*
X665218Y244656D01*
X663860Y244905D01*
X662508Y245186D01*
X661163Y245501D01*
X659826Y245847D01*
X658498Y246226D01*
X657180Y246637D01*
X655871Y247080D01*
X654574Y247554D01*
X653289Y248059D01*
X652016Y248595D01*
X650757Y249162D01*
X649512Y249759D01*
X648281Y250386D01*
X647066Y251043D01*
X645867Y251728D01*
X644685Y252443D01*
X643521Y253186D01*
X642375Y253956D01*
X641248Y254755D01*
X640141Y255580D01*
X639054Y256432D01*
X637987Y257309D01*
X636943Y258213D01*
X635920Y259141D01*
X634920Y260094D01*
X633944Y261070D01*
X632991Y262070D01*
X632063Y263093D01*
X631159Y264137D01*
X630282Y265204D01*
X629430Y266291D01*
X628605Y267398D01*
X627806Y268525D01*
X627036Y269671D01*
X626293Y270835D01*
X625578Y272017D01*
X624893Y273216D01*
X624236Y274431D01*
X623609Y275662D01*
X623012Y276907D01*
X622445Y278166D01*
X621909Y279439D01*
X621404Y280724D01*
X620930Y282021D01*
X620487Y283330D01*
X620076Y284648D01*
X619697Y285976D01*
X619351Y287313D01*
X619036Y288658D01*
X618755Y290010D01*
X618506Y291368D01*
X618290Y292732D01*
X618107Y294101D01*
X617957Y295474D01*
X617840Y296850D01*
X617757Y298229D01*
X617707Y299609D01*
X617690Y300990D01*
X617690Y486410D01*
X617707Y487791D01*
X617757Y489171D01*
X617840Y490550D01*
X617957Y491926D01*
X618107Y493299D01*
X618290Y494668D01*
X618506Y496032D01*
X618755Y497390D01*
X619036Y498742D01*
X619351Y500087D01*
X619697Y501424D01*
X620076Y502752D01*
X620487Y504070D01*
X620930Y505379D01*
X621404Y506676D01*
X621909Y507961D01*
X622445Y509234D01*
X623012Y510493D01*
X623609Y511738D01*
X624236Y512969D01*
X624893Y514184D01*
X625578Y515383D01*
X626293Y516565D01*
X627036Y517729D01*
X627806Y518875D01*
X628605Y520002D01*
X629430Y521109D01*
X630282Y522196D01*
X631159Y523263D01*
X632063Y524307D01*
X632991Y525330D01*
X633944Y526330D01*
X634920Y527306D01*
X635920Y528259D01*
X636943Y529187D01*
X637987Y530091D01*
X639054Y530968D01*
X640141Y531820D01*
X641248Y532645D01*
X642375Y533444D01*
X643521Y534214D01*
X644685Y534957D01*
X645867Y535672D01*
X647066Y536357D01*
X648281Y537014D01*
X649512Y537641D01*
X650757Y538238D01*
X652016Y538805D01*
X653289Y539341D01*
X654574Y539846D01*
X655871Y540320D01*
X657180Y540763D01*
X658498Y541174D01*
X659826Y541553D01*
X661163Y541899D01*
X662508Y542214D01*
X663860Y542495D01*
X665218Y542744D01*
X666582Y542960D01*
X667951Y543143D01*
X669324Y543293D01*
X670700Y543410D01*
X672079Y543493D01*
X673459Y543543D01*
X674840Y543560D01*
X717550Y543560D01*
X717550Y212125D02*
X831850Y212125D01*
X831850Y574775D02*
X717550Y574775D01*
D15*
X947958Y206954D02*
X959642Y206954D01*
X947958Y203708D02*
X947958Y210199D01*
X947958Y214831D02*
X959642Y214831D01*
X947958Y214831D02*
X947958Y218076D01*
X947960Y218189D01*
X947966Y218302D01*
X947976Y218415D01*
X947990Y218528D01*
X948007Y218640D01*
X948029Y218751D01*
X948054Y218861D01*
X948084Y218971D01*
X948117Y219079D01*
X948154Y219186D01*
X948194Y219292D01*
X948239Y219396D01*
X948287Y219499D01*
X948338Y219600D01*
X948393Y219699D01*
X948451Y219796D01*
X948513Y219891D01*
X948578Y219984D01*
X948646Y220074D01*
X948717Y220162D01*
X948792Y220248D01*
X948869Y220331D01*
X948949Y220411D01*
X949032Y220488D01*
X949118Y220563D01*
X949206Y220634D01*
X949296Y220702D01*
X949389Y220767D01*
X949484Y220829D01*
X949581Y220887D01*
X949680Y220942D01*
X949781Y220993D01*
X949884Y221041D01*
X949988Y221086D01*
X950094Y221126D01*
X950201Y221163D01*
X950309Y221196D01*
X950419Y221226D01*
X950529Y221251D01*
X950640Y221273D01*
X950752Y221290D01*
X950865Y221304D01*
X950978Y221314D01*
X951091Y221320D01*
X951204Y221322D01*
X951317Y221320D01*
X951430Y221314D01*
X951543Y221304D01*
X951656Y221290D01*
X951768Y221273D01*
X951879Y221251D01*
X951989Y221226D01*
X952099Y221196D01*
X952207Y221163D01*
X952314Y221126D01*
X952420Y221086D01*
X952524Y221041D01*
X952627Y220993D01*
X952728Y220942D01*
X952827Y220887D01*
X952924Y220829D01*
X953019Y220767D01*
X953112Y220702D01*
X953202Y220634D01*
X953290Y220563D01*
X953376Y220488D01*
X953459Y220411D01*
X953539Y220331D01*
X953616Y220248D01*
X953691Y220162D01*
X953762Y220074D01*
X953830Y219984D01*
X953895Y219891D01*
X953957Y219796D01*
X954015Y219699D01*
X954070Y219600D01*
X954121Y219499D01*
X954169Y219396D01*
X954214Y219292D01*
X954254Y219186D01*
X954291Y219079D01*
X954324Y218971D01*
X954354Y218861D01*
X954379Y218751D01*
X954401Y218640D01*
X954418Y218528D01*
X954432Y218415D01*
X954442Y218302D01*
X954448Y218189D01*
X954450Y218076D01*
X954449Y218076D02*
X954449Y214831D01*
X954449Y218725D02*
X959642Y221322D01*
X950554Y226187D02*
X947958Y229432D01*
X959642Y229432D01*
X959642Y226187D02*
X959642Y232678D01*
D20*
X965200Y107950D02*
X914400Y107950D01*
X965200Y107950D02*
X965200Y88900D01*
X965200Y44450D01*
X914400Y44450D01*
X914400Y88900D01*
X914400Y107950D01*
X914400Y88900D02*
X965200Y88900D01*
D15*
X921004Y123952D02*
X914908Y114808D01*
X921004Y114808D02*
X914908Y123952D01*
X924560Y121920D02*
X927100Y123952D01*
X927100Y114808D01*
X924560Y114808D02*
X929640Y114808D01*
D20*
X952500Y768350D02*
X901700Y768350D01*
X952500Y768350D02*
X952500Y749300D01*
X952500Y704850D01*
X901700Y704850D01*
X901700Y749300D01*
X901700Y768350D01*
X901700Y749300D02*
X952500Y749300D01*
D15*
X908304Y784352D02*
X902208Y775208D01*
X908304Y775208D02*
X902208Y784352D01*
X914654Y784352D02*
X914748Y784350D01*
X914843Y784344D01*
X914937Y784334D01*
X915030Y784321D01*
X915123Y784303D01*
X915215Y784282D01*
X915306Y784257D01*
X915396Y784228D01*
X915485Y784196D01*
X915572Y784159D01*
X915658Y784120D01*
X915742Y784076D01*
X915824Y784030D01*
X915904Y783980D01*
X915982Y783926D01*
X916058Y783870D01*
X916131Y783810D01*
X916202Y783748D01*
X916270Y783682D01*
X916336Y783614D01*
X916398Y783543D01*
X916458Y783470D01*
X916514Y783394D01*
X916568Y783316D01*
X916618Y783236D01*
X916664Y783154D01*
X916708Y783070D01*
X916747Y782984D01*
X916784Y782897D01*
X916816Y782808D01*
X916845Y782718D01*
X916870Y782627D01*
X916891Y782535D01*
X916909Y782442D01*
X916922Y782349D01*
X916932Y782255D01*
X916938Y782160D01*
X916940Y782066D01*
X914654Y784352D02*
X914548Y784350D01*
X914443Y784344D01*
X914338Y784335D01*
X914233Y784322D01*
X914129Y784305D01*
X914026Y784284D01*
X913923Y784260D01*
X913821Y784231D01*
X913721Y784200D01*
X913621Y784164D01*
X913523Y784126D01*
X913427Y784083D01*
X913331Y784037D01*
X913238Y783988D01*
X913147Y783936D01*
X913057Y783880D01*
X912969Y783821D01*
X912884Y783759D01*
X912801Y783694D01*
X912720Y783626D01*
X912642Y783555D01*
X912567Y783481D01*
X912494Y783405D01*
X912424Y783326D01*
X912357Y783245D01*
X912292Y783161D01*
X912231Y783075D01*
X912173Y782987D01*
X912118Y782897D01*
X912067Y782805D01*
X912018Y782711D01*
X911973Y782615D01*
X911932Y782518D01*
X911894Y782420D01*
X911860Y782320D01*
X916178Y780288D02*
X916245Y780355D01*
X916310Y780424D01*
X916372Y780496D01*
X916431Y780569D01*
X916487Y780646D01*
X916541Y780724D01*
X916591Y780804D01*
X916638Y780886D01*
X916682Y780970D01*
X916722Y781056D01*
X916760Y781143D01*
X916794Y781231D01*
X916824Y781321D01*
X916851Y781411D01*
X916875Y781503D01*
X916895Y781596D01*
X916911Y781689D01*
X916924Y781783D01*
X916933Y781877D01*
X916938Y781971D01*
X916940Y782066D01*
X916178Y780288D02*
X911860Y775208D01*
X916940Y775208D01*
M02*
